<svg xmlns="http://www.w3.org/2000/svg" fill="none" viewBox="0 0 16 16"><path fill="#000" fill-rule="evenodd" d="M8 1.375a4.825 4.825 0 0 0-4.82 4.59l-.065 1.354a4.164 4.164 0 0 1-.864 2.328c-.621.809-.044 1.978.975 1.978h9.548c1.02 0 1.596-1.17.975-1.978a4.164 4.164 0 0 1-.864-2.328l-.066-1.354A4.825 4.825 0 0 0 8 1.375Zm-3.57 4.65a3.575 3.575 0 0 1 7.14 0l.067 1.355a5.361 5.361 0 0 0 1.096 2.995H3.267A5.36 5.36 0 0 0 4.363 7.38l.066-1.354Z" clip-rule="evenodd"/><path fill="#000" d="M6.488 12.61a.625.625 0 0 0-.976.78c.596.744 1.482 1.235 2.488 1.235s1.892-.49 2.488-1.234a.625.625 0 1 0-.976-.782c-.387.484-.93.766-1.512.766-.583 0-1.125-.282-1.512-.766Z"/></svg>