<svg xmlns="http://www.w3.org/2000/svg" viewBox="0 0 16 16"><path d="M1.75 3a.75.75 0 0 0-1.5 0v10a.75.75 0 0 0 1.5 0V8.75h5.5V13a.75.75 0 0 0 1.5 0V3a.75.75 0 0 0-1.5 0v4.25h-5.5V3Zm9.194 4.845c-.15.27-.252.587-.305.95l.82.145c.21.033.372.02.485-.04.113-.06.205-.182.275-.365a.926.926 0 0 1 .91-.635c.284 0 .494.078.63.235.14.153.21.373.21.66a1.4 1.4 0 0 1-.05.385.589.589 0 0 1-.205.3c-.1.08-.243.143-.43.19a3.13 3.13 0 0 1-.735.07v1.07c.36 0 .64.025.84.075.204.047.355.115.455.205.1.09.16.198.18.325.024.123.035.263.035.42 0 .12-.021.238-.065.355a.939.939 0 0 1-.515.54 1.095 1.095 0 0 1-.45.085.986.986 0 0 1-.595-.185c-.166-.127-.325-.328-.475-.605a.469.469 0 0 0-.33-.23.862.862 0 0 0-.5.055l-.69.28c.117.34.254.633.41.88.16.247.345.45.555.61.21.157.45.273.72.35.27.073.579.11.925.11.337 0 .66-.047.97-.14.31-.097.582-.24.815-.43.237-.19.425-.428.565-.715.14-.287.21-.623.21-1.01 0-.817-.403-1.367-1.21-1.65.174-.06.327-.133.46-.22.137-.09.25-.198.34-.325a1.37 1.37 0 0 0 .21-.455c.047-.177.07-.38.07-.61a1.764 1.764 0 0 0-.59-1.325 2.114 2.114 0 0 0-.71-.41 2.77 2.77 0 0 0-.96-.155 3.14 3.14 0 0 0-.935.135c-.29.087-.548.22-.775.4-.223.18-.412.405-.565.675Z"/></svg>