<svg xmlns="http://www.w3.org/2000/svg" viewBox="0 0 16 16"><path d="M1.75 3a.75.75 0 0 0-1.5 0v10a.75.75 0 0 0 1.5 0V8.75h5.5V13a.75.75 0 0 0 1.5 0V3a.75.75 0 0 0-1.5 0v4.25h-5.5V3Z"/><path fill-rule="evenodd" d="M13.62 9.385c-.287 0-.547.043-.78.13l.19-.22 2.16-2.58h-1.38c-.187 0-.354.035-.5.105a.937.937 0 0 0-.33.25l-1.64 2.215c-.554.74-.83 1.468-.83 2.185 0 .383.058.735.174 1.055.12.32.292.595.515.825.227.23.502.41.825.54.324.127.689.19 1.095.19.397 0 .759-.067 1.085-.2a2.54 2.54 0 0 0 .835-.54c.234-.23.414-.497.54-.8.127-.307.19-.63.19-.97 0-.373-.063-.697-.19-.97a1.969 1.969 0 0 0-.49-.685 1.992 1.992 0 0 0-.69-.4 2.424 2.424 0 0 0-.78-.13Zm-.086 3.38c-.136.06-.285.09-.445.09a1.34 1.34 0 0 1-.485-.08.9.9 0 0 1-.34-.24.992.992 0 0 1-.2-.37A1.675 1.675 0 0 1 12 11.68c0-.18.027-.342.08-.485.054-.143.127-.267.22-.37a.96.96 0 0 1 .34-.235c.13-.057.274-.085.43-.085.173 0 .33.027.47.08.143.053.265.13.365.23.1.1.177.223.23.37.057.147.085.313.085.5 0 .167-.03.322-.09.465-.056.14-.135.263-.235.37a1.1 1.1 0 0 1-.36.245Z" clip-rule="evenodd"/></svg>