<svg xmlns="http://www.w3.org/2000/svg" viewBox="0 0 16 16"><path fill-rule="evenodd" d="M12.97 14.27a.613.613 0 0 1-.094.073 8 8 0 1 1 .093-.073ZM8 1.23a6.77 6.77 0 0 0-5.875 10.134l.276-.277a.205.205 0 0 0 .06-.145V8.673c0-.3.094-.59.268-.834l1.458-2.042a1.436 1.436 0 0 1 1.907-.396l1.16.695a.204.204 0 0 0 .13.027l2.67-.333a.205.205 0 0 0 .135-.076l1.253-1.566a.205.205 0 0 0 .045-.128V2.197A6.738 6.738 0 0 0 8 1.23Zm4.718 1.916v.874c0 .326-.111.642-.315.897L11.15 6.483a1.436 1.436 0 0 1-.943.528l-2.67.334a1.436 1.436 0 0 1-.917-.194l-1.159-.695a.205.205 0 0 0-.272.057L3.73 8.554a.205.205 0 0 0-.039.12v2.268c0 .381-.151.746-.42 1.015l-.428.429A6.754 6.754 0 0 0 8 14.769c1.32 0 2.55-.377 3.592-1.03l-.317-.315-1.653-.43a1.23 1.23 0 0 1-.893-1.367l.18-1.26a1.246 1.246 0 0 1 .744-.942l2.34-.978a1.23 1.23 0 0 1 1.309.231L14.527 9.8A6.775 6.775 0 0 0 14.77 8a6.749 6.749 0 0 0-2.051-4.854Zm-.139 9.84a6.793 6.793 0 0 0 1.474-1.951l-1.584-1.45c-.339.14-2.346.984-2.346.984l-.176 1.237 1.656.432c.207.057.396.167.547.319l.429.429Z" clip-rule="evenodd"/></svg>