<svg xmlns="http://www.w3.org/2000/svg" viewBox="0 0 16 16"><path d="M8 10a2 2 0 1 0 0-4 2 2 0 0 0 0 4Z"/><path fill-rule="evenodd" d="M7.126.25c-.907 0-1.642.735-1.642 1.642 0 .78-.863 1.29-1.566.888a1.655 1.655 0 0 0-2.25.598L.802 4.865a1.637 1.637 0 0 0 .602 2.246 1.025 1.025 0 0 1 0 1.778 1.637 1.637 0 0 0-.602 2.246l.866 1.487a1.655 1.655 0 0 0 2.25.598c.703-.402 1.566.108 1.566.888 0 .907.735 1.642 1.642 1.642h1.748c.907 0 1.642-.735 1.642-1.642 0-.78.863-1.29 1.566-.888.78.447 1.79.19 2.25-.598l.866-1.487a1.637 1.637 0 0 0-.602-2.246 1.025 1.025 0 0 1 0-1.778c.79-.452 1.06-1.46.602-2.246l-.866-1.487a1.655 1.655 0 0 0-2.25-.598c-.703.402-1.566-.108-1.566-.888C10.516.985 9.78.25 8.874.25H7.126Zm-.142 1.642c0-.078.064-.142.142-.142h1.748c.078 0 .142.064.142.142 0 1.961 2.134 3.15 3.81 2.19a.155.155 0 0 1 .21.051l.866 1.487a.137.137 0 0 1-.05.189c-1.695.97-1.695 3.413 0 4.382a.137.137 0 0 1 .05.189l-.866 1.487a.155.155 0 0 1-.21.051c-1.676-.96-3.81.229-3.81 2.19a.142.142 0 0 1-.142.142H7.126a.142.142 0 0 1-.142-.142c0-1.961-2.134-3.15-3.81-2.19a.155.155 0 0 1-.21-.051l-.866-1.487a.137.137 0 0 1 .05-.189c1.695-.97 1.695-3.413 0-4.382a.137.137 0 0 1-.05-.189l.866-1.487a.155.155 0 0 1 .21-.051c1.676.96 3.81-.229 3.81-2.19Z" clip-rule="evenodd"/></svg>