<svg xmlns="http://www.w3.org/2000/svg" viewBox="0 0 24 24"><path d="M9.75 3a.75.75 0 0 0-1.5 0v1a.75.75 0 0 0 1.5 0V3Z"/><path fill-rule="evenodd" d="M8.216 7.282a.75.75 0 0 0-.934.934l3.9 13a.75.75 0 0 0 1.414.063l2.481-6.202 6.202-2.48a.75.75 0 0 0-.064-1.415l-13-3.9ZM12 18.727 9.12 9.12 18.727 12l-4.505 1.803a.75.75 0 0 0-.418.418L12 18.727Z" clip-rule="evenodd"/><path d="M2.25 9A.75.75 0 0 1 3 8.25h1a.75.75 0 0 1 0 1.5H3A.75.75 0 0 1 2.25 9Zm2.78-5.03a.75.75 0 0 0-1.06 1.06l1 1a.75.75 0 0 0 1.06-1.06l-1-1Zm9 0a.75.75 0 0 0-1.06 0l-1 1a.75.75 0 0 0 1.06 1.06l1-1a.75.75 0 0 0 0-1.06Zm-9.06 8a.75.75 0 0 1 1.06 1.06l-1 1a.75.75 0 0 1-1.06-1.06l1-1Z"/></svg>