<svg xmlns="http://www.w3.org/2000/svg" fill="none" viewBox="0 0 24 24"><path fill="#FFCB4C" d="M12 22c5.523 0 10-4.477 10-10S17.523 2 12 2 2 6.477 2 12s4.477 10 10 10Z"/><path fill="#65471B" d="M9.955 14.364a.537.537 0 0 1-.183-.273.47.47 0 0 1 .347-.601c2.663-.6 4.457.802 4.533.862.226.18.27.497.102.709-.169.21-.487.236-.713.057-.065-.05-1.484-1.132-3.636-.646a.535.535 0 0 1-.45-.108Zm-.826-4.239c.69 0 1.25-.7 1.25-1.563S9.819 7 9.129 7s-1.25.7-1.25 1.562c0 .863.56 1.563 1.25 1.563Zm6.621.625c.69 0 1.25-.7 1.25-1.563s-.56-1.562-1.25-1.562-1.25.7-1.25 1.562c0 .863.56 1.562 1.25 1.562Z"/><path fill="#F19020" d="M11.574 22.665s.744-.241.84-.795c.103-.572-.366-.687-.366-.687s.612-.122.689-.809c.072-.647-.506-.802-.506-.802s.57-.235.597-.905c.023-.564-.585-.84-.585-.84s2.963-.718 3.268-.789c.304-.07.777-.361.629-.996-.147-.636-.708-.658-.998-.59-.29.067-3.967.92-5.236 1.216l-.846.197c-.318.074-.462-.065-.238-.301.3-.316.49-.665.557-1.243.07-.61-.137-1.361-.255-1.653-.22-.541-.591-.97-1.02-1.117-.669-.23-1.144.189-.907.918.355 1.091.122 1.986-.49 2.526-1.44 1.269-2.11 2.173-1.665 4.101.487 2.103 2.575 3.457 4.678 2.97l1.854-.4Z"/><path fill="#65471B" d="M6.88 5.725a.544.544 0 0 1-.23-.234.47.47 0 0 1 .231-.655c2.51-1.077 4.529-.025 4.614.02.254.136.357.44.23.68-.127.238-.436.32-.69.186-.073-.037-1.666-.842-3.693.028a.538.538 0 0 1-.462-.025Zm7.138 2.206a.544.544 0 0 1-.213-.25.47.47 0 0 1 .276-.637c2.577-.903 4.52.282 4.601.334.245.153.327.463.184.693-.142.229-.457.29-.7.14-.071-.043-1.605-.954-3.687-.223a.544.544 0 0 1-.46-.057Z"/></svg>