<svg xmlns="http://www.w3.org/2000/svg" viewBox="0 0 24 24"><path fill-rule="evenodd" d="M12 8.25a3.75 3.75 0 1 0 0 7.5 3.75 3.75 0 0 0 0-7.5ZM9.75 12a2.25 2.25 0 1 1 4.5 0 2.25 2.25 0 0 1-4.5 0Z" clip-rule="evenodd"/><path fill-rule="evenodd" d="M12 4.25c-2.735 0-5.158 1.37-6.872 2.948-.862.794-1.567 1.66-2.062 2.475-.479.79-.816 1.62-.816 2.327 0 .707.337 1.538.816 2.327.495.815 1.2 1.68 2.062 2.475C6.842 18.38 9.265 19.75 12 19.75c2.737 0 5.16-1.379 6.873-2.96.861-.795 1.566-1.662 2.06-2.475.479-.786.817-1.614.817-2.315 0-.7-.338-1.529-.817-2.315-.494-.813-1.199-1.68-2.06-2.475C17.16 5.629 14.737 4.25 12 4.25ZM3.75 12c0-.293.167-.837.598-1.548.416-.685 1.03-1.444 1.796-2.15C7.688 6.88 9.764 5.75 12 5.75c2.234 0 4.31 1.136 5.855 2.562.767.708 1.38 1.468 1.797 2.153.433.71.598 1.25.598 1.535 0 .285-.165.824-.598 1.535-.416.685-1.03 1.445-1.797 2.153-1.544 1.426-3.621 2.562-5.855 2.562-2.235 0-4.312-1.13-5.856-2.552-.767-.706-1.38-1.465-1.796-2.15-.431-.71-.598-1.255-.598-1.548Z" clip-rule="evenodd"/></svg>