<svg xmlns="http://www.w3.org/2000/svg" viewBox="0 0 24 24"><path fill-rule="evenodd" d="M17.55 4.4a.75.75 0 0 1 1.2.6v8.78a.75.75 0 0 1-.164.467c-.946 1.187-2.164 1.476-3.39 1.336-1.159-.132-2.39-.653-3.485-1.111-1.154-.483-2.174-.902-3.077-1.005-.756-.087-1.365.053-1.884.593V19a.75.75 0 0 1-1.5 0V5a.75.75 0 0 1 .3-.6c2.33-1.748 4.693-.86 6.611-.14 2.116.794 3.734 1.381 5.389.14Zm-10.8 7.848c.649-.29 1.35-.352 2.054-.272 1.138.13 2.345.635 3.426 1.087 1.179.493 2.217.925 3.136 1.03.756.086 1.365-.054 1.884-.594V6.281c-1.97.784-3.903.025-5.513-.579C9.8 4.976 8.276 4.447 6.75 5.395v6.853Z" clip-rule="evenodd"/></svg>