<svg xmlns="http://www.w3.org/2000/svg" fill="none" viewBox="0 0 24 24"><mask id="google-chrome_svg__a" width="22" height="22" x="1" y="1" maskUnits="userSpaceOnUse" style="mask-type:alpha"><path fill="#fff" d="M12 23c6.075 0 11-4.925 11-11S18.075 1 12 1 1 5.925 1 12s4.925 11 11 11Z"/></mask><g mask="url(#google-chrome_svg__a)"><path fill="#E8E8E8" d="M12 23c6.075 0 11-4.925 11-11S18.075 1 12 1 1 5.925 1 12s4.925 11 11 11Z"/><path fill="#DB4437" d="M2.75 1v13.531h4.937l4.338-7.517h11.026V1H2.75Z"/><path fill="#0F9D58" d="M1 23.05h10.495l4.872-4.87v-3.65H7.684L1 3.066V23.05Z"/><path fill="#FFCD40" d="m12.025 7.014 4.342 7.517-4.872 8.52h11.556V7.014H12.025Z"/><path fill="#FFCD40" d="m12.025 7.014 4.342 7.517-4.872 8.52h11.556V7.014H12.025Z"/><path fill="#fff" d="M12.025 17.037a5.012 5.012 0 1 0 0-10.024 5.012 5.012 0 0 0 0 10.024Z"/><path fill="#4285F4" d="M12.025 16.034a4.009 4.009 0 1 0 0-8.018 4.009 4.009 0 0 0 0 8.018Z"/></g></svg>