<svg xmlns="http://www.w3.org/2000/svg" viewBox="0 0 24 24"><g clip-path="url(#google-mail_svg__a)"><path fill="#4285F4" d="M3.364 20h3.181v-8.242L2 8.12v10.425C2 19.35 2.611 20 3.364 20Z"/><path fill="#34A853" d="M17.455 20h3.181c.755 0 1.364-.652 1.364-1.454V8.12l-4.545 3.637"/><path fill="#FBBC04" d="M17.455 5.455v6.303L22 8.12V6.18c0-1.798-1.925-2.823-3.273-1.745"/><path fill="#EA4335" d="M6.545 11.758V5.455L12 9.818l5.454-4.363v6.303L12 16.12"/><path fill="#C5221F" d="M2 6.182v1.94l4.545 3.636V5.455L5.273 4.436C3.923 3.358 2 4.383 2 6.182"/></g><defs><clipPath id="google-mail_svg__a"><path fill="#fff" d="M2 4h20v16H2z"/></clipPath></defs></svg>