<svg xmlns="http://www.w3.org/2000/svg" fill="none" viewBox="0 0 24 24"><g clip-path="url(#instagram_svg__a)"><path fill="url(#instagram_svg__b)" d="M1 1h22v22H1z"/><g filter="url(#instagram_svg__c)"><path fill="#6F3AFA" d="M-4 2a4 4 0 0 1 4-4h6a4 4 0 1 1 0 8H0a4 4 0 0 1-4-4Z"/></g></g><path fill="#fff" d="M8.687 4.055c-.851.04-1.433.177-1.94.376-.527.205-.973.48-1.416.925a3.92 3.92 0 0 0-.92 1.419c-.197.509-.33 1.09-.368 1.942-.038.854-.046 1.126-.042 3.298.004 2.172.014 2.445.054 3.299.041.85.177 1.432.376 1.94.205.526.48.972.925 1.415.446.444.892.716 1.42.92.508.197 1.09.331 1.941.368.854.038 1.126.046 3.298.042 2.173-.004 2.445-.014 3.298-.054.852-.04 1.433-.177 1.941-.376.526-.206.972-.48 1.415-.925.444-.445.716-.892.92-1.419.197-.509.331-1.09.368-1.942.037-.853.046-1.126.042-3.298-.004-2.173-.014-2.445-.054-3.298-.04-.852-.177-1.432-.376-1.941a3.924 3.924 0 0 0-.925-1.415 3.915 3.915 0 0 0-1.419-.92c-.509-.197-1.09-.331-1.942-.368-.853-.038-1.126-.046-3.298-.042-2.173.004-2.445.013-3.298.054Zm.093 14.462c-.78-.034-1.203-.163-1.486-.272a2.495 2.495 0 0 1-.92-.596 2.486 2.486 0 0 1-.6-.92c-.11-.281-.242-.704-.279-1.484-.04-.843-.049-1.096-.053-3.233-.004-2.135.004-2.388.04-3.232.034-.78.165-1.204.273-1.486a2.47 2.47 0 0 1 .597-.92c.28-.282.545-.455.918-.6.283-.111.706-.242 1.485-.279.844-.04 1.097-.048 3.232-.053 2.136-.004 2.39.004 3.233.04.78.035 1.204.164 1.485.273.374.145.641.317.922.597.28.28.454.545.6.919.11.281.241.705.278 1.484.04.844.049 1.097.053 3.232.004 2.136-.004 2.39-.04 3.233-.035.78-.164 1.204-.273 1.486-.145.374-.318.64-.597.921-.28.28-.545.454-.919.6-.281.11-.705.241-1.484.278-.844.04-1.096.049-3.233.053-2.135.004-2.388-.004-3.232-.04Zm6.522-10.793a.96.96 0 1 0 1.92-.005.96.96 0 0 0-1.92.005Zm-7.41 4.284a4.107 4.107 0 1 0 8.215-.016 4.107 4.107 0 0 0-8.215.016Zm1.441-.003a2.667 2.667 0 1 1 5.334-.01 2.667 2.667 0 0 1-5.334.01Z"/><defs><radialGradient id="instagram_svg__b" cx="0" cy="0" r="1" gradientTransform="rotate(-56.592 26.504 5.284) scale(28.1514)" gradientUnits="userSpaceOnUse"><stop offset=".091" stop-color="#FFD600"/><stop offset=".347" stop-color="#FC2C44"/><stop offset=".589" stop-color="#E100AB"/><stop offset=".827" stop-color="#B102F3"/></radialGradient><clipPath id="instagram_svg__a"><rect width="22" height="22" x="1" y="1" fill="#fff" rx="6"/></clipPath><filter id="instagram_svg__c" width="28" height="22" x="-11" y="-9" color-interpolation-filters="sRGB" filterUnits="userSpaceOnUse"><feFlood flood-opacity="0" result="BackgroundImageFix"/><feBlend in="SourceGraphic" in2="BackgroundImageFix" result="shape"/><feGaussianBlur result="effect1_foregroundBlur_29_841" stdDeviation="3.5"/></filter></defs></svg>