<svg xmlns="http://www.w3.org/2000/svg" viewBox="0 0 24 24"><path d="M7.47 3.47a.75.75 0 0 1 1.06 0l2 2a.75.75 0 1 1-1.06 1.06l-2-2a.75.75 0 0 1 0-1.06ZM7 7.25a4.75 4.75 0 0 0 0 9.5h1a.75.75 0 0 0 0-1.5H7a3.25 3.25 0 0 1 0-6.5h1a.75.75 0 0 0 0-1.5H7Zm9 0a.75.75 0 0 0 0 1.5h1a3.25 3.25 0 0 1 0 6.5h-1a.75.75 0 0 0 0 1.5h1a4.75 4.75 0 1 0 0-9.5h-1Zm-2.53 11.28 2 2a.75.75 0 1 0 1.06-1.06l-2-2a.75.75 0 1 0-1.06 1.06Zm3.06-15.06a.75.75 0 0 1 0 1.06l-2 2a.75.75 0 1 1-1.06-1.06l2-2a.75.75 0 0 1 1.06 0Zm-9.06 16a.75.75 0 1 0 1.06 1.06l2-2a.75.75 0 1 0-1.06-1.06l-2 2Z"/></svg>