<svg xmlns="http://www.w3.org/2000/svg" fill="none" viewBox="0 0 24 24"><path fill="#CA64EA" d="M7.833 3h13.334c.46 0 .833.373.833.833v15.834c0 .46-.373.833-.833.833H7.833A.833.833 0 0 1 7 19.667V3.833c0-.46.373-.833.833-.833Z"/><path fill="#CA64EA" d="M22 3.833A.833.833 0 0 0 21.167 3H7.832A.833.833 0 0 0 7 3.833v15.834c0 .46.373.833.833.833h9.792L22 7.375V3.833Z"/><path fill="#AE4BD5" d="M22 7.375h-4.375v4.375l2.188 1.997L22 11.75V7.375Z"/><path fill="#9332BF" d="M22 11.75h-4.375v4.375l2.188 2.122L22 16.125V11.75Z"/><path fill="#7719AA" d="M17.625 16.125H22v3.542c0 .46-.373.833-.833.833h-3.542v-4.375ZM2.833 6.75h8.334c.46 0 .833.373.833.833v8.334c0 .46-.373.833-.833.833H2.833A.833.833 0 0 1 2 15.917V7.583c0-.46.373-.833.833-.833Z"/><path fill="#fff" d="M4.5 8.625h1.332l2.285 4.207c.119.182.209.328.269.438h.016a5.931 5.931 0 0 1-.038-.829V8.625H9.5v6.25H8.253L5.87 10.731a3.204 3.204 0 0 1-.242-.428h-.022c.028.302.04.606.035.91v3.662H4.5v-6.25Z"/></svg>