<svg xmlns="http://www.w3.org/2000/svg" fill="none" viewBox="0 0 24 24"><path fill="#0F0F0F" d="M10.94 2C8.722 2 6.752 3.41 6.066 5.488a5.101 5.101 0 0 0-1.953.85 5.022 5.022 0 0 0-1.425 1.568 4.985 4.985 0 0 0 .632 5.906 4.904 4.904 0 0 0 .432 4.084c1.106 1.903 3.33 2.878 5.506 2.424A5.068 5.068 0 0 0 13.061 22c2.218 0 4.188-1.409 4.875-3.488a5.036 5.036 0 0 0 3.37-2.418 4.974 4.974 0 0 0-.624-5.906v-.006a4.92 4.92 0 0 0-.433-4.091c-1.105-1.897-3.33-2.872-5.499-2.418a5.07 5.07 0 0 0-1.723-1.24A5.133 5.133 0 0 0 10.94 2Zm0 1.3-.007.007c.893 0 1.75.305 2.437.867-.027.014-.082.048-.123.068L9.21 6.538a.647.647 0 0 0-.33.569v5.391l-1.736-.989V7.053c0-.994.399-1.948 1.11-2.652a3.828 3.828 0 0 1 2.686-1.1Zm4.863 1.57a3.84 3.84 0 0 1 1.905.501c.58.33 1.06.805 1.395 1.377a3.72 3.72 0 0 1 .452 2.506c-.027-.02-.082-.047-.116-.068l-4.037-2.303a.683.683 0 0 0-.666 0l-4.73 2.696V7.6l3.906-2.228a3.82 3.82 0 0 1 1.89-.503ZM5.819 6.917v4.734c0 .237.123.447.33.57l4.722 2.688-1.744.996-3.899-2.222a3.758 3.758 0 0 1-1.767-2.277 3.707 3.707 0 0 1 .38-2.843A3.794 3.794 0 0 1 5.82 6.917Zm9.048 1.172 3.906 2.221a3.717 3.717 0 0 1 1.387 5.12l.006.007a3.776 3.776 0 0 1-1.977 1.64v-4.735a.646.646 0 0 0-.33-.569l-4.73-2.696 1.738-.988Zm-2.87 1.632 1.991 1.138v2.269l-1.99 1.137-1.992-1.137v-2.27l1.991-1.137Zm3.13 1.788 1.737.989v4.45c0 2.072-1.702 3.752-3.796 3.752v-.007a3.82 3.82 0 0 1-2.43-.867c.027-.013.09-.047.123-.067l4.037-2.296a.633.633 0 0 0 .33-.57V11.51Zm-1.132 2.912V16.4l-3.906 2.221c-1.82 1.03-4.14.42-5.19-1.368h.006a3.675 3.675 0 0 1-.453-2.506c.028.02.083.048.117.068l4.036 2.303a.684.684 0 0 0 .666 0l4.724-2.696Z"/></svg>