<svg xmlns="http://www.w3.org/2000/svg" viewBox="0 0 24 24"><path fill-rule="evenodd" d="M2.75 9.43a4.25 4.25 0 0 1 8.5 0v3.5a5.75 5.75 0 0 1-5.75 5.75H5a.75.75 0 0 1 0-1.5h.5c2.518 0 4.25-2.104 4.25-4.51a4.25 4.25 0 0 1-7-3.24ZM7 6.68a2.75 2.75 0 1 0 0 5.5 2.75 2.75 0 0 0 0-5.5Zm5.75 2.75a4.25 4.25 0 0 1 8.5 0v3.5a5.75 5.75 0 0 1-5.75 5.75H15a.75.75 0 0 1 0-1.5h.5c2.518 0 4.25-2.104 4.25-4.51a4.25 4.25 0 0 1-7-3.24ZM17 6.68a2.75 2.75 0 1 0 0 5.5 2.75 2.75 0 0 0 0-5.5Z" clip-rule="evenodd"/></svg>