<svg xmlns="http://www.w3.org/2000/svg" viewBox="0 0 24 24"><path fill-rule="evenodd" d="M4 3.75A1.75 1.75 0 0 0 2.25 5.5v13c0 .966.784 1.75 1.75 1.75h5a1.75 1.75 0 0 0 1.75-1.75v-13A1.75 1.75 0 0 0 9 3.75H4ZM3.75 5.5A.25.25 0 0 1 4 5.25h5a.25.25 0 0 1 .25.25v13a.25.25 0 0 1-.25.25H4a.25.25 0 0 1-.25-.25v-13ZM15 3.75a1.75 1.75 0 0 0-1.75 1.75v13c0 .966.784 1.75 1.75 1.75h5a1.75 1.75 0 0 0 1.75-1.75v-13A1.75 1.75 0 0 0 20 3.75h-5Zm-.25 1.75a.25.25 0 0 1 .25-.25h5a.25.25 0 0 1 .25.25v13a.25.25 0 0 1-.25.25h-5a.25.25 0 0 1-.25-.25v-13Z" clip-rule="evenodd"/></svg>