<svg xmlns="http://www.w3.org/2000/svg" fill="none" viewBox="0 0 40 40"><path fill="#fff" d="M0 0h40v40H0z"/><path fill="#394251" d="M9.105 12.015h6.36v.99h-6.36v-.99ZM6.705 18v-.9h.15c.34 0 .62-.035.84-.105.22-.07.33-.215.33-.435V8.79c0-.22-.11-.365-.33-.435-.22-.07-.5-.105-.84-.105h-.15v-.9h4.485v.9h-.135c-.12 0-.25.005-.39.015-.14 0-.27.01-.39.03a1.55 1.55 0 0 0-.285.045c-.07.01-.105.03-.105.06v8.55c0 .03.035.055.105.075.07.01.165.025.285.045l.39.03h.525v.9H6.705Zm6.81 0v-.9h.525l.39-.03c.12-.02.215-.035.285-.045.07-.02.105-.045.105-.075V8.4c0-.03-.035-.05-.105-.06a1.55 1.55 0 0 0-.285-.045c-.12-.02-.25-.03-.39-.03-.14-.01-.27-.015-.39-.015h-.135v-.9H18v.9h-.15c-.34 0-.62.035-.84.105-.22.07-.33.215-.33.435v7.77c0 .22.11.365.33.435.22.07.5.105.84.105H18v.9h-4.485Zm10.54-1.335c.41 0 .74-.01.99-.03.25-.03.435-.09.555-.18.12-.09.19-.22.21-.39l.135-1.2h.99V18H19.96v-1.665l1.575-1.095c.5-.35.95-.685 1.35-1.005.4-.32.745-.645 1.035-.975.3-.34.53-.695.69-1.065.16-.37.24-.775.24-1.215 0-.42-.065-.75-.195-.99a1.088 1.088 0 0 0-.555-.525c-.24-.11-.535-.165-.885-.165-.32 0-.62.05-.9.15-.27.09-.51.21-.72.36-.21.15-.385.32-.525.51 0-.1.02-.2.06-.3.04-.1.09-.19.15-.27.07-.09.14-.155.21-.195a.38.38 0 0 1 .225-.045v1.905H20.14v-1.83A3.7 3.7 0 0 1 20.845 9c.31-.2.675-.365 1.095-.495.43-.13.9-.195 1.41-.195.71 0 1.305.105 1.785.315.49.2.86.5 1.11.9.26.4.39.895.39 1.485 0 .48-.12.94-.36 1.38-.23.44-.545.865-.945 1.275-.4.4-.86.79-1.38 1.17-.51.38-1.055.75-1.635 1.11-.57.36-1.145.71-1.725 1.05-.05 0-.09-.02-.12-.06a.298.298 0 0 1-.03-.135.33.33 0 0 1 .06-.135h3.555Z"/><path fill="#D7DBE0" fill-rule="evenodd" d="M33 25.25H6.5v-1.5H33v1.5Zm-8 4H6.5v-1.5H25v1.5Zm-8 4H6.5v-1.5H17v1.5Z" clip-rule="evenodd"/></svg>