<svg xmlns="http://www.w3.org/2000/svg" fill="none" viewBox="0 0 40 40"><path fill="#fff" d="M0 0h40v40H0z"/><path fill="#394251" d="M9.105 12.015h6.36v.99h-6.36v-.99ZM6.705 18v-.9h.15c.34 0 .62-.035.84-.105.22-.07.33-.215.33-.435V8.79c0-.22-.11-.365-.33-.435-.22-.07-.5-.105-.84-.105h-.15v-.9h4.485v.9h-.135c-.12 0-.25.005-.39.015-.14 0-.27.01-.39.03a1.55 1.55 0 0 0-.285.045c-.07.01-.105.03-.105.06v8.55c0 .03.035.055.105.075.07.01.165.025.285.045l.39.03h.525v.9H6.705Zm6.81 0v-.9h.525l.39-.03c.12-.02.215-.035.285-.045.07-.02.105-.045.105-.075V8.4c0-.03-.035-.05-.105-.06a1.55 1.55 0 0 0-.285-.045c-.12-.02-.25-.03-.39-.03-.14-.01-.27-.015-.39-.015h-.135v-.9H18v.9h-.15c-.34 0-.62.035-.84.105-.22.07-.33.215-.33.435v7.77c0 .22.11.365.33.435.22.07.5.105.84.105H18v.9h-4.485Zm11.275-1.425c0 .15.07.265.21.345.14.08.335.14.585.18.26.03.56.045.9.045h.54V18H20.68v-.855h.735c.32 0 .6-.015.84-.045.24-.04.425-.1.555-.18a.382.382 0 0 0 .195-.345v-6.96l.24-.165c-.07.25-.195.465-.375.645-.17.18-.38.33-.63.45s-.535.21-.855.27c-.31.05-.64.075-.99.075V9.72c.38-.01.73-.04 1.05-.09.32-.05.605-.125.855-.225.26-.1.485-.225.675-.375.19-.15.35-.33.48-.54h1.335v8.085Z"/><path fill="#D7DBE0" fill-rule="evenodd" d="M33 25.25H6.5v-1.5H33v1.5Zm-8 4H6.5v-1.5H25v1.5Zm-8 4H6.5v-1.5H17v1.5Z" clip-rule="evenodd"/></svg>