<svg xmlns="http://www.w3.org/2000/svg" viewBox="0 0 24 24"><path fill-rule="evenodd" d="M4 3.25a.75.75 0 0 0-.75.75v6c0 .414.336.75.75.75h7a.75.75 0 0 0 .75-.75V4a.75.75 0 0 0-.75-.75H4Zm.75 6v-4.5h5.5v4.5h-5.5Z" clip-rule="evenodd"/><path d="M14.25 5a.75.75 0 0 1 .75-.75h4a.75.75 0 0 1 0 1.5h-4a.75.75 0 0 1-.75-.75ZM15 8.25a.75.75 0 0 0 0 1.5h4a.75.75 0 0 0 0-1.5h-4Z"/><path fill-rule="evenodd" d="M3.25 14a.75.75 0 0 1 .75-.75h7a.75.75 0 0 1 .75.75v6a.75.75 0 0 1-.75.75H4a.75.75 0 0 1-.75-.75v-6Zm1.5.75v4.5h5.5v-4.5h-5.5Z" clip-rule="evenodd"/><path d="M15 14.25a.75.75 0 0 0 0 1.5h4a.75.75 0 0 0 0-1.5h-4Zm0 4a.75.75 0 0 0 0 1.5h4a.75.75 0 0 0 0-1.5h-4Z"/></svg>