<svg xmlns="http://www.w3.org/2000/svg" viewBox="0 0 24 24"><path d="M20.75 6A2.75 2.75 0 0 0 18 3.25h-1a.75.75 0 0 0 0 1.5h1c.69 0 1.25.56 1.25 1.25v1a.75.75 0 0 0 1.5 0V6Zm-2 6A3.75 3.75 0 0 0 15 8.25h-1a.75.75 0 0 0 0 1.5h1a2.25 2.25 0 0 1 0 4.5h-1a.75.75 0 0 0 0 1.5h1A3.75 3.75 0 0 0 18.75 12Z"/><path d="M11 11.25a.75.75 0 0 0 0 1.5h2a.75.75 0 0 0 0-1.5h-2ZM3.25 18A2.75 2.75 0 0 0 6 20.75h1a.75.75 0 0 0 0-1.5H6c-.69 0-1.25-.56-1.25-1.25v-1a.75.75 0 0 0-1.5 0v1Zm17.5 0A2.75 2.75 0 0 1 18 20.75h-1a.75.75 0 0 1 0-1.5h1c.69 0 1.25-.56 1.25-1.25v-1a.75.75 0 0 1 1.5 0v1Z"/><path d="M9 8.25a3.75 3.75 0 1 0 0 7.5h1a.75.75 0 0 0 0-1.5H9a2.25 2.25 0 0 1 0-4.5h1a.75.75 0 0 0 0-1.5H9Zm-3-5A2.75 2.75 0 0 0 3.25 6v1a.75.75 0 0 0 1.5 0V6c0-.69.56-1.25 1.25-1.25h1a.75.75 0 0 0 0-1.5H6Z"/></svg>