<svg xmlns="http://www.w3.org/2000/svg" viewBox="0 0 24 24"><path fill-rule="evenodd" d="M3.75 7A3.25 3.25 0 0 1 7 3.75h5a.75.75 0 0 0 0-1.5H7A4.75 4.75 0 0 0 2.25 7v10A4.75 4.75 0 0 0 7 21.75h10A4.75 4.75 0 0 0 21.75 17v-5a.75.75 0 0 0-1.5 0v5A3.25 3.25 0 0 1 17 20.25h-1.25V19c0-1.945-1.35-3.5-3.196-4.254a3.75 3.75 0 1 0-5.108 0c-1.765.72-3.076 2.173-3.188 4A3.234 3.234 0 0 1 3.75 17V7Zm8.5 5a2.25 2.25 0 1 1-4.5 0 2.25 2.25 0 0 1 4.5 0Zm-6.5 7c0-1.647 1.738-3.25 4.25-3.25s4.25 1.603 4.25 3.25v1.25H7A3.24 3.24 0 0 1 5.75 20v-1Z" clip-rule="evenodd"/><path fill-rule="evenodd" d="M18 2.25a3.75 3.75 0 1 0 0 7.5 3.75 3.75 0 0 0 0-7.5ZM15.75 6a2.25 2.25 0 1 1 4.5 0 2.25 2.25 0 0 1-4.5 0Z" clip-rule="evenodd"/></svg>