<svg xmlns="http://www.w3.org/2000/svg" viewBox="0 0 24 24"><path d="M12 2.25a7.029 7.029 0 0 0-7.022 6.71l-.124 2.733a6.948 6.948 0 0 1-1.287 3.723l-.05.07c-.826 1.157.001 2.764 1.423 2.764h14.12c1.422 0 2.25-1.607 1.423-2.765l-.05-.07a.75.75 0 0 0-1.22.873l.049.07a.248.248 0 0 1-.202.392H4.94a.248.248 0 0 1-.202-.393l.05-.07a8.449 8.449 0 0 0 1.565-4.526l.124-2.733a5.529 5.529 0 0 1 7.14-5.038.75.75 0 0 0 .438-1.434A7.026 7.026 0 0 0 12 2.25Z"/><path d="M18.438 6.391a.75.75 0 0 1 .17 1.047l-3.6 5a.75.75 0 0 1-1.088.138l-2.4-2a.75.75 0 0 1 .96-1.152l1.782 1.485 3.13-4.347a.75.75 0 0 1 1.046-.17Zm-9.174 13.05a.75.75 0 0 1 1.059.059c.413.461 1.01.75 1.677.75.666 0 1.264-.289 1.677-.75a.75.75 0 0 1 1.118 1A3.742 3.742 0 0 1 12 21.75c-1.11 0-2.11-.484-2.795-1.25a.75.75 0 0 1 .059-1.059Z"/></svg>