<svg xmlns="http://www.w3.org/2000/svg" viewBox="0 0 24 24">
  <path fill-rule="evenodd" d="M17.381 3.592a10.05 10.05 0 0 0-.576-.549 1.79 1.79 0 0 0-.684-.383 1.75 1.75 0 0 0-1.187.099 1.79 1.79 0 0 0-.611.49 9.897 9.897 0 0 0-.479.636L11.91 6.593c-.207.29-.265.367-.327.43a1.252 1.252 0 0 1-.212.17c-.075.048-.161.087-.49.228l-1.984.85c-.338.145-.638.274-.87.4-.242.13-.504.304-.689.585a1.75 1.75 0 0 0-.251 1.308c.066.33.245.589.421.8.17.203.4.433.66.693l1.357 1.357-4.42 4.42a.75.75 0 0 0 1.061 1.06l4.42-4.42 1.357 1.358c.26.26.49.49.694.66.21.176.47.355.8.421a1.75 1.75 0 0 0 1.307-.251c.28-.185.455-.447.586-.688.126-.233.254-.533.399-.871l.85-1.985c.14-.328.18-.414.228-.489a1.34 1.34 0 0 1 .17-.212c.064-.062.14-.12.43-.327l2.708-1.934c.244-.175.465-.332.636-.478a1.79 1.79 0 0 0 .49-.612 1.75 1.75 0 0 0 .099-1.187 1.79 1.79 0 0 0-.383-.684 9.87 9.87 0 0 0-.55-.576l-3.026-3.027Z" clip-rule="evenodd"/>
</svg>
