<svg xmlns="http://www.w3.org/2000/svg" width="24" height="24" fill="none" viewBox="0 0 24 24">
  <path fill="#000" fill-rule="evenodd" d="M17.381 3.592a10.05 10.05 0 0 0-.576-.549 1.79 1.79 0 0 0-.684-.383 1.75 1.75 0 0 0-1.187.099 1.79 1.79 0 0 0-.611.49 9.894 9.894 0 0 0-.479.636L11.91 6.593c-.207.29-.265.366-.327.43a1.251 1.251 0 0 1-.212.17c-.075.047-.161.087-.49.228l-1.984.85c-.338.145-.638.273-.87.4-.242.13-.504.304-.689.585a1.75 1.75 0 0 0-.251 1.308c.066.33.245.588.421.8.17.202.4.433.66.693l1.357 1.357-4.42 4.42a.75.75 0 0 0 1.061 1.06l4.42-4.42 1.357 1.358c.26.26.49.49.694.66.21.176.47.355.8.421a1.75 1.75 0 0 0 1.307-.252c.28-.184.455-.446.586-.688.126-.232.254-.532.399-.87l.85-1.985c.14-.328.18-.414.228-.489.05-.077.106-.148.17-.212.064-.062.14-.12.43-.327l2.708-1.934c.244-.175.465-.332.636-.479a1.79 1.79 0 0 0 .49-.611 1.75 1.75 0 0 0 .099-1.187 1.79 1.79 0 0 0-.383-.684 9.87 9.87 0 0 0-.55-.576l-3.026-3.027Zm-1.817.528a.25.25 0 0 1 .16-.013.7.7 0 0 1 .115.085c.117.097.263.242.502.481l2.985 2.986c.24.24.385.385.482.502.06.07.08.106.085.116a.25.25 0 0 1-.013.16.696.696 0 0 1-.103.1 9.194 9.194 0 0 1-.558.415l-2.724 1.946c-.232.166-.416.297-.576.457a2.748 2.748 0 0 0-.376.466c-.122.192-.21.399-.323.662l-.857 2c-.162.376-.263.612-.353.777a.841.841 0 0 1-.097.152.25.25 0 0 1-.17.033.843.843 0 0 1-.146-.105c-.144-.12-.326-.302-.616-.592L9.25 11.02c-.29-.29-.47-.472-.59-.616a.842.842 0 0 1-.106-.146.25.25 0 0 1 .033-.17c.01-.01.05-.042.152-.097.165-.09.4-.191.778-.353l2-.857a4.42 4.42 0 0 0 .66-.323 2.75 2.75 0 0 0 .467-.376c.16-.16.291-.344.457-.577l1.946-2.724a9.52 9.52 0 0 1 .415-.557.705.705 0 0 1 .1-.103Z" clip-rule="evenodd"/>
</svg>
