<svg xmlns="http://www.w3.org/2000/svg" fill="none" viewBox="0 0 16 16">
  <path fill="#697687" d="M8 0c4.42 0 8 3.58 8 8s-3.58 8-8 8-8-3.58-8-8 3.58-8 8-8Z"/>
  <path fill="#fff" d="m4.852 5.9-1.05 3.26c-.14.45.19.9.67.9h2.24c.26 0 .47.2.5.45.16 1.49.35 2.25.54 2.63.09.17.17.24.22.28.04.03.1.05.22.07.02 0 .05 0 .08-.02.02-.01.04-.03.04-.05.12-.34.2-.62.27-.9.06-.27.13-.55.24-.84.21-.56.54-1.15 1.27-1.95V5h-4.01c-.56 0-1.06.36-1.23.9Zm6.24-.9v4.4l.68-.02h.02a.7.7 0 0 0 .69-.7V5.7c0-.39-.31-.7-.69-.7h-.7Z"/>
</svg>
