<svg viewBox="0 0 16 16" xmlns="http://www.w3.org/2000/svg"><path d="M1.75 3a.75.75 0 0 0-1.5 0v10a.75.75 0 0 0 1.5 0V8.75h5.5V13a.75.75 0 0 0 1.5 0V3a.75.75 0 0 0-1.5 0v4.25h-5.5V3Zm11.064 6.225c-.126.01-.258.028-.395.055l.205-1.205h1.74c.164 0 .304-.017.42-.05a.744.744 0 0 0 .28-.15.598.598 0 0 0 .16-.23.8.8 0 0 0 .05-.29v-.64h-3.73l-.62 3.645.96.26c.314-.123.634-.185.96-.185.367 0 .65.093.85.28.2.183.3.452.3.805 0 .18-.021.35-.065.51-.04.157-.106.295-.2.415a.962.962 0 0 1-.355.28c-.146.067-.323.1-.53.1a1.48 1.48 0 0 1-.52-.08 2.398 2.398 0 0 1-.37-.175 8.87 8.87 0 0 0-.29-.18.502.502 0 0 0-.28-.085.496.496 0 0 0-.39.205l-.48.64c.13.127.275.247.435.36.16.11.334.208.52.295.19.083.392.15.605.2.217.05.444.075.68.075.407 0 .78-.063 1.12-.19a2.62 2.62 0 0 0 .885-.545 2.44 2.44 0 0 0 .575-.83c.14-.323.21-.68.21-1.07 0-.31-.051-.6-.155-.87a1.93 1.93 0 0 0-.45-.71 2.12 2.12 0 0 0-.74-.48 2.732 2.732 0 0 0-1.015-.175c-.12 0-.243.005-.37.015Z"/></svg>