<svg xmlns="http://www.w3.org/2000/svg" fill="none" viewBox="0 0 16 16">
  <path fill="#FFD97A" d="M0 8a8 8 0 1 1 16 0A8 8 0 0 1 0 8Z"/>
  <path fill="#AF6408" d="M10.298 7.434c.488 0 .884-.554.884-1.237s-.396-1.237-.884-1.237-.884.554-.884 1.237.396 1.237.884 1.237ZM5.702 8.707c.488 0 .884-.554.884-1.237 0-.684-.396-1.238-.884-1.238s-.884.554-.884 1.238c0 .683.396 1.237.884 1.237Zm.983 3.416c1.326-1.083 2.586-1.644 4.453-1.828a.75.75 0 1 0-.147-1.493c-2.17.214-3.708.895-5.255 2.16a.75.75 0 0 0 .949 1.16Z"/>
</svg>
