<svg xmlns="http://www.w3.org/2000/svg" viewBox="0 0 16 16"><path d="M11.883 6.767a3.917 3.917 0 1 0-7.833 0c0 1.676 1.015 3.334 2.15 4.642a16 16 0 0 0 1.53 1.53q.128.109.236.196.108-.088.236-.196c.42-.366.977-.89 1.532-1.53 1.134-1.308 2.149-2.966 2.149-4.642m1.5 0c0 2.234-1.318 4.243-2.517 5.624a17.4 17.4 0 0 1-2.392 2.267l-.045.033-.013.01-.004.002v.002a.75.75 0 0 1-.786.063l-.103-.064H7.52l-.004-.003-.013-.01a8 8 0 0 1-.204-.158 17.4 17.4 0 0 1-2.233-2.142C3.868 11.01 2.55 9.001 2.55 6.767a5.417 5.417 0 0 1 10.833 0"/><path d="M9.217 6.767a1.25 1.25 0 1 0-2.5 0 1.25 1.25 0 0 0 2.5 0m1.5 0a2.75 2.75 0 1 1-5.5 0 2.75 2.75 0 0 1 5.5 0"/></svg>