<svg xmlns="http://www.w3.org/2000/svg" fill="none" viewBox="0 0 16 16"><path fill="#E9AC43" d="M8 0c4.42 0 8 3.58 8 8s-3.58 8-8 8-8-3.58-8-8 3.58-8 8-8"/><path fill="#fff" d="M7.25 2.62v-.66a.749.749 0 1 1 1.5 0v.66c0 .42-.34.76-.75.76s-.75-.34-.75-.76m2.57 10.7c0 .42-.34.75-.75.75H6.88c-.42 0-.75-.33-.75-.75s.33-.75.75-.75h2.19c.41 0 .75.34.75.75m1.7-4.5c.22-.73.19-1.51-.07-2.23s-.74-1.34-1.38-1.77c-.63-.43-1.39-.65-2.16-.64-1.99.05-3.59 1.69-3.58 3.66.01.55.13 1.09.38 1.58.24.49.59.93 1.03 1.26.09.07.168.107.232.137.127.06.198.093.198.313v.27c0 .1.04.19.1.26.07.07.17.11.26.11h.72V8.55l-.6-.24a.74.74 0 0 1-.41-.97c.15-.39.59-.57.97-.42l.8.32.77-.32c.38-.15.82.03.98.41s-.02.82-.41.98l-.6.25v3.21h.72c.09 0 .19-.04.26-.11a.4.4 0 0 0 .1-.26v-.27c0-.228.076-.263.205-.321.063-.029.14-.063.225-.129.61-.47 1.05-1.12 1.26-1.86M4 4.71c.29.29.29.77 0 1.06-.14.15-.34.22-.53.22s-.38-.07-.53-.22l-.67-.67a.754.754 0 0 1 0-1.06c.3-.29.77-.29 1.07 0zm9.06 1.06.66-.67c.3-.29.3-.77 0-1.06a.754.754 0 0 0-1.06 0l-.66.67c-.29.29-.29.77 0 1.06.14.15.34.22.53.22s.38-.07.53-.22"/></svg>