<svg xmlns="http://www.w3.org/2000/svg" fill="none" viewBox="0 0 16 16"><path fill="#67A61A" d="M8 0c4.42 0 8 3.58 8 8s-3.58 8-8 8-8-3.58-8-8 3.58-8 8-8"/><path fill="#fff" d="M4 2.5v1c0 .28.22.5.5.5s.5-.22.5-.5v-1c0-.28-.22-.5-.5-.5s-.5.22-.5.5M3.5 5c.13 0 .26-.05.35-.15.2-.19.2-.51 0-.7l-1-1c-.19-.2-.51-.2-.7 0-.2.19-.2.51 0 .7l1 1c.09.1.22.15.35.15m0 1c0 .28-.22.5-.5.5H2c-.28 0-.5-.22-.5-.5s.22-.5.5-.5h1c.28 0 .5.22.5.5m8.49 2.51c-.04.32-.13.81-.29 1.37-.12.47-.29.98-.51 1.49-.15.32-.39.61-.68.81-.38.26-.84.53-1.38.82-.15.08-.3.16-.45.23-.93.47-2 .32-2.64-.37-.52-.55-1.05-1.24-1.48-1.94-.5-.8-.83-1.51-1.01-1.96l-.003-.008c-.024-.072-.11-.328.053-.472l.011-.008.041-.028A1 1 0 0 1 3.73 8.4c.03-.02.07-.03.1-.03.13 0 .25.09.34.19L5.2 9.82c.17.21.47.25.68.09.22-.16.27-.45.13-.68 0 0-.73-1.12-1.23-1.93a.5.5 0 0 1-.08-.38c.02-.1.08-.17.18-.23L5 6.62l.06-.03c.25-.13.53.04.66.26.12.19.249.398.378.607l.002.003c.32.51.62 1 .7 1.13.15.23.46.31.69.16.24-.14.31-.45.17-.69-.17-.29-.55-.97-.84-1.5a.44.44 0 0 1-.05-.33c.01-.04.03-.07.08-.11l.028-.024.062-.038.03-.018c.22-.11.48.03.63.21q.05.066.106.133L7.8 6.5c.53.68 1.23 1.63 1.87 2.66.1.15.28.24.46.23.19-.01.35-.13.42-.3q.004-.005.043-.086c.066-.138.208-.432.417-.814.08-.15.22-.26.36-.3a.4.4 0 0 1 .3.05q.12.075.24.18c.11.11.11.29.09.39zM5.72 5.64l-.02-.125c-.022-.148-.042-.277-.05-.395-.01-.17.03-.4.19-.48.05-.02.1-.04.14-.05.02-.01.03-.01.05-.01.14 0 .25.17.29.27l.13.32-.02.01c-.23.13-.41.31-.53.53-.06-.03-.12-.05-.18-.07"/><path fill="#fff" d="M7.53 3.21c-.27.08-.32.37-.26.6l.35 1.27c.28.1.55.29.75.55.45.56 1.05 1.35 1.66 2.25q.045-.075.09-.18c.22-.38.58-.67 1-.78.06-.02.13-.03.19-.03-.38-1.4-.87-2.73-1.14-3.4-.08-.22-.29-.41-.5-.37-.31.07-.33.35-.29.5.12.6.29 1.37.38 1.7.07.27-.09.54-.36.62a.5.5 0 0 1-.61-.36l-.53-1.99c-.07-.25-.28-.49-.53-.43l-.07.02zm6.15 3.68c-.14.32-.37.82-.69 1.36-.03-.34-.17-.64-.42-.87a3 3 0 0 0-.377-.292l-.008-.007-.005-.001h.01s.26-.33.68-.78c.11-.12.31-.21.42-.19.1 0 .17.04.24.11.06.07.12.15.17.24.087.145.015.338-.017.422z"/></svg>