<svg xmlns="http://www.w3.org/2000/svg" fill="none" viewBox="0 0 32 32">
  <path fill="#C7ED98" d="M28.02 13.92c-.52 1.21-1.61 3.44-3.23 5.44-.23.28-.48.53-.76.76-.25.88-.57 1.83-.99 2.77-.37.81-.95 1.52-1.71 2.04-.62.43-1.54 1-2.84 1.69-.33.18-.64.34-.93.48-2.19 1.1-4.83.8-6.46-.94-1.2-1.27-2.27-2.74-3.08-4.03a27.644 27.644 0 0 1-2.1-4.09c-.29-.73-.24-1.57.39-2.09.13-.11.27-.21.42-.29.75-.4 1.61-.06 2.12.57l2.05 2.5c-.16-.25-1.49-2.33-2.44-3.86-.56-.89-.42-2.03.52-2.6.09-.05.19-.11.29-.16.05-.03.1-.06.15-.08.29-.14.59-.2.88-.18-.12-.7-.19-1.29-.24-1.77-.07-.79.21-1.61.94-1.95.15-.07.32-.14.48-.18.81-.19 1.52.37 1.84 1.13l.68 1.67s.35.62.19.02c-.26-.91-.6-2.13-.87-3.13-.28-1.03.17-2.11 1.2-2.42.11-.04.22-.06.33-.09.05-.01.1-.03.16-.04 1.04-.21 1.94.56 2.22 1.57.33 1.24.75 2.8.96 3.58-.18-.78-.45-2.03-.66-3.04-.21-.96.23-1.92 1.2-2.16.06 0 .12-.02.17-.03.94-.18 1.78.48 2.12 1.35.61 1.54 1.58 4.15 2.32 6.91 0 0 .53-.67 1.42-1.61.77-.81 2.06-.99 2.8-.13.16.19.32.4.45.63.32.54.26 1.2.01 1.76Z"/>
  <path fill="#5B7525" d="M9.5 4.75v2c0 .41-.34.75-.75.75S8 7.16 8 6.75v-2c0-.41.34-.75.75-.75s.75.34.75.75ZM7.28 8.22c.29.29.29.77 0 1.06-.15.15-.34.22-.53.22s-.38-.07-.53-.22l-2-2a.754.754 0 0 1 0-1.06c.29-.29.77-.29 1.06 0l2 2Zm-.78 3.53c0 .41-.34.75-.75.75h-2c-.41 0-.75-.34-.75-.75s.34-.75.75-.75h2c.41 0 .75.34.75.75Z"/>
  <path fill="#5B7525" fill-rule="evenodd" d="M28.13 11.05c.2.23.38.48.53.73.41.7.43 1.59.05 2.44-.52 1.21-1.66 3.53-3.34 5.61-.21.26-.44.5-.68.71-.25.85-.56 1.76-.97 2.66-.43.95-1.11 1.77-1.97 2.35a30.188 30.188 0 0 1-3.2 1.891c-.224.118-.44.23-.65.329-.98.5-2.02.74-3.03.74-1.63 0-3.19-.63-4.32-1.84-1.12-1.19-2.24-2.66-3.17-4.15a27.076 27.076 0 0 1-2.15-4.2c-.45-1.11-.22-2.27.6-2.95.17-.14.36-.27.55-.37.37-.2.78-.28 1.18-.26-.19-.51-.23-1.05-.11-1.56a2.505 2.505 0 0 1 1.25-1.612c.073-.042.147-.085.22-.118l.17-.09c.12-.06.23-.11.36-.14-.06-.4-.1-.76-.13-1.07-.12-1.21.4-2.24 1.36-2.7.21-.1.42-.17.63-.22.4-.1.81-.08 1.19.05-.11-1.27.6-2.42 1.81-2.78.12-.04.24-.07.36-.1l.18-.04a2.544 2.544 0 0 1 2.39.8 2.35 2.35 0 0 1 1.52-.89c1.22-.23 2.45.51 2.96 1.82.55 1.4 1.3 3.42 1.96 5.63l.14-.15c.123-.133.256-.276.4-.42.57-.61 1.36-.96 2.15-.93.69.01 1.32.31 1.76.83ZM15.02 5.86c-.09.02-.19.05-.28.08-.67.2-.86.91-.7 1.5l.177.65c.185.679.382 1.405.563 2.03.57.17 1.11.53 1.52 1.05.94 1.18 2.25 2.9 3.53 4.83.11-.22.24-.46.39-.72.39-.72 1.06-1.24 1.82-1.44.25-.06.5-.09.75-.07a.69.69 0 0 1-.17-.3c-.72-2.66-1.64-5.18-2.29-6.83-.21-.53-.71-1.01-1.29-.9l-.13.03c-.6.15-.76.76-.65 1.27.25 1.2.59 2.76.76 3.42.1.41-.14.81-.54.92-.4.1-.81-.13-.91-.54l-.279-1.038c-.221-.83-.53-1.983-.791-2.942-.16-.6-.69-1.17-1.34-1.03l-.14.03Zm-3.36 2.82c-.11.03-.22.07-.33.13-.45.21-.56.75-.52 1.2.03.34.08.74.15 1.19.24.07.47.17.7.31.2-.5.58-.91 1.07-1.18l.1-.045.1-.045a.47.47 0 0 1 .05-.02l-.36-.86c-.11-.27-.4-.69-.81-.69-.05 0-.1 0-.15.01Zm11.71 11.01c.33-1.18.51-2.22.61-2.89.04-.25.05-.71-.27-1-.15-.14-.32-.27-.51-.39a.957.957 0 0 0-.78-.11c-.37.09-.7.35-.89.7-.59 1.08-.92 1.82-.92 1.83-.11.26-.36.43-.64.45a.75.75 0 0 1-.69-.35c-1.39-2.22-2.92-4.26-4-5.64-.025-.03-.05-.063-.075-.095a3.152 3.152 0 0 0-.075-.095c-.36-.45-1.01-.77-1.57-.49h-.01l-.11.05c-.21.11-.35.27-.42.48-.07.26-.03.57.13.85.83 1.52 1.42 2.57 1.7 3.02.21.35.1.81-.25 1.03a.75.75 0 0 1-1.03-.25l-.54-.867a727.052 727.052 0 0 0-1.62-2.603c-.02-.04-.05-.08-.08-.12-.36-.47-1-.79-1.58-.5l-.06.03-.07.04c-.08.04-.17.09-.25.15-.25.14-.4.35-.46.6-.07.3 0 .65.19.96.478.78 1.064 1.7 1.54 2.446l.46.724c.28.43.45.7.45.7.12.19.15.42.09.62-.04.15-.13.29-.27.4-.33.23-.77.17-1.03-.14l-2.07-2.52c-.2-.26-.53-.47-.85-.47-.12 0-.23.02-.33.08-.1.05-.2.12-.3.21-.37.3-.33.83-.17 1.22.37.92 1.02 2.35 2.04 3.98.87 1.4 1.93 2.79 2.98 3.92 1.37 1.46 3.61 1.77 5.59.78.28-.14.59-.3.91-.47 1.07-.57 2.01-1.13 2.77-1.65.63-.43 1.13-1.02 1.44-1.73.13-.3.26-.6.37-.9.26-.68.48-1.35.65-1.99Zm2.08-2.53c.9-1.4 1.54-2.73 1.89-3.54.1-.24.25-.7.02-1.08-.1-.17-.22-.35-.37-.52a.857.857 0 0 0-.66-.3c-.38-.01-.74.16-1.02.46-.66.69-1.113 1.233-1.293 1.45-.055.065-.085.1-.087.1a.8.8 0 0 1-.29.23c.13.05.25.12.37.19.26.16.5.35.72.55.6.55.87 1.4.74 2.32a.471.471 0 0 0-.01.07.72.72 0 0 1-.01.07Z" clip-rule="evenodd"/>
</svg>
