<svg xmlns="http://www.w3.org/2000/svg" fill="none" viewBox="0 0 32 32">
  <path fill="#FFD97A" d="M27 16c0 6.075-4.925 11-11 11-6.074 0-11-4.925-11-11C5 9.926 9.926 5 16 5c6.075 0 11 4.926 11 11Z"/>
  <path fill="#AF6408" fill-rule="evenodd" d="M16 5.75C10.34 5.75 5.75 10.34 5.75 16S10.34 26.25 16 26.25 26.25 21.66 26.25 16 21.66 5.75 16 5.75ZM4.25 16C4.25 9.511 9.511 4.25 16 4.25c6.49 0 11.75 5.261 11.75 11.75 0 6.49-5.26 11.75-11.75 11.75-6.489 0-11.75-5.26-11.75-11.75Z" clip-rule="evenodd"/>
  <path fill="#AF6408" fill-rule="evenodd" d="M13.47 14.53a2.079 2.079 0 0 0-2.94 0 .75.75 0 1 1-1.06-1.06 3.578 3.578 0 0 1 5.06 0 .75.75 0 1 1-1.06 1.06Zm-1.454-3.657a1.954 1.954 0 0 0-1.834 1.156.75.75 0 1 1-1.369-.612 3.454 3.454 0 0 1 3.242-2.044.75.75 0 1 1-.039 1.5Zm7.968 0a1.954 1.954 0 0 1 1.834 1.156.75.75 0 1 0 1.369-.612 3.454 3.454 0 0 0-3.242-2.044.75.75 0 1 0 .039 1.5Zm1.486 3.657a2.079 2.079 0 0 0-2.94 0 .75.75 0 1 1-1.06-1.06 3.578 3.578 0 0 1 5.06 0 .75.75 0 1 1-1.06 1.06Z" clip-rule="evenodd"/>
  <path fill="#AF6408" d="M10 17c0-.5.48-.86.96-.72l.311.09c3.088.901 6.37.901 9.457 0l.312-.09c.48-.14.96.22.96.72a6 6 0 0 1-12 0Z"/>
  <path fill="#71AAFF" d="M28.624 16.203c.632 1.215.115 2.736-1.156 3.398-1.27.661-2.814.213-3.446-1.001-.632-1.215-2.412-3.404-1.142-4.065 1.271-.662 5.111.454 5.744 1.668Zm-25.248 0c-.632 1.215-.115 2.736 1.156 3.398 1.27.661 2.814.213 3.446-1.001.632-1.215 2.412-3.404 1.142-4.065-1.271-.662-5.111.454-5.744 1.668Z"/>
</svg>
