<svg xmlns="http://www.w3.org/2000/svg" fill="none" viewBox="0 0 32 32">
  <path fill="#F1635A" d="M23.7 19.1c1.639-1.606 3.3-3.531 3.3-6.05A6.05 6.05 0 0 0 20.95 7c-1.936 0-3.3.55-4.95 2.2C14.35 7.55 12.986 7 11.05 7A6.05 6.05 0 0 0 5 13.05c0 2.53 1.65 4.455 3.3 6.05l6.286 6.286a2 2 0 0 0 2.828 0L23.7 19.1Z"/>
  <path fill="#D02E25" fill-rule="evenodd" d="M6.242 8.242A6.8 6.8 0 0 1 11.05 6.25c1.043 0 1.975.149 2.882.544.716.312 1.387.765 2.068 1.373.68-.608 1.352-1.061 2.068-1.373.907-.395 1.839-.544 2.882-.544a6.8 6.8 0 0 1 6.8 6.8c0 2.858-1.886 4.979-3.522 6.583l-6.284 6.283a2.75 2.75 0 0 1-3.888 0l-6.282-6.281C6.121 18.036 4.25 15.917 4.25 13.05a6.8 6.8 0 0 1 1.992-4.808Zm4.808-.492a5.3 5.3 0 0 0-5.3 5.3c0 2.19 1.426 3.92 3.071 5.51l.01.01 6.285 6.285a1.25 1.25 0 0 0 1.768 0l6.291-6.29c1.64-1.608 3.075-3.337 3.075-5.515a5.3 5.3 0 0 0-5.3-5.3c-.893 0-1.61.126-2.283.419-.677.295-1.354.78-2.137 1.561a.75.75 0 0 1-1.06 0c-.783-.782-1.46-1.266-2.137-1.561-.672-.293-1.39-.419-2.283-.419Z" clip-rule="evenodd"/>
</svg>
