<svg xmlns="http://www.w3.org/2000/svg" fill="none" viewBox="0 0 32 32"><path fill="#FFD97A" d="M23 14.72c0 .62-.08 1.239-.263 1.836a6.67 6.67 0 0 1-2.388 3.415c-.4.288-.72.663-.938 1.084a3.05 3.05 0 0 0-.331 1.381l.069.487-2.286.033-1.714.022-2.217.022v-.564c0-.486-.115-.94-.332-1.37a3.1 3.1 0 0 0-.914-1.073A6.7 6.7 0 0 1 9.72 17.65 6.4 6.4 0 0 1 9 14.754C8.977 11.117 12.04 8.088 15.834 8h.149c1.44 0 2.823.398 3.988 1.172a6.67 6.67 0 0 1 2.618 3.272c.274.73.411 1.503.411 2.277Z"/><path fill="#AF6408" d="M15.248 4V2.75c0-.41.34-.75.75-.75s.75.34.75.75V4c0 .41-.34.75-.75.75s-.75-.34-.75-.75M7.777 8.47c.29.29.29.77 0 1.06-.15.15-.34.22-.53.22s-.38-.07-.53-.22l-1.25-1.25a.754.754 0 0 1 0-1.06c.29-.29.77-.29 1.06 0z"/><path fill="#AF6408" fill-rule="evenodd" d="M15.807 7.31c1.64-.03 3.19.42 4.5 1.32 1.33.9 2.32 2.18 2.86 3.68.55 1.49.6 3.15.16 4.66a7.6 7.6 0 0 1-2.62 3.86c-.17.13-.3.29-.39.46-.09.18-.13.37-.13.58v.51c0 .38-.15.74-.42 1.01s-.64.42-1.02.42h-5.5c-.38 0-.75-.15-1.02-.42-.28-.3-.42-.65-.42-1.01v-.51a1.26 1.26 0 0 0-.5-1.02c-.95-.75-1.66-1.63-2.15-2.64a7.44 7.44 0 0 1-.79-3.28c-.02-4.1 3.32-7.52 7.44-7.62m3.99 12.33a6.04 6.04 0 0 0 2.09-3.09c.16-.54.23-1.1.23-1.66 0-.7-.12-1.4-.36-2.06a6 6 0 0 0-2.29-2.96 6.14 6.14 0 0 0-3.49-1.06h-.13c-3.32.08-6 2.82-5.98 6.11.01.92.22 1.8.63 2.62.4.82.97 1.53 1.72 2.12.33.25.61.59.8.97.19.39.29.8.29 1.24v.51l1.94-.02v-6.4l-1.59-.79a.745.745 0 0 1-.33-1.01c.18-.37.63-.51 1.01-.33l1.66.83 1.67-.83c.37-.19.82-.04 1 .33.19.38.04.83-.34 1.01l-1.58.79v6.38l2-.03-.06-.44c0-.44.1-.86.29-1.25.19-.38.47-.72.82-.98" clip-rule="evenodd"/><path fill="#AF6408" d="m26.527 8.28-1.25 1.25c-.15.15-.34.22-.53.22s-.38-.07-.53-.22a.754.754 0 0 1 0-1.06l1.25-1.25c.29-.29.77-.29 1.06 0s.29.77 0 1.06m-7.53 18.97c.41 0 .75-.34.75-.75s-.34-.75-.75-.75h-6c-.41 0-.75.34-.75.75s.34.75.75.75z"/></svg>