<svg viewBox="0 0 24 24" xmlns="http://www.w3.org/2000/svg"><path d="M12 8.25a.75.75 0 0 1 .75.75v3.5a.75.75 0 0 1-1.5 0V9a.75.75 0 0 1 .75-.75ZM13 16a1 1 0 1 1-2 0 1 1 0 0 1 2 0Z"/><path fill-rule="evenodd" clip-rule="evenodd" d="M12 3.25c-.429 0-.85.113-1.22.328a2.5 2.5 0 0 0-.899.891L2.577 16.981a2.554 2.554 0 0 0-.007 2.491c.212.381.519.7.891.926a2.44 2.44 0 0 0 1.234.352h14.61a2.44 2.44 0 0 0 1.233-.352 2.5 2.5 0 0 0 .892-.926 2.553 2.553 0 0 0-.007-2.491L14.119 4.469a2.494 2.494 0 0 0-.899-.891A2.439 2.439 0 0 0 12 3.25Zm-.826 1.981a.995.995 0 0 1 .356-.354.94.94 0 0 1 .94 0 .995.995 0 0 1 .356.354l7.292 12.49a1.053 1.053 0 0 1 0 1.023.997.997 0 0 1-.355.37.941.941 0 0 1-.472.136H4.71a.94.94 0 0 1-.472-.136.997.997 0 0 1-.355-.37 1.054 1.054 0 0 1 0-1.023l7.292-12.49Z"/></svg>