<svg viewBox="0 0 24 24" xmlns="http://www.w3.org/2000/svg"><path fill-rule="evenodd" clip-rule="evenodd" d="M12 3.25c-.429 0-.85.113-1.22.328a2.5 2.5 0 0 0-.899.891L2.577 16.981a2.554 2.554 0 0 0-.007 2.491c.212.381.519.7.891.926a2.44 2.44 0 0 0 1.234.352h14.61a2.44 2.44 0 0 0 1.233-.352 2.5 2.5 0 0 0 .892-.926 2.553 2.553 0 0 0-.007-2.491L14.119 4.469a2.494 2.494 0 0 0-.899-.891A2.439 2.439 0 0 0 12 3.25ZM12 8a1 1 0 0 1 1 1v3.5a1 1 0 1 1-2 0V9a1 1 0 0 1 1-1Zm1 8a1 1 0 1 1-2 0 1 1 0 0 1 2 0Z"/></svg>