<svg xmlns="http://www.w3.org/2000/svg" viewBox="0 0 24 24">
  <path d="M16 4.25c-2.09 0-3.75 1.737-3.75 3.836 0 1.041.407 2.064 1.056 2.83.651.769 1.597 1.334 2.694 1.334s2.043-.565 2.694-1.333c.65-.767 1.056-1.79 1.056-2.831 0-2.099-1.66-3.836-3.75-3.836Zm-8.5 2c-1.825 0-3.25 1.536-3.25 3.361 0 .907.348 1.797.906 2.466.559.669 1.38 1.173 2.344 1.173s1.785-.504 2.344-1.173a3.91 3.91 0 0 0 .906-2.466c0-1.825-1.425-3.361-3.25-3.361Zm2.809 9.841c.937-1.441 2.663-2.841 5.691-2.841s4.754 1.4 5.691 2.841a7.112 7.112 0 0 1 1.015 2.562c.044.245.017.666-.15.85a.75.75 0 0 1-.556.247H10a.75.75 0 0 1-.556-.247c-.219-.242-.203-.552-.15-.85a7.111 7.111 0 0 1 1.015-2.562ZM7.5 14.25a8.54 8.54 0 0 1 1.828.186c-1.716 1.96-2.188 4.515-2.298 5.314H2a.75.75 0 0 1-.56-.25c-.207-.233-.204-.536-.145-.822a5.545 5.545 0 0 1 .963-2.126C3.146 15.36 4.745 14.25 7.5 14.25Z"/>
</svg>
