<svg xmlns="http://www.w3.org/2000/svg" fill="none" viewBox="0 0 24 24">
  <path fill="#FFD97A" d="M21.25 11.5a9.25 9.25 0 1 1-18.5 0 9.25 9.25 0 0 1 18.5 0Z"/>
  <path fill="#AF6408" fill-rule="evenodd" d="M16.178 10.418a1.748 1.748 0 0 0-2.472 0 .63.63 0 1 1-.892-.892 3.01 3.01 0 0 1 4.256 0 .63.63 0 0 1-.892.892Z" clip-rule="evenodd"/>
  <path fill="#AF6408" fill-rule="evenodd" d="M11.75 3.245a8.506 8.506 0 1 0 .001 17.012 8.506 8.506 0 0 0-.001-17.012ZM2 11.75C2 6.366 6.366 2 11.75 2c5.385 0 9.75 4.366 9.75 9.75a9.75 9.75 0 0 1-9.75 9.75C6.366 21.5 2 17.135 2 11.75Z" clip-rule="evenodd"/>
  <path fill="#AF6408" fill-rule="evenodd" d="M9.45 10.418a1.748 1.748 0 0 0-2.471 0 .63.63 0 1 1-.892-.892 3.01 3.01 0 0 1 4.255 0 .63.63 0 0 1-.892.892ZM8.228 7.342a1.643 1.643 0 0 0-1.542.972.63.63 0 1 1-1.151-.515A2.905 2.905 0 0 1 8.26 6.081a.63.63 0 0 1-.033 1.26Zm6.7 0a1.643 1.643 0 0 1 1.542.972.63.63 0 1 0 1.152-.515 2.905 2.905 0 0 0-2.726-1.718.63.63 0 0 0 .032 1.26Z" clip-rule="evenodd"/>
  <path fill="#AF6408" d="M6.533 12.494a.63.63 0 0 1 .807-.605l.262.076a14.2 14.2 0 0 0 7.953 0l.261-.076a.63.63 0 0 1 .808.605 5.046 5.046 0 0 1-10.091 0Z"/>
  <path fill="#71AAFF" d="M22.194 11.825c.531 1.02.096 2.3-.972 2.856-1.069.557-2.366.18-2.898-.842-.532-1.021-2.029-2.861-.96-3.418 1.069-.556 4.298.382 4.83 1.404Zm-21.231 0c-.532 1.02-.097 2.3.972 2.856 1.068.557 2.366.18 2.897-.842.532-1.021 2.029-2.861.96-3.418-1.068-.556-4.297.382-4.829 1.404Z"/>
</svg>
