<svg xmlns="http://www.w3.org/2000/svg" fill="none" viewBox="0 0 24 24">
  <path fill="#F1635A" d="M17.25 14.25c1.117-1.095 2.25-2.408 2.25-4.125A4.125 4.125 0 0 0 15.375 6c-1.32 0-2.25.375-3.375 1.5C10.875 6.375 9.945 6 8.625 6A4.125 4.125 0 0 0 4.5 10.125c0 1.725 1.125 3.037 2.25 4.125l3.836 3.836a2 2 0 0 0 2.828 0l3.836-3.836Z"/>
  <path fill="#D02E25" fill-rule="evenodd" d="M5.178 6.678A4.875 4.875 0 0 1 8.625 5.25c.735 0 1.405.105 2.06.39.46.2.89.48 1.315.84a5.33 5.33 0 0 1 1.315-.84c.655-.285 1.325-.39 2.06-.39a4.875 4.875 0 0 1 4.875 4.875c0 2.056-1.357 3.565-2.472 4.658l-3.833 3.833a2.75 2.75 0 0 1-3.89 0l-3.83-3.831c-1.13-1.091-2.475-2.598-2.475-4.66 0-1.293.514-2.533 1.428-3.447Zm3.447.072a3.375 3.375 0 0 0-3.375 3.375c0 1.385.9 2.502 2.021 3.586l.01.009 3.835 3.835a1.25 1.25 0 0 0 1.768 0l3.841-3.84c1.12-1.097 2.025-2.213 2.025-3.59a3.375 3.375 0 0 0-3.375-3.375c-.585 0-1.04.082-1.461.266-.426.185-.864.495-1.384 1.014a.75.75 0 0 1-1.06 0c-.52-.52-.958-.829-1.384-1.014-.42-.184-.876-.266-1.461-.266Z" clip-rule="evenodd"/>
</svg>
