<svg xmlns="http://www.w3.org/2000/svg" fill="none" viewBox="0 0 24 24">
  <path fill="#FFD97A" stroke="#AF6408" stroke-width="1.263" d="M21.518 12.26A9.26 9.26 0 1 1 3 12.258a9.26 9.26 0 0 1 18.518 0Z"/>
  <path stroke="#AF6408" stroke-linecap="round" stroke-width="1.263" d="M7.209 10.576v0c.693-1.388 2.673-1.388 3.367 0v0m3.367 0v0c.693-1.388 2.673-1.388 3.367 0v0"/>
  <path fill="#AF6408" d="M7.209 13.101c0-.42.404-.724.808-.606l.262.076c2.6.759 5.361.759 7.96 0l.263-.076a.631.631 0 0 1 .808.606 5.05 5.05 0 1 1-10.101 0Z"/>
</svg>
