<svg xmlns="http://www.w3.org/2000/svg" fill="none" viewBox="0 0 24 24">
  <path fill="var(--link-color)" fill-rule="evenodd" d="M12.03 3.022c-.82-.132-1.669.334-1.958 1.146a17.14 17.14 0 0 0-.485 1.649l-.02.079a11.8 11.8 0 0 1-.338 1.178c-.263.724-.712 1.534-1.878 2.816H5.75A2.75 2.75 0 0 0 3 12.64v5a2.75 2.75 0 0 0 2.75 2.75h9.56a3.75 3.75 0 0 0 3.572-2.607l1.747-5.457a2.75 2.75 0 0 0-2.62-3.588h-3.09c-.256-2.118-.58-3.44-1-4.272-.239-.476-.526-.827-.88-1.067a2.423 2.423 0 0 0-1.009-.377Zm-.545 1.65c.036-.102.17-.19.306-.169.196.032.31.072.404.136.094.064.23.193.385.502.329.652.658 1.924.924 4.426a.75.75 0 0 0 .746.67h3.76a1.25 1.25 0 0 1 1.19 1.632l-1.747 5.457a2.25 2.25 0 0 1-2.143 1.564H8.5v-8.035c1.229-1.357 1.794-2.32 2.139-3.27.163-.447.272-.881.378-1.306l.024-.096c.117-.462.241-.942.444-1.512ZM7 18.89v-7.5H5.75c-.69 0-1.25.56-1.25 1.25v5c0 .69.56 1.25 1.25 1.25H7Z" clip-rule="evenodd"/>
  <path fill="var(--link-color)" fill-opacity=".2" d="m5.71 10.76 2.71-.075c2.265-2.799 1.854-3.653 2.59-6.028.14-.447.56-.72.969-.644.844.156 2.064.694 2.521 5.616L19 10c1.159 0 1.353 1.734 1 3l-2 5.5c-.34 1.219-.998 1.09-2.114 1.09H5.71c-.944 0-1.71-.88-1.71-1.963v-4.905c0-1.084.766-1.962 1.71-1.962Z"/>
</svg>
