<svg xmlns="http://www.w3.org/2000/svg" fill="none" viewBox="0 0 24 24">
  <path fill="#697687" fill-rule="evenodd" d="M11.732 21.368c.82.132 1.669-.334 1.958-1.146a17.2 17.2 0 0 0 .485-1.649l.02-.079c.11-.441.202-.805.338-1.178.263-.724.712-1.534 1.878-2.816h1.6a2.75 2.75 0 0 0 2.75-2.75v-5A2.75 2.75 0 0 0 18.012 4h-9.56A3.75 3.75 0 0 0 4.88 6.607l-1.747 5.457a2.75 2.75 0 0 0 2.62 3.588h3.09c.256 2.118.58 3.44.999 4.272.24.476.527.827.88 1.067.354.24.712.329 1.01.377Zm.545-1.65c-.036.102-.17.19-.306.169-.196-.032-.31-.072-.405-.136-.093-.064-.229-.193-.384-.502-.329-.652-.658-1.924-.925-4.426a.75.75 0 0 0-.745-.67h-3.76a1.25 1.25 0 0 1-1.19-1.632l1.746-5.457A2.25 2.25 0 0 1 8.451 5.5h6.81v8.034c-1.228 1.358-1.794 2.321-2.138 3.27-.163.448-.272.882-.379 1.307l-.024.096c-.116.462-.24.942-.444 1.512ZM16.762 5.5V13h1.25c.69 0 1.25-.56 1.25-1.25v-5c0-.69-.56-1.25-1.25-1.25h-1.25Z" clip-rule="evenodd"/>
  <path fill="#697687" d="m18.051 13.63-2.71.075c-2.264 2.799-1.853 3.653-2.59 6.028-.139.447-.56.72-.968.645-.844-.157-2.065-.695-2.521-5.617l-4.5-.371c-1.16 0-1.354-1.734-1-3l2-5.5c.34-1.219.998-1.09 2.113-1.09h10.176c.945 0 1.71.88 1.71 1.963v4.905c0 1.084-.765 1.962-1.71 1.962Z" opacity=".2"/>
</svg>
