<svg xmlns="http://www.w3.org/2000/svg" fill="none" viewBox="0 0 24 24"><path fill="#C7ED98" d="M20.675 10.452c-.4.92-1.24 2.63-2.49 4.15-.17.21-.36.41-.58.57-.18.68-.44 1.41-.76 2.13a3.8 3.8 0 0 1-1.32 1.56c-.48.32-1.18.76-2.18 1.29-.25.13-.49.25-.71.37-1.69.84-3.72.61-4.98-.72-.92-.98-1.74-2.09-2.36-3.08-.8-1.28-1.32-2.4-1.62-3.13-.23-.55-.18-1.19.3-1.59.1-.08.21-.16.33-.22.57-.31 1.23-.05 1.63.43l1.54 1.86c-.22-.34-1.17-1.8-1.85-2.89-.43-.69-.32-1.55.4-1.99.07-.04.15-.08.23-.13.04-.02.07-.04.11-.05.22-.11.45-.15.68-.14-.09-.53-.15-.99-.18-1.35-.06-.61.16-1.23.72-1.49.11-.06.24-.1.37-.14.62-.14 1.17.28 1.41.86l.53 1.28s.09 0 .13.01c-.19-.69-.46-1.62-.66-2.39-.21-.78.13-1.61.93-1.85.08-.02.16-.04.25-.06l.12-.03c.8-.17 1.5.43 1.71 1.2.26.96.58 2.16.74 2.75-.14-.6-.35-1.57-.51-2.34-.16-.74.18-1.47.92-1.65.05 0 .09-.02.14-.03.72-.13 1.36.37 1.63 1.04.46 1.17 1.21 3.16 1.78 5.27 0 0 .41-.51 1.09-1.22.59-.63 1.59-.76 2.16-.1.12.14.24.3.34.48.25.41.2.91.01 1.34"/><path fill="#5B7525" d="M6.605 3.452v1.52a.749.749 0 1 1-1.5 0v-1.52c0-.42.33-.75.75-.75s.75.33.75.75m-1.76 3.58c.29-.29.29-.77 0-1.06l-1.54-1.53a.745.745 0 0 0-1.06.01c-.29.29-.29.77 0 1.06l1.54 1.52c.15.15.34.22.53.22s.38-.07.53-.22m-1.3 2.51a.749.749 0 1 0 0-1.5h-1.54a.749.749 0 1 0 0 1.5z"/><path fill="#5B7525" fill-rule="evenodd" d="M20.885 8.142c.15.17.3.37.43.58v-.01c.34.59.36 1.33.05 2.04-.41.92-1.29 2.71-2.59 4.32-.16.19-.33.37-.51.53-.19.64-.44 1.33-.74 2-.35.76-.89 1.4-1.58 1.87-.62.42-1.38.87-2.25 1.33q-.255.136-.488.255l-.242.125c-.78.39-1.6.57-2.41.57-1.3 0-2.54-.49-3.44-1.45-.87-.92-1.74-2.05-2.46-3.2-.83-1.32-1.37-2.49-1.67-3.23-.38-.93-.18-1.89.51-2.46.15-.12.3-.22.45-.31.24-.12.5-.19.75-.21-.09-.35-.1-.71-.01-1.06.13-.53.47-.99.95-1.29l.27-.15.13-.07c.039-.023.084-.04.126-.057l.034-.013a10 10 0 0 1-.08-.67c-.09-.99.36-1.87 1.15-2.24q.255-.12.51-.18c.27-.07.53-.07.78-.02.01-.96.59-1.78 1.52-2.06.09-.03.19-.06.29-.08l.13-.03h.02c.68-.14 1.36.08 1.86.54.25-.28.59-.47.98-.57l.17-.03c1.03-.2 2.04.42 2.46 1.49.41 1.01.94 2.45 1.43 4.03q.052-.053.105-.11l.105-.11c.48-.5 1.13-.78 1.79-.77.58.02 1.1.26 1.47.7m-10.17-3.67c-.07.01-.14.03-.2.05-.43.13-.52.58-.43.94l.234.83c.109.38.219.766.316 1.12.44.15.85.43 1.16.83.69.85 1.63 2.08 2.56 3.46l.025-.045c.044-.08.094-.171.145-.255.32-.59.87-1.02 1.51-1.18.11-.03.22-.05.33-.05l-.01-.02c-.55-2.03-1.26-3.94-1.76-5.19-.13-.34-.45-.65-.8-.58l-.09.02c-.4.1-.42.52-.37.76.19.91.45 2.1.58 2.6a.75.75 0 1 1-1.45.39c-.08-.31-.5-1.87-.82-3.05-.1-.38-.42-.74-.83-.66 0 .01-.1.03-.1.03m-2.59 2.15c-.07.02-.14.05-.22.09-.26.12-.32.46-.3.74.02.22.05.48.1.78.11.04.21.08.31.13.18-.34.46-.62.82-.81l.04-.02-.2-.49c-.07-.16-.24-.42-.48-.42zm8.83 8.1c.24-.85.37-1.6.44-2.1.02-.15.03-.43-.15-.6a2.4 2.4 0 0 0-.37-.28.6.6 0 0 0-.47-.07.96.96 0 0 0-.57.46c-.35.628-.578 1.106-.668 1.294l-.042.086c-.11.25-.35.42-.63.44a.76.76 0 0 1-.69-.34c-.99-1.58-2.08-3.04-2.91-4.08-.09-.12-.18-.24-.27-.35-.24-.3-.65-.51-1-.34l-.09.04-.025.015a.15.15 0 0 0-.055.045q-.12.075-.15.21c-.04.14-.01.33.08.5l.14.253c.424.764.917 1.652 1.16 2.047a.747.747 0 1 1-1.27.79l-.273-.433c-.238-.374-.56-.883-.877-1.397l-.297-.478-.213-.342c-.22-.35-.66-.6-1.06-.41l-.09.05a.6.6 0 0 0-.119.06l-.031.02-.02.01a.54.54 0 0 0-.29.37c-.05.18 0 .4.12.59.22.37.48.78.74 1.17.59.94 1.15 1.79 1.15 1.79.19.3.14.68-.1.92q-.045.06-.09.09a.75.75 0 0 1-1.02-.13l-1.59-1.93c-.13-.16-.34-.29-.53-.29-.06 0-.12.01-.17.04-.07.03-.14.08-.21.14-.26.22-.11.65-.08.73.29.69.79 1.78 1.56 3.01.67 1.06 1.47 2.11 2.28 2.96 1 1.06 2.64 1.29 4.09.56.214-.097.437-.214.68-.34l.02-.01c.82-.44 1.53-.86 2.11-1.25.46-.31.82-.74 1.05-1.25l.036-.078a3 3 0 0 0 .104-.242c.29-.66.5-1.34.66-1.95m1.95-2.48c.51-.84.87-1.59 1.09-2.09.05-.12.16-.43.03-.66a2.6 2.6 0 0 0-.258-.354l-.012-.016a.5.5 0 0 0-.38-.18c-.22.01-.48.11-.66.3-.65.69-1.05 1.18-1.05 1.18l-.03.03c.01 0 .03.01.04.02.2.13.4.27.58.44.38.34.6.81.65 1.33" clip-rule="evenodd"/></svg>