<svg xmlns="http://www.w3.org/2000/svg" viewBox="0 0 24 24"><path fill="var(--link-color)" fill-rule="evenodd" d="M12.28 2.382c-.82-.132-1.669.334-1.958 1.146a17 17 0 0 0-.485 1.649l-.02.079a12 12 0 0 1-.338 1.178c-.263.724-.712 1.534-1.878 2.816H6A2.75 2.75 0 0 0 3.25 12v5A2.75 2.75 0 0 0 6 19.75h9.56a3.75 3.75 0 0 0 3.572-2.607l1.747-5.457a2.75 2.75 0 0 0-2.62-3.588h-3.09c-.256-2.118-.58-3.44-1-4.272-.239-.476-.526-.827-.88-1.067a2.4 2.4 0 0 0-1.009-.377m-.545 1.65c.036-.102.17-.19.306-.169.196.032.31.072.404.136s.23.193.385.502c.329.652.658 1.924.924 4.426a.75.75 0 0 0 .746.67h3.76a1.25 1.25 0 0 1 1.19 1.632l-1.747 5.457a2.25 2.25 0 0 1-2.143 1.564H8.75v-8.034c1.229-1.358 1.794-2.322 2.139-3.27.163-.448.272-.882.378-1.307l.024-.096c.117-.462.241-.942.444-1.512ZM7.25 18.25v-7.5H6c-.69 0-1.25.56-1.25 1.25v5c0 .69.56 1.25 1.25 1.25z" clip-rule="evenodd"/><path fill="var(--link-color)" d="m5.71 9.76 2.71-.075c2.265-2.799 1.854-3.653 2.59-6.028.14-.447.56-.72.969-.644.844.156 2.064.694 2.521 5.616L19 9c1.159 0 1.353 1.734 1 3l-2 5.5c-.34 1.219-.998 1.09-2.114 1.09H5.71c-.944 0-1.71-.88-1.71-1.963v-4.905c0-1.084.766-1.962 1.71-1.962" opacity=".2"/></svg>