<svg xmlns="http://www.w3.org/2000/svg" fill="none" viewBox="0 0 24 24"><path fill="#FFD97A" d="M21 12a9 9 0 1 1-18 0 9 9 0 0 1 18 0"/><path fill="#AF6408" d="M10.182 11.318c0 .879-.509 1.591-1.137 1.591-.627 0-1.136-.712-1.136-1.59 0-.88.509-1.592 1.136-1.592.628 0 1.137.713 1.137 1.591m4.772-.045c.628 0 1.137-.713 1.137-1.591 0-.879-.509-1.591-1.137-1.591-.627 0-1.136.712-1.136 1.59 0 .88.509 1.592 1.136 1.592m-4.78 5.862c1.736-1.419 3.395-2.157 5.84-2.398a.75.75 0 0 0-.147-1.492c-2.748.27-4.685 1.129-6.643 2.729a.75.75 0 1 0 .95 1.161"/><path fill="#AF6408" fill-rule="evenodd" d="M12 2.25c-5.384 0-9.75 4.366-9.75 9.75s4.366 9.75 9.75 9.75A9.75 9.75 0 0 0 21.75 12c0-5.384-4.365-9.75-9.75-9.75M3.75 12a8.25 8.25 0 1 1 16.501.001A8.25 8.25 0 0 1 3.75 12" clip-rule="evenodd"/></svg>