<svg xmlns="http://www.w3.org/2000/svg" fill="none" viewBox="0 0 24 24"><path fill="#000" fill-opacity=".2" d="m7.2 9.892 1.71-.065c2.265-2.44 1.854-3.184 2.59-5.254a.89.89 0 0 1 .969-.562c.843.136 1.544.605 2 4.896h3.216a1.71 1.71 0 0 1 1.629 2.232l-1.494 4.667a2.57 2.57 0 0 1-2.444 1.783H7.2a1.71 1.71 0 0 1-1.71-1.71v-4.276A1.71 1.71 0 0 1 7.2 9.892"/><path fill="#000" fill-rule="evenodd" d="M12.258 4.77a.1.1 0 0 0-.05.054 13 13 0 0 0-.377 1.283l-.02.083c-.092.363-.187.739-.328 1.128-.298.82-.784 1.648-1.822 2.8v6.721h5.715c.79 0 1.489-.51 1.73-1.262l1.493-4.667a.96.96 0 0 0-.914-1.253H14.47a.75.75 0 0 1-.746-.67c-.228-2.14-.508-3.21-.78-3.749-.126-.251-.232-.346-.293-.388-.062-.042-.142-.073-.302-.099a.14.14 0 0 0-.091.019M8.16 16.84v-6.234l-.932.036a.96.96 0 0 0-.989.96v4.277c0 .53.43.96.96.96h.96zm.407-7.75c.933-1.04 1.294-1.698 1.506-2.284.114-.314.191-.62.287-1l.016-.065c.102-.404.221-.867.418-1.42a1.64 1.64 0 0 1 1.794-1.05c.262.042.586.12.907.339s.578.535.79.954c.36.715.635 1.834.853 3.593h2.547a2.46 2.46 0 0 1 2.343 3.21l-1.494 4.668a3.32 3.32 0 0 1-3.158 2.304H7.2a2.46 2.46 0 0 1-2.46-2.46v-4.276a2.46 2.46 0 0 1 2.445-2.46z" clip-rule="evenodd"/></svg>