<svg xmlns="http://www.w3.org/2000/svg" fill="none" viewBox="0 0 24 24">
  <path fill="#FFD97A" d="M8.61 16.132a5.564 5.564 0 0 1-1.55-1.89c-.37-.74-.56-1.55-.56-2.37-.02-2.96 2.39-5.42 5.37-5.48 1.15-.03 2.29.31 3.24.95.95.65 1.68 1.58 2.07 2.65.39 1.08.43 2.25.11 3.35a5.46 5.46 0 0 1-1.89 2.78c-.2.15-.36.35-.48.58-.11.23-.17.47-.17.73v.41c0 .14-.06.28-.16.39-.1.1-.24.16-.39.16H9.8c-.15 0-.29-.06-.39-.16-.1-.1-.16-.24-.16-.39v-.41a1.622 1.622 0 0 0-.64-1.29v-.01Z"/>
  <path fill="#AF6408" d="M12.75 3.132v-1c0-.41-.34-.75-.75-.75s-.75.34-.75.75v1c0 .41.34.75.75.75s.75-.34.75-.75Zm-7.22 4.53c.29-.29.29-.77 0-1.06l-1-1a.754.754 0 0 0-1.06 0c-.29.29-.29.77 0 1.06l1 1c.15.15.34.22.53.22s.38-.07.53-.22Z"/>
  <path fill="#AF6408" fill-rule="evenodd" d="M17.88 9.732a6.207 6.207 0 0 0-2.35-3.02 6.252 6.252 0 0 0-3.68-1.08c-3.38.08-6.12 2.88-6.1 6.24 0 .93.23 1.86.64 2.7.41.83 1.02 1.58 1.76 2.15a.864.864 0 0 1 .35.7v.41c0 .35.14.67.38.92.24.24.58.38.92.38h4.4c.34 0 .68-.14.92-.38s.38-.57.38-.92v-.4c0-.14.03-.28.09-.4.07-.12.15-.23.27-.32 1.04-.81 1.78-1.9 2.15-3.16.36-1.26.32-2.58-.13-3.82Zm-1.31 3.4c-.28.96-.84 1.79-1.63 2.4a2.4 2.4 0 0 0-.69.83c-.16.33-.25.7-.25 1.06v.21h-1.25v-4.84l1.19-.59c.37-.18.52-.64.33-1.01a.747.747 0 0 0-1.01-.33l-1.26.63-1.26-.63a.747.747 0 0 0-1.01.33c-.19.38-.04.83.33 1.01l1.19.59v4.84H10v-.21c0-.36-.09-.72-.25-1.05-.16-.32-.39-.61-.68-.83-.56-.44-1.02-1-1.34-1.64-.31-.63-.48-1.34-.48-2.04-.01-2.55 2.06-4.67 4.64-4.73a4.737 4.737 0 0 1 4.58 3.11c.34.94.37 1.94.1 2.89Z" clip-rule="evenodd"/>
  <path fill="#AF6408" d="M14.4 21.882H9.6c-.41 0-.75-.34-.75-.75s.34-.75.75-.75h4.8c.41 0 .75.34.75.75s-.34.75-.75.75Zm6.13-15.22-1 1c-.15.15-.34.22-.53.22s-.38-.07-.53-.22a.754.754 0 0 1 0-1.06l1-1c.29-.29.77-.29 1.06 0 .29.29.29.77 0 1.06Z"/>
</svg>
