<svg xmlns="http://www.w3.org/2000/svg" fill="none" viewBox="0 0 16 16"><path d="M13.75 9.647a1.224 1.224 0 0 1-.06 1.569l-1.227-1.228a5.36 5.36 0 0 1-.826-2.608l-.066-1.354a3.575 3.575 0 0 0-5.739-2.669l-.89-.89a4.825 4.825 0 0 1 7.877 3.497l.066 1.355c.042.847.35 1.657.864 2.328ZM4.363 7.38l.025-.517-1.185-1.185a5 5 0 0 0-.022.287l-.066 1.354a4.16 4.16 0 0 1-.864 2.328c-.621.809-.044 1.978.975 1.978H9.15l-1.25-1.25H3.267A5.36 5.36 0 0 0 4.363 7.38m5.149 5.23a.62.62 0 0 1 .395-.228l.711.711a.6.6 0 0 1-.13.298c-.596.743-1.482 1.234-2.488 1.234s-1.892-.49-2.488-1.234a.625.625 0 1 1 .976-.782c.387.484.93.766 1.512.766.583 0 1.125-.282 1.512-.766ZM1.558 2.442l12 12 .884-.884-12-12z"/></svg>