<svg xmlns="http://www.w3.org/2000/svg" fill="none" viewBox="0 0 16 16"><path fill="#000" d="M9.512 12.61a.625.625 0 1 1 .976.78c-.596.744-1.481 1.235-2.488 1.235s-1.892-.49-2.488-1.234a.626.626 0 0 1 .976-.782c.387.484.93.766 1.512.766.583 0 1.125-.282 1.512-.766ZM8.024 1.374a5 5 0 0 1 .25.009c.162.008.385.025.627.06a4.5 4.5 0 0 1 .773.174c.248.083.543.215.768.44a.626.626 0 0 1-.884.884.8.8 0 0 0-.28-.138 3.3 3.3 0 0 0-.554-.122 6 6 0 0 0-.673-.056l-.04-.001H8l-.178.004a3.576 3.576 0 0 0-3.394 3.396L4.363 7.38a5.36 5.36 0 0 1-1.096 2.995h9.364c.017 0 .023-.004.027-.006a.1.1 0 0 0 .018-.022.1.1 0 0 0 .006-.028c0-.003 0-.012-.01-.025a.625.625 0 1 1 .99-.76c.656.854.047 2.09-1.03 2.091H3.225c-1.02 0-1.596-1.17-.976-1.979l.02-.025a4.1 4.1 0 0 0 .845-2.302l.066-1.354A4.825 4.825 0 0 1 8 1.375zm5.469 2.26a.626.626 0 0 1 1.014.73l-2.4 3.333a.624.624 0 0 1-.907.115L9.6 6.48a.626.626 0 0 1 .8-.96l1.085.903 2.008-2.788Z"/></svg>