<svg xmlns="http://www.w3.org/2000/svg" fill="none" viewBox="0 0 16 16"><path fill="#000" d="M11.24 5.363a1.29 1.29 0 0 1 1.827 0l.903.904a1.29 1.29 0 0 1 0 1.826L8.903 13.16a.6.6 0 0 1-.29.164l-2.461.616a.626.626 0 0 1-.759-.758l.616-2.462.026-.08a.6.6 0 0 1 .138-.21zm-4.06 5.828-.322 1.283 1.284-.322 3.23-3.23-.962-.961zm4.945-4.944-.831.83.963.962.83-.83a.04.04 0 0 0 0-.059l-.904-.903a.04.04 0 0 0-.058 0M12.709 4a.71.71 0 0 0-.71-.708H4A.71.71 0 0 0 3.293 4v1.375h4v1.25h-4v6.042c0 .023.019.041.042.041a.626.626 0 0 1 0 1.25 1.29 1.29 0 0 1-1.292-1.291V4c0-1.081.876-1.958 1.958-1.958h.042V2a.625.625 0 1 1 1.25 0v.042h5.417V2a.625.625 0 1 1 1.25 0v.042H12c1.082 0 1.96.876 1.96 1.958a.625.625 0 0 1-1.25 0Z"/></svg>