<svg xmlns="http://www.w3.org/2000/svg" fill="none" viewBox="0 0 16 16">
  <path fill="#000" d="M12.826 9.635a.626.626 0 0 1 1.014.73l-2.4 3.333a.624.624 0 0 1-.907.115l-1.6-1.333a.626.626 0 0 1 .8-.96l1.085.903 2.008-2.788ZM12.709 4a.709.709 0 0 0-.71-.708H4A.708.708 0 0 0 3.293 4v1.375h9.417V4Zm1.25 2.667a.626.626 0 0 1-1.25 0v-.042H3.292V12c0 .391.317.708.708.708h2.667a.625.625 0 0 1 0 1.25H4A1.958 1.958 0 0 1 2.042 12V4c0-1.081.876-1.958 1.958-1.958h.042V2a.625.625 0 0 1 1.25 0v.042h5.417V2a.625.625 0 1 1 1.25 0v.042h.04c1.082 0 1.96.876 1.96 1.958v2.667Z"/>
</svg>
