<svg viewBox="0 0 16 16" xmlns="http://www.w3.org/2000/svg"><path d="M5.75 1a.75.75 0 0 0-1.5 0v2a.75.75 0 0 0 1.5 0V1Zm2.22.97a4.286 4.286 0 1 1 6.06 6.06l-.5.5a.75.75 0 1 1-1.06-1.06l.5-.5a2.786 2.786 0 0 0-3.94-3.94l-.5.5a.75.75 0 0 1-1.06-1.06l.5-.5ZM1 4.25a.75.75 0 0 0 0 1.5h2a.75.75 0 0 0 0-1.5H1Zm2.53 3.22a.75.75 0 0 1 0 1.06l-.5.5a2.786 2.786 0 0 0 3.94 3.94l.5-.5a.75.75 0 0 1 1.06 1.06l-.5.5a4.286 4.286 0 0 1-6.06-6.06l.5-.5a.75.75 0 0 1 1.06 0ZM13 10.25a.75.75 0 0 0 0 1.5h2a.75.75 0 0 0 0-1.5h-2ZM11.75 13a.75.75 0 0 0-1.5 0v2a.75.75 0 0 0 1.5 0v-2Z"/></svg>