<svg xmlns="http://www.w3.org/2000/svg" viewBox="0 0 16 16"><path d="M1.75 3a.75.75 0 0 0-1.5 0v10a.75.75 0 0 0 1.5 0V8.75h5.5V13a.75.75 0 0 0 1.5 0V3a.75.75 0 0 0-1.5 0v4.25h-5.5zm11.064 6.225q-.19.015-.395.055l.205-1.205h1.74q.246 0 .42-.05a.74.74 0 0 0 .28-.15.6.6 0 0 0 .16-.23.8.8 0 0 0 .05-.29v-.64h-3.73l-.62 3.645.96.26q.471-.185.96-.185.55 0 .85.28.3.275.3.805 0 .27-.065.51-.06.235-.2.415a.96.96 0 0 1-.355.28q-.22.1-.53.1a1.5 1.5 0 0 1-.52-.08 2.4 2.4 0 0 1-.37-.175 9 9 0 0 0-.29-.18.5.5 0 0 0-.28-.085.5.5 0 0 0-.39.205l-.48.64q.195.19.435.36.24.165.52.295.285.125.605.2.326.075.68.075.61 0 1.12-.19a2.6 2.6 0 0 0 .885-.545 2.4 2.4 0 0 0 .575-.83q.21-.485.21-1.07 0-.465-.155-.87a1.9 1.9 0 0 0-.45-.71 2.1 2.1 0 0 0-.74-.48 2.7 2.7 0 0 0-1.015-.175q-.18 0-.37.015"/></svg>