<svg xmlns="http://www.w3.org/2000/svg" viewBox="0 0 16 16"><path d="M1.75 3a.75.75 0 0 0-1.5 0v10a.75.75 0 0 0 1.5 0V8.75h5.5V13a.75.75 0 0 0 1.5 0V3a.75.75 0 0 0-1.5 0v4.25h-5.5zm9.194 4.845q-.225.405-.305.95l.82.145q.315.05.485-.04t.275-.365a.93.93 0 0 1 .91-.635q.426 0 .63.235.21.23.21.66a1.4 1.4 0 0 1-.05.385.6.6 0 0 1-.205.3q-.15.12-.43.19a3 3 0 0 1-.735.07v1.07q.54 0 .84.075.306.07.455.205t.18.325q.035.184.035.42 0 .18-.065.355a.94.94 0 0 1-.515.54 1.1 1.1 0 0 1-.45.085 1 1 0 0 1-.595-.185q-.25-.19-.475-.605a.47.47 0 0 0-.33-.23.86.86 0 0 0-.5.055l-.69.28q.176.51.41.88.24.37.555.61.315.235.72.35.406.11.925.11.505 0 .97-.14.465-.145.815-.43.355-.285.565-.715t.21-1.01q0-1.225-1.21-1.65.26-.09.46-.22.205-.135.34-.325a1.4 1.4 0 0 0 .21-.455q.07-.265.07-.61a1.76 1.76 0 0 0-.59-1.325 2.1 2.1 0 0 0-.71-.41 2.8 2.8 0 0 0-.96-.155 3.1 3.1 0 0 0-.935.135q-.435.13-.775.4-.335.27-.565.675"/></svg>