<svg viewBox="0 0 16 16" xmlns="http://www.w3.org/2000/svg"><path d="M1.75 3a.75.75 0 0 0-1.5 0v10a.75.75 0 0 0 1.5 0V8.75h5.5V13a.75.75 0 0 0 1.5 0V3a.75.75 0 0 0-1.5 0v4.25h-5.5V3Zm13.724 9.74a.545.545 0 0 0-.395-.14h-1.36c-.153 0-.32.015-.5.045s-.361.073-.545.13l1.425-1.46c.194-.197.375-.39.545-.58.174-.193.325-.392.455-.595a2.87 2.87 0 0 0 .305-.65c.077-.227.115-.473.115-.74 0-.31-.055-.593-.165-.85a1.852 1.852 0 0 0-.465-.67 2.141 2.141 0 0 0-.74-.435 2.767 2.767 0 0 0-.97-.16 3.14 3.14 0 0 0-.935.135c-.29.087-.548.22-.775.4-.223.18-.412.405-.565.675-.15.27-.252.587-.305.95l.82.145c.21.033.372.02.485-.04.114-.06.205-.182.275-.365a.926.926 0 0 1 .91-.635c.284 0 .493.078.63.235.14.153.21.375.21.665a1.925 1.925 0 0 1-.26.98 3.266 3.266 0 0 1-.33.48c-.133.163-.29.335-.47.515l-2.1 2.115c-.1.09-.17.19-.21.3a.91.91 0 0 0-.06.31v.5h5.12v-.9c0-.15-.048-.27-.145-.36Z"/></svg>