<svg xmlns="http://www.w3.org/2000/svg" viewBox="0 0 16 16"><path d="M1.75 3a.75.75 0 0 0-1.5 0v10a.75.75 0 0 0 1.5 0V8.75h5.5V13a.75.75 0 0 0 1.5 0V3a.75.75 0 0 0-1.5 0v4.25h-5.5zm13.724 9.74a.55.55 0 0 0-.395-.14h-1.36q-.23 0-.5.045c-.27.045-.361.073-.545.13l1.425-1.46q.29-.295.545-.58.26-.29.455-.595a3 3 0 0 0 .305-.65q.115-.34.115-.74 0-.465-.165-.85a1.85 1.85 0 0 0-.465-.67 2.1 2.1 0 0 0-.74-.435 2.8 2.8 0 0 0-.97-.16 3.1 3.1 0 0 0-.935.135q-.435.13-.775.4-.335.27-.565.675-.225.405-.305.95l.82.145q.315.05.485-.04t.275-.365a.93.93 0 0 1 .91-.635q.425 0 .63.235.21.23.21.665a1.9 1.9 0 0 1-.26.98 3.3 3.3 0 0 1-.33.48q-.2.245-.47.515l-2.1 2.115q-.15.135-.21.3a.9.9 0 0 0-.06.31v.5h5.12v-.9q0-.225-.145-.36"/></svg>