<svg xmlns="http://www.w3.org/2000/svg" fill="none" viewBox="0 0 16 16"><path fill="#09C6FA" d="M9.884 2.044c.83 0 1.662.003 2.493 0 .42-.003.794.11 1.112.387.348.305.55.688.552 1.15.007 1.682.027 3.364-.005 5.045-.028 1.514-.571 2.85-1.572 3.99-1.045 1.191-2.362 1.901-3.934 2.123a6.2 6.2 0 0 1-3.511-.511c-1.56-.717-2.663-1.883-3.305-3.47a6.1 6.1 0 0 1-.41-2.981A6.3 6.3 0 0 1 2.857 4.22a6.3 6.3 0 0 1 3.2-1.972 6.4 6.4 0 0 1 1.654-.203zM8.648 7.723q-.732-.002-1.462.001c-.085 0-.112-.014-.08-.105.12-.352.232-.706.348-1.06l.358-1.092c.03-.094 0-.17-.082-.217-.083-.046-.166-.03-.228.048q-.05.066-.098.134L5.7 7.802q-.34.472-.68.94a.23.23 0 0 0-.028.25c.043.09.12.125.215.129l.122.001h2.747c.166 0 .17 0 .116.163l-.672 2.046c-.041.123-.022.2.067.249.089.05.166.028.247-.074l.033-.044 2.418-3.342c.06-.083.09-.17.04-.267-.051-.097-.138-.132-.249-.131-.476.003-.952 0-1.428 0Z"/></svg>