<svg xmlns="http://www.w3.org/2000/svg" viewBox="0 0 16 16"><path d="M12.223 4.957c0-.857-.671-1.522-1.462-1.522S9.299 4.1 9.299 4.957c0 .435.174.888.463 1.228.288.34.647.523.999.523s.711-.183.999-.523a1.95 1.95 0 0 0 .463-1.228m1.25 0a3.2 3.2 0 0 1-.759 2.036c-.468.552-1.153.965-1.953.965s-1.485-.413-1.952-.965a3.2 3.2 0 0 1-.76-2.036c0-1.514 1.198-2.772 2.712-2.772s2.712 1.258 2.712 2.772M5.962 6.018c0-.684-.524-1.191-1.114-1.191s-1.115.507-1.115 1.191c0 .347.138.709.365.98.226.272.497.405.75.405.252 0 .523-.133.75-.404.226-.272.364-.634.364-.98Zm1.25 0c0 .657-.252 1.299-.654 1.781-.404.483-1.002.854-1.71.854s-1.307-.37-1.71-.854a2.82 2.82 0 0 1-.655-1.78c0-1.323 1.034-2.442 2.365-2.442 1.33 0 2.364 1.119 2.364 2.441m3.548 2.429c2.146 0 3.378.994 4.047 2.023a5.1 5.1 0 0 1 .743 1.956l.005.041.002.013v.134a.625.625 0 0 1-1.218.123l-.026-.124-.001-.017a4 4 0 0 0-.092-.419 3.8 3.8 0 0 0-.461-1.025c-.462-.71-1.317-1.455-2.998-1.455s-2.537.745-2.998 1.455a3.8 3.8 0 0 0-.552 1.444l-.002.018a.625.625 0 0 1-1.244 0v-.134l.003-.013.005-.041a5 5 0 0 1 .127-.59 5 5 0 0 1 .615-1.366c.669-1.03 1.9-2.023 4.046-2.023Zm-5.912.696a5.8 5.8 0 0 1 1.637.22 7.5 7.5 0 0 0-.592 1.136 4.8 4.8 0 0 0-1.045-.106c-1.559 0-2.33.604-2.728 1.14a2.7 2.7 0 0 0-.466 1.023l-.01.06-.003.005.001.001v.004l-.027.12A.625.625 0 0 1 .4 12.48l.621.071-.62-.071v-.01l.002-.012.005-.036a4 4 0 0 1 .123-.5c.1-.31.278-.723.587-1.138.638-.855 1.781-1.642 3.73-1.642Z"/></svg>