<svg xmlns="http://www.w3.org/2000/svg" viewBox="0 0 16 16">
  <path fill-rule="evenodd" d="M7.65 14.036c-.001 0 .001 0 0 0Zm.84 1.223a1.574 1.574 0 0 1-1.338.157c-.598-.21-1.016-.681-1.32-1.509-.258-.699-.466-1.733-.636-3.275H2.23c-1.146 0-1.975-1.08-1.664-2.17L2.48 1.745C2.69 1.009 3.37.5 4.144.5H11v9.422c-.662.866-.951 1.457-1.13 1.988-.14.42-.237.85-.334 1.282-.081.36-.162.721-.269 1.075a1.77 1.77 0 0 1-.777.992ZM13 9.762c1.4-.11 2.5-1.266 2.5-2.675V3.183c0-1.41-1.1-2.565-2.5-2.675v9.254Zm-5.35 4.274.066-.026a.186.186 0 0 1-.066.026Z" clip-rule="evenodd"/>
</svg>
