<svg xmlns="http://www.w3.org/2000/svg" viewBox="0 0 16 16"><path d="M4.25 5.28A.75.75 0 0 1 5 4.53h2.75V4a.75.75 0 0 1 1.5 0v.53H12a.75.75 0 0 1 0 1.5h-.781a9.177 9.177 0 0 1-1.848 3.768c.132.07.269.133.41.187l1 .383-.537 1.4-1-.383a5.113 5.113 0 0 1-.947-.48 9.176 9.176 0 0 1-2.21 1.422l-.775.355a.75.75 0 0 1-.624-1.364l.776-.355A7.68 7.68 0 0 0 7.16 9.901a5.113 5.113 0 0 1-1.153-2.6l1.486-.203c.088.644.345 1.239.73 1.733a7.678 7.678 0 0 0 1.45-2.801H5a.75.75 0 0 1-.75-.75Z"/><path fill-rule="evenodd" d="M.25 3A2.75 2.75 0 0 1 3 .25h10A2.75 2.75 0 0 1 15.75 3v10A2.75 2.75 0 0 1 13 15.75H3A2.75 2.75 0 0 1 .25 13V3ZM3 1.75c-.69 0-1.25.56-1.25 1.25v10c0 .69.56 1.25 1.25 1.25h10c.69 0 1.25-.56 1.25-1.25V3c0-.69-.56-1.25-1.25-1.25H3Z" clip-rule="evenodd"/></svg>