<svg xmlns="http://www.w3.org/2000/svg" viewBox="0 0 16 16"><path fill-rule="evenodd" d="M7.152 15.416c.49.171.976.061 1.338-.157a1.77 1.77 0 0 0 .777-.992c.234-.777.346-1.588.604-2.357.188-.561.5-1.19 1.247-2.14h1.665c1.5 0 2.717-1.201 2.717-2.683V3.183C15.5 1.701 14.283.5 12.783.5H4.144C3.37.5 2.69 1.009 2.48 1.745L.566 8.462c-.31 1.09.518 2.17 1.664 2.17h2.966c.17 1.542.378 2.576.635 3.275.305.828.723 1.3 1.321 1.509m.694-1.566a.3.3 0 0 1-.13.16l-.074.025c-.049-.017-.213-.072-.417-.627-.225-.61-.442-1.682-.621-3.576a.74.74 0 0 0-.738-.664H2.23a.245.245 0 0 1-.238-.31l1.914-6.716a.25.25 0 0 1 .238-.178h5.921v6.76c-.903 1.124-1.336 1.935-1.601 2.726-.263.785-.38 1.608-.618 2.4m-.13.16-.07.026h.008a.2.2 0 0 0 .062-.026m3.832-12.046v6.342h1.235c.682 0 1.235-.546 1.235-1.22V3.184c0-.673-.553-1.22-1.235-1.22z" clip-rule="evenodd"/></svg>