<svg xmlns="http://www.w3.org/2000/svg" viewBox="0 0 16 18"><path fill-rule="evenodd" d="M6.732 17.914c.496.176.988.063 1.354-.161a1.8 1.8 0 0 0 .787-1.017c.236-.796.35-1.627.61-2.415.191-.575.508-1.22 1.263-2.193h1.685a2.75 2.75 0 0 0 2.75-2.75v-4a2.75 2.75 0 0 0-2.75-2.75H3.688a1.75 1.75 0 0 0-1.684 1.276L.066 10.787a1.75 1.75 0 0 0 1.685 2.224h3.002c.172 1.58.383 2.64.643 3.357.308.848.73 1.33 1.336 1.546m.703-1.605a.3.3 0 0 1-.132.164l-.075.025c-.05-.017-.215-.073-.422-.642-.227-.625-.447-1.724-.628-3.665a.75.75 0 0 0-.747-.68H1.75a.25.25 0 0 1-.24-.317L3.447 4.31a.25.25 0 0 1 .24-.182H9.68v6.927c-.914 1.152-1.353 1.984-1.621 2.795-.266.803-.384 1.648-.625 2.459Zm-.132.164-.07.027h.007a.2.2 0 0 0 .063-.027m3.878-12.345v6.5h1.25c.69 0 1.25-.56 1.25-1.25v-4c0-.69-.56-1.25-1.25-1.25z" clip-rule="evenodd"/></svg>