<svg xmlns="http://www.w3.org/2000/svg" viewBox="0 0 16 16"><path fill-rule="evenodd" d="M8.698.464a1.58 1.58 0 0 0-1.354.161 1.8 1.8 0 0 0-.786 1.017c-.237.796-.35 1.627-.61 2.415-.191.575-.508 1.22-1.263 2.193H3A2.75 2.75 0 0 0 .25 9v4A2.75 2.75 0 0 0 3 15.75h8.743a1.75 1.75 0 0 0 1.684-1.276l1.937-6.883a1.75 1.75 0 0 0-1.684-2.224h-3.002c-.172-1.58-.383-2.64-.643-3.357-.308-.848-.73-1.33-1.337-1.546M7.996 2.07a.3.3 0 0 1 .132-.165l.074-.024c.05.016.216.072.423.642.227.625.447 1.724.628 3.665a.75.75 0 0 0 .747.68h3.68a.25.25 0 0 1 .24.317l-1.937 6.884a.25.25 0 0 1-.24.182H5.75V7.323c.914-1.153 1.353-1.984 1.621-2.795.266-.804.384-1.648.625-2.459Zm.132-.165.07-.026H8.19a.2.2 0 0 0-.063.026ZM4.25 14.25v-6.5H3c-.69 0-1.25.56-1.25 1.25v4c0 .69.56 1.25 1.25 1.25z" clip-rule="evenodd"/></svg>