<svg xmlns="http://www.w3.org/2000/svg" viewBox="0 0 16 16">
  <path fill-rule="evenodd" d="M8.848.584A1.575 1.575 0 0 0 7.51.741a1.77 1.77 0 0 0-.777.992c-.234.777-.346 1.588-.604 2.357-.188.561-.5 1.19-1.247 2.14H3.217C1.717 6.23.5 7.431.5 8.913v3.904c0 1.482 1.217 2.683 2.717 2.683h8.639c.774 0 1.454-.509 1.664-1.245l1.914-6.717c.31-1.09-.518-2.17-1.664-2.17h-2.966c-.17-1.542-.379-2.576-.636-3.275-.304-.828-.722-1.3-1.32-1.509ZM8.154 2.15a.305.305 0 0 1 .13-.16l.074-.025c.049.017.213.072.417.627.225.61.442 1.682.621 3.576a.738.738 0 0 0 .738.664h3.636c.164 0 .282.154.238.31l-1.914 6.716a.247.247 0 0 1-.238.178H5.935v-6.76C6.838 6.153 7.27 5.342 7.536 4.55c.263-.784.38-1.608.618-2.4Zm.13-.16.07-.026h-.008a.176.176 0 0 0-.062.026ZM4.452 14.036V7.694H3.217c-.682 0-1.235.546-1.235 1.22v3.903c0 .673.553 1.22 1.235 1.22h1.235Z" clip-rule="evenodd"/>
</svg>
