<svg xmlns="http://www.w3.org/2000/svg" viewBox="0 0 32 32"><path fill="var(--link-color)" d="m17.702 21.578-9.155-9.154-2.507 6.348 4.863 5.023z" opacity=".2"/><path fill="var(--link-color)" fill-rule="evenodd" d="M11.2 7.416a.204.204 0 0 0-.248.126v.001L4.523 25.215a.203.203 0 0 0 .26.26l17.674-6.427a.205.205 0 0 0 .126-.248.2.2 0 0 0-.051-.087L11.287 7.468a.2.2 0 0 0-.087-.052m-.426-1.468a1.7 1.7 0 0 1 1.575.46l11.244 11.245a1.704 1.704 0 0 1-.625 2.806L5.3 26.885a1.706 1.706 0 0 1-2.248-1.233 1.7 1.7 0 0 1 .063-.951L9.54 7.03a1.7 1.7 0 0 1 1.233-1.083Z" clip-rule="evenodd"/><path fill="var(--link-color)" d="M25.604 4.545a3.3 3.3 0 0 1-1.127 1.299c-.55.366-1.248.584-2.114.584-.603 0-1.005.15-1.282.333a1.83 1.83 0 0 0-.617.722 2.9 2.9 0 0 0-.252.797c-.059.35-.099 1.086-.786 1.086a.75.75 0 0 1-.75-.75c0-.618.172-1.255.446-1.804a3.3 3.3 0 0 1 1.127-1.299c.55-.366 1.249-.585 2.114-.585.603 0 1.006-.148 1.282-.333.282-.187.478-.442.617-.72a2.9 2.9 0 0 0 .285-1.061c.018-.26.242-.802.753-.823.512-.02.75.26.75.808 0 .594-.181 1.217-.446 1.746"/><path fill="var(--link-color)" fill-rule="evenodd" d="M16.488 1.012a.75.75 0 0 1 .75.75v2.937a.75.75 0 0 1-1.5 0V1.762a.75.75 0 0 1 .75-.75m8.282 11.969a.75.75 0 0 1 1.061 0l1.958 1.958A.75.75 0 0 1 26.73 16l-1.959-1.958a.75.75 0 0 1 0-1.06Zm4.18-4.602a.75.75 0 0 1-.475.948l-2.937.98a.75.75 0 0 1-.474-1.424L28 7.904a.75.75 0 0 1 .949.475ZM7.892 11.768a.75.75 0 0 1 1.06 0l9.28 9.28a.75.75 0 0 1-1.06 1.06l-9.28-9.28a.75.75 0 0 1 0-1.06m-2.35 6.462a.75.75 0 0 1 1.06 0l5.168 5.168a.75.75 0 0 1-1.06 1.06l-5.168-5.167a.75.75 0 0 1 0-1.06Z" clip-rule="evenodd"/></svg>