<svg xmlns="http://www.w3.org/2000/svg" viewBox="0 0 32 32"><path fill="var(--link-color)" fill-opacity=".2" d="m8.46 14.474 2.46-.093c3.256-3.51 2.665-4.58 3.725-7.557.2-.561.804-.903 1.392-.808 1.213.195 2.22.87 2.877 7.041h4.624a2.46 2.46 0 0 1 2.343 3.21l-2.148 6.712a3.69 3.69 0 0 1-3.515 2.565H8.46A2.46 2.46 0 0 1 6 23.084v-6.15a2.46 2.46 0 0 1 2.46-2.46"/><path fill="var(--link-color)" fill-rule="evenodd" d="M15.918 6.756a.53.53 0 0 0-.567.32 19 19 0 0 0-.55 1.874l-.03.117c-.131.524-.263 1.05-.46 1.592-.418 1.151-1.11 2.329-2.641 4.014v10.12h8.548a2.94 2.94 0 0 0 2.8-2.043l2.149-6.712a1.71 1.71 0 0 0-1.629-2.231h-4.624a.75.75 0 0 1-.746-.67c-.327-3.08-.734-4.671-1.154-5.504-.2-.399-.385-.583-.53-.682s-.314-.154-.567-.195ZM10.17 24.794V15.16l-1.682.064H8.46a1.71 1.71 0 0 0-1.71 1.71v6.15c0 .944.766 1.71 1.71 1.71zm.409-11.15c1.428-1.575 1.99-2.584 2.322-3.497.17-.468.284-.923.42-1.463l.025-.1c.146-.578.315-1.232.592-2.012.326-.916 1.289-1.447 2.218-1.297.354.057.767.16 1.172.436.405.275.741.682 1.026 1.247.51 1.015.913 2.659 1.23 5.349h3.954a3.21 3.21 0 0 1 3.057 4.188l-2.148 6.712a4.44 4.44 0 0 1-4.229 3.087H8.46a3.21 3.21 0 0 1-3.21-3.21v-6.15a3.21 3.21 0 0 1 3.195-3.21z" clip-rule="evenodd"/></svg>