<svg xmlns="http://www.w3.org/2000/svg" viewBox="0 0 32 32"><path fill="var(--link-color)" d="M5.231 19.405a1 1 0 0 0-.207.858l1.545 6.953a1 1 0 0 0 1.601.564L11.851 25c-2.263-3.821-2.976-7.218-2.83-10.136zm17.749-4.541c.151 2.918-.568 6.315-2.831 10.136l3.68 2.78a1 1 0 0 0 1.602-.564l1.545-6.953a1 1 0 0 0-.207-.858l-3.79-4.541Z" opacity=".2"/><path fill="var(--link-color)" d="M16 15a1.5 1.5 0 1 0 0-3 1.5 1.5 0 0 0 0 3"/><path fill="var(--link-color)" fill-rule="evenodd" d="M13.209 29a.79.79 0 0 1 .791-.791h4a.791.791 0 0 1 0 1.582h-4a.79.79 0 0 1-.791-.791M16 13.418a.082.082 0 1 0 0 .165.082.082 0 0 0 0-.165m1.5.082a1.5 1.5 0 1 1-3 0 1.5 1.5 0 0 1 3 0" clip-rule="evenodd"/><path fill="var(--link-color)" fill-rule="evenodd" d="M16 3.791a.2.2 0 0 0-.128.044l-.002.002c-1.143.883-3.697 3.204-5.103 6.726-1.356 3.4-1.676 7.993 1.54 13.646h7.386c3.216-5.653 2.896-10.247 1.54-13.646-1.406-3.522-3.96-5.843-5.103-6.726l-.002-.002A.2.2 0 0 0 16 3.791m-1.098-1.207a1.79 1.79 0 0 1 2.196.001c1.26.974 4.053 3.505 5.604 7.391 1.57 3.933 1.833 9.174-1.873 15.427a.79.79 0 0 1-.68.388H11.85a.79.79 0 0 1-.68-.388C7.465 19.15 7.728 13.91 9.298 9.976c1.551-3.887 4.345-6.418 5.604-7.392" clip-rule="evenodd"/><path fill="var(--link-color)" fill-rule="evenodd" d="M22.473 14.253a.79.79 0 0 1 1.115.1l3.788 4.546a1.8 1.8 0 0 1 .372 1.535l-1.545 6.954a1.79 1.79 0 0 1-2.858 1.018l-3.673-2.774a.791.791 0 1 1 .953-1.263l3.682 2.78.017.013a.207.207 0 0 0 .287-.024.2.2 0 0 0 .048-.093l1.545-6.954a.21.21 0 0 0-.044-.18l-3.788-4.544a.79.79 0 0 1 .101-1.114m-12.946 0c.335.28.38.778.1 1.114L5.84 19.91a.21.21 0 0 0-.044.18l1.545 6.954a.21.21 0 0 0 .352.104l3.681-2.78a.791.791 0 0 1 .954 1.262l-3.673 2.775a1.79 1.79 0 0 1-2.858-1.018l-1.545-6.953a1.8 1.8 0 0 1 .371-1.536l3.79-4.545a.79.79 0 0 1 1.114-.101Z" clip-rule="evenodd"/></svg>