<svg xmlns="http://www.w3.org/2000/svg" viewBox="0 0 32 32"><path fill="var(--link-color)" d="M22 23H8v4h14z" opacity=".2"/><path fill="var(--link-color)" d="m15.586 2.318 1.22 2.403h2.08a.57.57 0 0 1 .41.978l-1.912 1.876 1.058 2.43a.577.577 0 0 1-.822.72l-2.557-1.44-2.557 1.44a.576.576 0 0 1-.82-.72l1.058-2.43-1.91-1.879a.571.571 0 0 1 .411-.978h2.079l1.221-2.403a.586.586 0 0 1 1.041.003"/><path fill="var(--link-color)" fill-rule="evenodd" d="M3.763 4.763A1.75 1.75 0 0 1 5 4.25h2.333a.75.75 0 1 1 0 1.5H5a.25.25 0 0 0-.25.25 10.25 10.25 0 1 0 20.5 0 .25.25 0 0 0-.25-.25h-2.333a.75.75 0 0 1 0-1.5H25A1.75 1.75 0 0 1 26.75 6a11.75 11.75 0 0 1-8.807 11.376L19.174 22H21a2 2 0 0 1 2 2v2a2 2 0 0 1-2 2H9a2 2 0 0 1-2-2v-2a2 2 0 0 1 2-2h1.62l1.365-4.643A11.75 11.75 0 0 1 3.25 6c0-.464.184-.91.513-1.237M13.47 17.65 12.247 22h5.286l-1.078-4.34a11.8 11.8 0 0 1-2.984-.01ZM21.5 24a.5.5 0 0 0-.5-.5H9a.5.5 0 0 0-.5.5v2a.5.5 0 0 0 .5.5h12a.5.5 0 0 0 .5-.5z" clip-rule="evenodd"/></svg>