<svg viewBox="0 0 24 24" xmlns="http://www.w3.org/2000/svg"><path d="M13.5 7.5a1.5 1.5 0 1 1-3 0 1.5 1.5 0 0 1 3 0ZM7.272 9.818a.75.75 0 0 1 .91-.546l3.818.955 3.818-.955a.75.75 0 0 1 .364 1.456l-2.92.73a9.16 9.16 0 0 0 1.526 4.622l.336.504a.75.75 0 1 1-1.248.832l-.336-.504A10.652 10.652 0 0 1 12.53 15h-1.06a10.565 10.565 0 0 1-1.01 1.912l-.336.504a.75.75 0 1 1-1.248-.832l.336-.504a9.159 9.159 0 0 0 1.527-4.622l-2.92-.73a.75.75 0 0 1-.547-.91Z"/><path fill-rule="evenodd" clip-rule="evenodd" d="M2.25 12c0-5.385 4.365-9.75 9.75-9.75s9.75 4.365 9.75 9.75-4.365 9.75-9.75 9.75S2.25 17.385 2.25 12ZM12 3.75a8.25 8.25 0 1 0 0 16.5 8.25 8.25 0 0 0 0-16.5Z"/></svg>