<svg viewBox="0 0 24 24" xmlns="http://www.w3.org/2000/svg"><path fill-rule="evenodd" clip-rule="evenodd" d="M6.738 15.5h1.648l.54-1.658h2.625l.538 1.658h1.648L11.23 8.227H9.25L6.738 15.5Zm4.423-2.859-.893-2.752h-.057l-.895 2.752h1.845Z"/><path d="M16.15 15.5V8.227h-1.537V15.5h1.537Z"/><path fill-rule="evenodd" clip-rule="evenodd" d="M4 3.25A2.75 2.75 0 0 0 1.25 6v12A2.75 2.75 0 0 0 4 20.75h16A2.75 2.75 0 0 0 22.75 18V6A2.75 2.75 0 0 0 20 3.25H4ZM2.75 6c0-.69.56-1.25 1.25-1.25h16c.69 0 1.25.56 1.25 1.25v12c0 .69-.56 1.25-1.25 1.25H4c-.69 0-1.25-.56-1.25-1.25V6Z"/></svg>