<svg xmlns="http://www.w3.org/2000/svg" fill="none" viewBox="0 0 24 24"><g clip-path="url(#albania-circle__a)"><rect width="20" height="20" x="2" y="2" fill="#F93939" rx="10"/><path fill="#F93939" d="M23.333 2H.667A2.667 2.667 0 0 0-2 4.667v14.666A2.667 2.667 0 0 0 .667 22h22.666A2.667 2.667 0 0 0 26 19.333V4.667A2.667 2.667 0 0 0 23.333 2Z"/><path fill="#151515" fill-rule="evenodd" d="m12 8.1-1.671-1.114-1.114 1.115h1.114L9.215 9.215 6.986 8.1v5.57l3.343-1.114-1.114 2.228H8.1L9.215 15.9l1.114-1.114L12 17.014V8.1Zm1.671-1.114 1.114 1.115h-1.114l1.114 1.114L17.014 8.1v5.57l-3.343-1.114 1.114 2.228H15.9L14.785 15.9l-1.114-1.114L12 17.014V8.1l1.671-1.115Z" clip-rule="evenodd"/></g><defs><clipPath id="albania-circle__a"><rect width="20" height="20" x="2" y="2" fill="#fff" rx="10"/></clipPath></defs></svg>