<svg xmlns="http://www.w3.org/2000/svg" viewBox="0 0 24 24"><path fill-rule="evenodd" d="M5.5 7.5a1.5 1.5 0 1 0 0-3 1.5 1.5 0 0 0 0 3m8-1.5a1.5 1.5 0 1 1-3 0 1.5 1.5 0 0 1 3 0m0 6a1.5 1.5 0 1 1-3 0 1.5 1.5 0 0 1 3 0M12 19.5a1.5 1.5 0 1 0 0-3 1.5 1.5 0 0 0 0 3M20 6a1.5 1.5 0 1 1-3 0 1.5 1.5 0 0 1 3 0m-1.5 7.5a1.5 1.5 0 1 0 0-3 1.5 1.5 0 0 0 0 3M20 18a1.5 1.5 0 1 1-3 0 1.5 1.5 0 0 1 3 0M7 12a1.5 1.5 0 1 1-3 0 1.5 1.5 0 0 1 3 0m-1.5 7.5a1.5 1.5 0 1 0 0-3 1.5 1.5 0 0 0 0 3" clip-rule="evenodd"/></svg>