<svg xmlns="http://www.w3.org/2000/svg" viewBox="0 0 24 24">
  <path fill-rule="evenodd" d="M5.5 7.5a1.5 1.5 0 1 0 0-3 1.5 1.5 0 0 0 0 3Zm8-1.5a1.5 1.5 0 1 1-3 0 1.5 1.5 0 0 1 3 0Zm0 6a1.5 1.5 0 1 1-3 0 1.5 1.5 0 0 1 3 0ZM12 19.5a1.5 1.5 0 1 0 0-3 1.5 1.5 0 0 0 0 3ZM20 6a1.5 1.5 0 1 1-3 0 1.5 1.5 0 0 1 3 0Zm-1.5 7.5a1.5 1.5 0 1 0 0-3 1.5 1.5 0 0 0 0 3ZM20 18a1.5 1.5 0 1 1-3 0 1.5 1.5 0 0 1 3 0ZM7 12a1.5 1.5 0 1 1-3 0 1.5 1.5 0 0 1 3 0Zm-1.5 7.5a1.5 1.5 0 1 0 0-3 1.5 1.5 0 0 0 0 3Z" clip-rule="evenodd"/>
</svg>
