<svg xmlns="http://www.w3.org/2000/svg" fill="none" viewBox="0 0 24 24"><path fill="#E4E3E3" d="M21.815 11.807a9.79 9.79 0 0 1-9.79 9.789c-5.405 0-9.788-4.383-9.788-9.79s4.383-9.788 9.789-9.788a9.79 9.79 0 0 1 9.789 9.789"/><path fill="#0BA2E2" d="M21.048 11.807a9.022 9.022 0 1 1-18.044 0 9.022 9.022 0 0 1 18.044 0"/><path stroke="#fff" stroke-dasharray="1 2.3" stroke-linecap="round" stroke-width=".75" d="M12 20a8 8 0 1 0 0-16 8 8 0 0 0 0 16Z" clip-rule="evenodd"/><path fill="#CF1D13" d="m18.191 6.545-7.196 4.182 2.106 2.233z"/><path fill="#F1F1F1" d="M10.995 10.727 6.444 17.89l6.657-4.93z"/></svg>