<svg xmlns="http://www.w3.org/2000/svg" width="24" height="24" fill="none" viewBox="0 0 24 24">
  <path fill="#000" d="M18 19.25c.69 0 1.25-.56 1.25-1.25v-5a.75.75 0 0 1 1.5 0v5A2.75 2.75 0 0 1 18 20.75H6A2.75 2.75 0 0 1 3.25 18V6A2.75 2.75 0 0 1 6 3.25h5a.75.75 0 0 1 0 1.5H6c-.69 0-1.25.56-1.25 1.25v12c0 .69.56 1.25 1.25 1.25h12Z"/>
  <path fill="#000" d="M15.75 14a.75.75 0 0 1-.75.75h-4A1.75 1.75 0 0 1 9.25 13V9a.75.75 0 0 1 1.5 0v3.19l6.72-6.72a.75.75 0 1 1 1.06 1.06l-6.72 6.72H15a.75.75 0 0 1 .75.75Z"/>
</svg>
