<svg xmlns="http://www.w3.org/2000/svg" viewBox="0 0 24 24">
  <path d="M12 14.69c2.903 0 5.464-.45 7.244-1.128.896-.341 1.517-.711 1.888-1.045.369-.332.368-.51.368-.517 0-.007 0-.184-.368-.517-.371-.334-.992-.703-1.888-1.045C17.464 9.76 14.903 9.31 12 9.31c-2.903 0-5.464.45-7.244 1.128-.896.342-1.517.711-1.888 1.045-.369.333-.368.51-.368.517 0 .007 0 .184.368.517.371.334.992.704 1.888 1.045 1.78.678 4.341 1.129 7.244 1.129Zm0 1.5c-6.075 0-11-1.876-11-4.19 0-2.314 4.925-4.19 11-4.19S23 9.686 23 12c0 2.314-4.925 4.19-11 4.19Z" opacity=".25"/>
  <path d="M10.098 13.903c2.053 2.053 4.183 3.545 5.921 4.324.874.392 1.575.57 2.074.596.499.026.622-.101.625-.105.005-.004.131-.128.105-.626-.026-.498-.204-1.199-.596-2.073-.779-1.739-2.271-3.868-4.324-5.92-2.052-2.054-4.182-3.546-5.92-4.325-.875-.392-1.575-.57-2.074-.596-.498-.026-.621.1-.626.105l-1.06-1.06c1.636-1.637 6.445.519 10.741 4.814 4.296 4.296 6.452 9.105 4.815 10.742-1.636 1.636-6.445-.52-10.741-4.815-4.296-4.296-6.452-9.105-4.815-10.742l1.06 1.061c-.003.004-.13.127-.105.626.026.498.204 1.199.596 2.073.78 1.739 2.272 3.868 4.324 5.921Z"/>
  <path d="M10.098 13.903c2.053 2.053 4.183 3.545 5.921 4.324.874.392 1.575.57 2.074.596.495.026.62-.1.625-.105.005-.005.131-.13.105-.626-.026-.498-.204-1.199-.596-2.073-.779-1.739-2.271-3.868-4.324-5.92-2.052-2.054-4.182-3.546-5.92-4.325-.875-.392-1.575-.57-2.074-.596-.496-.026-.62.1-.626.105-.005.005-.13.13-.105.626.026.498.204 1.199.596 2.073.78 1.739 2.272 3.868 4.324 5.921Zm-1.06 1.06C4.742 10.669 2.586 5.86 4.223 4.224c1.636-1.637 6.445.519 10.741 4.814 4.296 4.296 6.452 9.105 4.815 10.742-1.636 1.636-6.445-.52-10.741-4.815Z"/>
  <path d="M10.1 10.098c-2.053 2.053-3.545 4.183-4.324 5.921-.392.874-.57 1.575-.596 2.074-.026.495.1.62.105.625.005.005.13.131.626.105.498-.026 1.199-.204 2.073-.596 1.739-.779 3.868-2.271 5.921-4.324 2.053-2.052 3.545-4.182 4.324-5.92.392-.875.57-1.575.596-2.074.026-.496-.1-.62-.105-.626-.005-.005-.13-.13-.626-.105-.498.026-1.199.204-2.073.596-1.739.78-3.868 2.272-5.92 4.324Zm-1.06-1.06c4.295-4.296 9.104-6.452 10.74-4.815 1.637 1.636-.519 6.445-4.814 10.741-4.296 4.296-9.105 6.452-10.742 4.815-1.636-1.636.52-6.445 4.815-10.741Z" opacity=".45"/>
  <path d="M14.69 12c0-2.903-.45-5.464-1.128-7.244-.341-.896-.711-1.517-1.045-1.888-.333-.369-.51-.368-.517-.368-.007 0-.184 0-.517.368-.334.371-.703.992-1.045 1.888C9.76 6.536 9.31 9.097 9.31 12c0 2.903.45 5.464 1.128 7.244.342.896.711 1.517 1.045 1.888.333.369.51.368.517.368.007 0 .184 0 .517-.368.334-.371.704-.992 1.045-1.888.678-1.78 1.129-4.341 1.129-7.244Zm1.5 0c0 6.075-1.876 11-4.19 11-2.314 0-4.19-4.925-4.19-11S9.686 1 12 1c2.314 0 4.19 4.925 4.19 11Z" opacity=".8"/>
</svg>
