<svg xmlns="http://www.w3.org/2000/svg" viewBox="0 0 24 24"><path fill-rule="evenodd" d="M2.25 12c0-5.385 4.365-9.75 9.75-9.75s9.75 4.365 9.75 9.75v.563a1 1 0 0 1-.008.112l-.61 4.035a4.75 4.75 0 0 1-4.698 4.04h-1.043a1.75 1.75 0 0 1-1.735-1.98l.837-6.32a1.75 1.75 0 0 1 2.06-1.49l3.69.696a8.25 8.25 0 0 0-16.486 0l3.69-.697a1.75 1.75 0 0 1 2.06 1.49l.837 6.321a1.75 1.75 0 0 1-1.735 1.98H7.565a4.75 4.75 0 0 1-4.696-4.04l-.61-4.035a1 1 0 0 1-.009-.113zm1.6 1.165.502 3.321a3.25 3.25 0 0 0 3.213 2.764H8.61a.25.25 0 0 0 .248-.283l-.837-6.321a.25.25 0 0 0-.294-.213zm16.3 0-3.876-.732a.25.25 0 0 0-.294.213l-.837 6.321a.25.25 0 0 0 .248.283h1.043a3.25 3.25 0 0 0 3.214-2.764l.502-3.32Z" clip-rule="evenodd"/></svg>