<svg xmlns="http://www.w3.org/2000/svg" fill="none" viewBox="0 0 24 24">
  <g clip-path="url(#bamboo-hr__a)">
    <path fill="#74C61E" d="M11.595 1.962h.774c.1.033.2.038.305.04.595.01 1.148.106 1.723.249a10.015 10.015 0 0 1 6.36 4.853 10.091 10.091 0 0 1 .828 7.807c-1.038 3.519-4.048 6.207-7.637 6.923-.238.048-.9.096-1.073.179h-1.657c-.386-.074-.783-.108-1.172-.186a10.21 10.21 0 0 1-3.52-1.42c-2.535-1.653-4.242-4.408-4.517-7.428-.009-.094-.01-.187-.03-.28l-.004-.015v-1.397c.027-.085.037-.301.048-.4.024-.213.05-.425.08-.637.082-.544.367-1.499.573-2.003a9.974 9.974 0 0 1 6.739-5.952 9 9 0 0 1 1.382-.263c.16-.017.696-.021.798-.07Zm-.224 9.322c-.005-.741-.007-1.482-.005-2.223 0-.6-.008-1.223.008-1.823-.193.012-.833.025-1.02.007.039 1.53-.02 3.076.008 4.606.015.89-.076 1.912.117 2.775.331 1.485 1.817 2.446 3.29 2.401a3.5 3.5 0 0 0 2.421-1.088c.144-.154.242-.285.365-.455 1.771-2.964-1.106-6.25-4.271-4.917-.362.153-.66.417-.913.717Zm-2.05-.535c-.376-.372-.85-.907-1.26-1.242-.687-.561-1.781-.996-2.636-1.24-.202-.057-.448-.065-.656-.108.266.198.526.448.774.67 1.186 1.062 1.52 2.18 3.241 2.536.357.074.714.122 1.065.186-.455-1.428-.734-3.13-2.137-3.95-.12-.07-.38-.285-.5-.3l.012.016c.122.167.297.323.425.493.557.74 1.029 1.535 1.414 2.376.068.148.213.425.258.563Z"/>
    <path fill="#74C61E" d="M13.446 11.232a2.444 2.444 0 1 1 .491 4.863 2.444 2.444 0 0 1-.491-4.863Z"/>
  </g>
  <defs>
    <clipPath id="bamboo-hr__a">
      <path fill="#fff" d="M1.975 1.962h20.05v20.05H1.975z"/>
    </clipPath>
  </defs>
</svg>
