<svg xmlns="http://www.w3.org/2000/svg" viewBox="0 0 24 24"><path fill-rule="evenodd" d="M15 3.25A1.75 1.75 0 0 0 13.25 5v3.268A2 2 0 0 0 13 8.25h-3A1.75 1.75 0 0 0 8.25 10v2.268A2 2 0 0 0 8 12.25H5A1.75 1.75 0 0 0 3.25 14v4A2.75 2.75 0 0 0 6 20.75h11A2.75 2.75 0 0 0 19.75 18V5A1.75 1.75 0 0 0 18 3.25zm-1.75 16V10a.25.25 0 0 0-.25-.25h-3a.25.25 0 0 0-.25.25v9.25zm1.5 0H17c.69 0 1.25-.56 1.25-1.25V5a.25.25 0 0 0-.25-.25h-3a.25.25 0 0 0-.25.25zM8.25 14v5.25H6c-.69 0-1.25-.56-1.25-1.25v-4a.25.25 0 0 1 .25-.25h3a.25.25 0 0 1 .25.25" clip-rule="evenodd"/></svg>