<svg xmlns="http://www.w3.org/2000/svg" viewBox="0 0 24 24"><path d="M14.269 18.914a.937.937 0 0 1 1.462 1.172c-.893 1.116-2.222 1.852-3.731 1.852-1.51 0-2.838-.736-3.731-1.852a.937.937 0 0 1 1.462-1.172c.581.725 1.395 1.148 2.269 1.148s1.688-.423 2.269-1.148m7.261 1.556-1.06 1.06-18-18 1.06-1.06zM6.443 9.271l-.086 1.79a7.86 7.86 0 0 1-1.613 4.398l-.03.038a.157.157 0 0 0 .126.253h8.082l1.5 1.5H4.84c-1.374 0-2.152-1.576-1.316-2.666l.03-.038a6.36 6.36 0 0 0 1.305-3.558l.099-2.032q.026-.533.128-1.042zM12 2.25a7.05 7.05 0 0 1 7.042 6.706l.099 2.032a6.36 6.36 0 0 0 1.305 3.558l.03.038c.669.872.304 2.054-.572 2.492l-1.326-1.326h.582c.13 0 .204-.15.125-.253l-.03-.038a7.86 7.86 0 0 1-1.612-4.397l-.1-2.033a5.55 5.55 0 0 0-9.402-3.716L7.08 4.252A7.03 7.03 0 0 1 12 2.25"/></svg>