<svg xmlns="http://www.w3.org/2000/svg" viewBox="0 0 24 24"><path fill-rule="evenodd" d="M12 2.25a7.03 7.03 0 0 0-7.022 6.71l-.124 2.733a6.95 6.95 0 0 1-1.287 3.723l-.05.07c-.826 1.157.001 2.764 1.423 2.764h14.12c1.422 0 2.25-1.607 1.423-2.765l-.05-.07a6.95 6.95 0 0 1-1.287-3.722l-.124-2.733A7.03 7.03 0 0 0 12 2.25M6.477 9.028a5.529 5.529 0 0 1 11.046 0l.124 2.733a8.45 8.45 0 0 0 1.565 4.527l.05.07a.248.248 0 0 1-.202.392H4.94a.248.248 0 0 1-.202-.393l.05-.07a8.45 8.45 0 0 0 1.565-4.526z" clip-rule="evenodd"/><path d="M10.323 19.5a.75.75 0 0 0-1.118 1A3.74 3.74 0 0 0 12 21.75c1.11 0 2.11-.484 2.795-1.25a.75.75 0 0 0-1.118-1 2.24 2.24 0 0 1-1.677.75 2.24 2.24 0 0 1-1.677-.75"/></svg>