<svg xmlns="http://www.w3.org/2000/svg" fill="none" viewBox="0 0 24 24">
  <rect width="22" height="22" x="1" y="1" fill="#0085FF" rx="6"/>
  <path fill="#fff" d="M8.601 7.69c1.376 1.002 2.856 3.034 3.399 4.125v2.88c0-.061-.024.008-.077.157-.283.808-1.39 3.962-3.923 1.44-1.333-1.327-.716-2.654 1.711-3.055-1.388.23-2.95-.15-3.378-1.635C6.21 11.175 6 8.543 6 8.188c0-1.78 1.609-1.221 2.601-.498Zm6.798 0c-1.376 1.002-2.856 3.034-3.399 4.125v2.88c0-.061.024.008.077.157.283.808 1.39 3.962 3.923 1.44 1.333-1.327.716-2.654-1.711-3.055 1.388.23 2.95-.15 3.378-1.635.123-.427.333-3.059.333-3.414 0-1.78-1.608-1.221-2.601-.498Z"/>
</svg>
