<svg xmlns="http://www.w3.org/2000/svg" viewBox="0 0 24 24"><path d="M7 3.18a3.75 3.75 0 0 0-3.75 3.75v3a.75.75 0 0 0 1.5 0v-3A2.25 2.25 0 0 1 7 4.68h2.771a.75.75 0 0 0 0-1.5zM20.75 14.4a.75.75 0 0 0-1.5 0v2.53A2.25 2.25 0 0 1 17 19.18h-3a.75.75 0 0 0 0 1.5h3a3.75 3.75 0 0 0 3.75-3.75z"/><path fill-rule="evenodd" d="m15.653 12.675-2.824 1.999a3.65 3.65 0 0 1-1.064 2.799l-.053.048c-1.873 1.542-3.825 1.82-5.3 1.706a8 8 0 0 1-1.78-.349 7 7 0 0 1-.659-.251c-.37-.17-.581-.577-.427-.974.712-1.823 1.487-4.066 2.91-5.49a3.65 3.65 0 0 1 2.8-1.063l1.999-2.824 5.822-4.406a2.13 2.13 0 0 1 2.983 2.983zm-3.103.358-.808-.808-.019-.019-.019-.018-.808-.809 1.449-2.047 5.637-4.266a.63.63 0 0 1 .882.881l-4.267 5.638zm-5.033.191c.842-.842 2.24-.847 3.13.028l.03.03c.867.882.87 2.26.052 3.105-1.503 1.224-3.034 1.434-4.2 1.344a6.4 6.4 0 0 1-1.298-.238c.163-.387.383-.896.634-1.435.266-.572.563-1.17.86-1.69.305-.533.58-.93.792-1.144" clip-rule="evenodd"/></svg>