<svg xmlns="http://www.w3.org/2000/svg" fill="none" viewBox="0 0 24 24">
  <path fill="var(--link-color)" d="M8.166 4.972a2 2 0 0 1 2.306-1.639l4.93.833a2 2 0 0 1 1.639 2.306l-.834 4.93a2 2 0 0 1-2.305 1.639l-4.93-.834a2 2 0 0 1-1.639-2.305l.833-4.93Z" opacity=".5"/>
  <path fill="var(--link-color)" d="M14.602 12.591a1 1 0 0 1 1.683-.333l4.566 5.043a1 1 0 0 1-.547 1.652l-6.867 1.36a1 1 0 0 1-1.135-1.32l2.3-6.402Z"/>
  <path fill="var(--link-color)" d="M6.478 11.236a2.999 2.999 0 0 0 2.328 1.957l3.693.624c.125.258.228.53.309.81l-1.448 4.028c-.136.38-.15.76-.072 1.11a5 5 0 1 1-4.81-8.528Z" opacity=".2"/>
</svg>
