<svg viewBox="0 0 24 25" xmlns="http://www.w3.org/2000/svg"><path d="M17 2.32a.75.75 0 0 1 .75.75v.25H18a2.75 2.75 0 0 1 2.75 2.75h-1.5c0-.69-.56-1.25-1.25-1.25H7a2.25 2.25 0 0 0-2.25 2.25v1.25H12a.75.75 0 0 1 0 1.5H4.75v8.25c0 .691.56 1.25 1.25 1.25v1.5a2.75 2.75 0 0 1-2.75-2.75v-11a3.751 3.751 0 0 1 3-3.674V3.07a.75.75 0 0 1 1.5 0v.25h8.5v-.25a.75.75 0 0 1 .75-.75Z"/><path fill-rule="evenodd" clip-rule="evenodd" d="M16.993 8.247a1.75 1.75 0 0 1 2.475 0l1.355 1.355a1.75 1.75 0 0 1 0 2.475l-7.6 7.6a.75.75 0 0 1-.349.198l-3.692.923a.75.75 0 0 1-.91-.91l.923-3.692a.75.75 0 0 1 .198-.348l7.6-7.6Zm1.415 1.061a.25.25 0 0 0-.354 0l-1.378 1.378 1.709 1.709 1.377-1.378a.25.25 0 0 0 0-.354l-1.355-1.355Zm-1.084 4.147-1.709-1.708-5.015 5.015-.57 2.278 2.279-.57 5.015-5.015Z"/></svg>
