<svg xmlns="http://www.w3.org/2000/svg" viewBox="0 0 24 24">
  <path fill-rule="evenodd" d="M12 7.25a4.75 4.75 0 1 1 0 9.5 4.75 4.75 0 0 1 0-9.5Zm0 1.5a3.25 3.25 0 1 0 0 6.5 3.25 3.25 0 0 0 0-6.5Z" clip-rule="evenodd"/>
  <path fill-rule="evenodd" d="M12.8 2.25c.547 0 1.004-.001 1.375.03.38.03.736.098 1.073.27.518.263.938.685 1.202 1.202.082.161.14.327.182.498H17.8c.547 0 1.004-.001 1.375.03.38.03.736.098 1.073.27.517.263.938.684 1.202 1.202.172.337.24.693.27 1.073.031.371.03.828.03 1.375v7.6c0 .547.001 1.004-.03 1.375-.03.38-.098.736-.27 1.073a2.752 2.752 0 0 1-1.202 1.202c-.337.172-.694.24-1.073.27-.371.031-.828.03-1.375.03H6.2c-.547 0-1.004.001-1.375-.03-.38-.03-.736-.098-1.073-.27a2.752 2.752 0 0 1-1.202-1.202c-.172-.337-.24-.694-.27-1.073-.031-.371-.03-.828-.03-1.375V8.2c0-.547-.001-1.004.03-1.375.03-.38.098-.736.27-1.073A2.752 2.752 0 0 1 3.752 4.55c.337-.172.693-.24 1.073-.27.371-.031.828-.03 1.375-.03h1.168c.042-.171.1-.337.182-.498A2.752 2.752 0 0 1 8.752 2.55c.337-.172.693-.24 1.073-.27.371-.031.828-.03 1.375-.03h1.6Zm-1.6 1.5c-.572 0-.957 0-1.253.024-.287.024-.424.067-.514.113a1.25 1.25 0 0 0-.546.546c-.052.101-.098.258-.12.613a.75.75 0 0 1-.747.704H6.2c-.572 0-.957 0-1.253.024-.287.024-.424.067-.514.113a1.25 1.25 0 0 0-.546.546c-.046.09-.09.227-.113.514-.024.296-.024.68-.024 1.253v7.6c0 .572 0 .957.024 1.253.024.287.067.424.113.514.12.235.31.427.546.546.09.046.227.09.514.113.296.024.68.024 1.253.024h11.6c.572 0 .957 0 1.253-.024.287-.024.424-.067.514-.113.235-.12.427-.31.546-.546.046-.09.09-.227.113-.514.024-.296.024-.68.024-1.253V8.2c0-.572 0-.957-.024-1.253-.024-.287-.067-.424-.113-.514a1.249 1.249 0 0 0-.546-.546c-.09-.046-.227-.09-.514-.113-.296-.024-.68-.024-1.253-.024h-1.82a.75.75 0 0 1-.748-.704c-.021-.355-.067-.512-.119-.613a1.249 1.249 0 0 0-.546-.546c-.09-.046-.227-.09-.514-.113-.296-.024-.68-.024-1.253-.024h-1.6Z" clip-rule="evenodd"/>
</svg>
