<svg xmlns="http://www.w3.org/2000/svg" viewBox="0 0 24 24"><path fill-rule="evenodd" d="M3.5 3.75c-.69 0-1.25.56-1.25 1.25v14c0 .69.56 1.25 1.25 1.25h3c.69 0 1.25-.56 1.25-1.25V5c0-.69-.56-1.25-1.25-1.25zm.25 15V5.25h2.5v13.5zM9.25 5c0-.69.56-1.25 1.25-1.25h3c.69 0 1.25.56 1.25 1.25v14c0 .69-.56 1.25-1.25 1.25h-3c-.69 0-1.25-.56-1.25-1.25zm1.5.25v13.5h2.5V5.25zm5.5-.25c0-.69.56-1.25 1.25-1.25h3c.69 0 1.25.56 1.25 1.25v14c0 .69-.56 1.25-1.25 1.25h-3c-.69 0-1.25-.56-1.25-1.25zm1.5.25v13.5h2.5V5.25z" clip-rule="evenodd"/></svg>