<svg xmlns="http://www.w3.org/2000/svg" viewBox="0 0 24 24">
  <path fill-rule="evenodd" d="M3.5 3.75c-.69 0-1.25.56-1.25 1.25v14c0 .69.56 1.25 1.25 1.25h3c.69 0 1.25-.56 1.25-1.25V5c0-.69-.56-1.25-1.25-1.25h-3Zm.25 15V5.25h2.5v13.5h-2.5ZM9.25 5c0-.69.56-1.25 1.25-1.25h3c.69 0 1.25.56 1.25 1.25v14c0 .69-.56 1.25-1.25 1.25h-3c-.69 0-1.25-.56-1.25-1.25V5Zm1.5.25v13.5h2.5V5.25h-2.5Zm5.5-.25c0-.69.56-1.25 1.25-1.25h3c.69 0 1.25.56 1.25 1.25v14c0 .69-.56 1.25-1.25 1.25h-3c-.69 0-1.25-.56-1.25-1.25V5Zm1.5.25v13.5h2.5V5.25h-2.5Z" clip-rule="evenodd"/>
</svg>
