<svg xmlns="http://www.w3.org/2000/svg" viewBox="0 0 24 24"><path fill-rule="evenodd" d="M12 2.25a3.75 3.75 0 1 0 0 7.5 3.75 3.75 0 0 0 0-7.5M9.75 6a2.25 2.25 0 1 1 4.5 0 2.25 2.25 0 0 1-4.5 0M6 8.25a3.75 3.75 0 1 0 0 7.5 3.75 3.75 0 0 0 0-7.5M3.75 12a2.25 2.25 0 1 1 4.5 0 2.25 2.25 0 0 1-4.5 0m10.5 0a3.75 3.75 0 1 1 7.5 0 3.75 3.75 0 0 1-7.5 0M18 9.75a2.25 2.25 0 1 0 0 4.5 2.25 2.25 0 0 0 0-4.5m-6 4.5a3.75 3.75 0 1 0 0 7.5 3.75 3.75 0 0 0 0-7.5M9.75 18a2.25 2.25 0 1 1 4.5 0 2.25 2.25 0 0 1-4.5 0" clip-rule="evenodd"/></svg>