<svg xmlns="http://www.w3.org/2000/svg" viewBox="0 0 24 24"><path d="M12 12a1 1 0 1 0 0-2 1 1 0 0 0 0 2m5-1a1 1 0 1 1-2 0 1 1 0 0 1 2 0m-9 1a1 1 0 1 0 0-2 1 1 0 0 0 0 2"/><path fill-rule="evenodd" d="M4 3.25A1.75 1.75 0 0 0 2.25 5v11.999c0 .966.784 1.75 1.75 1.75h4.44c.07 0 .139.03.186.084l2.066 2.324a1.75 1.75 0 0 0 2.616 0l2.066-2.324a.25.25 0 0 1 .187-.084H20a1.75 1.75 0 0 0 1.75-1.75V5A1.75 1.75 0 0 0 20 3.25zM3.75 5A.25.25 0 0 1 4 4.75h16a.25.25 0 0 1 .25.25v11.999a.25.25 0 0 1-.25.25h-4.44c-.499 0-.975.214-1.307.587l-2.066 2.325a.25.25 0 0 1-.374 0l-2.066-2.325a1.75 1.75 0 0 0-1.308-.587H4a.25.25 0 0 1-.25-.25z" clip-rule="evenodd"/></svg>