<svg viewBox="0 0 24 24" xmlns="http://www.w3.org/2000/svg"><path d="M5 2.25A1.75 1.75 0 0 0 3.25 4v11c0 .966.784 1.75 1.75 1.75h2.5v-1.5H5a.25.25 0 0 1-.25-.25V4A.25.25 0 0 1 5 3.75h8a.25.25 0 0 1 .25.25v1.5h1.5V4A1.75 1.75 0 0 0 13 2.25H5Z"/><path fill-rule="evenodd" clip-rule="evenodd" d="M11 7.25A1.75 1.75 0 0 0 9.25 9v11c0 .966.784 1.75 1.75 1.75h8A1.75 1.75 0 0 0 20.75 20V9A1.75 1.75 0 0 0 19 7.25h-8ZM10.75 9a.25.25 0 0 1 .25-.25h8a.25.25 0 0 1 .25.25v11a.25.25 0 0 1-.25.25h-8a.25.25 0 0 1-.25-.25V9Z"/></svg>
