<svg xmlns="http://www.w3.org/2000/svg" viewBox="0 0 24 24"><path d="M4 2.25A1.75 1.75 0 0 0 2.25 4v11c0 .966.784 1.75 1.75 1.75h3.5v-1.5H4a.25.25 0 0 1-.25-.25V4A.25.25 0 0 1 4 3.75h9a.25.25 0 0 1 .25.25v1h1.5V4A1.75 1.75 0 0 0 13 2.25z"/><path fill-rule="evenodd" d="M11 7.25A1.75 1.75 0 0 0 9.25 9v11c0 .966.784 1.75 1.75 1.75h9A1.75 1.75 0 0 0 21.75 20V9A1.75 1.75 0 0 0 20 7.25zM10.75 9a.25.25 0 0 1 .25-.25h9a.25.25 0 0 1 .25.25v11a.25.25 0 0 1-.25.25h-9a.25.25 0 0 1-.25-.25z" clip-rule="evenodd"/></svg>