<svg xmlns="http://www.w3.org/2000/svg" fill="none" viewBox="0 0 24 24">
  <path fill="#000" fill-rule="evenodd" d="M9.5 11.25c.966 0 1.75.784 1.75 1.75v6a1.75 1.75 0 0 1-1.75 1.75H5A1.75 1.75 0 0 1 3.25 19v-6c0-.966.784-1.75 1.75-1.75h4.5ZM5 12.75a.25.25 0 0 0-.25.25v6c0 .138.112.25.25.25h4.5a.25.25 0 0 0 .25-.25v-6a.25.25 0 0 0-.25-.25H5Zm14 1.5c.966 0 1.75.784 1.75 1.75v3A1.75 1.75 0 0 1 19 20.75h-4.5A1.75 1.75 0 0 1 12.75 19v-3c0-.966.784-1.75 1.75-1.75H19Zm-4.5 1.5a.25.25 0 0 0-.25.25v3c0 .138.112.25.25.25H19a.25.25 0 0 0 .25-.25v-3a.25.25 0 0 0-.25-.25h-4.5ZM19 3.25c.966 0 1.75.784 1.75 1.75v6A1.75 1.75 0 0 1 19 12.75h-4.5A1.75 1.75 0 0 1 12.75 11V5c0-.966.784-1.75 1.75-1.75H19Zm-4.5 1.5a.25.25 0 0 0-.25.25v6c0 .138.112.25.25.25H19a.25.25 0 0 0 .25-.25V5a.25.25 0 0 0-.25-.25h-4.5Zm-5-1.5c.966 0 1.75.784 1.75 1.75v3A1.75 1.75 0 0 1 9.5 9.75H5A1.75 1.75 0 0 1 3.25 8V5c0-.966.784-1.75 1.75-1.75h4.5ZM5 4.75a.25.25 0 0 0-.25.25v3c0 .138.112.25.25.25h4.5A.25.25 0 0 0 9.75 8V5a.25.25 0 0 0-.25-.25H5Z" clip-rule="evenodd"/>
</svg>
