<svg xmlns="http://www.w3.org/2000/svg" viewBox="0 0 24 24"><path d="m8.713 3.569.3.687zM6.51 4.868l.457.594zm.321 14.5-.43.615.43-.614Zm2.283 1.274.265-.702zM17 10v-.75h-.75V10zm3 0h.75v-.75H20zm-1.5-7 .59-.462a.75.75 0 0 0-1.18 0zM15 3v-.75h-2.62v1.5H15zm-6.287.569-.301-.687c-.852.373-1.668.86-2.359 1.391l.458.595.457.594a10 10 0 0 1 2.045-1.206zM6.51 4.868l-.458-.595a9.75 9.75 0 0 0-2.848 3.518l.677.324.676.324a8.25 8.25 0 0 1 2.41-2.977zM3.88 8.115l-.676-.324a9.75 9.75 0 0 0-.953 4.425l.75-.016.75-.017a8.25 8.25 0 0 1 .806-3.744l-.676-.324ZM3.003 12.2l-.75.016A9.75 9.75 0 0 0 3.4 16.594l.662-.353.661-.353a8.25 8.25 0 0 1-.971-3.705zm1.06 4.041-.662.353a9.75 9.75 0 0 0 3.002 3.389l.43-.614.431-.614a8.25 8.25 0 0 1-2.54-2.867zm2.77 3.128-.43.614c.77.54 1.56 1.025 2.448 1.36l.265-.701.265-.702c-.717-.27-1.39-.675-2.117-1.186l-.43.614Zm5.1 1.631v.75H15v-1.5h-3.067zm-2.818-.358-.265.701c1.037.392 2.139.407 3.083.407v-1.5c-.964 0-1.805-.027-2.553-.31zM12.38 3v-.75c-1.26 0-2.668.063-3.968.632l.3.687.301.687c.992-.434 2.125-.506 3.367-.506zM13 16.5h-.75a.75.75 0 0 1-.75.75v1.5a2.25 2.25 0 0 0 2.25-2.25zM11.5 18v-.75a.75.75 0 0 1-.75-.75h-1.5a2.25 2.25 0 0 0 2.25 2.25zM10 16.5h.75a.75.75 0 0 1 .75-.75v-1.5a2.25 2.25 0 0 0-2.25 2.25zm1.5-1.5v.75a.75.75 0 0 1 .75.75h1.5a2.25 2.25 0 0 0-2.25-2.25zm-3-3h-.75a.75.75 0 0 1-.75.75v1.5A2.25 2.25 0 0 0 9.25 12zM7 13.5v-.75a.75.75 0 0 1-.75-.75h-1.5A2.25 2.25 0 0 0 7 14.25zM5.5 12h.75a.75.75 0 0 1 .75-.75v-1.5A2.25 2.25 0 0 0 4.75 12zM7 10.5v.75a.75.75 0 0 1 .75.75h1.5A2.25 2.25 0 0 0 7 9.75zm6-3h-.75a.75.75 0 0 1-.75.75v1.5a2.25 2.25 0 0 0 2.25-2.25zM11.5 9v-.75a.75.75 0 0 1-.75-.75h-1.5a2.25 2.25 0 0 0 2.25 2.25zM10 7.5h.75a.75.75 0 0 1 .75-.75v-1.5A2.25 2.25 0 0 0 9.25 7.5zM11.5 6v.75a.75.75 0 0 1 .75.75h1.5a2.25 2.25 0 0 0-2.25-2.25zM17 18.5h.75V10h-1.5v8.5zm0-8.5v.75h3v-1.5h-3zm3 0h-.75v8.5h1.5V10zm0 8.5h-.75a.75.75 0 0 1-.75.75v1.5a2.25 2.25 0 0 0 2.25-2.25zm-3 0h-.75a2.25 2.25 0 0 0 2.25 2.25v-1.5a.75.75 0 0 1-.75-.75zm4-10.95h-.75c0 .925-.77 1.7-1.75 1.7v1.5c1.78 0 3.25-1.418 3.25-3.2zM18.5 10v-.75c-.98 0-1.75-.775-1.75-1.7h-1.5c0 1.782 1.47 3.2 3.25 3.2zM16 7.55h.75c0-.157.088-.48.317-.958.215-.45.51-.947.813-1.418a26 26 0 0 1 1.186-1.68l.02-.025.004-.006v-.001L18.5 3l-.59-.462h-.001v.001l-.002.002-.006.008-.023.03a19 19 0 0 0-.374.5c-.24.328-.562.782-.884 1.282a15 15 0 0 0-.906 1.584c-.24.5-.464 1.086-.464 1.605zM18.5 3l-.59.462v.001l.005.006.02.025.075.1a26 26 0 0 1 1.11 1.58c.304.471.598.968.813 1.418.229.479.317.8.317.958h1.5c0-.52-.224-1.104-.464-1.605a15 15 0 0 0-.906-1.584 28 28 0 0 0-1.258-1.783l-.023-.029-.006-.008-.001-.002h-.001z"/></svg>