<svg xmlns="http://www.w3.org/2000/svg" fill="none" viewBox="0 0 24 24"><path fill="#FFCC4D" d="M22 12c0 5.523-4.477 10-10 10-5.522 0-10-4.477-10-10C2 6.478 6.478 2 12 2c5.523 0 10 4.478 10 10Z"/><path fill="#664500" d="M8.389 13.111c.767 0 1.389-.87 1.389-1.944 0-1.074-.622-1.945-1.39-1.945-.766 0-1.388.87-1.388 1.945 0 1.074.622 1.944 1.389 1.944Zm7.222 0c.767 0 1.389-.87 1.389-1.944 0-1.074-.622-1.945-1.389-1.945s-1.389.87-1.389 1.945c0 1.074.622 1.944 1.39 1.944Zm.278 3.334H8.11a.555.555 0 1 1 0-1.112h7.778a.555.555 0 1 1 0 1.112Z"/></svg>