<svg xmlns="http://www.w3.org/2000/svg" fill="none" viewBox="0 0 24 24"><path fill="#FFCC4D" d="M12 22c5.523 0 10-4.477 10-10S17.523 2 12 2 2 6.477 2 12s4.477 10 10 10Z"/><path fill="#664500" d="M12 13.667c-2.013 0-3.348-.235-5-.556-.377-.073-1.111 0-1.111 1.111 0 2.222 2.553 5 6.111 5s6.111-2.778 6.111-5c0-1.11-.734-1.184-1.111-1.11-1.652.32-2.987.555-5 .555Z"/><path fill="#fff" d="M7 14.222s1.667.556 5 .556 5-.556 5-.556-1.111 2.223-5 2.223c-3.889 0-5-2.223-5-2.223Z"/><path fill="#664500" d="M8.667 11.444c.767 0 1.389-.87 1.389-1.944 0-1.074-.622-1.944-1.39-1.944-.766 0-1.388.87-1.388 1.944 0 1.074.622 1.944 1.389 1.944Zm6.666 0c.767 0 1.39-.87 1.39-1.944 0-1.074-.623-1.944-1.39-1.944-.767 0-1.389.87-1.389 1.944 0 1.074.622 1.944 1.39 1.944Z"/></svg>