<svg xmlns="http://www.w3.org/2000/svg" fill="none" viewBox="0 0 24 24"><path fill="#FFCC4D" d="M12 22c5.523 0 10-4.477 10-10S17.523 2 12 2 2 6.477 2 12s4.477 10 10 10"/><path fill="#664500" d="M7.842 15.123c.025.1.649 2.432 4.158 2.432s4.133-2.333 4.158-2.432a.28.28 0 0 0-.131-.308.28.28 0 0 0-.334.043c-.01.01-1.085 1.03-3.693 1.03s-3.683-1.02-3.693-1.03a.279.279 0 0 0-.465.265m.825-3.679c.767 0 1.389-.87 1.389-1.944s-.622-1.944-1.39-1.944c-.766 0-1.388.87-1.388 1.944s.622 1.944 1.389 1.944m6.666 0c.767 0 1.39-.87 1.39-1.944s-.623-1.944-1.39-1.944-1.389.87-1.389 1.944.622 1.944 1.39 1.944Z"/></svg>