<svg xmlns="http://www.w3.org/2000/svg" fill="none" viewBox="0 0 24 24">
  <path fill="#DA2F47" d="M22 12c0 5.523-4.477 10-10 10-5.522 0-10-4.477-10-10C2 6.478 6.478 2 12 2c5.523 0 10 4.478 10 10Z"/>
  <path fill="#292F33" d="M16.158 18.6c-.025-.1-.649-2.433-4.158-2.433-3.51 0-4.133 2.333-4.158 2.432a.278.278 0 0 0 .131.308c.109.06.244.044.334-.043.01-.01 1.085-1.03 3.693-1.03s3.683 1.02 3.693 1.03a.279.279 0 0 0 .333.045.278.278 0 0 0 .132-.31Zm-5.432-6.993C8.918 9.8 6.012 9.777 5.89 9.777a.555.555 0 1 0 0 1.112 7.72 7.72 0 0 1 2.212.41c-.33.355-.545.907-.545 1.534 0 1.075.621 1.945 1.388 1.945.768 0 1.39-.87 1.39-1.945 0-.096-.011-.189-.021-.281.007 0 .014.004.02.004a.554.554 0 0 0 .393-.949Zm7.385-1.83c-.123 0-3.028.022-4.837 1.83a.555.555 0 0 0 .393.949c.007 0 .013-.004.02-.004a2.58 2.58 0 0 0-.02.281c0 1.075.621 1.945 1.389 1.945.767 0 1.388-.87 1.388-1.945 0-.627-.216-1.18-.545-1.535a7.738 7.738 0 0 1 2.213-.41.556.556 0 0 0 0-1.11Z"/>
</svg>
