<svg xmlns="http://www.w3.org/2000/svg" viewBox="0 0 24 24"><path d="M15.75 15.25h-7.5v1.5h7.5zm-7.5-3h5.5v1.5h-5.5zm3.5-3h-3.5v1.5h3.5z"/><path fill-rule="evenodd" d="M19.156 6.01c.346.624.594 1.315.594 1.99v11A2.75 2.75 0 0 1 17 21.75H7A2.75 2.75 0 0 1 4.25 19V5A2.75 2.75 0 0 1 7 2.25h7c.675 0 1.366.248 1.99.594a8.3 8.3 0 0 1 1.79 1.376 8.3 8.3 0 0 1 1.376 1.79M7 3.75c-.69 0-1.25.56-1.25 1.25v14c0 .69.56 1.25 1.25 1.25h10c.69 0 1.25-.56 1.25-1.25V8.75H14a.75.75 0 0 1-.75-.75V3.75zm7.75 3.5h3.336a4 4 0 0 0-.242-.51 6.8 6.8 0 0 0-1.124-1.46 6.8 6.8 0 0 0-1.46-1.124q-.27-.15-.51-.242z" clip-rule="evenodd"/></svg>