<svg xmlns="http://www.w3.org/2000/svg" fill="none" viewBox="0 0 24 24"><path fill="#000" fill-rule="evenodd" d="M19.75 8c0-.675-.248-1.366-.594-1.99a8.3 8.3 0 0 0-1.376-1.79 8.3 8.3 0 0 0-1.79-1.376c-.624-.346-1.315-.594-1.99-.594H7A2.75 2.75 0 0 0 4.25 5v14A2.75 2.75 0 0 0 7 21.75h10A2.75 2.75 0 0 0 19.75 19zm-14-3c0-.69.56-1.25 1.25-1.25h6.25V8c0 .414.336.75.75.75h4.25V19c0 .69-.56 1.25-1.25 1.25H7c-.69 0-1.25-.56-1.25-1.25zm12.336 2.25H14.75V3.914q.24.092.51.242c.493.273 1 .666 1.46 1.124a6.8 6.8 0 0 1 1.124 1.46q.15.27.242.51" clip-rule="evenodd"/><rect width="18" height="10" x="3" y="12" fill="red" rx="1"/><path fill="#fff" fill-rule="evenodd" d="M4.666 14.182V20h1.23v-1.886H6.93q.67 0 1.142-.248a1.7 1.7 0 0 0 .725-.69 2.05 2.05 0 0 0 .25-1.023 2.06 2.06 0 0 0-.248-1.022q-.245-.447-.71-.696-.465-.253-1.128-.253zm1.23 2.946h.835q.356 0 .585-.122a.8.8 0 0 0 .347-.344q.117-.221.116-.509a1.05 1.05 0 0 0-.116-.505.78.78 0 0 0-.347-.338 1.26 1.26 0 0 0-.59-.123h-.83v1.94ZM11.908 20H9.846v-5.818h2.08q.877 0 1.51.35.634.346.975.996.344.651.344 1.557 0 .909-.344 1.563-.34.653-.98 1.003-.636.35-1.523.349m-.832-1.054h.78q.546 0 .918-.193.375-.195.563-.605.19-.413.19-1.063 0-.645-.19-1.054a1.23 1.23 0 0 0-.56-.602q-.372-.193-.917-.193h-.784z" clip-rule="evenodd"/><path fill="#fff" d="M15.666 20v-5.818h3.852v1.014h-2.622v1.386h2.366v1.015h-2.366V20z"/></svg>