<svg xmlns="http://www.w3.org/2000/svg" viewBox="0 0 24 24"><path d="M15.75 15.25h-7.5v1.5h7.5v-1.5Zm-7.5-3h5.5v1.5h-5.5v-1.5Zm3.5-3h-3.5v1.5h3.5v-1.5Z"/><path fill-rule="evenodd" d="M19.156 6.01c.346.624.594 1.315.594 1.99v11A2.75 2.75 0 0 1 17 21.75H7A2.75 2.75 0 0 1 4.25 19V5A2.75 2.75 0 0 1 7 2.25h7c.675 0 1.366.248 1.99.594a8.28 8.28 0 0 1 1.79 1.376 8.278 8.278 0 0 1 1.376 1.79ZM7 3.75c-.69 0-1.25.56-1.25 1.25v14c0 .69.56 1.25 1.25 1.25h10c.69 0 1.25-.56 1.25-1.25V8.75H14a.75.75 0 0 1-.75-.75V3.75H7Zm7.75 3.5h3.336a4.116 4.116 0 0 0-.242-.51 6.79 6.79 0 0 0-1.124-1.46 6.789 6.789 0 0 0-1.46-1.124c-.179-.1-.35-.18-.51-.242V7.25Z" clip-rule="evenodd"/></svg>