<svg xmlns="http://www.w3.org/2000/svg" viewBox="0 0 24 24"><path fill-rule="evenodd" d="M19.75 8c0-.675-.248-1.366-.594-1.99a8.3 8.3 0 0 0-1.376-1.79 8.3 8.3 0 0 0-1.79-1.376c-.624-.346-1.315-.594-1.99-.594H7A2.75 2.75 0 0 0 4.25 5v14A2.75 2.75 0 0 0 7 21.75h10A2.75 2.75 0 0 0 19.75 19zm-14-3c0-.69.56-1.25 1.25-1.25h6.25V8c0 .414.336.75.75.75h4.25V19c0 .69-.56 1.25-1.25 1.25H7c-.69 0-1.25-.56-1.25-1.25zm12.336 2.25H14.75V3.914q.24.092.51.242c.493.273 1 .666 1.46 1.124a6.8 6.8 0 0 1 1.124 1.46q.15.27.242.51" clip-rule="evenodd"/></svg>