<svg xmlns="http://www.w3.org/2000/svg" fill="none" viewBox="0 0 24 24">
  <path fill="#000" fill-rule="evenodd" d="M19.75 8c0-.675-.248-1.366-.594-1.99a8.278 8.278 0 0 0-1.376-1.79 8.28 8.28 0 0 0-1.79-1.376c-.624-.346-1.315-.594-1.99-.594H7A2.75 2.75 0 0 0 4.25 5v14A2.75 2.75 0 0 0 7 21.75h10A2.75 2.75 0 0 0 19.75 19V8Zm-14-3c0-.69.56-1.25 1.25-1.25h6.25V8c0 .414.336.75.75.75h4.25V19c0 .69-.56 1.25-1.25 1.25H7c-.69 0-1.25-.56-1.25-1.25V5Zm12.336 2.25H14.75V3.914c.16.062.331.142.51.242.493.273 1 .666 1.46 1.124a6.79 6.79 0 0 1 1.124 1.46c.1.179.18.35.242.51Z" clip-rule="evenodd"/>
  <rect width="18" height="10" x="3" y="12" fill="red" rx="1"/>
  <path fill="#fff" fill-rule="evenodd" d="M4.666 14.182V20h1.23v-1.886H6.93c.447 0 .828-.083 1.142-.248a1.72 1.72 0 0 0 .725-.69 2.05 2.05 0 0 0 .25-1.023 2.06 2.06 0 0 0-.248-1.022c-.163-.298-.4-.53-.71-.696-.31-.169-.686-.253-1.128-.253H4.666Zm1.23 2.946h.835c.237 0 .432-.04.585-.122a.81.81 0 0 0 .347-.344c.078-.148.116-.317.116-.509a1.05 1.05 0 0 0-.116-.505.778.778 0 0 0-.347-.338 1.265 1.265 0 0 0-.59-.123h-.83v1.94ZM11.908 20H9.846v-5.818h2.08c.584 0 1.088.116 1.51.35.423.23.748.563.975.996.229.434.344.953.344 1.557 0 .606-.115 1.127-.344 1.563-.227.435-.554.77-.98 1.003-.424.233-.932.349-1.523.349Zm-.832-1.054h.78c.364 0 .67-.064.918-.193.25-.13.438-.332.563-.605.127-.275.19-.63.19-1.063 0-.43-.063-.781-.19-1.054a1.232 1.232 0 0 0-.56-.602c-.248-.129-.554-.193-.917-.193h-.784v3.71Z" clip-rule="evenodd"/>
  <path fill="#fff" d="M15.666 20v-5.818h3.852v1.014h-2.622v1.386h2.366v1.015h-2.366V20h-1.23Z"/>
</svg>
