<svg xmlns="http://www.w3.org/2000/svg" viewBox="0 0 24 24"><path d="M9.41 5.172a.75.75 0 1 1-.504-1.413 8.88 8.88 0 0 1 9.243 2.09 8.88 8.88 0 0 1 2.601 6.278c0 1.88-.21 3.753-.629 5.585a.75.75 0 1 1-1.462-.334 23.6 23.6 0 0 0 .591-5.25 7.375 7.375 0 0 0-7.382-7.378 7.3 7.3 0 0 0-2.458.422"/><path d="M13.006 7.448a4.818 4.818 0 0 0-5.953 4.68 11.3 11.3 0 0 1-1.43 5.535.75.75 0 0 0 1.31.73 12.8 12.8 0 0 0 1.62-6.267 3.31 3.31 0 0 1 2.132-3.097 3.32 3.32 0 0 1 3.657.889.75.75 0 1 0 1.118-1 4.8 4.8 0 0 0-2.454-1.47m3.678 4.678a.75.75 0 0 0-1.5.002 19.4 19.4 0 0 1-1.468 7.434.75.75 0 1 0 1.387.572 20.9 20.9 0 0 0 1.581-8.008M5.126 9.116a7.3 7.3 0 0 1 1.82-2.481c.723-.643-.274-1.764-.997-1.121a8.89 8.89 0 0 0-2.962 6.615 7.3 7.3 0 0 1-.669 3.071.75.75 0 1 0 1.364.626 8.8 8.8 0 0 0 .805-3.7 7.3 7.3 0 0 1 .64-3.01Zm5.592 9.107a.75.75 0 0 1 .353 1c-.181.38-.374.766-.578 1.137a.75.75 0 1 1-1.315-.72c.186-.34.366-.699.54-1.064a.75.75 0 0 1 1-.353"/><path d="M12.618 12.126a.75.75 0 1 0-1.5.002 15.3 15.3 0 0 1-.492 3.874.75.75 0 0 0 1.452.377c.36-1.389.543-2.818.54-4.253"/></svg>