<svg xmlns="http://www.w3.org/2000/svg" fill="none" viewBox="0 0 24 24"><g clip-path="url(#flag-sk_svg__a)"><rect width="20" height="14" x="2" y="5" fill="#1A47B8" rx="3"/><path fill="#F93939" fill-rule="evenodd" d="M2 14.333h20V19H2v-4.667Z" clip-rule="evenodd"/><path fill="#fff" fill-rule="evenodd" d="M2 5h20v4.667H2V5Zm9.457 9.333h.067V9.667H4.857v4.666h.067a1.676 1.676 0 0 0-.067.467c0 1.288 3.333 2.333 3.333 2.333s3.334-1.045 3.334-2.333c0-.159-.023-.316-.067-.467Z" clip-rule="evenodd"/><path fill="#F93939" fill-rule="evenodd" d="M10.572 14.333v-5.6H5.81v5.6c0 1.032 2.38 1.867 2.38 1.867s2.382-.835 2.382-1.867Z" clip-rule="evenodd"/><path fill="#fff" fill-rule="evenodd" d="M7.714 12.467v-.934h-.952V10.6h.952v-.933h.953v.933h.952v.933h-.952v.934h1.428v.933H8.667v.933h-.953V13.4H6.286v-.933h1.428Z" clip-rule="evenodd"/><path fill="#1A47B8" fill-rule="evenodd" d="M8.19 16.2s2.382-.835 2.382-1.867c0-1.031-.953-.933-2.381 0-1.43-.933-2.381-1.031-2.381 0 0 1.032 2.38 1.867 2.38 1.867Z" clip-rule="evenodd"/></g><defs><clipPath id="flag-sk_svg__a"><rect width="20" height="14" x="2" y="5" fill="#fff" rx="3"/></clipPath></defs></svg>