<svg xmlns="http://www.w3.org/2000/svg" fill="none" viewBox="0 0 24 24">
  <g clip-path="url(#a)">
    <rect width="20" height="14" x="2" y="5" fill="#F93939" rx="3"/>
    <path fill="#F93939" d="M20.095 5H3.905C2.853 5 2 5.836 2 6.867v10.266C2 18.164 2.853 19 3.905 19h16.19C21.147 19 22 18.164 22 17.133V6.867C22 5.836 21.147 5 20.095 5Z"/>
    <path fill="#151515" fill-rule="evenodd" d="M12 8.733 10.571 7.8l-.952.933h.952l-.952.934-1.905-.934V13.4l2.857-.933-.952 1.866h-.952l.952.934.952-.934L12 16.2V8.733Zm1.429-.933.952.933h-.952l.952.934 1.905-.934V13.4l-2.857-.933.952 1.866h.952l-.952.934-.952-.934L12 16.2V8.733l1.429-.933Z" clip-rule="evenodd"/>
  </g>
  <defs>
    <clipPath id="a">
      <rect width="20" height="14" x="2" y="5" fill="#fff" rx="3"/>
    </clipPath>
  </defs>
</svg>
