<svg xmlns="http://www.w3.org/2000/svg" fill="none" viewBox="0 0 24 24">
  <g clip-path="url(#a)">
    <rect width="20" height="20" x="2" y="2" fill="#fff" rx="10"/>
    <path fill="#1A47B8" fill-rule="evenodd" d="M2 2h5.333v5.333H2V2Zm8 0h5.333v5.333H10V2Zm-8 8h5.333v5.333H2V10Zm8 0h5.333v5.333H10V10Zm5.333-8H30v2.667H15.333V2Zm0 5.333H30V10H15.333V7.333Z" clip-rule="evenodd"/>
    <path fill="#1A47B8" fill-rule="evenodd" d="M2 12.667h28v2.666H2v-2.666Zm5.333 0H10v2.666H7.333v-2.666ZM2 18h28v2.667H2V18Z" clip-rule="evenodd"/>
  </g>
  <defs>
    <clipPath id="a">
      <rect width="20" height="20" x="2" y="2" fill="#fff" rx="10"/>
    </clipPath>
  </defs>
</svg>
