<svg xmlns="http://www.w3.org/2000/svg" fill="none" viewBox="0 0 24 24">
  <g clip-path="url(#a)">
    <rect width="20" height="14" x="2" y="5" fill="#1A47B8" rx="3"/>
    <path fill="#fff" fill-rule="evenodd" d="M2 14.333h20V19H2v-4.667Z" clip-rule="evenodd"/>
    <path fill="#F93939" fill-rule="evenodd" d="M2 5h20v4.667H2V5Zm7.619 9.333V9.667h-3.81v4.666c0 1.032.853 1.867 1.905 1.867 1.053 0 1.905-.835 1.905-1.867Z" clip-rule="evenodd"/>
    <path fill="#fff" fill-rule="evenodd" d="m6.762 10.6-.952.933 1.904.934-.952 1.866.952 1.867.953-1.867-.953-1.866 1.905-.934-.952-.933-.953.933-.952-.933Z" clip-rule="evenodd"/>
    <path fill="#88605F" fill-rule="evenodd" d="M7.714 12.467 5.81 13.4h3.81l-1.906-.933Z" clip-rule="evenodd"/>
    <path fill="#FFDA2C" fill-rule="evenodd" d="M6.762 10.6H5.81v.933l.952-.933Zm1.905 0h.952v.933l-.952-.933Zm-1.905-.933-.952-.934S6.762 7.8 7.714 7.8c.953 0 1.905.933 1.905.933l-.952.934H6.762Z" clip-rule="evenodd"/>
    <path fill="#A75835" fill-rule="evenodd" d="m7.714 7.8-.952.933.952.934.953-.934-.953-.933Z" clip-rule="evenodd"/>
  </g>
  <defs>
    <clipPath id="a">
      <rect width="20" height="14" x="2" y="5" fill="#fff" rx="3"/>
    </clipPath>
  </defs>
</svg>
