<svg xmlns="http://www.w3.org/2000/svg" fill="none" viewBox="0 0 24 24"><g clip-path="url(#flag-gr_svg__a)"><rect width="20" height="14" x="2" y="5" fill="#fff" rx="3"/><path fill="#1A47B8" fill-rule="evenodd" d="M2 5h3.81v3.733H2V5Zm5.714 0h3.81v3.733h-3.81V5ZM2 10.6h3.81v3.733H2V10.6Zm5.714 0h3.81v3.733h-3.81V10.6Zm3.81-5.6H22v1.867H11.524V5Zm0 3.733H22V10.6H11.524V8.733Z" clip-rule="evenodd"/><path fill="#1A47B8" fill-rule="evenodd" d="M2 12.467h20v1.866H2v-1.866Zm3.81 0h1.904v1.866H5.81v-1.866ZM2 16.2h20v1.867H2V16.2Z" clip-rule="evenodd"/></g><defs><clipPath id="flag-gr_svg__a"><rect width="20" height="14" x="2" y="5" fill="#fff" rx="3"/></clipPath></defs></svg>