<svg xmlns="http://www.w3.org/2000/svg" fill="none" viewBox="0 0 24 24"><g clip-path="url(#flag-rect-mk_svg__a)"><rect width="20" height="14" x="2" y="5" fill="#AF010D" rx="3"/><path fill="#FFDA2C" fill-rule="evenodd" d="m2 5 9.524 6.533h.952L5.81 5zm0 14 9.524-6.533h.952L5.81 19z" clip-rule="evenodd"/><path fill="#FFDA2C" fill-rule="evenodd" d="M12.476 11.533h-.952L18.19 5H22zm0 .934h-.952L18.19 19H22zm-2.857-.934L2 10.6v2.8l7.619-.933zm4.762 0L22 10.6v2.8l-7.619-.933zm-2.857-1.866L10.57 5h2.858l-.953 4.667zm0 4.666L10.57 19h2.858l-.953-4.667" clip-rule="evenodd"/><path fill="#AF010D" d="M12 14.333c1.315 0 2.38-1.044 2.38-2.333S13.315 9.667 12 9.667 9.619 10.71 9.619 12c0 1.289 1.066 2.333 2.381 2.333"/><path fill="#FFDA2C" d="M12 13.4c.789 0 1.429-.627 1.429-1.4s-.64-1.4-1.429-1.4-1.429.627-1.429 1.4.64 1.4 1.429 1.4"/></g><defs><clipPath id="flag-rect-mk_svg__a"><rect width="20" height="14" x="2" y="5" fill="#fff" rx="3"/></clipPath></defs></svg>