<svg xmlns="http://www.w3.org/2000/svg" fill="none" viewBox="0 0 24 24">
  <g clip-path="url(#a)">
    <rect width="21" height="14" x="2" y="5" fill="#fff" rx="3"/>
    <path fill="#F93939" fill-rule="evenodd" d="M2 5h21v4.667H2V5Z" clip-rule="evenodd"/>
    <path fill="#1A47B8" fill-rule="evenodd" d="M2 14.333h21V19H2v-4.667Z" clip-rule="evenodd"/>
    <mask id="b" width="5" height="8" x="10" y="8" maskUnits="userSpaceOnUse" style="mask-type:alpha">
      <path fill="#fff" d="M15 12.239c0 1.671-1.12 3.028-2.5 3.028S10 13.91 10 12.239V8h5v4.239Z"/>
    </mask>
    <g mask="url(#b)">
      <path fill="#F93939" d="M15 12.933c0 1.288-1.12 2.334-2.5 2.334S10 14.22 10 12.933V9.667h5v3.266Z"/>
      <path fill="#fff" fill-rule="evenodd" d="M11 14.333h1v.934h-1v-.934Zm2 0h1v.934h-1v-.934Zm-1-.933h1v.933h-1V13.4Zm-1-.933h1v.933h-1v-.933Zm2 0h1v.933h-1v-.933Zm-1-.934h1v.934h-1v-.934Zm-1-.933h1v.933h-1V10.6Zm2 0h1v.933h-1V10.6Zm-1-.933h1v.933h-1v-.933Zm2 0h1v.933h-1v-.933Zm0 1.866h1v.934h-1v-.934Zm0 1.867h1v.933h-1V13.4Zm-4 0h1v.933h-1V13.4Zm0-1.867h1v.934h-1v-.934Zm0-1.866h1v.933h-1v-.933Z" clip-rule="evenodd"/>
      <path fill="#F93939" fill-rule="evenodd" d="M2 5h21v4.667H2V5Z" clip-rule="evenodd"/>
      <path fill="#3A99FF" fill-rule="evenodd" d="M10 8.733h1v.934h-1v-.934Zm2-.933h1v1.867h-1V7.8Zm2 .933h1v.934h-1v-.934Z" clip-rule="evenodd"/>
      <path fill="#1A47B8" fill-rule="evenodd" d="M13 7.8h1v1.867h-1V7.8Zm-2 0h1v1.867h-1V7.8Z" clip-rule="evenodd"/>
    </g>
  </g>
  <defs>
    <clipPath id="a">
      <rect width="21" height="14" x="2" y="5" fill="#fff" rx="3"/>
    </clipPath>
  </defs>
</svg>
