<svg xmlns="http://www.w3.org/2000/svg" fill="none" viewBox="0 0 24 24"><g clip-path="url(#flag-circle-hr_svg__a)"><rect width="20" height="20" x="2" y="2" fill="#fff" rx="10"/><path fill="#1A47B8" fill-rule="evenodd" d="M-2 15.333h28V22H-2z" clip-rule="evenodd"/><path fill="#F93939" fill-rule="evenodd" d="M-2 2h28v6.667H-2z" clip-rule="evenodd"/><path fill="#3A99FF" fill-rule="evenodd" d="M8.667 7.333H10v1.334H8.667zM11.333 6h1.334v2.667h-1.334zM14 7.333h1.333v1.334H14z" clip-rule="evenodd"/><path fill="#1A47B8" fill-rule="evenodd" d="M12.667 6H14v2.667h-1.333zM10 6h1.333v2.667H10z" clip-rule="evenodd"/><mask id="flag-circle-hr_svg__b" width="8" height="9" x="8" y="8" maskUnits="userSpaceOnUse" style="mask-type:alpha"><path fill="#fff" d="M15.333 13.333A3.335 3.335 0 0 1 12 16.667a3.335 3.335 0 0 1-3.333-3.334V8.667h6.666z"/></mask><g mask="url(#flag-circle-hr_svg__b)"><path fill="#F93939" d="M15.333 13.333A3.335 3.335 0 0 1 12 16.667a3.335 3.335 0 0 1-3.333-3.334V8.667h6.666z"/><path fill="#fff" fill-rule="evenodd" d="M10 15.333h1.333v1.334H10zm2.667 0H14v1.334h-1.333zM11.333 14h1.334v1.333h-1.334zM10 12.667h1.333V14H10zm2.667 0H14V14h-1.333zm-1.334-1.334h1.334v1.334h-1.334zM10 10h1.333v1.333H10zm2.667 0H14v1.333h-1.333zm-1.334-1.333h1.334V10h-1.334zm2.667 0h1.333V10H14zm0 2.666h1.333v1.334H14zM14 14h1.333v1.333H14zm-5.333 0H10v1.333H8.667zm0-2.667H10v1.334H8.667zm0-2.666H10V10H8.667z" clip-rule="evenodd"/></g></g><defs><clipPath id="flag-circle-hr_svg__a"><rect width="20" height="20" x="2" y="2" fill="#fff" rx="10"/></clipPath></defs></svg>