<svg xmlns="http://www.w3.org/2000/svg" fill="none" viewBox="0 0 24 24"><g clip-path="url(#flag-circle-rs_svg__a)"><rect width="20" height="20" x="2" y="2" fill="#1A47B8" rx="10"/><path fill="#fff" fill-rule="evenodd" d="M2 15.333h28V22H2z" clip-rule="evenodd"/><path fill="#F93939" fill-rule="evenodd" d="M2 2h28v6.667H2zm10.667 13.333V8.667H7.333v6.666a2.666 2.666 0 1 0 5.334 0" clip-rule="evenodd"/><path fill="#FFDA2C" fill-rule="evenodd" d="M8.667 8.667 7.333 7.333S8.667 6 10 6s2.667 1.333 2.667 1.333l-1.334 1.334z" clip-rule="evenodd"/><path fill="#fff" fill-rule="evenodd" d="m8.667 10-1.334 1.333L10 12.667l-1.333 2.666L10 18l1.333-2.667L10 12.667l2.667-1.334L11.333 10 10 11.333z" clip-rule="evenodd"/><path fill="#FFDA2C" fill-rule="evenodd" d="M8.667 10H7.333v1.333zm2.666 0h1.334v1.333z" clip-rule="evenodd"/><path fill="#A75835" fill-rule="evenodd" d="M10 6 8.667 7.333 10 8.667l1.333-1.334z" clip-rule="evenodd"/><path fill="#88605F" fill-rule="evenodd" d="M10 12.667 7.333 14h5.334z" clip-rule="evenodd"/></g><defs><clipPath id="flag-circle-rs_svg__a"><rect width="20" height="20" x="2" y="2" fill="#fff" rx="10"/></clipPath></defs></svg>