<svg xmlns="http://www.w3.org/2000/svg" fill="none" viewBox="0 0 24 24"><g clip-path="url(#flag-circle-sk_svg__a)"><rect width="20" height="20" x="2" y="2" fill="#1A47B8" rx="10"/><path fill="#F93939" fill-rule="evenodd" d="M.667 15.333h28V22h-28z" clip-rule="evenodd"/><path fill="#fff" fill-rule="evenodd" d="M.667 2h28v6.667h-28zm13.24 13.333H14V8.667H4.667v6.666h.093a2.4 2.4 0 0 0-.093.667c0 1.84 4.666 3.333 4.666 3.333S14 17.84 14 16q0-.341-.093-.667" clip-rule="evenodd"/><path fill="#F93939" fill-rule="evenodd" d="M12.667 15.333v-8H6v8C6 16.807 9.333 18 9.333 18s3.334-1.193 3.334-2.667" clip-rule="evenodd"/><path fill="#fff" fill-rule="evenodd" d="M8.667 12.667v-1.334H7.333V10h1.334V8.667H10V10h1.333v1.333H10v1.334h2V14h-2v1.333H8.667V14h-2v-1.333z" clip-rule="evenodd"/><path fill="#1A47B8" fill-rule="evenodd" d="M9.333 18s3.334-1.193 3.334-2.667-1.334-1.333-3.334 0C7.333 14 6 13.86 6 15.333S9.333 18 9.333 18" clip-rule="evenodd"/></g><defs><clipPath id="flag-circle-sk_svg__a"><rect width="20" height="20" x="2" y="2" fill="#fff" rx="10"/></clipPath></defs></svg>