<svg xmlns="http://www.w3.org/2000/svg" fill="none" viewBox="0 0 24 24"><g clip-path="url(#flag-circle-en_svg__a)"><rect width="20" height="20" x="2" y="2" fill="#1A47B8" rx="10"/><path fill="#fff" fill-rule="evenodd" d="M.979 2H-2v3.333L23.005 22H26v-3.333z" clip-rule="evenodd"/><path fill="#F93939" d="M-1.007 2 26 20.047V22h-.97L-2 3.934V2z"/><path fill="#fff" fill-rule="evenodd" d="M23.333 2H26v3.333S8.68 16.437.667 22H-2v-3.333z" clip-rule="evenodd"/><path fill="#F93939" d="M26 2h-.904L-2 20.063V22h.993L26 3.949z"/><path fill="#fff" fill-rule="evenodd" d="M8.183 2h7.658v6.17H26v7.657H15.84V22H8.184v-6.173H-2V8.169H8.183z" clip-rule="evenodd"/><path fill="#F93939" fill-rule="evenodd" d="M9.79 2h4.42v7.692H26v4.616H14.21V22H9.79v-7.692H-2V9.692H9.79z" clip-rule="evenodd"/></g><mask id="flag-circle-en_svg__b" width="19" height="16" x="2" y="2" maskUnits="userSpaceOnUse" style="mask-type:alpha"><path fill="#D9D9D9" fill-rule="evenodd" d="M12 2C6.477 2 2 6.477 2 12c0 2.042.612 3.94 1.662 5.523L20.178 6.244A9.99 9.99 0 0 0 12 2" clip-rule="evenodd"/></mask><g mask="url(#flag-circle-en_svg__b)"><rect width="20" height="20" x="2" y="2" fill="#fff" rx="10"/><path fill="#1A47B8" fill-rule="evenodd" d="M2 2h12v9.333H2z" clip-rule="evenodd"/><path fill="#F93939" fill-rule="evenodd" d="M14 2v1.333h16V2zm0 2.667V6h16V4.667zm0 2.666v1.334h16V7.333zM14 10v1.333h16V10zM2 12.667V14h28v-1.333zm0 2.666v1.334h28v-1.334zM2 18v1.333h28V18zm0 2.667V22h28v-1.333z" clip-rule="evenodd"/><path fill="#fff" fill-rule="evenodd" d="M3.333 3.333v1.334h1.334V3.333zm2.667 0v1.334h1.333V3.333zm2.667 0v1.334H10V3.333zm2.666 0v1.334h1.334V3.333zM10 4.667V6h1.333V4.667zm-2.667 0V6h1.334V4.667zm-2.666 0V6H6V4.667zM3.333 6v1.333h1.334V6zM6 6v1.333h1.333V6zm2.667 0v1.333H10V6zm2.666 0v1.333h1.334V6zm-8 2.667V10h1.334V8.667zm2.667 0V10h1.333V8.667zm2.667 0V10H10V8.667zm2.666 0V10h1.334V8.667zM10 7.333v1.334h1.333V7.333zm-2.667 0v1.334h1.334V7.333zm-2.666 0v1.334H6V7.333z" clip-rule="evenodd"/></g><defs><clipPath id="flag-circle-en_svg__a"><rect width="20" height="20" x="2" y="2" fill="#fff" rx="10"/></clipPath></defs></svg>