<svg xmlns="http://www.w3.org/2000/svg" fill="none" viewBox="0 0 24 24">
  <g clip-path="url(#a)">
    <rect width="20" height="14" x="2" y="5" fill="#1A47B8" rx="3"/>
    <path fill="#fff" d="M2 5h2.128l7.934 5.18L20.095 5H22v2.333s-3.286 2.065-7.254 4.599L22 16.667V19h-2.14l-7.994-5.223C8.943 15.657 5.985 17.585 3.905 19H2v-2.333l7.191-4.637L2 7.333V5Z"/>
    <path fill="#F93939" d="M12.02 11.098 2.71 5H2v1.354l8.63 5.652L2 17.644V19h.71l9.298-6.09L21.307 19H22v-1.367L13.397 12 22 6.364V5h-.646l-9.333 6.098Z"/>
    <path fill="#fff" fill-rule="evenodd" d="M9.273 5h5.47v4.318H22v5.36h-7.257V19h-5.47v-4.321H2v-5.36h7.273V5Z" clip-rule="evenodd"/>
    <path fill="#F93939" fill-rule="evenodd" d="M10.421 5h3.158v5.385H22v3.23h-8.421V19H10.42v-5.385H2v-3.23h8.421V5Z" clip-rule="evenodd"/>
  </g>
  <g clip-path="url(#b)">
    <mask id="c" width="21" height="14" x="2" y="5" maskUnits="userSpaceOnUse" style="mask-type:alpha">
      <path fill="#D9D9D9" d="M2 5h21L2 19V5Z"/>
    </mask>
    <g mask="url(#c)">
      <path fill="#fff" d="M2 8a3 3 0 0 1 3-3h17v14H2V8Z"/>
      <path fill="#1A47B8" fill-rule="evenodd" d="M2 5h8.571v6.533H2V5Z" clip-rule="evenodd"/>
      <path fill="#F93939" fill-rule="evenodd" d="M10.571 5v.933H22V5H10.571Zm0 1.867V7.8H22v-.933H10.571Zm0 1.866v.934H22v-.934H10.571Zm0 1.867v.933H22V10.6H10.571ZM2 12.467v.933h20v-.933H2Zm0 1.866v.934h20v-.934H2ZM2 16.2v.933h20V16.2H2Zm0 1.867V19h20v-.933H2Z" clip-rule="evenodd"/>
      <path fill="#fff" fill-rule="evenodd" d="M2.952 5.933v.934h.953v-.934h-.953Zm1.905 0v.934h.953v-.934h-.953Zm1.905 0v.934h.952v-.934h-.952Zm1.905 0v.934h.952v-.934h-.952Zm-.953.934V7.8h.953v-.933h-.953Zm-1.904 0V7.8h.952v-.933H5.81Zm-1.905 0V7.8h.952v-.933h-.952Zm-.953.933v.933h.953V7.8h-.953Zm1.905 0v.933h.953V7.8h-.953Zm1.905 0v.933h.952V7.8h-.952Zm1.905 0v.933h.952V7.8h-.952ZM2.952 9.667v.933h.953v-.933h-.953Zm1.905 0v.933h.953v-.933h-.953Zm1.905 0v.933h.952v-.933h-.952Zm1.905 0v.933h.952v-.933h-.952Zm-.953-.934v.934h.953v-.934h-.953Zm-1.904 0v.934h.952v-.934H5.81Zm-1.905 0v.934h.952v-.934h-.952Z" clip-rule="evenodd"/>
    </g>
  </g>
  <defs>
    <clipPath id="a">
      <rect width="20" height="14" x="2" y="5" fill="#fff" rx="3"/>
    </clipPath>
    <clipPath id="b">
      <rect width="20" height="14" x="2" y="5" fill="#fff" rx="3"/>
    </clipPath>
  </defs>
</svg>
