<svg xmlns="http://www.w3.org/2000/svg" fill="none" viewBox="0 0 24 24">
  <rect width="20" height="14" x="2" y="5" fill="#fff" rx="3"/>
  <path fill="#232C80" fill-rule="evenodd" d="M15.333 12c0 1.804-1.492 3.267-3.333 3.267-1.841 0-3.333-1.463-3.333-3.267 0-1.045 2.238-1.484 4.122-1.319.2-.052.415-.081.64-.081 1.052 0 1.904.627 1.904 1.4Z" clip-rule="evenodd"/>
  <path fill="#F93939" fill-rule="evenodd" d="M11.524 11.533s.852-.933 1.905-.933c1.052 0 1.904.627 1.904 1.4 0-1.804-1.492-3.267-3.333-3.267-1.33 0-2.48.764-3.013 1.869-.32.931-.32 1.204-.32 1.398.476.467 1.005.467 1.428.467.423 0 .803-.18 1.065-.467l.364-.467Z" clip-rule="evenodd"/>
  <path fill="#151515" fill-rule="evenodd" d="M16.286 9.667h1.904L16.287 7.8h-.953l.953 1.867Zm-8.572 0H5.81L7.714 7.8h.953l-.953 1.867Zm8.572 4.666h1.904L16.287 16.2h-.953l.953-1.867Zm-8.572 0H5.81L7.714 16.2h.953l-.953-1.867Z" clip-rule="evenodd"/>
  <rect width="21" height="15" x="1.5" y="4.5" stroke="#000" stroke-opacity=".07" rx="3.5"/>
</svg>
