<svg xmlns="http://www.w3.org/2000/svg" fill="none" viewBox="0 0 24 24"><g clip-path="url(#flag-cn_svg__a)"><rect width="20" height="14" x="2" y="5" fill="#F93939" rx="3"/><path fill="#F93939" d="M20.095 5H3.905C2.853 5 2 5.836 2 6.867v10.266C2 18.164 2.853 19 3.905 19h16.19C21.147 19 22 18.164 22 17.133V6.867C22 5.836 21.147 5 20.095 5Z"/><path fill="#FFDA2C" fill-rule="evenodd" d="m7.236 11.748-1.4.722.267-1.528-1.131-1.083 1.564-.221.7-1.39.7 1.39 1.564.22-1.133 1.084.268 1.527-1.399-.721ZM10.572 7.8h.952v.933h-.952V7.8Zm.952 1.867h.952v.933h-.952v-.933Zm0 1.866h.952v.934h-.952v-.934Zm-.952 1.867h.952v.933h-.952V13.4Z" clip-rule="evenodd"/></g><defs><clipPath id="flag-cn_svg__a"><rect width="20" height="14" x="2" y="5" fill="#fff" rx="3"/></clipPath></defs></svg>