<svg xmlns="http://www.w3.org/2000/svg" fill="none" viewBox="0 0 24 24"><g clip-path="url(#flag-rect-en_svg__a)"><rect width="20" height="14" x="2" y="5" fill="#1A47B8" rx="3"/><path fill="#fff" d="M2 5h2.128l7.934 5.18L20.095 5H22v2.333s-3.286 2.065-7.254 4.599L22 16.667V19h-2.14l-7.994-5.223C8.943 15.657 5.985 17.585 3.905 19H2v-2.333l7.191-4.637L2 7.333z"/><path fill="#F93939" d="M12.02 11.098 2.71 5H2v1.354l8.63 5.652L2 17.644V19h.71l9.298-6.09L21.307 19H22v-1.367L13.397 12 22 6.364V5h-.646z"/><path fill="#fff" fill-rule="evenodd" d="M9.273 5h5.47v4.318H22v5.36h-7.257V19h-5.47v-4.321H2v-5.36h7.273z" clip-rule="evenodd"/><path fill="#F93939" fill-rule="evenodd" d="M10.421 5h3.158v5.385H22v3.23h-8.421V19H10.42v-5.385H2v-3.23h8.421z" clip-rule="evenodd"/></g><g clip-path="url(#flag-rect-en_svg__b)"><mask id="flag-rect-en_svg__c" width="21" height="14" x="2" y="5" maskUnits="userSpaceOnUse" style="mask-type:alpha"><path fill="#D9D9D9" d="M2 5h21L2 19z"/></mask><g mask="url(#flag-rect-en_svg__c)"><path fill="#fff" d="M2 8a3 3 0 0 1 3-3h17v14H2z"/><path fill="#1A47B8" fill-rule="evenodd" d="M2 5h8.571v6.533H2z" clip-rule="evenodd"/><path fill="#F93939" fill-rule="evenodd" d="M10.571 5v.933H22V5zm0 1.867V7.8H22v-.933zm0 1.866v.934H22v-.934zm0 1.867v.933H22V10.6zM2 12.467v.933h20v-.933zm0 1.866v.934h20v-.934zM2 16.2v.933h20V16.2zm0 1.867V19h20v-.933z" clip-rule="evenodd"/><path fill="#fff" fill-rule="evenodd" d="M2.952 5.933v.934h.953v-.934zm1.905 0v.934h.953v-.934zm1.905 0v.934h.952v-.934zm1.905 0v.934h.952v-.934zm-.953.934V7.8h.953v-.933zm-1.904 0V7.8h.952v-.933zm-1.905 0V7.8h.952v-.933zm-.953.933v.933h.953V7.8zm1.905 0v.933h.953V7.8zm1.905 0v.933h.952V7.8zm1.905 0v.933h.952V7.8zM2.952 9.667v.933h.953v-.933zm1.905 0v.933h.953v-.933zm1.905 0v.933h.952v-.933zm1.905 0v.933h.952v-.933zm-.953-.934v.934h.953v-.934zm-1.904 0v.934h.952v-.934zm-1.905 0v.934h.952v-.934z" clip-rule="evenodd"/></g></g><defs><clipPath id="flag-rect-en_svg__a"><rect width="20" height="14" x="2" y="5" fill="#fff" rx="3"/></clipPath><clipPath id="flag-rect-en_svg__b"><rect width="20" height="14" x="2" y="5" fill="#fff" rx="3"/></clipPath></defs></svg>