<svg xmlns="http://www.w3.org/2000/svg" fill="none" viewBox="0 0 24 24"><g clip-path="url(#flag-circle-pt_svg__a)"><rect width="20" height="20" x="2" y="2" fill="#F93939" rx="10"/><path fill="#249F58" fill-rule="evenodd" d="M-.667 2h9.334v20H-.667z" clip-rule="evenodd"/><path fill="#FFDA2C" d="M8.667 15.333a4 4 0 1 0 0-8 4 4 0 0 0 0 8"/><path fill="#F93939" fill-rule="evenodd" d="M11.333 12.667v-4H6v4C6 13.403 7.193 14 8.667 14s2.666-.597 2.666-1.333" clip-rule="evenodd"/><path fill="#fff" fill-rule="evenodd" d="M7.333 10H10v2.667H7.333z" clip-rule="evenodd"/><path fill="#1A47B8" fill-rule="evenodd" d="M7.333 10h1.334v1.333H7.333zm1.334 1.333H10v1.334H8.667z" clip-rule="evenodd"/></g><defs><clipPath id="flag-circle-pt_svg__a"><rect width="20" height="20" x="2" y="2" fill="#fff" rx="10"/></clipPath></defs></svg>