<svg xmlns="http://www.w3.org/2000/svg" fill="none" viewBox="0 0 24 24" style="fill:none;">
  <rect width="21" height="21" x="1.5" y="1.5" fill="#fff" rx="10.5"/>
  <path fill="#232C80" fill-rule="evenodd" d="M16.667 12a4.667 4.667 0 1 1-9.334 0c0-1.493 3.134-2.12 5.771-1.884.28-.075.581-.116.896-.116 1.473 0 2.667.896 2.667 2Z" clip-rule="evenodd"/>
  <path fill="#F93939" fill-rule="evenodd" d="M11.333 11.333S12.527 10 14 10c1.473 0 2.667.896 2.667 2a4.667 4.667 0 0 0-8.886-1.997c-.448 1.33-.448 1.72-.448 1.997.667.667 1.408.667 2 .667.592 0 1.124-.258 1.491-.667l.51-.667Z" clip-rule="evenodd"/>
  <path fill="#151515" fill-rule="evenodd" d="M18 8.667h2.667L18 6h-1.333L18 8.667Zm-12 0H3.333L6 6h1.333L6 8.667Zm12 6.666h2.667L18 18h-1.333L18 15.333Zm-12 0H3.333L6 18h1.333L6 15.333Z" clip-rule="evenodd"/>
  <rect width="21" height="21" x="1.5" y="1.5" stroke="#EBECF0" rx="10.5"/>
</svg>
