<svg xmlns="http://www.w3.org/2000/svg" fill="none" viewBox="0 0 24 24">
  <g clip-path="url(#flag-bs__a)">
    <rect width="20" height="14" x="2" y="5" fill="#FFDA2C" rx="3"/>
    <path fill="#FFDA2C" d="M20.095 5H3.905C2.853 5 2 5.836 2 6.867v10.266C2 18.164 2.853 19 3.905 19h16.19C21.147 19 22 18.164 22 17.133V6.867C22 5.836 21.147 5 20.095 5Z"/>
    <path fill="#1A47B8" fill-rule="evenodd" d="m2 5 20 13.067-.117 1.026L2 19V5Z" clip-rule="evenodd"/>
    <path fill="#fff" fill-rule="evenodd" d="M2.952 7.8h.953v.933h-.953V7.8ZM5.81 9.667h.952v.933H5.81v-.933Zm2.857 1.866h.952v.934h-.952v-.934Zm2.857 1.867h.952v.933h-.952V13.4Zm2.857 1.867h.952v.933h-.952v-.933Zm2.857 1.866h.953v.934h-.953v-.934Z" clip-rule="evenodd"/>
  </g>
  <defs>
    <clipPath id="flag-bs__a">
      <rect width="20" height="14" x="2" y="5" fill="#fff" rx="3"/>
    </clipPath>
  </defs>
</svg>
