<svg xmlns="http://www.w3.org/2000/svg" fill="none" viewBox="0 0 24 24"><g clip-path="url(#flag-circle-cn_svg__a)"><rect width="20" height="20" x="2" y="2" fill="#F93939" rx="10"/><path fill="#F93939" d="M27.333 2H4.667A2.667 2.667 0 0 0 2 4.667v14.666A2.667 2.667 0 0 0 4.667 22h22.666A2.667 2.667 0 0 0 30 19.333V4.667A2.667 2.667 0 0 0 27.333 2Z"/><path fill="#FFDA2C" fill-rule="evenodd" d="m9.33 11.64-1.96 1.03.374-2.182L6.16 8.941l2.19-.316.98-1.986.98 1.986 2.19.316-1.586 1.547.376 2.181-1.96-1.029ZM14 6h1.334v1.333H14V6Zm1.334 2.667h1.333V10h-1.334V8.667Zm0 2.666h1.333v1.334h-1.334v-1.334ZM14 14h1.334v1.333H14V14Z" clip-rule="evenodd"/></g><defs><clipPath id="flag-circle-cn_svg__a"><rect width="20" height="20" x="2" y="2" fill="#fff" rx="10"/></clipPath></defs></svg>