<svg xmlns="http://www.w3.org/2000/svg" fill="none" viewBox="0 0 24 24"><path fill="#F93939" d="M8 5h11a3 3 0 0 1 3 3v8a3 3 0 0 1-3 3H8z"/><path fill="#249F58" fill-rule="evenodd" d="M2 8a3 3 0 0 1 3-3h3.667v14H5a3 3 0 0 1-3-3z" clip-rule="evenodd"/><path fill="#FFDA2C" d="M8.667 14.333c1.578 0 2.857-1.253 2.857-2.8s-1.28-2.8-2.857-2.8-2.857 1.254-2.857 2.8c0 1.547 1.279 2.8 2.857 2.8"/><path fill="#F93939" fill-rule="evenodd" d="M10.572 12.467v-2.8h-3.81v2.8c0 .515.852.933 1.905.933s1.905-.418 1.905-.933" clip-rule="evenodd"/><path fill="#fff" fill-rule="evenodd" d="M7.714 10.6H9.62v1.867H7.714z" clip-rule="evenodd"/><path fill="#1A47B8" fill-rule="evenodd" d="M7.714 10.6h.953v.933h-.953zm.953.933h.952v.934h-.952z" clip-rule="evenodd"/></svg>