<svg xmlns="http://www.w3.org/2000/svg" fill="none" viewBox="0 0 24 24"><g clip-path="url(#flag-circle-es_svg__a)"><rect width="20" height="20" x="2" y="2" fill="#F93939" rx="10"/><path fill="#F93939" d="M27.333 2H4.667A2.667 2.667 0 0 0 2 4.667v14.666A2.667 2.667 0 0 0 4.667 22h22.666A2.667 2.667 0 0 0 30 19.333V4.667A2.667 2.667 0 0 0 27.333 2Z"/><path fill="#FFDA2C" fill-rule="evenodd" d="M2 7.333h28v9.334H2V7.333Z" clip-rule="evenodd"/><path fill="#D4AF2C" fill-rule="evenodd" d="M14 10.296v3.36c0 .933-.896 1.68-2 1.68H9.333c-1.101-.003-2-.753-2-1.683v-3.36c0-.762.598-1.4 1.419-1.606.248-.694 1.01-.072 1.915-.072.909 0 1.666-.618 1.914.073C13.4 8.9 14 9.538 14 10.296Z" clip-rule="evenodd"/><path fill="#CBCBCB" fill-rule="evenodd" d="M14 11.333h1.333v4H14v-4Zm-8 0h1.333v4H6v-4Z" clip-rule="evenodd"/><path fill="#1A47B8" fill-rule="evenodd" d="M14 14h1.333v1.333H14V14Zm-8 0h1.333v1.333H6V14Z" clip-rule="evenodd"/><path fill="#D4AF2C" fill-rule="evenodd" d="M14 10h1.333v1.333H14V10Zm-8 0h1.333v1.333H6V10Z" clip-rule="evenodd"/><path fill="#AF010D" fill-rule="evenodd" d="M8.667 10H10v2H8.667v-2Zm2.666 2.667h1.334v2h-1.334v-2Z" clip-rule="evenodd"/><path fill="#AE6A3E" fill-rule="evenodd" d="M11.333 10h1.334v2h-1.334v-2Z" clip-rule="evenodd"/><path fill="#FFDA2C" fill-rule="evenodd" d="M8.667 12.667H10v2H8.667v-2Z" clip-rule="evenodd"/><path fill="#AF010D" fill-rule="evenodd" d="M10 10 8.667 8.667h4L11.333 10H10Z" clip-rule="evenodd"/><path fill="#D4AF2C" fill-rule="evenodd" d="M10 7.333h1.333v1.334H10V7.333Z" clip-rule="evenodd"/></g><defs><clipPath id="flag-circle-es_svg__a"><rect width="20" height="20" x="2" y="2" fill="#fff" rx="10"/></clipPath></defs></svg>