<svg xmlns="http://www.w3.org/2000/svg" viewBox="0 0 24 24"><path fill-rule="evenodd" d="M4 3.25A2.75 2.75 0 0 0 1.25 6v12A2.75 2.75 0 0 0 4 20.75h16A2.75 2.75 0 0 0 22.75 18V6A2.75 2.75 0 0 0 20 3.25zM2.75 6c0-.69.56-1.25 1.25-1.25h16c.69 0 1.25.56 1.25 1.25v12c0 .69-.56 1.25-1.25 1.25H4c-.69 0-1.25-.56-1.25-1.25zm3 .5a1.25 1.25 0 1 0 0 2.5 1.25 1.25 0 0 0 0-2.5M8 7.75a1.25 1.25 0 1 1 2.5 0 1.25 1.25 0 0 1-2.5 0m4.75-1.25a1.25 1.25 0 1 0 0 2.5 1.25 1.25 0 0 0 0-2.5m.41 9.654a.5.5 0 0 1-.839-.232l-.998-3.992a.5.5 0 0 1 .607-.607l3.991.998a.5.5 0 0 1 .233.839l-.967.966 2.343 2.344-1.06 1.06-2.343-2.343z" clip-rule="evenodd"/></svg>