<svg xmlns="http://www.w3.org/2000/svg" fill="none" viewBox="0 0 24 24">
  <path fill="#161614" d="M12 2C6.478 2 2 6.477 2 12c0 4.418 2.865 8.167 6.839 9.49.5.092.683-.218.683-.482 0-.238-.01-1.026-.014-1.862-2.782.605-3.369-1.18-3.369-1.18-.455-1.155-1.11-1.463-1.11-1.463-.907-.62.068-.608.068-.608 1.005.07 1.533 1.03 1.533 1.03.892 1.53 2.34 1.088 2.91.832.09-.646.35-1.087.635-1.337-2.221-.253-4.556-1.11-4.556-4.942a3.87 3.87 0 0 1 1.03-2.684c-.103-.252-.446-1.27.097-2.647 0 0 .84-.269 2.751 1.025A9.585 9.585 0 0 1 12 6.836a9.61 9.61 0 0 1 2.505.336c1.909-1.294 2.748-1.025 2.748-1.025.544 1.378.201 2.395.098 2.647.64.7 1.029 1.592 1.029 2.684 0 3.84-2.34 4.686-4.566 4.934.358.31.678.919.678 1.852 0 1.338-.012 2.415-.012 2.744 0 .266.18.578.687.48A10.001 10.001 0 0 0 22 12c0-5.523-4.477-10-10-10ZM5.745 16.245c-.022.05-.1.065-.171.03-.073-.032-.113-.1-.09-.15.022-.05.1-.065.172-.03.073.032.115.1.09.15Zm.492.44c-.047.044-.14.023-.204-.047-.065-.07-.078-.163-.03-.208.05-.044.14-.023.206.046.065.071.078.164.028.208Zm.338.56c-.062.043-.162.003-.224-.085-.061-.09-.061-.196.002-.239.062-.043.16-.004.223.084.061.09.061.197-.001.24Zm.57.651c-.054.06-.171.044-.257-.038-.087-.08-.111-.195-.056-.256.055-.06.173-.043.259.039.086.08.113.195.054.255Zm.738.22c-.024.078-.137.114-.25.08-.113-.034-.187-.126-.164-.205.023-.079.136-.116.25-.08.113.034.188.125.164.205Zm.84.093c.002.082-.094.15-.213.152-.12.003-.216-.064-.217-.145 0-.083.094-.151.213-.153.119-.002.216.064.216.146Zm.824-.032c.014.08-.068.163-.186.185-.117.022-.224-.028-.239-.108-.014-.082.07-.165.186-.186.118-.02.224.027.239.11Z"/>
</svg>
