<svg xmlns="http://www.w3.org/2000/svg" viewBox="0 0 24 24"><path fill-rule="evenodd" d="M12 2.25c-5.385 0-9.75 4.365-9.75 9.75s4.365 9.75 9.75 9.75 9.75-4.365 9.75-9.75S17.385 2.25 12 2.25M9.376 4.176A8.28 8.28 0 0 0 4.65 8.25h3.196c.197-1.016.472-1.942.813-2.737.21-.489.448-.94.717-1.337M7.62 9.75H4.06A8.3 8.3 0 0 0 3.75 12c0 .78.108 1.535.31 2.25h3.56A21 21 0 0 1 7.5 12c0-.773.041-1.527.12-2.25m1.51 4.5A19 19 0 0 1 9 12c0-.783.046-1.538.13-2.25h5.74c.084.712.13 1.467.13 2.25s-.046 1.538-.13 2.25zm-1.284 1.5H4.65a8.28 8.28 0 0 0 4.726 4.074 8 8 0 0 1-.717-1.337 13.6 13.6 0 0 1-.813-2.737m6.778 4.074a8.28 8.28 0 0 0 4.726-4.074h-3.196a13.6 13.6 0 0 1-.813 2.737c-.21.489-.448.94-.717 1.337m0-4.074c-.173.806-.398 1.53-.662 2.146-.315.737-.672 1.285-1.03 1.639-.354.35-.668.471-.932.471s-.578-.122-.933-.471c-.357-.354-.714-.902-1.03-1.639a11.7 11.7 0 0 1-.66-2.146zm1.756-1.5h3.56a8.3 8.3 0 0 0 .31-2.25 8.3 8.3 0 0 0-.31-2.25h-3.56c.079.723.12 1.477.12 2.25s-.041 1.527-.12 2.25m-.226-6h3.196a8.28 8.28 0 0 0-4.726-4.074c.269.397.508.848.717 1.337.34.795.616 1.721.813 2.737m-1.53 0H9.375c.173-.806.398-1.53.662-2.146.315-.737.672-1.285 1.03-1.639.354-.35.668-.471.932-.471s.578.121.933.471c.357.354.714.902 1.03 1.639.263.616.488 1.34.66 2.146Z" clip-rule="evenodd"/></svg>