<svg xmlns="http://www.w3.org/2000/svg" fill="none" viewBox="0 0 24 24"><mask id="google-drive_svg__a" width="22" height="19" x="2" y="2" maskUnits="userSpaceOnUse" style="mask-type:alpha"><path fill="#C4C4C4" fill-rule="evenodd" d="M10.386 2c-.85 0-1.636.455-2.06 1.192L2.335 13.624a2.51 2.51 0 0 0 .003 2.51l2.024 3.498A2.74 2.74 0 0 0 6.733 21h11.772a2.74 2.74 0 0 0 2.356-1.34l2.062-3.473c.463-.78.47-1.748.02-2.534l-6.008-10.46A2.38 2.38 0 0 0 14.876 2h-4.489ZM8.692 14.88l3.928-6.828 3.928 6.828z" clip-rule="evenodd"/></mask><g mask="url(#google-drive_svg__a)"><path fill="#34A853" d="M17.987-1.286 2.8 25.018l-5.275-3.045L12.712-4.331z"/><path fill="#4285F4" d="M-3.207 14.925h30.373v6.091H-3.207z"/><path fill="#1967D2" d="m-1.923 21.017 3.516-6.091h7.034l-3.517 6.09h-7.033Z"/><path fill="#FBBC04" d="m10.075 3.604 10 17.32 5.197-3-10-17.32z"/><path fill="#EA4335" d="M23.645 14.925h-7.033l3.517 6.092h7.033z"/><path fill="#188038" d="m9.103 1.92 3.516-6.092 3.517 6.091-3.517 6.091z"/></g></svg>