<svg viewBox="0 0 24 24" xmlns="http://www.w3.org/2000/svg"><path fill-rule="evenodd" clip-rule="evenodd" d="M11.784 11.778a4.75 4.75 0 1 0-5.568 0A6.751 6.751 0 0 0 2.25 17.93v1c0 .415.336.75.75.75h12a.75.75 0 0 0 .75-.75v-1a6.751 6.751 0 0 0-3.966-6.15ZM9 4.68a3.25 3.25 0 1 0 0 6.5 3.25 3.25 0 0 0 0-6.5Zm0 8a5.25 5.25 0 0 0-5.25 5.25v.25h10.5v-.25c0-2.9-2.35-5.25-5.25-5.25Z"/><path d="M14.918 5.74a2.75 2.75 0 1 1 .582 5.438v1.501c.17 0 .336-.01.5-.029v.03a4.25 4.25 0 0 1 4.25 4.25v.25H17.5v1.5H21a.75.75 0 0 0 .75-.75v-1c0-2.368-1.43-4.4-3.474-5.283a4.25 4.25 0 0 0-3.674-7.373l.316 1.467Z"/></svg>
