<svg xmlns="http://www.w3.org/2000/svg" viewBox="0 0 24 24"><path fill-rule="evenodd" d="M16 4.25c-2.09 0-3.75 1.737-3.75 3.836 0 1.041.407 2.064 1.056 2.83.651.769 1.597 1.334 2.694 1.334s2.043-.565 2.694-1.333c.65-.767 1.056-1.79 1.056-2.831 0-2.099-1.66-3.836-3.75-3.836m-2.25 3.836c0-1.31 1.027-2.336 2.25-2.336s2.25 1.026 2.25 2.336c0 .662-.265 1.347-.7 1.861-.436.513-.99.803-1.55.803s-1.114-.29-1.55-.803a2.95 2.95 0 0 1-.7-1.861M7.5 6.25c-1.825 0-3.25 1.536-3.25 3.361 0 .907.348 1.797.906 2.466.559.669 1.38 1.173 2.344 1.173s1.785-.504 2.344-1.173a3.9 3.9 0 0 0 .906-2.466c0-1.825-1.425-3.361-3.25-3.361M5.75 9.611c0-1.059.814-1.861 1.75-1.861s1.75.802 1.75 1.861a2.4 2.4 0 0 1-.558 1.505c-.346.415-.775.634-1.192.634s-.846-.22-1.192-.634A2.4 2.4 0 0 1 5.75 9.61Z" clip-rule="evenodd"/><path d="M10.309 16.091c.937-1.441 2.663-2.841 5.691-2.841s4.754 1.4 5.691 2.841c.458.704.72 1.403.867 1.923.17.603.437 1.64-.483 1.732-.767.077-.809-.787-.96-1.323a5.6 5.6 0 0 0-.681-1.514C19.746 15.85 18.472 14.75 16 14.75s-3.746 1.1-4.434 2.159a5.6 5.6 0 0 0-.68 1.514c-.153.538-.191 1.4-.96 1.323-.92-.092-.654-1.13-.484-1.732.148-.52.41-1.219.867-1.923M7.5 14.25c.866 0 1.618.11 2.27.297-.277.448-.51.91-.709 1.366A7 7 0 0 0 7.5 15.75c-2.287 0-3.438.89-4.04 1.698a4 4 0 0 0-.596 1.159c-.128.516-.242 1.22-.95 1.138-.833-.095-.66-1.04-.477-1.602.14-.433.389-1.01.82-1.591.889-1.192 2.488-2.302 5.243-2.302"/></svg>