<svg xmlns="http://www.w3.org/2000/svg" viewBox="0 0 24 24"><path fill="#1B6C75" fill-rule="evenodd" d="M14.025 11.999a2.024 2.024 0 1 0-4.048 0 2.024 2.024 0 0 0 4.048 0m0-6.974a2.024 2.024 0 1 0-4.049 0 2.024 2.024 0 0 0 4.049 0m0 13.95a2.025 2.025 0 1 0-4.05 0 2.025 2.025 0 0 0 4.05 0M7.05 12a2.024 2.024 0 1 0-4.049 0 2.024 2.024 0 0 0 4.049 0M21 18.975a2.025 2.025 0 1 0-4.05 0 2.025 2.025 0 0 0 4.05 0m0-13.948a2.024 2.024 0 1 0-4.048-.002A2.024 2.024 0 0 0 21 5.027" clip-rule="evenodd"/></svg>