<svg xmlns="http://www.w3.org/2000/svg" viewBox="0 0 24 24"><path fill="#1B6C75" fill-rule="evenodd" d="M12.001 14.024a2.024 2.024 0 1 0 0-4.048 2.024 2.024 0 0 0 0 4.048m6.974 0a2.025 2.025 0 1 0 0-4.049 2.025 2.025 0 0 0 0 4.05ZM12.001 21a2.025 2.025 0 1 0 0-4.05 2.025 2.025 0 0 0 0 4.05m-6.976-6.976a2.024 2.024 0 1 0 0-4.049 2.024 2.024 0 0 0 0 4.05ZM12 7.05a2.024 2.024 0 1 0 0-4.049 2.024 2.024 0 0 0 0 4.049M5.026 21a2.025 2.025 0 1 0 0-4.05 2.025 2.025 0 0 0 0 4.05m13.948 0a2.025 2.025 0 1 0 0-4.05 2.025 2.025 0 0 0 0 4.05" clip-rule="evenodd"/></svg>