<svg xmlns="http://www.w3.org/2000/svg" fill="none" viewBox="0 0 24 24">
  <g clip-path="url(#haiilo-dark__a)">
    <path fill="#000" d="M2.047 12.89c.1.997.863 1.87 1.92 2.053 1.606.283 3.065-1.082 2.724-2.723-.174-.84-.757-1.293-1.104-2.14-.676-1.686-.676-3.504.3-5.27.228-.406.502-.774.83-1.122l.014-.013.026-.026-.026.013C3.05 5.926 1.732 9.785 2.047 12.89Zm14.239-9.746c-.917-.42-2.081-.236-2.784.564a2.29 2.29 0 0 0 .99 3.695c.83.282 1.52.026 2.45.17 1.833.283 3.412 1.221 4.47 2.94.24.394.427.828.561 1.267v.013l.014.04v-.027c-.1-4.259-2.81-7.35-5.701-8.662ZM5.078 19.058c.763.761 2.697 2.304 5.788 2.645 2.522.282 5.748-.453 8.043-2.658 1.278-1.22 2.482-2.98 2.623-4.555.06-.656-.04-2.323-1.82-3.471-1.78-1.149-3.814-.354-4.644.479-.79.814-1.171 1.588-1.258 2.822-.214 2.828-2.683 4.896-5.045 5.257-1.653.255-2.837-.125-3.687-.519Z" opacity=".2"/>
    <path fill="#000" d="M14.633 4.338a3.706 3.706 0 0 0-2.784-2.04c-1.177-.198-2.422.163-3.5.577a10.016 10.016 0 0 0-5.125 4.462c-1.07 1.923-1.257 3.846-1.184 5.027a6.604 6.604 0 0 1 1.191-1.588c.442-.42.93-.774 1.466-1.043 1.077-.552 2.194-.729 3.412-.637.944.06 1.76.48 2.563.617.803.125 1.559-.026 2.281-.38a3.738 3.738 0 0 0 1.673-4.988l.007-.007Zm2.422-.801-.027-.013.027.027.014.013c.328.334.615.702.856 1.096 1.017 1.745 1.077 3.557.442 5.27-.328.86-.89 1.332-1.044 2.178-.288 1.647 1.204 2.967 2.797 2.645 1.057-.21 1.78-1.122 1.86-2.107.24-3.117-1.178-6.956-4.918-9.109h-.007Zm.188 14.871c-2.37.296-5.32-1.01-6.337-3.681-.442-1.155-1.017-1.812-2.007-2.363-1.03-.59-3.212-.8-4.597.8-1.379 1.589-1.004 3.217-.763 3.827.575 1.477 2.248 2.841 3.814 3.668 2.837 1.49 6.15 1.333 8.484.368 2.864-1.181 4.283-3.176 4.805-4.121-.703.616-1.733 1.292-3.4 1.502Z"/>
  </g>
  <defs>
    <clipPath id="haiilo-dark__a">
      <path fill="#fff" d="M2 2.238h20v19.524H2z"/>
    </clipPath>
  </defs>
</svg>
