<svg xmlns="http://www.w3.org/2000/svg" viewBox="0 0 24 24"><path fill-rule="evenodd" d="m12.502 14.405-.385 2.345h1.477l.385-2.345h1.291l.245-1.477h-1.293l.296-1.81h1.292l.25-1.477h-1.3l.386-2.346h-1.478l-.384 2.346h-1.847l.385-2.346h-1.478L9.96 9.641H8.673l-.249 1.477h1.293l-.297 1.81H8.13l-.245 1.477h1.294l-.385 2.345h1.478l.384-2.345zm.242-1.477.297-1.81h-1.846l-.297 1.81z" clip-rule="evenodd"/><path fill-rule="evenodd" d="M5 2.25A2.75 2.75 0 0 0 2.25 5v14A2.75 2.75 0 0 0 5 21.75h14A2.75 2.75 0 0 0 21.75 19V5A2.75 2.75 0 0 0 19 2.25zM3.75 5c0-.69.56-1.25 1.25-1.25h14c.69 0 1.25.56 1.25 1.25v14c0 .69-.56 1.25-1.25 1.25H5c-.69 0-1.25-.56-1.25-1.25z" clip-rule="evenodd"/></svg>