<svg xmlns="http://www.w3.org/2000/svg" fill="none" viewBox="0 0 24 25">
  <path fill="#EE164F" d="M21.854 8.416c-.097-1.347-.113-2.742-.954-3.718-.671-.779-1.404-1.2-2.276-1.454-1.645-.478-3.1-.436-4.776-.483-3.668-.104-7.189-.325-9.457.66-2.31.757-2.464 6.279-2.33 8.61.095 1.652.07 4.08.797 5.623.975 2.077 3.143 2.07 5.193 2.32.977.12 3.935.153 4.96.157.408.651 1.541 1.13 2.035 1.428.494.298 2.123.714 2.242.343.12-.372-.64-1.112-.363-2.156 1.372-.278 1.77-.145 2.71-.443 1.421-.45 1.946-2.128 2.195-3.922.23-1.656.143-5.299.024-6.965Z"/>
  <path fill="#fff" d="M11.527 12.995c.079.559.138 3.02.222 3.804.013.168.06.262.23.258.134.013.377.019.723.019.41.002.821-.01 1.162-.012.586.005.304-1.097.31-1.703-.056-1.168-.092-4.049-.156-5.366-.009-.276-.047-2.418-.069-2.904-.01-.207.03-.674-.039-.82-.082-.134-.448-.175-.658-.16-.541 0-.99.005-1.422.075-.385.063-.531.21-.539.543-.002.1.005.753.014 1.444.007.64.018 1.319.02 1.68-.015.362-.632.175-.98.22-.57-.012-2.014.036-2.3.05-.175-.004-.192-.154-.228-.325a59.474 59.474 0 0 1-.213-2.824c-.013-.452-.036-.827-.181-.85-.375-.07-2.108-.048-2.208.142-.087.258-.06.866-.054 1.305.018 2.238.217 4.952.248 7.11.023.657.039 2.009.04 2.08.001.224.026.284.25.309.698.039 1.555-.015 2.256.005.36.022.186-.648.227-.915.007-.597-.018-1.56-.062-2.075-.028-1.175-.345-1.162.851-1.222a61.95 61.95 0 0 1 1.767-.063c.37.028.658-.152.788.195Z"/>
  <path fill="#fff" fill-rule="evenodd" d="M18.601 7.028c-.075-.676-.578-1.13-1.251-1.13-.188 0-.38.034-.572.103a1.14 1.14 0 0 0-.285.15l-.004.002a1.364 1.364 0 0 0-.56 1.252 1.201 1.201 0 0 0 .748.997c.199.084.444.133.673.133.204 0 .498-.038.728-.219.43-.339.586-.724.523-1.288Z" clip-rule="evenodd"/>
  <path fill="#fff" d="M18.55 11.83c0-.518-.014-.886-.002-1.425.044-.591-.608-.465-1.061-.483-.35 0-.695.007-1.029.007-.208.008-.304.018-.293.198-.112 2.247-.015 3.683-.054 5.807-.033 1.442.01 1.02 1.27 1.1.28.005.823.06 1.04-.05.11-.074.083-.194.11-.355-.013-2.083.002-2.25.018-4.8v.002Z"/>
</svg>
