<svg xmlns="http://www.w3.org/2000/svg" viewBox="0 0 24 24"><path d="m19.941 13.92-.736.143zm.04.227.744-.1zm.016.153.748-.043zm-15.994 0 .75.043zm.056-.38-.736-.144zm-.04.227-.744-.1.743.1Zm1.073 5.635.34-.668zm-.874-.874.668-.34zm14.69.874-.34-.668zm.874-.874-.668-.34zm-2.615-14.74.301-.686-.301.687Zm1.348 2.42.736-.142-.736.143Zm-.508-1.727.617-.427zM6.833 4.17l.302.686zM5.485 6.59l.736.143zm.508-1.728-.617-.427zm2.633-.111h6.748v-1.5H8.626zm8.174 14.5H7.2v1.5h9.6zM4.75 16.8v-2.27h-1.5v2.27zm.045-2.737 1.426-7.33-1.472-.287-1.426 7.33zm12.984-7.33 1.426 7.33 1.472-.287-1.426-7.33-1.472.286Zm1.471 7.798V16.8h1.5v-2.27zm-.045-.468c.024.121.03.153.034.184l1.486-.2a4 4 0 0 0-.048-.27zm1.545.468c0-.108 0-.19-.005-.274l-1.497.086c.002.031.002.064.002.188zm-1.511-.284.009.096 1.497-.086a3 3 0 0 0-.02-.21zm-14.489.284c0-.124 0-.157.002-.188l-1.497-.086c-.005.084-.005.166-.005.274zm-1.427-.755c-.02.106-.037.187-.048.27l1.486.201c.004-.03.01-.063.034-.184zm1.43.567q.001-.048.008-.096l-1.486-.2q-.014.104-.02.21zM7.2 19.25c-.572 0-.957 0-1.253-.025-.287-.023-.424-.065-.514-.111l-.681 1.336c.337.172.693.24 1.073.27.371.03.827.03 1.375.03zM3.25 16.8c0 .548 0 1.003.03 1.375.03.38.098.736.27 1.073l1.336-.68c-.046-.091-.088-.228-.111-.516-.024-.295-.025-.68-.025-1.252zm2.183 2.314a1.25 1.25 0 0 1-.547-.547l-1.336.681a2.75 2.75 0 0 0 1.202 1.202l.68-1.336ZM16.8 20.75c.548 0 1.003 0 1.375-.03.38-.03.736-.098 1.073-.27l-.68-1.336c-.091.046-.228.088-.516.111-.295.024-.68.025-1.252.025zm2.45-3.95c0 .572 0 .957-.025 1.252-.023.288-.065.425-.111.515l1.336.681c.172-.337.24-.693.27-1.073.03-.372.03-.827.03-1.375zm-.002 3.65a2.75 2.75 0 0 0 1.202-1.201l-1.336-.681a1.25 1.25 0 0 1-.547.546zm-3.874-15.7c.48 0 .8 0 1.049.019.239.018.358.05.442.086l.603-1.373a2.8 2.8 0 0 0-.934-.209c-.317-.023-.702-.023-1.16-.023zm3.877 1.696c-.087-.45-.16-.828-.244-1.135a2.8 2.8 0 0 0-.383-.877l-1.233.854c.052.076.106.187.169.418.066.24.127.554.219 1.026zm-2.386-1.59c.212.092.394.242.526.432l1.233-.854a2.75 2.75 0 0 0-1.156-.952zM8.626 3.25c-.458 0-.843 0-1.16.023a2.8 2.8 0 0 0-.934.209l.603 1.373c.084-.036.203-.068.442-.086.249-.019.569-.019 1.05-.019zM6.221 6.732c.092-.472.154-.785.22-1.026.062-.23.116-.342.168-.418l-1.233-.854c-.186.27-.297.561-.383.877-.084.307-.157.685-.244 1.135zm.31-3.25a2.75 2.75 0 0 0-1.155.952l1.233.854c.132-.19.314-.34.526-.433l-.603-1.373ZM4 14.75h4.625v-1.5H4zm11.375 0H20v-1.5h-4.625zm-3.75 3h.75v-1.5h-.75zm.75 0a3.375 3.375 0 0 0 3.375-3.375h-1.5c0 1.036-.84 1.875-1.875 1.875zM8.25 14.375a3.375 3.375 0 0 0 3.375 3.375v-1.5a1.875 1.875 0 0 1-1.875-1.875zm7.125-1.125c-.621 0-1.125.504-1.125 1.125h1.5a.375.375 0 0 1-.375.375zm-6.75 1.5a.375.375 0 0 1-.375-.375h1.5c0-.621-.504-1.125-1.125-1.125z"/></svg>