<svg xmlns="http://www.w3.org/2000/svg" viewBox="0 0 24 24"><path fill-rule="evenodd" d="M15.143 7.25a1.61 1.61 0 0 1 1.488 1h.869c.912 0 1.878.797 1.582 1.927a7 7 0 0 1-1.077 2.288c-.242.33-.524.637-.842.869-.316.23-.712.416-1.163.416h-1.086a4.7 4.7 0 0 1-2.164.94v1.56H14a.75.75 0 0 1 0 1.5h-4a.75.75 0 0 1 0-1.5h1.25v-1.56a4.7 4.7 0 0 1-2.164-.94H8c-.45 0-.848-.187-1.163-.416a4 4 0 0 1-.842-.87 7 7 0 0 1-1.077-2.287c-.296-1.13.67-1.927 1.582-1.927h.87c.24-.586.815-1 1.487-1zm-6.286 1.5a.11.11 0 0 0-.107.107V10a3.25 3.25 0 0 0 6.5 0V8.857a.11.11 0 0 0-.107-.107zm-2.357 1c-.073 0-.117.03-.13.046a5.6 5.6 0 0 0 .835 1.783c.181.247.359.429.515.542l.045.03A4.7 4.7 0 0 1 7.25 10v-.25zm10.25.25c0 .774-.186 1.504-.515 2.15l.045-.029c.156-.113.334-.295.515-.542a5.6 5.6 0 0 0 .836-1.783.18.18 0 0 0-.131-.046h-.75z" clip-rule="evenodd"/><path fill-rule="evenodd" d="M10.038 1.929a2.75 2.75 0 0 1 3.924 0l.528.537a1.25 1.25 0 0 0 1.099.357l.743-.125a2.75 2.75 0 0 1 3.176 2.307l.11.746c.06.403.315.752.68.934l.675.336a2.75 2.75 0 0 1 1.213 3.733l-.35.668a1.25 1.25 0 0 0 0 1.156l.35.668a2.75 2.75 0 0 1-1.213 3.732l-.675.336c-.365.182-.62.531-.68.935l-.11.746a2.75 2.75 0 0 1-3.176 2.307l-.743-.125a1.25 1.25 0 0 0-1.099.357l-.528.537a2.75 2.75 0 0 1-3.924 0l-.528-.537a1.25 1.25 0 0 0-1.099-.357l-.743.125a2.75 2.75 0 0 1-3.176-2.307l-.11-.746a1.25 1.25 0 0 0-.68-.935l-.675-.336a2.75 2.75 0 0 1-1.213-3.732l.349-.668a1.25 1.25 0 0 0 0-1.156l-.349-.668A2.75 2.75 0 0 1 3.027 7.02l.675-.336c.365-.182.62-.53.68-.934l.11-.746a2.75 2.75 0 0 1 3.176-2.307l.743.125a1.25 1.25 0 0 0 1.099-.357l.528-.537Zm2.854 1.05a1.25 1.25 0 0 0-1.784 0l-.528.537a2.75 2.75 0 0 1-2.418.787l-.743-.125a1.25 1.25 0 0 0-1.443 1.048l-.11.746A2.75 2.75 0 0 1 4.37 8.028l-.675.336a1.25 1.25 0 0 0-.55 1.696l.347.668a2.75 2.75 0 0 1 0 2.543l-.348.668a1.25 1.25 0 0 0 .551 1.697l.675.336a2.75 2.75 0 0 1 1.494 2.056l.11.745a1.25 1.25 0 0 0 1.444 1.05l.743-.126a2.75 2.75 0 0 1 2.418.786l.528.537a1.25 1.25 0 0 0 1.784 0l.528-.537a2.75 2.75 0 0 1 2.418-.786l.743.125a1.25 1.25 0 0 0 1.443-1.049l.11-.745a2.75 2.75 0 0 1 1.495-2.056l.675-.336a1.25 1.25 0 0 0 .55-1.697l-.347-.668a2.75 2.75 0 0 1 0-2.543l.347-.668a1.25 1.25 0 0 0-.55-1.696l-.675-.336a2.75 2.75 0 0 1-1.494-2.056l-.11-.746a1.25 1.25 0 0 0-1.444-1.048l-.743.125a2.75 2.75 0 0 1-2.418-.787z" clip-rule="evenodd"/></svg>