<svg xmlns="http://www.w3.org/2000/svg" viewBox="0 0 24 24">
  <path d="M9.538 16H7.121V8.754h2.417V16ZM8.33 7.678C7.596 7.678 7 7.08 7 6.34 7 5.6 7.595 5 8.33 5c.735 0 1.33.6 1.33 1.34 0 .74-.597 1.338-1.33 1.338ZM18 16h-2.415v-3.455c0-2.271-2.42-2.08-2.42 0V16h-2.418V8.754h2.418v1.32C14.219 8.123 18 7.978 18 11.944V16Z"/>
  <path d="M20.25 7A3.25 3.25 0 0 0 17 3.75H7A3.25 3.25 0 0 0 3.75 7v10A3.25 3.25 0 0 0 7 20.25h10A3.25 3.25 0 0 0 20.25 17V7Zm1.5 10A4.75 4.75 0 0 1 17 21.75H7A4.75 4.75 0 0 1 2.25 17V7A4.75 4.75 0 0 1 7 2.25h10A4.75 4.75 0 0 1 21.75 7v10Z"/>
</svg>
