<svg xmlns="http://www.w3.org/2000/svg" viewBox="0 0 24 24"><path d="M6.563 11v-.896h-.96V5.168H4.58L2.763 6.692l.392.52a.3.3 0 0 0 .088.08q.06.036.136.052a.5.5 0 0 0 .16 0 .4.4 0 0 0 .176-.084l.664-.552a7 7 0 0 0-.016.456v2.94h-1.12V11zm.017 6.992a.44.44 0 0 0-.317-.112H5.175a2.5 2.5 0 0 0-.4.036 3 3 0 0 0-.436.104l1.14-1.168q.232-.236.436-.464a4 4 0 0 0 .364-.476 2.3 2.3 0 0 0 .244-.52q.092-.272.092-.592 0-.372-.132-.68a1.5 1.5 0 0 0-.372-.536 1.7 1.7 0 0 0-.592-.348 2.2 2.2 0 0 0-.776-.128 2.5 2.5 0 0 0-.748.108q-.348.104-.62.32a1.9 1.9 0 0 0-.452.54q-.18.325-.244.76l.656.116q.253.04.388-.032.136-.072.22-.292a.74.74 0 0 1 .728-.508q.34 0 .504.188.168.184.168.532a1.54 1.54 0 0 1-.208.784 2.6 2.6 0 0 1-.264.384q-.16.196-.376.412l-1.68 1.692a.6.6 0 0 0-.168.24.7.7 0 0 0-.048.248v.4h4.096v-.72a.38.38 0 0 0-.116-.288ZM9.25 6a.75.75 0 0 1 .75-.75h10a.75.75 0 0 1 0 1.5H10A.75.75 0 0 1 9.25 6m.75 5.25a.75.75 0 0 0 0 1.5h10a.75.75 0 0 0 0-1.5zm0 6a.75.75 0 0 0 0 1.5h10a.75.75 0 0 0 0-1.5z"/></svg>