<svg viewBox="0 0 24 24" xmlns="http://www.w3.org/2000/svg"><path d="M6.563 11v-.896h-.96V5.168H4.58L2.763 6.692l.392.52a.328.328 0 0 0 .088.08c.04.024.086.041.136.052a.536.536 0 0 0 .16 0 .41.41 0 0 0 .176-.084l.664-.552a6.722 6.722 0 0 0-.016.456v2.94h-1.12V11h3.32Zm.017 6.992a.436.436 0 0 0-.317-.112H5.175a2.45 2.45 0 0 0-.4.036 3.397 3.397 0 0 0-.436.104l1.14-1.168c.155-.157.3-.312.436-.464a3.7 3.7 0 0 0 .364-.476 2.28 2.28 0 0 0 .244-.52c.062-.181.092-.379.092-.592 0-.248-.044-.475-.132-.68a1.481 1.481 0 0 0-.372-.536 1.714 1.714 0 0 0-.592-.348 2.214 2.214 0 0 0-.776-.128 2.51 2.51 0 0 0-.748.108c-.232.07-.438.176-.62.32a1.87 1.87 0 0 0-.452.54c-.12.216-.201.47-.244.76l.656.116c.168.027.298.016.388-.032.091-.048.164-.145.22-.292a.74.74 0 0 1 .728-.508c.227 0 .395.063.504.188.112.123.168.3.168.532a1.54 1.54 0 0 1-.208.784 2.594 2.594 0 0 1-.264.384c-.106.13-.232.268-.376.412l-1.68 1.692a.598.598 0 0 0-.168.24.728.728 0 0 0-.048.248v.4h4.096v-.72a.375.375 0 0 0-.116-.288ZM9.25 6a.75.75 0 0 1 .75-.75h10a.75.75 0 0 1 0 1.5H10A.75.75 0 0 1 9.25 6Zm.75 5.25a.75.75 0 0 0 0 1.5h10a.75.75 0 0 0 0-1.5H10Zm0 6a.75.75 0 0 0 0 1.5h10a.75.75 0 0 0 0-1.5H10Z"/></svg>