<svg xmlns="http://www.w3.org/2000/svg" viewBox="0 0 24 24"><path fill-rule="evenodd" d="M12 6.25a3.75 3.75 0 1 0 0 7.5 3.75 3.75 0 0 0 0-7.5M9.75 10a2.25 2.25 0 1 1 4.5 0 2.25 2.25 0 0 1-4.5 0" clip-rule="evenodd"/><path fill-rule="evenodd" d="m11.554 21.603.002.002a.75.75 0 0 0 .888 0h-.84.84l.002-.002.005-.004.018-.013.064-.048a23 23 0 0 0 1.054-.867 26 26 0 0 0 2.48-2.48c1.781-2.053 3.683-4.979 3.683-8.191a7.75 7.75 0 0 0-15.5 0c0 3.212 1.902 6.138 3.684 8.191a25.7 25.7 0 0 0 3.3 3.165q.15.119.233.182l.064.048.018.013zM5.75 10a6.25 6.25 0 1 1 12.5 0c0 2.654-1.598 5.228-3.316 7.208A24 24 0 0 1 12 20.048a24 24 0 0 1-2.934-2.84C7.348 15.228 5.75 12.654 5.75 10" clip-rule="evenodd"/></svg>