<svg xmlns="http://www.w3.org/2000/svg" viewBox="0 0 24 24"><path d="M9.47 3.53a.75.75 0 0 1 1.06-1.06l3 3a.75.75 0 0 1 0 1.06l-3 3a.75.75 0 1 1-1.06-1.06l1.72-1.72H6A2.25 2.25 0 0 0 3.75 9v6A2.25 2.25 0 0 0 6 17.25h1v1.5H6A3.75 3.75 0 0 1 2.25 15V9A3.75 3.75 0 0 1 6 5.25h5.19zM18 5.25h-1v1.5h1A2.25 2.25 0 0 1 20.25 9v6A2.25 2.25 0 0 1 18 17.25h-5.19l1.72-1.72a.75.75 0 1 0-1.06-1.06l-3 3a.75.75 0 0 0 0 1.06l3 3a.75.75 0 1 0 1.06-1.06l-1.72-1.72H18A3.75 3.75 0 0 0 21.75 15V9A3.75 3.75 0 0 0 18 5.25"/></svg>