<svg xmlns="http://www.w3.org/2000/svg" viewBox="0 0 24 24">
  <path d="M20.25 12a.75.75 0 0 0 1.5 0h-1.5Zm-.753-4.979.625-.415-.625.415ZM10.32 3.158l-.14-.736.14.736ZM5.71 5.565l.524.536-.525-.536Zm1.144 13.818.429-.615-.43.615Zm4.944 1.615-.017.75h.016v-.75ZM16 21.75a.75.75 0 0 0 0-1.5v1.5ZM16.75 8a.75.75 0 0 0-1.5 0h1.5ZM16 12h-.75A3.25 3.25 0 0 1 12 15.25v1.5A4.75 4.75 0 0 0 16.75 12H16Zm-4 4v-.75A3.25 3.25 0 0 1 8.75 12h-1.5A4.75 4.75 0 0 0 12 16.75V16Zm-4-4h.75A3.25 3.25 0 0 1 12 8.75v-1.5A4.75 4.75 0 0 0 7.25 12H8Zm4-4v.75A3.25 3.25 0 0 1 15.25 12h1.5A4.75 4.75 0 0 0 12 7.25V8Zm9 4h.75a9.75 9.75 0 0 0-1.628-5.394l-.625.415-.624.415A8.25 8.25 0 0 1 20.25 12H21Zm-1.503-4.979.625-.415a9.75 9.75 0 0 0-4.34-3.593l-.29.692-.292.691a8.25 8.25 0 0 1 3.673 3.04l.624-.415Zm-4.006-3.316.291-.692a9.75 9.75 0 0 0-5.603-.591l.14.736.14.737a8.25 8.25 0 0 1 4.741.501l.291-.691Zm-5.172-.547-.14-.736a9.75 9.75 0 0 0-4.995 2.606l.524.537.525.536a8.25 8.25 0 0 1 4.226-2.206l-.14-.737ZM5.71 5.565l-.525-.537a9.75 9.75 0 0 0-2.719 4.935l.734.157.733.156a8.25 8.25 0 0 1 2.3-4.175l-.524-.536ZM3.2 10.12l-.734-.157a9.75 9.75 0 0 0 .465 5.615l.698-.275.698-.276a8.25 8.25 0 0 1-.394-4.75L3.2 10.12Zm.429 5.183-.698.275a9.75 9.75 0 0 0 3.494 4.42l.429-.615.429-.615a8.25 8.25 0 0 1-2.956-3.74l-.698.275Zm3.225 4.08-.43.615a9.75 9.75 0 0 0 5.357 1.75l.017-.75.016-.75a8.25 8.25 0 0 1-4.531-1.48l-.43.615Zm4.944 1.615v.75L16 21.75v-1.5l-4.203-.002v.75ZM21 11.714h-.75V13.5h1.5v-1.786H21ZM16 13.5h.75V8h-1.5v5.5H16Zm2.5 2.5v-.75a1.75 1.75 0 0 1-1.75-1.75h-1.5a3.25 3.25 0 0 0 3.25 3.25V16Zm2.5-2.5h-.75a1.75 1.75 0 0 1-1.75 1.75v1.5a3.25 3.25 0 0 0 3.25-3.25H21Z"/>
</svg>
