<svg xmlns="http://www.w3.org/2000/svg" fill="none" viewBox="0 0 24 24"><path fill="#D35230" d="M22 12H4c.006 1.885 1.526 3.587 2.447 4.961 1.432 2.134 3.831 3.477 6.776 3.486C18.065 20.433 21.986 16.812 22 12Z"/><path fill="#FF8F6B" d="M13 3c4.812.014 8.986 4.182 9 9h-9V3Z"/><path fill="#ED6C47" d="M13 3c-4.817.014-8.986 4.183-9 9h9V3Z"/><path fill="#C43E1C" d="M2.833 6h8.334c.46 0 .833.41.833.917v9.166c0 .507-.373.917-.833.917H2.833c-.46 0-.833-.41-.833-.917V6.917C2 6.41 2.373 6 2.833 6Z"/><path fill="#F9F7F7" d="M6.591 8.007a2.563 2.563 0 0 1 1.786.563c.427.411.656 1.013.62 1.63.006.395-.1.783-.307 1.11a2.11 2.11 0 0 1-.871.83 2.78 2.78 0 0 1-1.31.296H5.271V15H4V8.007h2.591Zm-1.32 3.275h1.093c.347.027.69-.084.967-.311a.795.795 0 0 0 .326-.717c0-.774-.417-1.16-1.252-1.16H5.271v2.188Z"/></svg>