<svg xmlns="http://www.w3.org/2000/svg" fill="none" viewBox="0 0 24 24"><path fill="url(#microsoft-edge_svg__a)" d="M20.058 16.828a7.32 7.32 0 0 1-.82.367 7.927 7.927 0 0 1-2.794.502c-3.682 0-6.89-2.533-6.89-5.783a2.45 2.45 0 0 1 1.279-2.126c-3.331.14-4.187 3.611-4.187 5.645 0 5.75 5.299 6.332 6.44 6.332.616 0 1.544-.179 2.101-.355l.103-.034a9.988 9.988 0 0 0 5.182-4.11.311.311 0 0 0-.414-.438Z"/><path fill="#1595DF" d="M10.304 20.788a6.163 6.163 0 0 1-1.77-1.661 6.282 6.282 0 0 1 2.299-9.339c.242-.114.657-.321 1.209-.31.788.005 1.528.38 2 1.01.313.42.487.929.494 1.453 0-.017 1.904-6.195-6.226-6.195-3.416 0-6.225 3.242-6.225 6.087a10.128 10.128 0 0 0 .942 4.358 9.961 9.961 0 0 0 12.17 5.222 5.88 5.88 0 0 1-4.886-.622l-.007-.003Z"/><path fill="#32C1E7" d="M13.93 13.584c-.062.082-.256.195-.256.44 0 .204.132.4.367.564 1.12.778 3.229.675 3.235.675a4.635 4.635 0 0 0 2.355-.65A4.777 4.777 0 0 0 22 10.498c.02-1.744-.622-2.903-.882-3.417C19.467 3.855 15.908 2 12.037 2a9.961 9.961 0 0 0-9.96 9.821c.037-2.844 2.863-5.14 6.225-5.14.272 0 1.826.026 3.268.784 1.272.667 1.938 1.474 2.401 2.273.481.83.567 1.88.567 2.297 0 .418-.213 1.037-.607 1.55Z"/><path fill="url(#microsoft-edge_svg__b)" d="M13.93 13.584c-.062.082-.256.195-.256.44 0 .204.132.4.367.564 1.12.778 3.229.675 3.235.675a4.635 4.635 0 0 0 2.355-.65A4.777 4.777 0 0 0 22 10.498c.02-1.744-.622-2.903-.882-3.417C19.467 3.855 15.908 2 12.037 2a9.961 9.961 0 0 0-9.96 9.821c.037-2.844 2.863-5.14 6.225-5.14.272 0 1.826.026 3.268.784 1.272.667 1.938 1.474 2.401 2.273.481.83.567 1.88.567 2.297 0 .418-.213 1.037-.607 1.55Z"/><defs><radialGradient id="microsoft-edge_svg__b" cx="0" cy="0" r="1" gradientTransform="matrix(3.92841 13.27076 -6.47999 1.9182 2.508 19.14)" gradientUnits="userSpaceOnUse"><stop stop-color="#66EB6E"/><stop offset="1" stop-color="#66EB6E" stop-opacity="0"/></radialGradient><linearGradient id="microsoft-edge_svg__a" x1="6.646" x2="20.524" y1="15.778" y2="15.778" gradientUnits="userSpaceOnUse"><stop stop-color="#0C59A4"/><stop offset="1" stop-color="#114A8B"/></linearGradient></defs></svg>