<svg xmlns="http://www.w3.org/2000/svg" fill="none" viewBox="0 0 24 24"><path fill="#036C70" d="M11 14a6 6 0 1 0 0-12 6 6 0 0 0 0 12Z"/><path fill="#1A9BA1" d="M17 18a5 5 0 1 0 0-10 5 5 0 0 0 0 10Z"/><path fill="#37C6D0" d="M12 22a4 4 0 1 0 0-8 4 4 0 0 0 0 8Z"/><path fill="#03787C" d="M2.833 7h8.334c.46 0 .833.373.833.833v8.334c0 .46-.373.833-.833.833H2.833A.833.833 0 0 1 2 16.167V7.833c0-.46.373-.833.833-.833Z"/><path fill="#fff" d="M4.807 11.861a2.045 2.045 0 0 1-.598-.695 2.043 2.043 0 0 1-.208-.952 1.95 1.95 0 0 1 .387-1.232c.275-.345.63-.6 1.029-.738a3.984 3.984 0 0 1 1.406-.24 4.893 4.893 0 0 1 1.852.286v1.44a2.748 2.748 0 0 0-.838-.378c-.32-.087-.65-.13-.98-.13a1.964 1.964 0 0 0-1.007.235.733.733 0 0 0-.399.666.713.713 0 0 0 .17.472c.13.149.284.27.455.358.19.104.476.243.855.415a.841.841 0 0 1 .122.054 6.82 6.82 0 0 1 1.078.585c.26.177.479.419.637.706.163.326.243.694.23 1.065.019.461-.11.915-.362 1.283a2.03 2.03 0 0 1-.97.717A4.026 4.026 0 0 1 6.284 16a6.637 6.637 0 0 1-1.252-.113 4 4 0 0 1-1.016-.323v-1.52c.311.244.66.426 1.028.539.367.125.748.192 1.132.199a1.8 1.8 0 0 0 1.027-.24.776.776 0 0 0 .345-.677.762.762 0 0 0-.193-.517 1.974 1.974 0 0 0-.535-.41 16.379 16.379 0 0 0-1.006-.496 5.545 5.545 0 0 1-1.007-.58Z"/></svg>