<svg xmlns="http://www.w3.org/2000/svg" fill="none" viewBox="0 0 24 24"><g clip-path="url(#microsoft-onedrive_svg__a)"><path fill="#0364B8" d="m9.627 8.558 4.198 2.514 2.502-1.053a4.05 4.05 0 0 1 1.885-.321A6.25 6.25 0 0 0 6.936 7.814L7 7.812a5 5 0 0 1 2.627.746"/><path fill="#0078D4" d="M9.627 8.557zA5 5 0 0 0 7 7.813l-.064.001a4.998 4.998 0 0 0-4.038 7.857l3.703-1.559 1.646-.692 3.664-1.542 1.914-.806z"/><path fill="#1490DF" d="M18.212 9.698a4.05 4.05 0 0 0-1.884.322l-2.503 1.052.726.435 2.378 1.424 1.037.622 3.548 2.125a4.063 4.063 0 0 0-3.302-5.98"/><path fill="#28A8EA" d="m17.966 13.553-1.037-.622-2.378-1.424-.726-.435-1.914.806-3.664 1.542-1.646.692-3.703 1.559A5 5 0 0 0 7 17.813h10.938a4.06 4.06 0 0 0 3.576-2.135z"/></g><defs><clipPath id="microsoft-onedrive_svg__a"><path fill="#fff" d="M2 5h20v12.813H2z"/></clipPath></defs></svg>