<svg xmlns="http://www.w3.org/2000/svg" fill="none" viewBox="0 0 24 24"><g clip-path="url(#microsoft-teams_svg__a)"><path fill="#5059C9" d="M15.95 9.977h5.166c.488 0 .884.395.884.883v4.706a3.25 3.25 0 0 1-3.248 3.248h-.015a3.25 3.25 0 0 1-3.249-3.248v-5.128c0-.255.207-.461.462-.461m3.492-.93a2.093 2.093 0 1 0 0-4.187 2.093 2.093 0 0 0 0 4.187"/><path fill="#7B83EB" d="M12.93 9.047a3.023 3.023 0 1 0 0-6.047 3.023 3.023 0 0 0 0 6.047m4.031.93H8.434a.874.874 0 0 0-.853.894v5.367a5.246 5.246 0 0 0 5.117 5.367 5.246 5.246 0 0 0 5.116-5.367v-5.367a.874.874 0 0 0-.853-.894"/><path fill="#000" d="M12.233 8.037v.926a3.02 3.02 0 0 1-2.094-1.777h1.242c.47.002.85.382.852.851" opacity=".2"/><path fill="url(#microsoft-teams_svg__b)" d="M2.853 7.186h8.527c.47 0 .852.382.852.853v8.527c0 .47-.381.853-.852.853H2.853A.853.853 0 0 1 2 16.566V8.039c0-.471.382-.853.853-.853"/><path fill="#fff" d="M9.36 10.432H7.655v4.641H6.57v-4.641H4.873v-.9H9.36z"/></g><defs><linearGradient id="microsoft-teams_svg__b" x1="3.778" x2="10.455" y1="6.52" y2="18.085" gradientUnits="userSpaceOnUse"><stop stop-color="#5A62C3"/><stop offset=".5" stop-color="#4D55BD"/><stop offset="1" stop-color="#3940AB"/></linearGradient><clipPath id="microsoft-teams_svg__a"><path fill="#fff" d="M2 3h20v18.605H2z"/></clipPath></defs></svg>