<svg xmlns="http://www.w3.org/2000/svg" fill="none" viewBox="0 0 24 24"><path fill="#D35230" d="M22 12H4c.006 1.885 1.526 3.587 2.447 4.961 1.432 2.134 3.831 3.477 6.776 3.486C18.065 20.433 21.986 16.812 22 12"/><path fill="#FF8F6B" d="M13 3c4.812.014 8.986 4.182 9 9h-9z"/><path fill="#ED6C47" d="M13 3c-4.817.014-8.986 4.183-9 9h9z"/><path fill="#C43E1C" d="M2.833 6h8.334c.46 0 .833.41.833.917v9.166c0 .507-.373.917-.833.917H2.833c-.46 0-.833-.41-.833-.917V6.917C2 6.41 2.373 6 2.833 6"/><path fill="#F9F7F7" d="M6.591 8.007a2.56 2.56 0 0 1 1.786.563c.427.411.656 1.013.62 1.63.006.395-.1.783-.307 1.11a2.1 2.1 0 0 1-.871.83 2.8 2.8 0 0 1-1.31.296H5.271V15H4V8.007zm-1.32 3.275h1.093c.347.027.69-.084.967-.311a.8.8 0 0 0 .326-.717q0-1.16-1.252-1.16H5.271z"/></svg>