<svg xmlns="http://www.w3.org/2000/svg" fill="none" viewBox="0 0 24 24">
  <path fill="url(#microsoft-planner__a)" d="M2.32 10.386a2.14 2.14 0 0 1 .365-3.006l3.298-2.584a2.14 2.14 0 0 1 3.005.365l6.123 7.814L8.444 18.2 2.32 10.386Z"/>
  <path fill="url(#microsoft-planner__b)" d="M15.255 2.97a2.14 2.14 0 0 1 3.005.364l2.556 3.262a2.14 2.14 0 0 1-.364 3.005L8.836 18.702l-6.489-8.28c.714.91 2.03 1.07 2.941.356l9.966-7.809Z"/>
  <path fill="url(#microsoft-planner__c)" d="M14.505 8.88a2.14 2.14 0 0 1 3.005.364l2.557 3.262a2.14 2.14 0 0 1-.365 3.005l-6.703 5.253a2.004 2.004 0 0 1-2.814-.341L4.89 13.666a2.163 2.163 0 0 0 3.037.368l6.578-5.154Z"/>
  <defs>
    <linearGradient id="microsoft-planner__b" x1="11.568" x2="11.568" y1="2.513" y2="21.191" gradientUnits="userSpaceOnUse">
      <stop stop-color="#D240E2"/>
      <stop offset="1" stop-color="#9A26B2"/>
    </linearGradient>
    <linearGradient id="microsoft-planner__c" x1="17.115" x2="11.712" y1="7.558" y2="21.078" gradientUnits="userSpaceOnUse">
      <stop stop-color="#51C2FF"/>
      <stop offset=".916" stop-color="#4746D6"/>
    </linearGradient>
    <radialGradient id="microsoft-planner__a" cx="0" cy="0" r="1" gradientTransform="rotate(148.501 11.832 3.153) scale(14.5011 13.6934)" gradientUnits="userSpaceOnUse">
      <stop offset=".076" stop-color="#844FD4"/>
      <stop offset=".935" stop-color="#57167C"/>
    </radialGradient>
  </defs>
</svg>
