<svg xmlns="http://www.w3.org/2000/svg" fill="none" viewBox="0 0 24 24">
  <path fill="#367AF2" d="M22 7.5v9.25a3.25 3.25 0 0 1-3.066 3.245L18.75 20H5.25a3.25 3.25 0 0 1-3.245-3.066L2 16.75V7.5l9.652 5.056a.75.75 0 0 0 .696 0L22 7.5Z"/>
  <path fill="url(#microsoft-emails__a)" d="M22 7.5v9.25a3.25 3.25 0 0 1-3.066 3.245L18.75 20H5.25a3.25 3.25 0 0 1-3.245-3.066L2 16.75V7.5l9.652 5.056a.75.75 0 0 0 .696 0L22 7.5Z"/>
  <path fill="url(#microsoft-emails__b)" d="M22 7.5v9.25a3.25 3.25 0 0 1-3.066 3.245L18.75 20H5.25a3.25 3.25 0 0 1-3.245-3.066L2 16.75V7.5l9.652 5.056a.75.75 0 0 0 .696 0L22 7.5Z"/>
  <path fill="url(#microsoft-emails__c)" fill-opacity=".75" d="M22 7.5v9.25a3.25 3.25 0 0 1-3.066 3.245L18.75 20H5.25a3.25 3.25 0 0 1-3.245-3.066L2 16.75V7.5l9.652 5.056a.75.75 0 0 0 .696 0L22 7.5Z"/>
  <path fill="url(#microsoft-emails__d)" fill-opacity=".7" d="M22 7.5v9.25a3.25 3.25 0 0 1-3.066 3.245L18.75 20H5.25a3.25 3.25 0 0 1-3.245-3.066L2 16.75V7.5l9.652 5.056a.75.75 0 0 0 .696 0L22 7.5Z"/>
  <path fill="url(#microsoft-emails__e)" d="m2 7.86 9.652 5.056a.75.75 0 0 0 .696 0L22 7.86v-.61A3.25 3.25 0 0 0 18.75 4H5.25A3.25 3.25 0 0 0 2 7.25v.61Z"/>
  <defs>
    <linearGradient id="microsoft-emails__a" x1="14.539" x2="22.43" y1="7.136" y2="19.053" gradientUnits="userSpaceOnUse">
      <stop offset=".199" stop-color="#0094F0" stop-opacity="0"/>
      <stop offset=".431" stop-color="#0094F0"/>
    </linearGradient>
    <linearGradient id="microsoft-emails__b" x1="9.143" x2="1.255" y1="5.684" y2="19.655" gradientUnits="userSpaceOnUse">
      <stop offset=".191" stop-color="#0094F0" stop-opacity="0"/>
      <stop offset=".431" stop-color="#0094F0"/>
    </linearGradient>
    <linearGradient id="microsoft-emails__c" x1="17.273" x2="18.68" y1="13.546" y2="21.377" gradientUnits="userSpaceOnUse">
      <stop stop-color="#2764E7" stop-opacity="0"/>
      <stop offset="1" stop-color="#2764E7"/>
    </linearGradient>
    <linearGradient id="microsoft-emails__d" x1="15.095" x2="17.668" y1="5.965" y2="21.945" gradientUnits="userSpaceOnUse">
      <stop offset=".533" stop-color="#FF6CE8" stop-opacity="0"/>
      <stop offset="1" stop-color="#FF6CE8"/>
    </linearGradient>
    <linearGradient id="microsoft-emails__e" x1="7.942" x2="13.98" y1="1.151" y2="17.089" gradientUnits="userSpaceOnUse">
      <stop stop-color="#6CE0FF"/>
      <stop offset=".462" stop-color="#29C3FF"/>
      <stop offset="1" stop-color="#4894FE"/>
    </linearGradient>
  </defs>
</svg>
