<svg xmlns="http://www.w3.org/2000/svg" fill="none" viewBox="0 0 24 24"><path fill="#185C37" d="M14 12H7l.08 7.614c0 .467.37.846.828.846h13.263a.838.838 0 0 0 .829-.846v-3.598L14 12Z"/><path fill="#21A366" d="M14.54 3H7.908a.837.837 0 0 0-.829.845v3.591L7 12h15V7.436L14.54 3Z"/><path fill="#107C41" d="M7 11.984 22 12v4.016L7 16v-4.016Z"/><path fill="#107C41" d="M2.833 6h8.334c.46 0 .833.41.833.917v9.166c0 .507-.373.917-.833.917H2.833a.797.797 0 0 1-.589-.268.965.965 0 0 1-.244-.649V6.917C2 6.41 2.373 6 2.833 6Z"/><path fill="#fff" d="m4 15 2.173-3.51L4.183 8h1.602l1.086 2.23c.1.213.169.37.206.474h.014c.072-.169.147-.333.225-.493L8.478 8h1.47l-2.042 3.47L10 15H8.436L7.18 12.55a2.086 2.086 0 0 1-.15-.328h-.018a1.574 1.574 0 0 1-.145.318L5.574 15H4Z"/><path fill="#33C481" d="M21.153 3h-6.772v4.444H22V3.847A.846.846 0 0 0 21.153 3Z"/></svg>