<svg xmlns="http://www.w3.org/2000/svg" fill="none" viewBox="0 0 24 24"><path fill="#036C70" d="M11 14a6 6 0 1 0 0-12 6 6 0 0 0 0 12"/><path fill="#1A9BA1" d="M17 18a5 5 0 1 0 0-10 5 5 0 0 0 0 10"/><path fill="#37C6D0" d="M12 22a4 4 0 1 0 0-8 4 4 0 0 0 0 8"/><path fill="#03787C" d="M2.833 7h8.334c.46 0 .833.373.833.833v8.334c0 .46-.373.833-.833.833H2.833A.833.833 0 0 1 2 16.167V7.833c0-.46.373-.833.833-.833"/><path fill="#fff" d="M4.807 11.861a2.05 2.05 0 0 1-.598-.695 2.04 2.04 0 0 1-.208-.952 1.95 1.95 0 0 1 .387-1.232c.275-.345.63-.6 1.029-.738a4 4 0 0 1 1.406-.24 4.9 4.9 0 0 1 1.852.286v1.44a2.8 2.8 0 0 0-.838-.378c-.32-.087-.65-.13-.98-.13a1.96 1.96 0 0 0-1.007.235.73.73 0 0 0-.399.666.7.7 0 0 0 .17.472q.197.225.455.358.286.156.855.415a1 1 0 0 1 .122.054 7 7 0 0 1 1.078.585c.26.177.479.419.637.706.163.326.243.694.23 1.065.019.461-.11.915-.362 1.283a2.03 2.03 0 0 1-.97.717A4 4 0 0 1 6.284 16a6.6 6.6 0 0 1-1.252-.113 4 4 0 0 1-1.016-.323v-1.52c.311.244.66.426 1.028.539.367.125.748.192 1.132.199a1.8 1.8 0 0 0 1.027-.24.78.78 0 0 0 .345-.677.76.76 0 0 0-.193-.517 2 2 0 0 0-.535-.41 16 16 0 0 0-1.006-.496 5.6 5.6 0 0 1-1.007-.58Z"/></svg>