<svg xmlns="http://www.w3.org/2000/svg" fill="none" viewBox="0 0 24 24"><path fill="#0A2767" d="M21.781 12.9q.138-.435.219-.886a.42.42 0 0 0-.208-.364l-.008-.005-.003-.001-6.773-3.893a.93.93 0 0 0-.924-.052 1 1 0 0 0-.091.052l-6.774 3.893-.003.001-.008.005a.42.42 0 0 0-.208.364q.081.45.219.886l7.182 5.3z"/><path fill="#0364B8" d="M19.5 3h-9A1.5 1.5 0 0 0 9 4.5V5h12v-.5A1.5 1.5 0 0 0 19.5 3M13 9H9v8h8v-4h-4z"/><path fill="#0078D4" d="M21 13h-4v4h4zm-4-4h-4v4h4zm-4-4H9v4h4z"/><path fill="#50D9FF" d="M21 5h-4v4h4z"/><path fill="#28A8EA" d="M21 9h-4v4h4zm-4-4h-4v4h4z"/><path fill="#1490DF" d="m21.79 12.362-.01.005h-.001l-6.855 3.873a.95.95 0 0 1-.924.057l2.387 3.173 5.221 1.127v.003a.94.94 0 0 0 .392-.762V12c0 .15-.08.287-.21.362"/><path fill="#28A8EA" d="M7.219 12.37v-.005h-.007l-.018-.013A.41.41 0 0 1 7 12v7.857c0 .25.098.49.274.667a.93.93 0 0 0 .663.276H21.05a1 1 0 0 0 .232-.031.4.4 0 0 0 .112-.038.7.7 0 0 0 .181-.094c.012-.007.019-.007.025-.02L7.219 12.372Z"/><path fill="#0078D4" d="M2.833 7h8.334c.46 0 .833.373.833.833v8.334a.833.833 0 0 1-.833.833H2.833A.833.833 0 0 1 2 16.167V7.833c0-.46.373-.833.833-.833"/><path fill="#fff" d="M4.545 10.331A2.6 2.6 0 0 1 5.56 9.207 3.06 3.06 0 0 1 7.173 8.8a2.85 2.85 0 0 1 1.492.385c.426.254.77.627.988 1.074.238.492.357 1.033.346 1.58a3.7 3.7 0 0 1-.356 1.653 2.63 2.63 0 0 1-1.017 1.111A2.96 2.96 0 0 1 7.077 15a2.9 2.9 0 0 1-1.526-.389 2.6 2.6 0 0 1-1-1.076 3.4 3.4 0 0 1-.35-1.56 3.76 3.76 0 0 1 .344-1.643Zm1.081 2.64c.117.295.315.551.571.739.261.183.574.277.893.27.339.013.673-.085.952-.279.253-.187.446-.445.554-.741.122-.33.182-.68.178-1.033a3.2 3.2 0 0 0-.167-1.044c-.1-.303-.287-.57-.536-.77a1.47 1.47 0 0 0-.944-.292 1.54 1.54 0 0 0-.913.272 1.7 1.7 0 0 0-.583.746 2.97 2.97 0 0 0-.005 2.131Z"/></svg>