<svg xmlns="http://www.w3.org/2000/svg" fill="none" viewBox="0 0 24 24">
  <path fill="#036C70" d="M20 12v8.177c0 .454-.343.823-.766.823H6.952c-.423 0-.766-.369-.766-.823V12l7.116-.9L20 12Z"/>
  <path fill="#37C6D0" d="M6.952 3h12.282c.423 0 .766.369.766.824V12H6.186V3.823c0-.454.343-.823.766-.823Z"/>
  <path fill="#1A9BA1" d="M13.72 14.25h4.187v4.5h-4.186v-4.5Zm2.094-4.05c1.387 0 2.512-1.209 2.512-2.7S17.2 4.8 15.814 4.8s-2.512 1.209-2.512 2.7 1.125 2.7 2.512 2.7Z"/>
  <path fill="#036C70" d="M15.814 8.85c.694 0 1.256-.604 1.256-1.35 0-.746-.563-1.35-1.256-1.35-.694 0-1.256.604-1.256 1.35 0 .746.562 1.35 1.256 1.35Z"/>
  <path fill="url(#microsoft-forms__a)" d="M2.766 7.05h7.673c.423 0 .766.369.766.823v8.249c0 .454-.343.823-.766.823H2.766c-.423.005-.766-.364-.766-.819V7.873c0-.454.343-.823.766-.823Z"/>
  <path fill="#fff" d="M8.158 10.191h-2.16v1.462H8.01v.869H5.998v2.16h-.976V9.318h3.14l-.004.873Z"/>
  <defs>
    <linearGradient id="microsoft-forms__a" x1="5.128" x2="16.88" y1="1.828" y2="22.18" gradientUnits="userSpaceOnUse">
      <stop stop-color="#058F92"/>
      <stop offset=".5" stop-color="#038489"/>
      <stop offset="1" stop-color="#026D71"/>
    </linearGradient>
  </defs>
</svg>
