<svg xmlns="http://www.w3.org/2000/svg" fill="none" viewBox="0 0 24 24"><path fill="#41A5EE" d="M21.167 3H7.833A.83.83 0 0 0 7 3.825v3.508L14.5 9.5 22 7.333V3.825a.82.82 0 0 0-.244-.583.84.84 0 0 0-.59-.242Z"/><path fill="#2B7CD3" d="M7 7.25v4.333l7.5 2.167L22 12V7.25z"/><path fill="#185ABD" d="M22 11.75H7v4.333l7.5 2.167 7.5-2.167z"/><path fill="#103F91" d="M22 16H7v3.44c0 .448.373.81.833.81h13.334c.46 0 .833-.362.833-.81z"/><path fill="#185ABD" d="M2.833 6h8.334a.8.8 0 0 1 .589.268.97.97 0 0 1 .244.649v9.166a.97.97 0 0 1-.244.649.8.8 0 0 1-.59.268H2.834c-.46 0-.833-.41-.833-.917V6.917C2 6.41 2.373 6 2.833 6"/><path fill="#fff" d="M9.655 15h-1.21l-1.411-4.83L5.555 15h-1.21L3 8h1.21l.941 4.9 1.412-4.76h1.008l1.345 4.76.941-4.9H11z"/></svg>