<svg xmlns="http://www.w3.org/2000/svg" fill="none" viewBox="0 0 24 24"><path fill="#0358A7" d="M3.25 3.697c0-.389.315-.704.705-.704h16.09c.39 0 .705.315.705.704v16.606a.705.705 0 0 1-.705.704H3.955a.705.705 0 0 1-.705-.704z"/><path fill="#0F78D4" d="M3.25 5.925h5.662v5.147H3.25z"/><path fill="#37BAF2" d="M8.912 5.925h6.176v5.147H8.912z"/><path fill="#56DCFF" d="M15.088 5.925h5.662v5.147h-5.662z"/><path fill="#0764B2" d="M3.25 11.072h5.662v4.633H3.25z"/><path fill="#0F78D4" d="M8.912 11.072h6.176v4.633H8.912z"/><path fill="#35B7F1" d="M15.088 11.072h5.662v4.633h-5.662z"/><path fill="#113B6D" d="M3.25 15.705h5.662v5.147H3.955a.705.705 0 0 1-.705-.705z"/><path fill="#0764B2" d="M8.912 15.705h6.176v5.147H8.912z"/><path fill="#0F78D4" d="M15.088 15.705h5.662v4.442c0 .39-.316.705-.705.705h-4.957z"/></svg>