<svg xmlns="http://www.w3.org/2000/svg" fill="none" viewBox="0 0 24 24">
  <path fill="#0E51A3" d="M19.5 12.322c0 3.82-1.728 7.261-4.492 9.678l-9.883-9.678H19.5Z"/>
  <path fill="#2292E2" d="M19.5 12.323H5.125L15.008 2A14.073 14.073 0 0 1 19.5 12.323Z"/>
  <path fill="#176FE0" d="M21.27 16.839c.474-1.52.73-3.147.73-4.839 0-1.691-.256-3.318-.73-4.839L5.126 12.323l16.146 4.516Z"/>
  <rect width="11.25" height="11.613" x="2" y="5.871" fill="#084C8A" rx="2"/>
  <path fill="#fff" d="M7.485 11.027 6.012 8.452H4.5l2.398 4.156v2.295h1.444v-2.295l2.408-4.156H9.228l-1.473 2.575h-.27Z"/>
</svg>
