<svg xmlns="http://www.w3.org/2000/svg" viewBox="0 0 24 24">
  <path fill-rule="evenodd" d="M8.237 2.934a1.75 1.75 0 0 0-2.474 0L2.934 5.763a1.75 1.75 0 0 0 0 2.474l2.829 2.829a1.75 1.75 0 0 0 2.474 0l2.829-2.829a1.75 1.75 0 0 0 0-2.474l-2.829-2.83Zm-1.414 1.06a.25.25 0 0 1 .354 0l2.828 2.83a.25.25 0 0 1 0 .353l-2.828 2.828a.25.25 0 0 1-.354 0L3.995 7.177a.25.25 0 0 1 0-.354l2.828-2.828ZM13.25 5c0-.967.784-1.75 1.75-1.75h4c.966 0 1.75.783 1.75 1.75v4A1.75 1.75 0 0 1 19 10.75h-4A1.75 1.75 0 0 1 13.25 9V5ZM15 4.75a.25.25 0 0 0-.25.25v4c0 .138.112.25.25.25h4a.25.25 0 0 0 .25-.25V5a.25.25 0 0 0-.25-.25h-4Zm-10 8.5A1.75 1.75 0 0 0 3.25 15v4c0 .966.784 1.75 1.75 1.75h4A1.75 1.75 0 0 0 10.75 19v-4A1.75 1.75 0 0 0 9 13.25H5ZM4.75 15a.25.25 0 0 1 .25-.25h4a.25.25 0 0 1 .25.25v4a.25.25 0 0 1-.25.25H5a.25.25 0 0 1-.25-.25v-4Z" clip-rule="evenodd"/>
  <path d="M17.75 14a.75.75 0 0 0-1.5 0v2.25H14a.75.75 0 0 0 0 1.5h2.25V20a.75.75 0 0 0 1.5 0v-2.25H20a.75.75 0 0 0 0-1.5h-2.25V14Z"/>
</svg>
