<svg viewBox="0 0 24 24" xmlns="http://www.w3.org/2000/svg"><path d="M11.713 3.307a.748.748 0 0 0-.243.163l-2 2a.75.75 0 0 0 1.06 1.06l.72-.72v5.44H5.81l.72-.72a.75.75 0 1 0-1.06-1.06l-2 2a.748.748 0 0 0 0 1.06l2 2a.75.75 0 0 0 1.06-1.06l-.72-.72h5.44v5.44l-.72-.72a.75.75 0 1 0-1.06 1.06l2 2a.748.748 0 0 0 1.06 0l2-2a.75.75 0 1 0-1.06-1.06l-.72.72v-5.44h5.44l-.72.72a.75.75 0 1 0 1.06 1.06l2-2a.748.748 0 0 0 0-1.06l-2-2a.75.75 0 1 0-1.06 1.06l.72.72h-5.44V5.81l.72.72a.75.75 0 1 0 1.06-1.06l-2-2a.748.748 0 0 0-.817-.163Z"/></svg>