<svg xmlns="http://www.w3.org/2000/svg" fill="none" viewBox="0 0 24 24"><path fill="url(#mozilla-firefox_svg__a)" d="M21.132 8.879c-.431-1.04-1.307-2.161-1.993-2.516.489.948.828 1.965 1.006 3.017l.002.016c-1.124-2.8-3.03-3.93-4.585-6.39a12 12 0 0 1-.234-.38 3 3 0 0 1-.11-.206 1.8 1.8 0 0 1-.148-.393.026.026 0 0 0-.023-.026.04.04 0 0 0-.018 0l-.005.003-.007.004L15.02 2c-2.497 1.462-3.344 4.167-3.421 5.52a4.97 4.97 0 0 0-2.735 1.055 3 3 0 0 0-.257-.194 4.6 4.6 0 0 1-.028-2.43 7.4 7.4 0 0 0-2.392 1.85h-.004c-.394-.5-.367-2.146-.344-2.49a2 2 0 0 0-.332.176 7 7 0 0 0-.971.832q-.511.518-.929 1.115v.001-.001a8.4 8.4 0 0 0-1.333 3.01l-.014.066c-.018.088-.086.526-.097.62q0 .012-.003.023A9.5 9.5 0 0 0 2 12.524v.05a9.938 9.938 0 0 0 19.732 1.681q.024-.191.045-.384a10.2 10.2 0 0 0-.645-4.992"/><path fill="#7B23BA" d="M11.955 10.664c-.016.247-.89 1.1-1.195 1.1-2.826 0-3.285 1.709-3.285 1.709.126 1.44 1.129 2.625 2.341 3.252a6 6 0 0 0 .46.2c.416.147.852.231 1.293.25 4.953.232 5.912-5.924 2.338-7.71a3.43 3.43 0 0 1 2.396.582 5.02 5.02 0 0 0-4.354-2.543c-.118 0-.234.01-.35.018a4.97 4.97 0 0 0-2.734 1.054c.151.128.322.3.682.654.675.665 2.404 1.353 2.408 1.434"/><path fill="url(#mozilla-firefox_svg__b)" d="M2.09 12.81c.768 4.532 4.875 7.992 9.538 8.124 4.315.122 7.072-2.383 8.211-4.827a9 9 0 0 0 .31-6.707v-.01q-.002-.012 0-.01l.001.017c.353 2.302-.818 4.532-2.648 6.04l-.006.013c-3.566 2.904-6.98 1.752-7.67 1.282l-.144-.072c-2.08-.994-2.939-2.888-2.755-4.513a2.55 2.55 0 0 1-2.354-1.48 3.75 3.75 0 0 1 3.654-.147 4.95 4.95 0 0 0 3.731.146c-.004-.08-1.733-.769-2.407-1.433-.36-.355-.532-.526-.683-.655a3 3 0 0 0-.257-.194l-.205-.136c-.725-.471-2.166-.445-2.214-.444h-.005c-.393-.5-.366-2.146-.343-2.49a2 2 0 0 0-.332.177 7 7 0 0 0-.971.832 8.7 8.7 0 0 0-.933 1.112v.001-.001a8.4 8.4 0 0 0-1.333 3.01c-.005.02-.358 1.564-.184 2.365Z"/><defs><radialGradient id="mozilla-firefox_svg__b" cx="0" cy="0" r="1" gradientTransform="matrix(30.2773 0 0 30.2771 14.553 -1.073)" gradientUnits="userSpaceOnUse"><stop offset=".113" stop-color="#FFF44F"/><stop offset=".456" stop-color="#FF980E"/><stop offset=".622" stop-color="#FF5634"/><stop offset=".716" stop-color="#FF3647"/><stop offset=".904" stop-color="#E31587"/></radialGradient><linearGradient id="mozilla-firefox_svg__a" x1="19.322" x2="3.361" y1="5.177" y2="20.576" gradientUnits="userSpaceOnUse"><stop offset=".048" stop-color="#FFF44F"/><stop offset=".111" stop-color="#FFE847"/><stop offset=".225" stop-color="#FFC830"/><stop offset=".368" stop-color="#FF980E"/><stop offset=".401" stop-color="#FF8B16"/><stop offset=".462" stop-color="#FF672A"/><stop offset=".534" stop-color="#FF3647"/><stop offset=".705" stop-color="#E31587"/></linearGradient></defs></svg>