<svg xmlns="http://www.w3.org/2000/svg" viewBox="0 0 24 24"><path d="M8.482 15.5v-1.108l2.589-2.397q.33-.32.554-.575.227-.256.344-.501.117-.248.117-.536a1 1 0 0 0-.145-.55.96.96 0 0 0-.398-.36 1.25 1.25 0 0 0-.572-.127q-.333 0-.582.135a.93.93 0 0 0-.383.387q-.135.252-.135.6H8.41q0-.714.323-1.24.323-.524.906-.813.582-.287 1.342-.287.78 0 1.36.277.582.273.906.76.323.486.323 1.115 0 .412-.163.813-.16.402-.572.891-.412.487-1.162 1.169l-1.061 1.04v.05h3.054V15.5zM6.754 8.227V15.5H5.216V9.687h-.043L3.508 10.73V9.367l1.8-1.14zm9.298 7.099q.622.273 1.417.273.817 0 1.449-.277t.99-.76q.363-.482.36-1.104.003-.678-.42-1.13-.419-.453-1.221-.557v-.057q.61-.11.99-.518.384-.408.38-1.02a1.77 1.77 0 0 0-.312-1.036q-.312-.465-.877-.739t-1.318-.273q-.745 0-1.338.273-.59.27-.938.75-.347.48-.359 1.107h1.474a.83.83 0 0 1 .167-.482 1 1 0 0 1 .416-.316 1.4 1.4 0 0 1 .571-.114q.309 0 .54.117a.87.87 0 0 1 .494.806q0 .288-.15.504a1 1 0 0 1-.419.334q-.266.12-.614.121h-.678v1.13h.678q.413 0 .71.127.302.128.462.355a.85.85 0 0 1 .163.515q0 .288-.152.508a1 1 0 0 1-.423.344q-.27.125-.621.125-.338 0-.608-.11a1.1 1.1 0 0 1-.433-.31.8.8 0 0 1-.174-.468H14.71q.01.636.366 1.122.358.483.976.76"/><path fill-rule="evenodd" d="M4 3.25A2.75 2.75 0 0 0 1.25 6v12A2.75 2.75 0 0 0 4 20.75h16A2.75 2.75 0 0 0 22.75 18V6A2.75 2.75 0 0 0 20 3.25zM2.75 6c0-.69.56-1.25 1.25-1.25h16c.69 0 1.25.56 1.25 1.25v12c0 .69-.56 1.25-1.25 1.25H4c-.69 0-1.25-.56-1.25-1.25z" clip-rule="evenodd"/></svg>