<svg xmlns="http://www.w3.org/2000/svg" viewBox="0 0 24 24">
  <path d="M8.482 15.5v-1.108l2.589-2.397c.22-.213.405-.405.554-.575.151-.17.266-.338.344-.501.078-.166.117-.344.117-.536a1.01 1.01 0 0 0-.145-.55.956.956 0 0 0-.398-.36 1.246 1.246 0 0 0-.572-.127c-.222 0-.416.045-.582.135a.93.93 0 0 0-.383.387c-.09.168-.135.368-.135.6H8.41c0-.476.108-.889.323-1.24.216-.35.517-.62.906-.813.388-.191.835-.287 1.342-.287.52 0 .974.092 1.36.277.388.182.69.435.906.76.215.324.323.696.323 1.115 0 .274-.055.546-.163.813-.107.268-.298.565-.572.891-.275.325-.662.714-1.162 1.169l-1.061 1.04v.05h3.054V15.5H8.482ZM6.754 8.227V15.5H5.216V9.687h-.043L3.508 10.73V9.367l1.8-1.14h1.446Zm9.298 7.099c.415.182.887.273 1.417.273.545 0 1.028-.092 1.449-.277.421-.184.752-.438.99-.76.242-.321.362-.69.36-1.104.002-.452-.138-.829-.42-1.13-.279-.302-.686-.488-1.221-.557v-.057c.407-.073.737-.246.99-.518.256-.272.383-.612.38-1.02a1.773 1.773 0 0 0-.312-1.036c-.208-.31-.5-.556-.877-.739-.377-.182-.816-.273-1.318-.273-.497 0-.943.091-1.338.273-.393.18-.706.43-.938.75-.232.32-.351.688-.359 1.107h1.474a.831.831 0 0 1 .167-.482 1 1 0 0 1 .416-.316 1.4 1.4 0 0 1 .571-.114c.206 0 .386.039.54.117a.872.872 0 0 1 .494.806c0 .192-.05.36-.15.504a.99.99 0 0 1-.419.334c-.177.08-.382.121-.614.121h-.678v1.13h.678c.275 0 .512.042.71.127.202.085.355.204.462.355a.85.85 0 0 1 .163.515c0 .192-.05.361-.152.508a1.02 1.02 0 0 1-.423.344c-.18.083-.387.125-.621.125-.225 0-.428-.037-.608-.11a1.071 1.071 0 0 1-.433-.31.806.806 0 0 1-.174-.468H14.71c.007.424.129.798.366 1.122.239.322.564.575.976.76Z"/>
  <path fill-rule="evenodd" d="M4 3.25A2.75 2.75 0 0 0 1.25 6v12A2.75 2.75 0 0 0 4 20.75h16A2.75 2.75 0 0 0 22.75 18V6A2.75 2.75 0 0 0 20 3.25H4ZM2.75 6c0-.69.56-1.25 1.25-1.25h16c.69 0 1.25.56 1.25 1.25v12c0 .69-.56 1.25-1.25 1.25H4c-.69 0-1.25-.56-1.25-1.25V6Z" clip-rule="evenodd"/>
</svg>
