<svg xmlns="http://www.w3.org/2000/svg" fill="none" viewBox="0 0 24 24"><path fill="#0F0F0F" d="M10.94 2C8.722 2 6.752 3.41 6.066 5.488a5.1 5.1 0 0 0-1.953.85 5 5 0 0 0-1.425 1.568 4.985 4.985 0 0 0 .632 5.906 4.9 4.9 0 0 0 .432 4.084c1.106 1.903 3.33 2.878 5.506 2.424A5.07 5.07 0 0 0 13.061 22c2.218 0 4.188-1.409 4.875-3.488a5.04 5.04 0 0 0 3.37-2.418 4.97 4.97 0 0 0-.624-5.906v-.006a4.92 4.92 0 0 0-.433-4.091c-1.105-1.897-3.33-2.872-5.499-2.418a5.1 5.1 0 0 0-1.723-1.24A5.1 5.1 0 0 0 10.94 2m0 1.3-.007.007c.893 0 1.75.305 2.437.867-.027.014-.082.048-.123.068L9.21 6.538a.65.65 0 0 0-.33.569v5.391l-1.736-.989V7.053c0-.994.399-1.948 1.11-2.652a3.83 3.83 0 0 1 2.686-1.1Zm4.863 1.57a3.84 3.84 0 0 1 1.905.501c.58.33 1.06.805 1.395 1.377a3.72 3.72 0 0 1 .452 2.506c-.027-.02-.082-.047-.116-.068l-4.037-2.303a.68.68 0 0 0-.666 0l-4.73 2.696V7.6l3.906-2.228a3.8 3.8 0 0 1 1.89-.503ZM5.819 6.917v4.734c0 .237.123.447.33.57l4.722 2.688-1.744.996-3.899-2.222a3.76 3.76 0 0 1-1.767-2.277 3.7 3.7 0 0 1 .38-2.843A3.8 3.8 0 0 1 5.82 6.917Zm9.048 1.172 3.906 2.221a3.717 3.717 0 0 1 1.387 5.12l.006.007a3.78 3.78 0 0 1-1.977 1.64v-4.735a.65.65 0 0 0-.33-.569l-4.73-2.696zm-2.87 1.632 1.991 1.138v2.269l-1.99 1.137-1.992-1.137v-2.27zm3.13 1.788 1.737.989v4.45c0 2.072-1.702 3.752-3.796 3.752v-.007a3.82 3.82 0 0 1-2.43-.867c.027-.013.09-.047.123-.067l4.037-2.296a.63.63 0 0 0 .33-.57zm-1.132 2.912V16.4l-3.906 2.221c-1.82 1.03-4.14.42-5.19-1.368h.006a3.68 3.68 0 0 1-.453-2.506c.028.02.083.048.117.068l4.036 2.303a.68.68 0 0 0 .666 0z"/></svg>