<svg xmlns="http://www.w3.org/2000/svg" viewBox="0 0 24 24"><path d="M12 2.25a3.75 3.75 0 0 1 .78 7.418c.078.922.312 1.236.457 1.347.2.153.522.18 1.189.114.284-.028.649-.074.987-.076.345-.003.754.036 1.14.23.71.354 1.06 1.061 1.163 2.035a3.751 3.751 0 1 1-1.509.016c-.084-.576-.268-.682-.323-.71-.082-.041-.22-.073-.461-.071-.248.001-.508.034-.849.068-.583.058-1.512.148-2.249-.417a2 2 0 0 1-.325-.313 2 2 0 0 1-.325.313c-.737.565-1.666.475-2.25.417-.34-.034-.6-.067-.848-.068-.24-.002-.379.03-.46.071-.056.028-.241.134-.325.71a3.751 3.751 0 1 1-1.509-.016c.103-.974.454-1.68 1.163-2.036.387-.193.796-.232 1.14-.23.34.003.704.049.988.077.667.067.988.04 1.189-.114.145-.111.378-.425.457-1.347A3.75 3.75 0 0 1 12 2.25m-5 12.5a2.25 2.25 0 1 0 0 4.5 2.25 2.25 0 0 0 0-4.5m10 0a2.25 2.25 0 1 0 0 4.5 2.25 2.25 0 0 0 0-4.5m-5-11a2.25 2.25 0 1 0 0 4.5 2.25 2.25 0 0 0 0-4.5"/></svg>