<svg xmlns="http://www.w3.org/2000/svg" fill="none" viewBox="0 0 24 24"><g clip-path="url(#paylocity_svg__a)"><path fill="#F33F23" d="M2.037 12.885c.275-.016.638-.006.92-.006h1.62c1.185 0 2.726-.024 3.943.024.037.001.101.173.114.22.312 1.146.661 2.276 1.103 3.38.421.968 1.53 3.475 2.912 2.392 1.213-.952 1.77-2.831 2.253-4.245.049-.143.071-.425.253-.439l.032.032c.094.273-.308 1.984-.403 2.33-.646 2.462-2.02 5.23-4.912 5.36-4.402.196-6.89-4.51-7.76-8.196-.043-.18-.21-.71-.075-.852"/><path fill="#FD781F" d="M9.157 2.052c.576-.055 1.485.029 1.998.305-.14.232-.378.421-.553.628-1.809 2.142-2.466 5.362-2.68 8.087-.383.02-.935 0-1.332 0l-2.645-.002-1.102.003c-.206 0-.624.017-.809-.03-.137-.114.07-.773.111-.947.427-1.781 1.15-3.517 2.213-5.017 1.034-1.457 2.538-2.753 4.369-2.994.144-.019.278-.01.43-.033"/><path fill="#F33F23" d="M14.114 2.006h.628c.102.064.492.054.67.09a5.9 5.9 0 0 1 2.468 1.152c1.938 1.543 3.094 3.883 3.774 6.221.122.42.228.892.317 1.322.018.084.013.184-.041.255-.146.067-3.812.034-4.231.033l-1.417.001c-.263 0-.646.01-.899-.02-.122-.367-.204-.752-.313-1.124-.323-1.102-.684-2.226-1.201-3.255-.332-.662-.84-1.6-1.591-1.845-.3-.098-.564-.03-.835.11-1.17.602-2.057 3.325-2.445 4.532-.033.105-.053.208-.156.26-.063-.006-.048.005-.081-.032-.047-.159.058-.685.091-.87.48-2.62 1.602-6.188 4.625-6.749.197-.036.447.005.637-.08Z"/><path fill="#FD791F" d="M22.01 12.985c-.057.095-.056.216-.078.325-.766 3.903-3.619 9.32-8.38 8.53-.172-.03-.604-.108-.699-.246a.17.17 0 0 1 .046-.158c2.104-2.024 2.704-5.087 3.086-7.864.022-.16.012-.52.066-.653.095-.066 1.05-.04 1.218-.04l2.125.002 1.548-.002c.303-.002.61-.008.913.002.083.003.1.025.155.087z"/></g><defs><clipPath id="paylocity_svg__a"><path fill="#fff" d="M1.944 2.006H22.01v19.987H1.944z"/></clipPath></defs></svg>