<svg xmlns="http://www.w3.org/2000/svg" fill="none" viewBox="0 0 24 24"><path fill="#000" d="M8.692 16.857h7.05c.498 0 1.07-.614 1.08-1.114V8.26a1.25 1.25 0 0 0-1.078-1.083l-7.52.002c-.508.032-1.08.602-1.08 1.112v6.89H2.012V7.096c.262-2.825 2.598-4.943 5.403-5.084 2.11-.106 4.306.084 6.424 0 .655.045 1.114.314 1.467.856.632.969 1.132 2.11 1.737 3.104.222.367.49.702.957.753.853.093 1.87-.067 2.744-.002.703.053 1.189.5 1.242 1.21v8.36c-.042.578-.49 1.094-1.08 1.145-.867.075-1.839-.066-2.712 0-.53.039-.827.23-1.107.667-.617.961-1.088 2.114-1.71 3.065-.266.406-.84.849-1.345.849H8.707z"/></svg>