<svg xmlns="http://www.w3.org/2000/svg" viewBox="0 0 24 24">
  <path d="M18.383 20.75h-.22a16.69 16.69 0 0 1-7.271-2.58 16.4 16.4 0 0 1-5.044-5.04 16.794 16.794 0 0 1-2.587-7.3 2.38 2.38 0 0 1 .6-1.82c.219-.24.489-.43.788-.57.31-.12.62-.19.96-.19h2.416c.58 0 1.119.2 1.548.57.44.37.72.89.8 1.46.09.72.269 1.42.519 2.1.16.42.19.88.1 1.32-.09.44-.31.84-.63 1.16l-.609.61c.959 1.52 2.247 2.8 3.765 3.76l.61-.61c.32-.32.729-.54 1.168-.63.45-.09.9-.06 1.319.1.679.25 1.378.43 2.097.52.58.08 1.099.37 1.478.81.37.44.57 1 .56 1.57v2.4c0 .32-.07.65-.2.95-.13.3-.33.58-.57.79-.24.22-.519.39-.838.49-.24.08-.5.12-.75.12l-.01.01Zm-10.348-16H5.608c-.12 0-.24.03-.34.07-.11.05-.21.12-.29.21a.825.825 0 0 0-.22.65 15.21 15.21 0 0 0 2.348 6.62 14.915 14.915 0 0 0 4.595 4.59 15.122 15.122 0 0 0 6.612 2.35c.11.01.23 0 .34-.04a.865.865 0 0 0 .52-.47.858.858 0 0 0 .069-.35v-2.43a.9.9 0 0 0-.2-.57.83.83 0 0 0-.53-.29c-.819-.11-1.628-.31-2.417-.6a.905.905 0 0 0-.49-.04.76.76 0 0 0-.419.23l-1.018 1.02c-.24.24-.61.29-.9.12a13.589 13.589 0 0 1-5.103-5.1.743.743 0 0 1 .12-.9L9.304 8.8a.91.91 0 0 0 .23-.42c.03-.16.02-.33-.04-.48-.29-.78-.5-1.6-.6-2.42a.828.828 0 0 0-.29-.52.88.88 0 0 0-.559-.21h-.01Z"/>
</svg>
