<svg xmlns="http://www.w3.org/2000/svg" viewBox="0 0 24 24"><path d="M12.803 6.265a1.5 1.5 0 1 1 .777 2.897 1.5 1.5 0 0 1-.777-2.897"/><path fill-rule="evenodd" d="M13.281 2.254a3.75 3.75 0 0 1 4.593 2.651l2.588 9.66a3.75 3.75 0 0 1-2.651 4.592l-9.66 2.59a3.75 3.75 0 0 1-4.592-2.653L.97 9.434a3.75 3.75 0 0 1 2.651-4.592zM7.817 12.915c-.958-.021-2.202.308-3.966 1.476l1.157 4.315a2.25 2.25 0 0 0 2.755 1.591l9.66-2.588a2.25 2.25 0 0 0 1.59-2.756l-.26-.975c-1.778.988-3.223 1.32-4.502 1.23-1.459-.102-2.59-.75-3.556-1.283-.998-.55-1.832-.986-2.878-1.01m8.608-7.62a2.25 2.25 0 0 0-2.756-1.592L4.01 6.291a2.25 2.25 0 0 0-1.59 2.756l1.024 3.822c1.728-1.07 3.143-1.481 4.406-1.453 1.46.033 2.592.656 3.568 1.195 1.008.555 1.859 1.026 2.938 1.101.974.068 2.228-.188 3.995-1.232z" clip-rule="evenodd"/><path d="M20 2.25A2.75 2.75 0 0 1 22.75 5v8a.75.75 0 0 1-1.5 0V5c0-.69-.56-1.25-1.25-1.25h-1a.75.75 0 0 1 0-1.5z"/></svg>