<svg viewBox="0 0 24 24" xmlns="http://www.w3.org/2000/svg"><path fill-rule="evenodd" clip-rule="evenodd" d="M4.032 12.72c-.854.808-1.527 1.615-1.928 2.368-.397.747-.629 1.65-.157 2.423l.002.003c.419.68 1.2.946 1.962 1.027.79.083 1.747-.01 2.792-.23L7 18.243a8 8 0 0 0 12.969-6.967c.147-.14.287-.278.422-.415.727-.744 1.298-1.488 1.622-2.187.317-.683.467-1.489.04-2.187l-.002-.004c-.464-.748-1.367-1-2.233-1.048-.803-.044-1.765.074-2.817.319A8 8 0 0 0 4.032 12.72ZM5.5 12a6.5 6.5 0 0 1 10.637-5.013.75.75 0 0 0 .312.274 6.49 6.49 0 0 1 1.921 3.44c-1.293 1.122-3.02 2.315-5.03 3.408-2.125 1.155-4.195 2-5.939 2.485A6.48 6.48 0 0 1 5.5 12Zm.227 4.966a7.98 7.98 0 0 1-1.333-2.479c-.44.483-.762.924-.965 1.305-.32.602-.248.86-.202.936.053.085.248.258.842.32.434.047.992.022 1.658-.082Zm12.544-9.934a7.983 7.983 0 0 1 1.334 2.477c.51-.56.857-1.056 1.046-1.465.229-.492.164-.702.123-.771-.064-.1-.309-.299-1.04-.339a7.127 7.127 0 0 0-1.463.098Zm.206 5.524a6.5 6.5 0 0 1-9.59 5.151c1.609-.536 3.381-1.308 5.169-2.28 1.668-.907 3.171-1.892 4.42-2.871Z"/></svg>