<svg xmlns="http://www.w3.org/2000/svg" viewBox="0 0 24 24"><path fill-rule="evenodd" d="M4 12a8 8 0 0 1 13-6.245c1.052-.245 2.014-.363 2.817-.319.866.048 1.769.3 2.233 1.048l.003.004c.426.698.276 1.504-.04 2.187-.325.7-.896 1.443-1.623 2.187-1.463 1.496-3.691 3.128-6.334 4.565-2.644 1.437-5.254 2.438-7.353 2.883-1.045.222-2.003.314-2.792.23-.762-.08-1.543-.347-1.962-1.026l-.002-.003c-.472-.773-.24-1.676.157-2.423.4-.753 1.074-1.56 1.928-2.369A8 8 0 0 1 4 12m.394 2.488c-.44.482-.762.923-.965 1.304-.32.602-.248.86-.202.936.053.086.248.258.842.32.571.061 1.358 0 2.323-.205 1.923-.408 4.396-1.347 6.947-2.734s4.648-2.935 5.978-4.296c.669-.684 1.11-1.287 1.334-1.769.229-.492.164-.702.123-.771-.064-.1-.309-.299-1.04-.339a7 7 0 0 0-1.463.098q.433.545.767 1.161c-2.266 2.33-4.112 3.744-6.109 4.795-2.128 1.12-4.514 1.878-7.968 2.817a8 8 0 0 1-.567-1.317" clip-rule="evenodd"/><path d="M14.793 16.528c1.8-.947 3.444-2.112 5.16-3.658a8 8 0 0 1-11.742 6.177c2.49-.728 4.604-1.478 6.582-2.52Z"/></svg>