<svg xmlns="http://www.w3.org/2000/svg" fill="none" viewBox="0 0 24 24"><path d="M11 17.25a.75.75 0 0 0 0 1.5h2a.75.75 0 0 0 0-1.5z"/><path d="M8 2.25A2.75 2.75 0 0 0 5.25 5v14A2.75 2.75 0 0 0 8 21.75h8A2.75 2.75 0 0 0 18.75 19V5A2.75 2.75 0 0 0 16 2.25zM6.75 5c0-.69.56-1.25 1.25-1.25h8c.69 0 1.25.56 1.25 1.25v14c0 .69-.56 1.25-1.25 1.25H8c-.69 0-1.25-.56-1.25-1.25z" clip-rule="evenodd"/><path d="M4.329 8.965a8.25 8.25 0 0 0 .1 6.313l-1.376.596a9.75 9.75 0 0 1-.119-7.461zm15.284-.145a8.25 8.25 0 0 1 .018 6.315l1.388.57a9.75 9.75 0 0 0-.022-7.463l-1.384.579Z"/></svg>