<svg xmlns="http://www.w3.org/2000/svg" viewBox="0 0 24 24"><path fill-rule="evenodd" d="M14.48 4.47a2.88 2.88 0 1 1 4.08 4.08l-.23.23 1.78 1.78a1.75 1.75 0 0 1 0 2.47l-1.78 1.78.23.22a2.88 2.88 0 1 1-4.08 4.08l-.23-.22-1.78 1.78a1.75 1.75 0 0 1-2.47 0l-7.64-7.64a1.75 1.75 0 0 1 0-2.47l2.31-2.31a.75.75 0 0 1 1.06 0L6.5 9a1.38 1.38 0 1 0 1.95-1.96L7.7 6.3a.75.75 0 0 1 0-1.06L10 2.92a1.75 1.75 0 0 1 2.48 0l1.77 1.78.23-.23Zm3.01 1.07a1.38 1.38 0 0 0-1.95 0l-.75.75a.75.75 0 0 1-1.07 0l-2.3-2.31a.25.25 0 0 0-.36 0L9.28 5.76l.23.22a2.88 2.88 0 0 1-4.08 4.08l-.23-.22-1.78 1.78a.25.25 0 0 0 0 .35l7.64 7.64a.25.25 0 0 0 .35 0l2.31-2.31a.75.75 0 0 1 1.06 0l.76.75a1.38 1.38 0 0 0 1.96-1.96l-.76-.75a.75.75 0 0 1 0-1.06l2.31-2.3a.25.25 0 0 0 0-.36l-2.3-2.31a.75.75 0 0 1 0-1.06l.74-.76c.55-.54.55-1.41 0-1.95Z" clip-rule="evenodd"/></svg>