<svg xmlns="http://www.w3.org/2000/svg" viewBox="0 0 24 24"><path fill-rule="evenodd" d="M12 2.25c5.385 0 9.75 4.365 9.75 9.75s-4.365 9.75-9.75 9.75S2.25 17.385 2.25 12 6.615 2.25 12 2.25M12 15a1 1 0 1 0 0 2 1 1 0 0 0 0-2m.696-8.172a3.05 3.05 0 0 0-2.186.318c-.706.397-1.296 1.08-1.701 2.04l.691.292.691.29c.302-.713.69-1.111 1.054-1.316a1.55 1.55 0 0 1 1.118-.162 1.796 1.796 0 0 1 1.387 1.745c0 .402-.183.75-.543 1.071-.371.332-.895.597-1.45.788l-.507.173V14h1.5v-.883c.509-.217 1.025-.508 1.455-.891.586-.523 1.045-1.25 1.045-2.19 0-1.63-1.164-2.892-2.554-3.208" clip-rule="evenodd"/></svg>