<svg xmlns="http://www.w3.org/2000/svg" viewBox="0 0 24 24"><path fill-rule="evenodd" d="M12 3.75a8.25 8.25 0 1 0 0 16.5 8.25 8.25 0 0 0 0-16.5ZM2.25 12c0-5.385 4.365-9.75 9.75-9.75s9.75 4.365 9.75 9.75-4.365 9.75-9.75 9.75S2.25 17.385 2.25 12Zm8.995-3.547c-.364.204-.753.602-1.054 1.316l-1.382-.583c.405-.96.995-1.644 1.7-2.04a3.046 3.046 0 0 1 2.187-.318c1.39.316 2.554 1.577 2.554 3.208 0 .94-.46 1.668-1.045 2.19-.43.384-.946.675-1.455.892V14h-1.5v-1.933l.507-.174c.555-.19 1.078-.455 1.45-.787.36-.32.543-.668.543-1.07 0-.882-.63-1.574-1.386-1.746a1.546 1.546 0 0 0-1.119.163ZM12 17a1 1 0 1 0 0-2 1 1 0 0 0 0 2Z" clip-rule="evenodd"/></svg>