<svg xmlns="http://www.w3.org/2000/svg" viewBox="0 0 24 24">
  <path fill-rule="evenodd" d="M11.518 5.52a.108.108 0 0 0-.05.054c-.172.483-.278.889-.377 1.283l-.02.083c-.092.363-.186.739-.328 1.128-.298.82-.784 1.648-1.822 2.8v6.721h5.715c.79 0 1.489-.51 1.73-1.262l1.494-4.667a.96.96 0 0 0-.915-1.253H13.73a.75.75 0 0 1-.746-.67c-.228-2.14-.508-3.21-.78-3.749-.126-.252-.231-.346-.293-.388-.062-.042-.141-.073-.301-.099a.143.143 0 0 0-.092.02ZM7.421 17.59v-6.234l-.932.036H6.46a.96.96 0 0 0-.96.96v4.277c0 .53.43.96.96.96h.96Zm.408-7.75C8.76 8.8 9.12 8.142 9.334 7.555c.114-.313.19-.62.286-.998l.016-.066c.102-.404.222-.867.418-1.42a1.637 1.637 0 0 1 1.794-1.05c.262.042.586.12.907.339.322.218.578.535.79.954.36.715.636 1.834.853 3.593h2.547a2.46 2.46 0 0 1 2.343 3.21l-1.494 4.667a3.316 3.316 0 0 1-3.158 2.305H6.46A2.46 2.46 0 0 1 4 16.63v-4.276a2.46 2.46 0 0 1 2.445-2.46l1.384-.053Z" clip-rule="evenodd"/>
</svg>
