<svg xmlns="http://www.w3.org/2000/svg" viewBox="0 0 24 24">
  <path fill-rule="evenodd" d="M12.258 4.77a.1.1 0 0 0-.05.054 13 13 0 0 0-.377 1.283l-.02.083c-.092.363-.187.739-.328 1.128-.298.82-.784 1.648-1.822 2.8v6.721h5.715c.79 0 1.489-.51 1.73-1.262l1.493-4.667a.96.96 0 0 0-.914-1.253H14.47a.75.75 0 0 1-.746-.67c-.228-2.14-.508-3.21-.78-3.749-.126-.251-.232-.346-.293-.388-.062-.042-.142-.073-.302-.099a.14.14 0 0 0-.091.019ZM8.16 16.84v-6.234l-.932.036a.96.96 0 0 0-.989.96v4.277c0 .53.43.96.96.96h.96l.001.001Zm.407-7.75c.933-1.04 1.294-1.698 1.506-2.284.114-.314.191-.62.287-1l.016-.065c.102-.404.221-.867.418-1.42a1.64 1.64 0 0 1 1.794-1.05c.262.042.586.12.907.339.321.219.578.535.79.954.36.715.635 1.834.853 3.593h2.547a2.46 2.46 0 0 1 2.343 3.21l-1.494 4.668a3.321 3.321 0 0 1-3.158 2.304H7.2a2.46 2.46 0 0 1-2.46-2.46v-4.276a2.46 2.46 0 0 1 2.445-2.46l1.382-.053Z" clip-rule="evenodd"/>
</svg>
