<svg xmlns="http://www.w3.org/2000/svg" viewBox="0 0 24 24"><path d="M17.53 4.53a.75.75 0 0 0-1.06-1.06l-2 2a.75.75 0 0 0 0 1.06l2 2a.75.75 0 1 0 1.06-1.06l-.72-.72H18A2.25 2.25 0 0 1 20.25 9v.5a1.75 1.75 0 0 1-1.75 1.75v1.5a3.25 3.25 0 0 0 3.25-3.25V9A3.75 3.75 0 0 0 18 5.25h-1.19zM4 4.25A1.75 1.75 0 0 0 2.25 6v7c0 .966.784 1.75 1.75 1.75h1.293v-1.5H4a.25.25 0 0 1-.25-.25V6A.25.25 0 0 1 4 5.75h6a.25.25 0 0 1 .25.25v2.455h1.5V6A1.75 1.75 0 0 0 10 4.25z"/><path fill-rule="evenodd" d="M9 10.25A1.75 1.75 0 0 0 7.25 12v7c0 .966.784 1.75 1.75 1.75h6A1.75 1.75 0 0 0 16.75 19v-7A1.75 1.75 0 0 0 15 10.25zM8.75 12a.25.25 0 0 1 .25-.25h6a.25.25 0 0 1 .25.25v7a.25.25 0 0 1-.25.25H9a.25.25 0 0 1-.25-.25z" clip-rule="evenodd"/></svg>