<svg xmlns="http://www.w3.org/2000/svg" viewBox="0 0 24 24"><path d="M10 11.75H8v-1.5h2zm-2 3h2v-1.5H8zm2 3H8v-1.5h2zm1-6h5v-1.5h-5zm5 3h-5v-1.5h5zm-5 3h5v-1.5h-5z"/><path fill-rule="evenodd" d="M8 2.25a.75.75 0 0 0-.75.75v1.25H6A1.75 1.75 0 0 0 4.25 6v14c0 .966.784 1.75 1.75 1.75h12A1.75 1.75 0 0 0 19.75 20V6A1.75 1.75 0 0 0 18 4.25h-1.25V3a.75.75 0 0 0-.75-.75zm8.75 3.5V7a.75.75 0 0 1-.75.75H8A.75.75 0 0 1 7.25 7V5.75H6a.25.25 0 0 0-.25.25v14c0 .138.112.25.25.25h12a.25.25 0 0 0 .25-.25V6a.25.25 0 0 0-.25-.25zm-8 .5v-2.5h6.5v2.5z" clip-rule="evenodd"/></svg>