<svg xmlns="http://www.w3.org/2000/svg" viewBox="0 0 24 24">
  <path d="M19.25 6a.25.25 0 0 0-.25-.25H5a.25.25 0 0 0-.25.25v4c0 .138.112.25.25.25h14a.25.25 0 0 0 .25-.25V6Zm1.5 4A1.75 1.75 0 0 1 19 11.75H5A1.75 1.75 0 0 1 3.25 10V6c0-.966.784-1.75 1.75-1.75h14c.966 0 1.75.784 1.75 1.75v4Zm-1.5 5a.25.25 0 0 0-.25-.25H5a.25.25 0 0 0-.25.25v4c0 .138.112.25.25.25h14a.25.25 0 0 0 .25-.25v-4Zm1.5 4A1.75 1.75 0 0 1 19 20.75H5A1.75 1.75 0 0 1 3.25 19v-4c0-.966.784-1.75 1.75-1.75h14c.966 0 1.75.784 1.75 1.75v4Z"/>
</svg>
