<svg xmlns="http://www.w3.org/2000/svg" fill="none" viewBox="0 0 40 40"><path fill="#fff" d="M0 0h40v40H0z"/><path fill="#394251" fill-rule="evenodd" d="M15 23.636h1.648l.54-1.658h2.625l.539 1.658h1.647l-2.507-7.272h-1.981zm4.423-2.858-.893-2.752h-.057l-.895 2.752z" clip-rule="evenodd"/><path fill="#394251" d="M24.412 23.636v-7.272h-1.537v7.272z"/><path fill="#394251" fill-rule="evenodd" d="M11 10.375A3.625 3.625 0 0 0 7.375 14v12A3.625 3.625 0 0 0 11 29.625h18A3.625 3.625 0 0 0 32.625 26V14A3.625 3.625 0 0 0 29 10.375zM8.625 14A2.375 2.375 0 0 1 11 11.625h18A2.375 2.375 0 0 1 31.375 14v12A2.375 2.375 0 0 1 29 28.375H11A2.375 2.375 0 0 1 8.625 26z" clip-rule="evenodd"/></svg>