<svg xmlns="http://www.w3.org/2000/svg" viewBox="0 0 24 24">
  <path d="M6.647 19V4.8h5.32c1.733 0 3.046.307 3.94.92.907.613 1.36 1.587 1.36 2.92 0 .6-.127 1.127-.38 1.58-.24.44-.6.787-1.08 1.04-.467.253-1.034.393-1.7.42l-.02-.04c1.213.04 2.146.373 2.8 1 .653.613.98 1.433.98 2.46 0 1.307-.454 2.287-1.36 2.94-.894.64-2.167.96-3.82.96h-6.04Zm2.6-2.2h3.32c.813 0 1.453-.167 1.92-.5.48-.333.72-.827.72-1.48s-.234-1.153-.7-1.5c-.467-.347-1.114-.52-1.94-.52h-3.32v4Zm0-6.04h2.64c.853 0 1.52-.16 2-.48.48-.32.72-.787.72-1.4 0-.64-.233-1.113-.7-1.42-.467-.307-1.14-.46-2.02-.46h-2.64v3.76Z"/>
</svg>
