<svg xmlns="http://www.w3.org/2000/svg" viewBox="0 0 24 24"><path d="M19.25 10.223V7A2.25 2.25 0 0 0 17 4.75H7A2.25 2.25 0 0 0 4.75 7v10A2.25 2.25 0 0 0 7 19.25h2.223a.75.75 0 0 1 0 1.5H7A3.75 3.75 0 0 1 3.25 17V7A3.75 3.75 0 0 1 7 3.25h10A3.75 3.75 0 0 1 20.75 7v3.223a.75.75 0 0 1-1.5 0"/><path d="M14.844 20.11a.75.75 0 0 0 .872-1.22l-2.361-1.687a.25.25 0 0 1 0-.406l2.36-1.687a.75.75 0 0 0-.871-1.22l-2.362 1.686a1.75 1.75 0 0 0 0 2.848zm3.325-.174a.75.75 0 0 0 1.047.174l2.36-1.686a1.75 1.75 0 0 0 0-2.848l-2.36-1.686a.75.75 0 0 0-.872 1.22l2.36 1.687c.14.1.14.306 0 .406l-2.36 1.687a.75.75 0 0 0-.175 1.046M15.5 7.25a.75.75 0 0 1 0 1.5H8a.75.75 0 0 1 0-1.5zm-3.5 4a.75.75 0 0 1 0 1.5H8a.75.75 0 0 1 0-1.5z"/></svg>