<svg xmlns="http://www.w3.org/2000/svg" fill="none" viewBox="0 0 40 40"><path fill="#fff" d="M0 0h40v40H0z"/><path fill="#D7DBE0" fill-rule="evenodd" d="M34 6.75H6v-1.5h28zm0 24H6v-1.5h28zm0-20H6v-1.5h28zm-7 24H6v-1.5h21z" clip-rule="evenodd"/><path fill="#394251" fill-rule="evenodd" d="M6 16c0-.898.728-1.625 1.625-1.625h9c.898 0 1.625.727 1.625 1.625v8c0 .898-.727 1.625-1.625 1.625h-9A1.625 1.625 0 0 1 6 24zm1.625-.375A.375.375 0 0 0 7.25 16v8c0 .207.168.375.375.375h9A.375.375 0 0 0 17 24v-8a.375.375 0 0 0-.375-.375zM22 16c0-.898.727-1.625 1.625-1.625h9c.898 0 1.625.727 1.625 1.625v8c0 .898-.727 1.625-1.625 1.625h-9A1.625 1.625 0 0 1 22 24zm1.625-.375a.375.375 0 0 0-.375.375v8c0 .207.168.375.375.375h9A.375.375 0 0 0 33 24v-8a.375.375 0 0 0-.375-.375z" clip-rule="evenodd"/></svg>