<svg xmlns="http://www.w3.org/2000/svg" viewBox="0 0 24 24"><path d="M20 17.25a.75.75 0 0 1 0 1.5h-3a.75.75 0 0 1 0-1.5zm0-3a.75.75 0 0 1 0 1.5h-4a.75.75 0 0 1 0-1.5zm0-3a.75.75 0 0 1 0 1.5h-4a.75.75 0 0 1 0-1.5z"/><path fill-rule="evenodd" d="M14.886 2.856a.75.75 0 0 0-1.03.258l-4.3 7.168A5 5 0 0 0 9 10.25h-.188c-.603 0-1.253.084-1.87.352-2.082.905-3.214 2.33-3.698 4.062-.468 1.677-.312 3.584.017 5.465A.75.75 0 0 0 4 20.75h10a.75.75 0 0 0 .597-1.205c-1.257-1.649-1.451-3.13-1.35-4.525.135-1.854-.721-3.503-2.212-4.287l4.109-6.847a.75.75 0 0 0-.258-1.03M6.63 19.25H4.638c-.237-1.58-.28-2.995.051-4.183.36-1.286 1.173-2.36 2.851-3.09.37-.16.8-.227 1.272-.227H9c1.721 0 2.884 1.337 2.751 3.16-.097 1.335.042 2.79.874 4.34h-1.256c-.766-1.029-1.015-1.801-1.058-2.37-.048-.615.135-1.095.36-1.545l-1.342-.67c-.275.55-.592 1.32-.514 2.33.052.684.281 1.43.757 2.255H8.385c-1.156-1.678-1.032-2.78-.714-3.415l-1.342-.67c-.536 1.073-.56 2.458.302 4.085Z" clip-rule="evenodd"/></svg>