<svg xmlns="http://www.w3.org/2000/svg" viewBox="0 0 24 24">
  <path fill-rule="evenodd" d="M10.773 5.46a.738.738 0 0 1 .68-.46h.844c.298 0 .566.181.68.46l4.216 10.255a.751.751 0 0 1-.397.977.734.734 0 0 1-.964-.402l-3.957-9.624L7.92 16.29a.734.734 0 0 1-.965.402.751.751 0 0 1-.397-.977L10.773 5.46Z" clip-rule="evenodd"/>
  <path fill-rule="evenodd" d="M8.186 11.836h7.378v1.496H8.186v-1.496ZM3.75 19c0-.69.56-1.25 1.25-1.25h14a1.25 1.25 0 1 1 0 2.5H5c-.69 0-1.25-.56-1.25-1.25Z" clip-rule="evenodd"/>
</svg>
