<svg xmlns="http://www.w3.org/2000/svg" viewBox="0 0 24 24"><path fill-rule="evenodd" d="M13.856 3.114a.751.751 0 0 1 1.287.772l-4.109 6.847c1.491.784 2.348 2.432 2.213 4.286-.102 1.397.093 2.877 1.35 4.526A.751.751 0 0 1 14 20.75H4a.75.75 0 0 1-.74-.621c-.328-1.88-.484-3.788-.016-5.465.484-1.732 1.616-3.157 3.698-4.063.617-.268 1.267-.351 1.87-.351H9q.285 0 .555.033zM8.811 11.75c-.472 0-.902.067-1.271.227-1.678.73-2.492 1.804-2.85 3.09-.332 1.188-.29 2.602-.052 4.183h1.994c-.862-1.628-.84-3.012-.303-4.085l1.342.67c-.318.634-.441 1.736.716 3.415h1.186c-.476-.826-.706-1.571-.759-2.255-.077-1.01.24-1.78.515-2.33l1.342.67c-.225.45-.408.93-.36 1.545.043.57.295 1.34 1.062 2.37h1.252c-.832-1.55-.971-3.005-.874-4.34.132-1.823-1.03-3.16-2.751-3.16z" clip-rule="evenodd"/><path d="M20 17.25a.75.75 0 0 1 0 1.5h-3a.75.75 0 0 1 0-1.5zm0-3a.75.75 0 0 1 0 1.5h-4a.75.75 0 0 1 0-1.5zm0-3a.75.75 0 0 1 0 1.5h-4a.75.75 0 0 1 0-1.5z"/></svg>