<svg xmlns="http://www.w3.org/2000/svg" fill="none" viewBox="0 0 40 40"><path fill="#fff" d="M0 0h40v40H0z"/><path fill="#394251" d="M10.963 20.96h5.86l.02 1.26h-5.96l.08-1.26Zm2.58-7.26.44.74-3.76 11.12c0 .067.08.133.24.2.16.053.353.093.58.12.24.027.48.04.72.04h.28V27h-4.5v-1.08h.1c.346 0 .62-.053.82-.16.2-.107.36-.34.48-.7l4.16-12.26h2.64l4.3 12.56c.093.24.24.393.44.46.213.067.473.1.78.1h.1V27h-5.66v-1.08h.34c.227 0 .46-.007.7-.02.253-.013.46-.033.62-.06.16-.04.24-.08.24-.12l-4.06-12.02Zm15.521 7.14v1.08c-.6.067-1.133.153-1.6.26a6.342 6.342 0 0 0-1.22.36 3.192 3.192 0 0 0-.82.5c-.213.173-.373.38-.48.62a1.9 1.9 0 0 0-.16.78c0 .32.06.593.18.82.134.213.32.387.56.52.24.12.52.18.84.18.414 0 .78-.1 1.1-.3.334-.213.627-.507.88-.88.267-.387.494-.84.68-1.36v1.44c-.2.48-.46.9-.78 1.26-.32.347-.7.613-1.14.8-.44.187-.94.28-1.5.28-.613 0-1.16-.107-1.64-.32a2.69 2.69 0 0 1-1.14-.92c-.28-.413-.42-.9-.42-1.46 0-.547.14-1.02.42-1.42.28-.413.7-.76 1.26-1.04.56-.293 1.254-.533 2.08-.72.84-.2 1.807-.36 2.9-.48Zm-.3 6.16v-2.08l-.22-.04v-5c0-.493-.066-.887-.2-1.18a1.187 1.187 0 0 0-.6-.62c-.266-.12-.6-.18-1-.18-.586 0-1.073.127-1.46.38a2.92 2.92 0 0 0-.92.88 1 1 0 0 1-.06-.42 1.07 1.07 0 0 1 .14-.36c.08-.12.18-.22.3-.3.12-.08.26-.14.42-.18v2.06h-2.12v-2.1c.2-.16.48-.333.84-.52.36-.2.8-.367 1.32-.5a6.489 6.489 0 0 1 1.76-.22c.534 0 1.034.06 1.5.18.48.107.9.293 1.26.56.374.253.66.593.86 1.02.214.413.32.927.32 1.54v5.36c0 .16.06.293.18.4.134.093.307.16.52.2.214.04.46.067.74.08h.04V27h-3.62Z"/></svg>