<svg xmlns="http://www.w3.org/2000/svg" viewBox="0 0 24 24"><path d="M8.376 19a1 1 0 0 1-1-1V6.91a1 1 0 0 1 1-1h4.011q1.42 0 2.36.446.944.442 1.412 1.209.473.766.473 1.738 0 .8-.307 1.368a2.6 2.6 0 0 1-.825.914c-.345.235-.73.465-1.156.567.464.026.91.234 1.335.494q.645.384 1.055 1.087t.41 1.7q0 1.017-.493 1.828-.492.805-1.483 1.272-.99.467-2.493.467zm1.372-1.982h2.55q1.29 0 1.86-.492.575-.498.575-1.278a1.96 1.96 0 0 0-1.105-1.79q-.531-.275-1.266-.275H9.748zm0-5.542h2.346q.613 0 1.105-.223.492-.23.774-.646a1.73 1.73 0 0 0 .287-.997q0-.76-.537-1.253-.53-.492-1.578-.492H9.748z"/></svg>