<svg xmlns="http://www.w3.org/2000/svg" fill="none" viewBox="0 0 40 40"><path fill="#fff" d="M0 0h40v40H0z"/><path fill="#394251" d="M10.963 20.96h5.86l.02 1.26h-5.96zm2.58-7.26.44.74-3.76 11.12q0 .1.24.2.24.08.58.12.36.04.72.04h.28V27h-4.5v-1.08h.1q.52 0 .82-.16t.48-.7l4.16-12.26h2.64l4.3 12.56q.14.36.44.46.32.1.78.1h.1V27h-5.66v-1.08h.34q.34 0 .7-.02.38-.02.62-.06.24-.06.24-.12zm15.521 7.14v1.08q-.9.1-1.6.26a6.3 6.3 0 0 0-1.22.36 3.2 3.2 0 0 0-.82.5q-.32.26-.48.62a1.9 1.9 0 0 0-.16.78q0 .48.18.82.2.32.56.52.36.18.84.18.62 0 1.1-.3.5-.32.88-.88.4-.58.68-1.36v1.44q-.3.72-.78 1.26-.48.52-1.14.8t-1.5.28q-.92 0-1.64-.32a2.7 2.7 0 0 1-1.14-.92q-.42-.62-.42-1.46 0-.82.42-1.42.42-.62 1.26-1.04.84-.44 2.08-.72 1.26-.3 2.9-.48m-.3 6.16v-2.08l-.22-.04v-5q0-.74-.2-1.18a1.2 1.2 0 0 0-.6-.62q-.4-.18-1-.18-.88 0-1.46.38a2.9 2.9 0 0 0-.92.88 1 1 0 0 1-.06-.42 1.1 1.1 0 0 1 .14-.36q.12-.18.3-.3t.42-.18v2.06h-2.12v-2.1q.3-.24.84-.52.54-.3 1.32-.5a6.5 6.5 0 0 1 1.76-.22q.801 0 1.5.18.72.16 1.26.56.56.38.86 1.02.32.62.32 1.54v5.36q0 .24.18.4.2.14.52.2t.74.08h.04V27z"/></svg>