<svg xmlns="http://www.w3.org/2000/svg" viewBox="0 0 24 24">
  <path fill-rule="evenodd" d="M6.192 6.163A.875.875 0 0 1 7 5.625h1c.353 0 .672.212.808.538l5 12a.875.875 0 1 1-1.616.674l-1.442-3.462h-6.5l-1.442 3.462a.875.875 0 1 1-1.616-.674l5-12ZM4.98 13.625h5.042L7.5 7.575l-2.52 6.05Zm12.505-3.402a.75.75 0 0 1 .697-.473h.636a.75.75 0 0 1 .697.473l3.182 8a.75.75 0 1 1-1.394.554l-.806-2.027h-3.994l-.806 2.027a.75.75 0 1 1-1.394-.554l3.182-8ZM17.1 15.25h2.8l-1.4-3.52-1.4 3.52Z" clip-rule="evenodd"/>
</svg>
