<svg xmlns="http://www.w3.org/2000/svg" fill="none" viewBox="0 0 40 40"><path fill="#fff" d="M0 0h40v40H0z"/><path fill="#394251" d="m10.178 12.064 1.179-4.833h-.432q-.423 0-.675.054a.86.86 0 0 0-.387.153.6.6 0 0 0-.189.261L9.26 8.86h-.657l.558-2.25h5.796l-.558 2.25h-.657l.18-1.161q.027-.162-.063-.261-.081-.108-.324-.153a3 3 0 0 0-.648-.054h-.441l-1.17 4.833q-.045.198.153.261t.504.063h.18L11.96 13H9.035l.153-.612h.171q.306 0 .54-.063t.279-.261m8.37-.945q.081-.243.126-.477a4.6 4.6 0 0 0 .108-.981q0-.369-.126-.63a.8.8 0 0 0-.378-.396q-.252-.144-.693-.144-.306 0-.549.108a1.4 1.4 0 0 0-.414.297q-.18.18-.315.432a4 4 0 0 0-.243.531 5 5 0 0 0-.234 1.449q0 .378.117.639a.85.85 0 0 0 .387.396q.261.135.693.135.306 0 .54-.099a1.4 1.4 0 0 0 .423-.288q.18-.189.315-.441t.243-.531m-3.78.009a3.96 3.96 0 0 1 .46-1.854 2.9 2.9 0 0 1 .575-.738q.351-.315.81-.495.468-.189 1.044-.189.675 0 1.17.243t.756.693q.261.441.261 1.062 0 .486-.117.963a3.5 3.5 0 0 1-.35.891q-.226.414-.577.738-.342.315-.8.495-.46.18-1.045.18-.675 0-1.17-.243a1.8 1.8 0 0 1-.756-.684q-.26-.45-.26-1.062Zm10.62 1.296q.351 0 .63-.18.288-.189.495-.486a2.9 2.9 0 0 0 .35-.675q.145-.378.217-.774a4 4 0 0 0 .072-.738q0-.324-.072-.549a.6.6 0 0 0-.234-.351q-.172-.126-.495-.126-.369 0-.666.162a2.3 2.3 0 0 0-.594.495q-.288.333-.648.837l-.072-.288q.324-.567.684-.99t.765-.666q.414-.243.882-.243.549 0 .882.225t.486.621q.162.396.162.909a4.2 4.2 0 0 1-.117.954 4.2 4.2 0 0 1-.333.945q-.226.45-.567.819-.342.36-.81.576a2.4 2.4 0 0 1-1.035.216q-.55 0-1-.144a3.1 3.1 0 0 1-.773-.387 3 3 0 0 1-.54-.486l1.233-5.13q.018-.081-.072-.144a.8.8 0 0 0-.243-.117 2 2 0 0 0-.378-.099l-.081-.018.144-.576h1.899l-1.503 6.273a2 2 0 0 1-.063-.162 2 2 0 0 1-.027-.18 1 1 0 0 1 0-.18l.018-.189q.09.189.26.387.172.198.45.333.28.126.694.126m5.778.693q-.666 0-1.152-.243a1.75 1.75 0 0 1-.738-.693q-.252-.459-.252-1.08 0-.666.198-1.251.207-.585.585-1.035t.9-.702a2.6 2.6 0 0 1 1.179-.261q.585 0 .954.18a1.21 1.21 0 0 1 .747 1.116q0 .459-.243.801t-.72.576q-.469.225-1.161.351a11 11 0 0 1-1.62.135l.036-.522a9 9 0 0 0 1.287-.108 3.4 3.4 0 0 0 .855-.243q.324-.162.468-.396.144-.243.144-.558a.7.7 0 0 0-.1-.387.53.53 0 0 0-.278-.225 1.2 1.2 0 0 0-.468-.081q-.414 0-.747.216-.325.207-.55.576-.215.36-.332.828a4.4 4.4 0 0 0-.108.99q0 .486.144.783a.9.9 0 0 0 .423.432q.279.135.684.135.369 0 .648-.126.278-.126.495-.333.225-.216.387-.45l.495.351a2.8 2.8 0 0 1-.567.657q-.315.27-.711.423a2.6 2.6 0 0 1-.882.144m-18.99 8.002q.081-.243.126-.477a4.6 4.6 0 0 0 .108-.981q0-.369-.126-.63a.8.8 0 0 0-.378-.396q-.252-.144-.693-.144-.306 0-.549.108a1.4 1.4 0 0 0-.414.297q-.18.18-.315.432-.135.243-.243.531a5 5 0 0 0-.234 1.449q0 .378.117.639a.85.85 0 0 0 .387.396q.261.135.693.135.306 0 .54-.099a1.4 1.4 0 0 0 .423-.288q.18-.189.315-.441t.243-.531m-3.78.009a3.96 3.96 0 0 1 .459-1.854 2.9 2.9 0 0 1 .576-.738q.351-.315.81-.495.468-.189 1.044-.189.675 0 1.17.243t.756.693q.261.441.261 1.062 0 .486-.117.963a3.5 3.5 0 0 1-.351.891q-.225.414-.576.738-.342.315-.801.495t-1.044.18q-.675 0-1.17-.243a1.8 1.8 0 0 1-.756-.684q-.261-.45-.261-1.062M14.276 23l1-4.095q.017-.081-.073-.144a1 1 0 0 0-.252-.117 2.5 2.5 0 0 0-.369-.108l-.08-.018.134-.567h1.593l-.126 1.521.045.063L15.311 23zm4.14-5.103-.198 1.107-.306-.036a3 3 0 0 0-.333-.018q-.234 0-.45.063a1.6 1.6 0 0 0-.405.171q-.197.117-.387.306-.189.18-.396.45l-.117-.18q.306-.486.567-.846t.504-.594q.243-.243.495-.36.261-.117.576-.117.171 0 .297.018a.5.5 0 0 1 .153.036M21.175 23l1-4.095q.017-.081-.073-.144a1 1 0 0 0-.252-.117 2.5 2.5 0 0 0-.369-.108l-.08-.018.134-.567h1.593l-.125 1.485.044.09L22.21 23zm4.627-2.178q-.118.459-.198.747-.073.279-.108.432a1.3 1.3 0 0 0-.027.207q0 .072.035.108.045.036.136.036h.27a4 4 0 0 1 .26-.009q.135 0 .261-.009l-.117.648-.36.018h-.369q-.18.009-.36.009-.252 0-.44-.072a.6.6 0 0 1-.28-.207.55.55 0 0 1-.098-.333q0-.126.026-.288.036-.162.108-.459.082-.297.216-.801l.333-1.26q.065-.225.09-.36.027-.144.027-.261a.36.36 0 0 0-.108-.279q-.1-.108-.35-.108-.297 0-.604.18a3.1 3.1 0 0 0-.63.504 12 12 0 0 0-.71.783l-.037-.396a8.5 8.5 0 0 1 .765-.936q.387-.405.82-.63.44-.234.953-.234.495 0 .738.225a.73.73 0 0 1 .244.576q0 .207-.046.441a5 5 0 0 1-.117.477zm5.368.297q.08-.243.125-.477a4.6 4.6 0 0 0 .108-.981q0-.369-.126-.63a.8.8 0 0 0-.378-.396q-.252-.144-.693-.144-.306 0-.549.108a1.4 1.4 0 0 0-.414.297q-.18.18-.315.432a4 4 0 0 0-.243.531 5 5 0 0 0-.234 1.449q0 .378.117.639a.85.85 0 0 0 .387.396q.261.135.693.135.306 0 .54-.099a1.4 1.4 0 0 0 .423-.288q.18-.189.315-.441t.243-.531Zm-3.78.009a3.96 3.96 0 0 1 .458-1.854 2.9 2.9 0 0 1 .576-.738q.351-.315.81-.495.468-.189 1.044-.189.675 0 1.17.243t.756.693q.261.441.261 1.062 0 .486-.117.963a3.5 3.5 0 0 1-.35.891q-.226.414-.577.738-.342.315-.8.495-.46.18-1.045.18-.675 0-1.17-.243a1.8 1.8 0 0 1-.756-.684q-.26-.45-.26-1.062m7.41 1.881a2.1 2.1 0 0 1-.676-.09.73.73 0 0 1-.387-.279.96.96 0 0 1-.117-.495q0-.234.063-.531l.144-.612.702-2.925.72-.126h1.89l-.153.639h-3.59l.152-.594h.126a2.6 2.6 0 0 0 .522-.045.7.7 0 0 0 .36-.189q.153-.153.225-.45l.207-.837h.954l-1.179 4.932a3 3 0 0 1-.045.207 1.7 1.7 0 0 0-.045.378q0 .18.1.243a.5.5 0 0 0 .278.063h.756q.226-.009.387-.009l-.162.702q-.243.009-.558.009-.315.009-.675.009Zm-24.865 10a2.1 2.1 0 0 1-.675-.09.73.73 0 0 1-.387-.279.96.96 0 0 1-.117-.495q0-.234.063-.531l.144-.612.702-2.925.72-.126h1.89l-.153.639H8.531l.153-.594h.126a2.6 2.6 0 0 0 .522-.045.7.7 0 0 0 .36-.189q.153-.153.225-.45l.207-.837h.954l-1.179 4.932a3 3 0 0 1-.045.207 1.7 1.7 0 0 0-.045.378q0 .18.099.243a.5.5 0 0 0 .279.063h.756q.225-.009.387-.009l-.162.702q-.243.009-.558.009-.315.009-.675.009m6.301-1.89q.081-.243.127-.477a4.6 4.6 0 0 0 .108-.981q0-.369-.127-.63a.8.8 0 0 0-.378-.396q-.25-.144-.692-.144-.306 0-.55.108a1.4 1.4 0 0 0-.414.297q-.18.18-.315.432-.134.243-.242.531a5 5 0 0 0-.235 1.449q0 .378.117.639a.85.85 0 0 0 .388.396q.261.135.693.135.306 0 .54-.099a1.4 1.4 0 0 0 .422-.288q.18-.189.315-.441t.243-.531m-3.78.009a3.96 3.96 0 0 1 .46-1.854 2.9 2.9 0 0 1 .575-.738q.353-.315.81-.495.469-.189 1.044-.189.675 0 1.17.243t.756.693q.261.441.261 1.062 0 .486-.116.963a3.5 3.5 0 0 1-.352.891 2.8 2.8 0 0 1-.576.738 2.5 2.5 0 0 1-.8.495q-.46.18-1.045.18-.675 0-1.17-.243a1.8 1.8 0 0 1-.756-.684q-.26-.45-.26-1.062Zm10.62 1.296q.351 0 .63-.18.288-.189.495-.486a2.9 2.9 0 0 0 .351-.675q.144-.378.216-.774a4 4 0 0 0 .072-.738q0-.324-.072-.549a.6.6 0 0 0-.234-.351q-.171-.126-.495-.126-.369 0-.666.162a2.3 2.3 0 0 0-.594.495q-.288.333-.648.837l-.072-.288q.324-.567.684-.99t.765-.666q.414-.243.882-.243.549 0 .882.225t.486.621q.162.396.162.909 0 .459-.117.954a4.2 4.2 0 0 1-.333.945q-.225.45-.567.819-.342.36-.81.576a2.4 2.4 0 0 1-1.035.216q-.549 0-.999-.144a3.1 3.1 0 0 1-.774-.387 3 3 0 0 1-.54-.486l1.233-5.13q.018-.081-.072-.144a.8.8 0 0 0-.243-.117 2 2 0 0 0-.378-.099l-.08-.018.143-.576h1.9l-1.504 6.273a2 2 0 0 1-.063-.162 2 2 0 0 1-.027-.18 1 1 0 0 1 0-.18l.018-.189q.09.189.261.387t.45.333q.279.126.693.126m5.778.693q-.666 0-1.152-.243a1.75 1.75 0 0 1-.738-.693q-.252-.459-.252-1.08 0-.666.198-1.251.207-.585.585-1.035t.9-.702a2.6 2.6 0 0 1 1.18-.261q.584 0 .953.18a1.21 1.21 0 0 1 .747 1.116q0 .459-.243.801t-.72.576q-.468.225-1.16.351a11 11 0 0 1-1.62.135l.035-.522a9 9 0 0 0 1.287-.108 3.4 3.4 0 0 0 .855-.243q.324-.162.468-.396.144-.243.144-.558a.7.7 0 0 0-.099-.387.53.53 0 0 0-.279-.225 1.2 1.2 0 0 0-.468-.081q-.414 0-.747.216-.324.207-.549.576-.216.36-.333.828a4.4 4.4 0 0 0-.108.99q0 .486.144.783a.9.9 0 0 0 .423.432q.279.135.684.135.369 0 .648-.126t.495-.333q.226-.216.387-.45l.495.351a2.8 2.8 0 0 1-.567.657q-.315.27-.71.423a2.6 2.6 0 0 1-.883.144"/><path fill="#D7DBE0" fill-rule="evenodd" d="M3.25 35.5v-31h1.5v31z" clip-rule="evenodd"/></svg>