<svg xmlns="http://www.w3.org/2000/svg" viewBox="0 0 24 24"><path d="M2.846 9.911V11H7.22V9.911H5.888V4.718h-2.07l-1.503 1.98.864.675 1.278-1.674h.081v4.212H2.846ZM2.477 19h4.518v-1.134H3.971l1.197-.927c.234-.18.453-.36.657-.54.21-.18.39-.366.54-.558.156-.192.276-.396.36-.612.09-.222.135-.465.135-.729 0-.27-.048-.519-.144-.747a1.642 1.642 0 0 0-.423-.603 2.012 2.012 0 0 0-.684-.396 2.73 2.73 0 0 0-.918-.144 2.7 2.7 0 0 0-.891.135 2.435 2.435 0 0 0-.684.342 1.938 1.938 0 0 0-.477.513 2.623 2.623 0 0 0-.297.612l1.179.45c.066-.24.18-.447.342-.621.162-.174.393-.261.693-.261.264 0 .474.069.63.207.156.132.234.33.234.594v.09c0 .24-.075.468-.225.684-.15.216-.396.471-.738.765l-1.98 1.647V19ZM9.25 7a.75.75 0 0 1 .75-.75h10a.75.75 0 0 1 0 1.5H10A.75.75 0 0 1 9.25 7Zm.75 4.25a.75.75 0 0 0 0 1.5h10a.75.75 0 0 0 0-1.5H10Zm0 5a.75.75 0 0 0 0 1.5h10a.75.75 0 0 0 0-1.5H10Z"/></svg>