<svg xmlns="http://www.w3.org/2000/svg" viewBox="0 0 24 24">
  <path d="M19.25 7A2.25 2.25 0 0 0 17 4.75H7A2.25 2.25 0 0 0 4.75 7v10A2.25 2.25 0 0 0 7 19.25h10A2.25 2.25 0 0 0 19.25 17V7Zm1.5 10A3.75 3.75 0 0 1 17 20.75H7A3.75 3.75 0 0 1 3.25 17V7A3.75 3.75 0 0 1 7 3.25h10A3.75 3.75 0 0 1 20.75 7v10Z"/>
  <path d="M9.844 15.11a.75.75 0 0 0 .872-1.22l-2.362-1.687a.25.25 0 0 1 0-.406l2.362-1.687a.75.75 0 0 0-.872-1.22l-2.362 1.686a1.75 1.75 0 0 0 0 2.848l2.362 1.686Zm3.325-.175a.75.75 0 0 0 1.047.175l2.36-1.686a1.75 1.75 0 0 0 0-2.848l-2.36-1.686a.75.75 0 0 0-.872 1.22l2.36 1.687c.14.1.14.306 0 .406l-2.36 1.687a.75.75 0 0 0-.175 1.045Z"/>
</svg>
