<svg xmlns="http://www.w3.org/2000/svg" viewBox="0 0 24 24">
  <path d="M11.38 10.38a.876.876 0 0 1 1.24 1.24L9.237 15l3.381 3.38a.876.876 0 0 1-1.238 1.24L8 16.237 4.618 19.62a.876.876 0 0 1-1.238-1.238L6.76 15l-3.38-3.38a.876.876 0 0 1 1.238-1.24L8 13.763l3.38-3.381Zm3.175 2.16c0-.667.053-1.227.16-1.68.107-.453.307-.847.6-1.18.293-.333.733-.647 1.32-.94l.98-.5a4.69 4.69 0 0 0 .54-.36.885.885 0 0 0 .28-.36c.053-.147.08-.32.08-.52 0-.293-.093-.527-.28-.7-.187-.173-.447-.26-.78-.26-.387 0-.687.1-.9.3-.213.187-.353.5-.42.94l-1.6-.08c.08-.813.367-1.44.86-1.88.507-.453 1.193-.68 2.06-.68.893 0 1.567.22 2.02.66.453.427.68.98.68 1.66 0 .627-.16 1.127-.48 1.5-.32.36-.773.687-1.36.98l-.88.44c-.373.2-.633.4-.78.6-.147.187-.22.373-.22.56h3.74v1.5h-5.62Z"/>
</svg>
