<svg xmlns="http://www.w3.org/2000/svg" viewBox="0 0 24 24"><path d="M2.846 9.911V11H7.22V9.911H5.888V4.718h-2.07l-1.503 1.98.864.675 1.278-1.674h.081v4.212zM2.477 19h4.518v-1.134H3.971l1.197-.927q.351-.27.657-.54.315-.27.54-.558.234-.288.36-.612.135-.333.135-.729 0-.405-.144-.747a1.64 1.64 0 0 0-.423-.603 2 2 0 0 0-.684-.396 2.7 2.7 0 0 0-.918-.144 2.7 2.7 0 0 0-.891.135 2.4 2.4 0 0 0-.684.342 1.9 1.9 0 0 0-.477.513 2.6 2.6 0 0 0-.297.612l1.179.45q.099-.36.342-.621t.693-.261q.396 0 .63.207.234.198.234.594v.09q0 .36-.225.684t-.738.765l-1.98 1.647zM9.25 7a.75.75 0 0 1 .75-.75h10a.75.75 0 0 1 0 1.5H10A.75.75 0 0 1 9.25 7m.75 4.25a.75.75 0 0 0 0 1.5h10a.75.75 0 0 0 0-1.5zm0 5a.75.75 0 0 0 0 1.5h10a.75.75 0 0 0 0-1.5z"/></svg>