<svg xmlns="http://www.w3.org/2000/svg" viewBox="0 0 24 24">
  <path d="M11.207 12.791v-2.137c0-.918-.74-1.662-1.707-1.662-.966 0-1.75.744-1.75 1.662 0 .918.784 1.662 1.75 1.662.07 0 .14-.004.207-.011v.486a1.25 1.25 0 0 1-1.099 1.241l-.104.013a.75.75 0 0 0 .181 1.489l.104-.013a2.75 2.75 0 0 0 2.418-2.73Zm5 0v-2.137c0-.918-.74-1.662-1.707-1.662-.966 0-1.75.744-1.75 1.662 0 .918.784 1.662 1.75 1.662.07 0 .14-.004.207-.011v.486a1.25 1.25 0 0 1-1.099 1.241l-.104.013a.75.75 0 1 0 .181 1.489l.104-.013a2.75 2.75 0 0 0 2.418-2.73Z"/>
  <path fill-rule="evenodd" d="M7 3.25A3.75 3.75 0 0 0 3.25 7v10A3.75 3.75 0 0 0 7 20.75h10A3.75 3.75 0 0 0 20.75 17V7A3.75 3.75 0 0 0 17 3.25H7ZM4.75 7A2.25 2.25 0 0 1 7 4.75h10A2.25 2.25 0 0 1 19.25 7v10A2.25 2.25 0 0 1 17 19.25H7A2.25 2.25 0 0 1 4.75 17V7Z" clip-rule="evenodd"/>
</svg>
