<svg xmlns="http://www.w3.org/2000/svg" fill="none" viewBox="0 0 40 40"><path fill="#fff" d="M0 0h40v40H0z"/><path fill="#394251" d="M9.105 12.015h6.36v.99h-6.36zM6.705 18v-.9h.15q.51 0 .84-.105t.33-.435V8.79q0-.33-.33-.435t-.84-.105h-.15v-.9h4.485v.9h-.135q-.18 0-.39.015-.21 0-.39.03a1.6 1.6 0 0 0-.285.045q-.105.015-.105.06v8.55q0 .045.105.075.105.015.285.045l.39.03h.525v.9zm6.81 0v-.9h.525l.39-.03q.18-.03.285-.045.105-.03.105-.075V8.4q0-.045-.105-.06a1.6 1.6 0 0 0-.285-.045q-.18-.03-.39-.03-.21-.015-.39-.015h-.135v-.9H18v.9h-.15q-.51 0-.84.105t-.33.435v7.77q0 .33.33.435t.84.105H18v.9zm11.275-1.425q0 .225.21.345t.585.18q.39.045.9.045h.54V18H20.68v-.855h.735q.48 0 .84-.045.36-.06.555-.18a.38.38 0 0 0 .195-.345v-6.96l.24-.165q-.105.375-.375.645-.255.27-.63.45c-.375.18-.535.21-.855.27q-.465.075-.99.075V9.72q.57-.015 1.05-.09t.855-.225q.39-.15.675-.375t.48-.54h1.335z"/><path fill="#D7DBE0" fill-rule="evenodd" d="M33 25.25H6.5v-1.5H33zm-8 4H6.5v-1.5H25zm-8 4H6.5v-1.5H17z" clip-rule="evenodd"/></svg>