<svg xmlns="http://www.w3.org/2000/svg" viewBox="0 0 24 24">
  <path fill-rule="evenodd" d="M3.25 7A3.75 3.75 0 0 1 7 3.25h10A3.75 3.75 0 0 1 20.75 7v10A3.75 3.75 0 0 1 17 20.75H7A3.75 3.75 0 0 1 3.25 17V7Zm7.957 3.652v2.137a2.75 2.75 0 0 1-2.418 2.73l-.104.013a.75.75 0 1 1-.18-1.49l.103-.012a1.25 1.25 0 0 0 1.1-1.24v-.487a1.869 1.869 0 0 1-.208.011c-.966 0-1.75-.744-1.75-1.662 0-.918.784-1.662 1.75-1.662s1.707.744 1.707 1.662Zm5 0v2.137a2.75 2.75 0 0 1-2.418 2.73l-.104.013a.75.75 0 1 1-.18-1.49l.103-.012a1.25 1.25 0 0 0 1.1-1.24v-.487a1.868 1.868 0 0 1-.208.011c-.966 0-1.75-.744-1.75-1.662 0-.918.784-1.662 1.75-1.662s1.707.744 1.707 1.662Z" clip-rule="evenodd"/>
</svg>
