<svg xmlns="http://www.w3.org/2000/svg" viewBox="0 0 24 24"><path d="M14.555 20q0-1 .16-1.68t.6-1.18 1.32-.94l.98-.5q.34-.2.54-.36a.9.9 0 0 0 .28-.36q.08-.22.08-.52 0-.44-.28-.7t-.78-.26q-.58 0-.9.3-.32.28-.42.94l-1.6-.08q.12-1.22.86-1.88.76-.68 2.06-.68 1.34 0 2.02.66.68.64.68 1.66 0 .94-.48 1.5-.48.54-1.36.98l-.88.44q-.56.3-.78.6-.22.28-.22.56h3.74V20zM11.38 4.38a.876.876 0 0 1 1.24 1.24L9.237 9l3.381 3.38a.876.876 0 0 1-1.238 1.24L8 10.237 4.618 13.62a.876.876 0 0 1-1.238-1.238L6.76 9 3.38 5.62a.876.876 0 0 1 1.238-1.24L8 7.763l3.38-3.381Z"/></svg>