<svg xmlns="http://www.w3.org/2000/svg" fill="none" viewBox="0 0 40 40"><path fill="#fff" d="M0 0h40v40H0z"/><path fill="#394251" d="M9.105 12.015h6.36v.99h-6.36zM6.705 18v-.9h.15q.51 0 .84-.105t.33-.435V8.79q0-.33-.33-.435t-.84-.105h-.15v-.9h4.485v.9h-.135q-.18 0-.39.015-.21 0-.39.03a1.6 1.6 0 0 0-.285.045q-.105.015-.105.06v8.55q0 .045.105.075.105.015.285.045l.39.03h.525v.9zm6.81 0v-.9h.525l.39-.03q.18-.03.285-.045.105-.03.105-.075V8.4q0-.045-.105-.06a1.6 1.6 0 0 0-.285-.045q-.18-.03-.39-.03-.21-.015-.39-.015h-.135v-.9H18v.9h-.15q-.51 0-.84.105t-.33.435v7.77q0 .33.33.435t.84.105H18v.9zm10.54-1.335q.615 0 .99-.03.375-.045.555-.18t.21-.39l.135-1.2h.99V18H19.96v-1.665l1.575-1.095q.75-.525 1.35-1.005t1.035-.975q.45-.51.69-1.065t.24-1.215q0-.63-.195-.99a1.1 1.1 0 0 0-.555-.525q-.36-.165-.885-.165-.48 0-.9.15-.405.135-.72.36t-.525.51q0-.15.06-.3t.15-.27q.105-.135.21-.195a.4.4 0 0 1 .225-.045v1.905H20.14v-1.83A3.7 3.7 0 0 1 20.845 9q.465-.3 1.095-.495.645-.195 1.41-.195 1.065 0 1.785.315.735.3 1.11.9.39.6.39 1.485 0 .72-.36 1.38-.345.66-.945 1.275-.6.6-1.38 1.17-.765.57-1.635 1.11-.855.54-1.725 1.05-.075 0-.12-.06a.3.3 0 0 1-.03-.135.3.3 0 0 1 .06-.135z"/><path fill="#D7DBE0" fill-rule="evenodd" d="M33 25.25H6.5v-1.5H33zm-8 4H6.5v-1.5H25zm-8 4H6.5v-1.5H17z" clip-rule="evenodd"/></svg>