<svg xmlns="http://www.w3.org/2000/svg" viewBox="0 0 24 24"><path d="M12.75 7a.75.75 0 0 1 .75-.75h.5A2.75 2.75 0 0 1 16.75 9v2.25H17a.75.75 0 0 1 0 1.5h-.25V15A2.75 2.75 0 0 1 14 17.75h-.5a.75.75 0 0 1 0-1.5h.5c.69 0 1.25-.56 1.25-1.25V9c0-.69-.56-1.25-1.25-1.25h-.5a.75.75 0 0 1-.75-.75Zm-2.25-.75a.75.75 0 0 1 0 1.5H10c-.69 0-1.25.56-1.25 1.25v6c0 .69.56 1.25 1.25 1.25h.5a.75.75 0 0 1 0 1.5H10A2.75 2.75 0 0 1 7.25 15v-2.25H7a.75.75 0 0 1 0-1.5h.25V9A2.75 2.75 0 0 1 10 6.25h.5Z"/><path fill-rule="evenodd" d="M3.25 7A3.75 3.75 0 0 1 7 3.25h10A3.75 3.75 0 0 1 20.75 7v10A3.75 3.75 0 0 1 17 20.75H7A3.75 3.75 0 0 1 3.25 17V7ZM7 4.75A2.25 2.25 0 0 0 4.75 7v10A2.25 2.25 0 0 0 7 19.25h10A2.25 2.25 0 0 0 19.25 17V7A2.25 2.25 0 0 0 17 4.75H7Z" clip-rule="evenodd"/></svg>