<svg xmlns="http://www.w3.org/2000/svg" viewBox="0 0 24 24">
  <path d="M10.762 7.58a.75.75 0 0 1 0-1.06l1.415-1.414a4.75 4.75 0 0 1 6.717 6.717l-1.414 1.414a.75.75 0 0 1-1.06-1.06l1.414-1.414a3.25 3.25 0 0 0-4.597-4.597l-1.414 1.415a.75.75 0 0 1-1.06 0ZM5.106 18.894a4.75 4.75 0 0 1 0-6.717l1.414-1.414a.75.75 0 0 1 1.06 1.06l-1.414 1.415a3.25 3.25 0 1 0 4.596 4.596l1.415-1.415a.75.75 0 1 1 1.06 1.061l-1.414 1.414a4.75 4.75 0 0 1-6.717 0Z"/>
  <path d="M10.055 12.884a.75.75 0 0 0 1.061 1.06l2.829-2.828a.75.75 0 1 0-1.061-1.06l-2.829 2.828Z"/>
</svg>
