<svg xmlns="http://www.w3.org/2000/svg" viewBox="0 0 24 24"><path d="M8.376 19a1 1 0 0 1-1-1V6.91a1 1 0 0 1 1-1h4.011c.947 0 1.733.148 2.36.446.63.295 1.1.697 1.412 1.209.315.511.473 1.09.473 1.738 0 .533-.102.989-.307 1.368a2.58 2.58 0 0 1-.825.914c-.345.235-.73.465-1.156.567.464.026.91.234 1.335.494.43.256.782.618 1.055 1.087.273.469.41 1.035.41 1.7 0 .678-.165 1.287-.493 1.828-.328.537-.822.961-1.483 1.272-.66.311-1.491.467-2.493.467H8.376Zm1.372-1.982h2.55c.86 0 1.48-.164 1.86-.492.384-.332.575-.758.575-1.278a1.958 1.958 0 0 0-1.105-1.79c-.354-.183-.776-.275-1.266-.275H9.748v3.835Zm0-5.542h2.346c.409 0 .777-.074 1.105-.223.328-.154.586-.369.774-.646a1.73 1.73 0 0 0 .287-.997c0-.507-.179-.925-.537-1.253-.353-.328-.88-.492-1.578-.492H9.748v3.611Z"/></svg>