<svg xmlns="http://www.w3.org/2000/svg" fill="none" viewBox="0 0 40 40">
  <path fill="#fff" d="M0 0h40v40H0z"/>
  <path fill="#394251" d="m10.178 12.064 1.179-4.833h-.432c-.282 0-.507.018-.675.054a.856.856 0 0 0-.387.153.6.6 0 0 0-.189.261L9.26 8.86h-.657l.558-2.25h5.796l-.558 2.25h-.657l.18-1.161c.018-.108-.003-.195-.063-.261-.054-.072-.162-.123-.324-.153a3.028 3.028 0 0 0-.648-.054h-.441l-1.17 4.833c-.03.132.021.219.153.261.132.042.3.063.504.063h.18L11.96 13H9.035l.153-.612h.171c.204 0 .384-.021.54-.063.156-.042.249-.129.279-.261Zm8.37-.945c.054-.162.096-.321.126-.477a4.56 4.56 0 0 0 .108-.981c0-.246-.042-.456-.126-.63a.808.808 0 0 0-.378-.396c-.168-.096-.399-.144-.693-.144-.204 0-.387.036-.549.108a1.346 1.346 0 0 0-.414.297c-.12.12-.225.264-.315.432a4.07 4.07 0 0 0-.243.531 5.01 5.01 0 0 0-.234 1.449c0 .252.04.465.117.639a.853.853 0 0 0 .387.396c.174.09.405.135.693.135.204 0 .384-.033.54-.099a1.39 1.39 0 0 0 .423-.288c.12-.126.225-.273.315-.441.09-.168.171-.345.243-.531Zm-3.78.009a3.955 3.955 0 0 1 .46-1.854 2.91 2.91 0 0 1 .575-.738c.234-.21.504-.375.81-.495.312-.126.66-.189 1.044-.189.45 0 .84.081 1.17.243.33.162.582.393.756.693.174.294.261.648.261 1.062 0 .324-.039.645-.117.963a3.491 3.491 0 0 1-.35.891c-.15.276-.343.522-.577.738-.228.21-.495.375-.8.495-.307.12-.655.18-1.045.18-.45 0-.84-.081-1.17-.243a1.818 1.818 0 0 1-.756-.684c-.174-.3-.26-.654-.26-1.062Zm10.62 1.296c.234 0 .444-.06.63-.18.192-.126.357-.288.495-.486a2.88 2.88 0 0 0 .35-.675c.097-.252.169-.51.217-.774a4.14 4.14 0 0 0 .072-.738c0-.216-.024-.399-.072-.549a.593.593 0 0 0-.234-.351c-.114-.084-.28-.126-.495-.126-.246 0-.468.054-.666.162a2.28 2.28 0 0 0-.594.495c-.192.222-.408.501-.648.837l-.072-.288c.216-.378.444-.708.684-.99.24-.282.495-.504.765-.666.276-.162.57-.243.882-.243.366 0 .66.075.882.225.222.15.384.357.486.621.108.264.162.567.162.909a4.2 4.2 0 0 1-.117.954 4.221 4.221 0 0 1-.333.945c-.15.3-.34.573-.567.819-.228.24-.498.432-.81.576a2.402 2.402 0 0 1-1.035.216c-.366 0-.7-.048-1-.144a3.112 3.112 0 0 1-.773-.387 3.086 3.086 0 0 1-.54-.486l1.233-5.13c.012-.054-.012-.102-.072-.144a.833.833 0 0 0-.243-.117 1.917 1.917 0 0 0-.378-.099l-.081-.018.144-.576h1.899l-1.503 6.273a1.802 1.802 0 0 1-.063-.162 1.862 1.862 0 0 1-.027-.18.902.902 0 0 1 0-.18l.018-.189c.06.126.147.255.26.387.115.132.265.243.45.333.187.084.418.126.694.126Zm5.778.693c-.444 0-.828-.081-1.152-.243a1.752 1.752 0 0 1-.738-.693c-.168-.306-.252-.666-.252-1.08 0-.444.066-.861.198-1.251.138-.39.333-.735.585-1.035.252-.3.552-.534.9-.702a2.636 2.636 0 0 1 1.179-.261c.39 0 .708.06.954.18a1.21 1.21 0 0 1 .747 1.116c0 .306-.081.573-.243.801-.162.228-.402.42-.72.576-.312.15-.7.267-1.161.351a11.15 11.15 0 0 1-1.62.135l.036-.522a9.155 9.155 0 0 0 1.287-.108 3.35 3.35 0 0 0 .855-.243c.216-.108.372-.24.468-.396.096-.162.144-.348.144-.558a.7.7 0 0 0-.1-.387.528.528 0 0 0-.278-.225 1.19 1.19 0 0 0-.468-.081c-.276 0-.525.072-.747.216-.216.138-.4.33-.55.576-.143.24-.254.516-.332.828a4.392 4.392 0 0 0-.108.99c0 .324.048.585.144.783a.897.897 0 0 0 .423.432c.186.09.414.135.684.135.246 0 .462-.042.648-.126.186-.084.35-.195.495-.333.15-.144.279-.294.387-.45l.495.351a2.75 2.75 0 0 1-.567.657c-.21.18-.447.321-.711.423a2.566 2.566 0 0 1-.882.144Zm-18.99 8.002c.054-.162.096-.321.126-.477a4.56 4.56 0 0 0 .108-.981c0-.246-.042-.456-.126-.63a.808.808 0 0 0-.378-.396c-.168-.096-.399-.144-.693-.144-.204 0-.387.036-.549.108a1.346 1.346 0 0 0-.414.297c-.12.12-.225.264-.315.432-.09.162-.171.339-.243.531a5.01 5.01 0 0 0-.234 1.449c0 .252.039.465.117.639a.853.853 0 0 0 .387.396c.174.09.405.135.693.135.204 0 .384-.033.54-.099a1.39 1.39 0 0 0 .423-.288c.12-.126.225-.273.315-.441.09-.168.171-.345.243-.531Zm-3.78.009a3.955 3.955 0 0 1 .459-1.854 2.91 2.91 0 0 1 .576-.738c.234-.21.504-.375.81-.495.312-.126.66-.189 1.044-.189.45 0 .84.081 1.17.243.33.162.582.393.756.693.174.294.261.648.261 1.062 0 .324-.039.645-.117.963a3.491 3.491 0 0 1-.351.891c-.15.276-.342.522-.576.738-.228.21-.495.375-.801.495-.306.12-.654.18-1.044.18-.45 0-.84-.081-1.17-.243a1.818 1.818 0 0 1-.756-.684c-.174-.3-.261-.654-.261-1.062ZM14.276 23l1-4.095c.011-.054-.013-.102-.073-.144a.996.996 0 0 0-.252-.117 2.468 2.468 0 0 0-.369-.108l-.08-.018.134-.567h1.593l-.126 1.521.045.063L15.311 23h-1.035Zm4.14-5.103-.198 1.107-.306-.036a2.86 2.86 0 0 0-.333-.018c-.156 0-.306.021-.45.063a1.577 1.577 0 0 0-.405.171c-.132.078-.26.18-.387.306-.126.12-.258.27-.396.45l-.117-.18c.204-.324.393-.606.567-.846.174-.24.342-.438.504-.594.162-.162.327-.282.495-.36.174-.078.366-.117.576-.117.114 0 .213.006.297.018a.497.497 0 0 1 .153.036ZM21.175 23l1-4.095c.011-.054-.012-.102-.073-.144a.996.996 0 0 0-.252-.117 2.468 2.468 0 0 0-.369-.108l-.08-.018.134-.567h1.593l-.125 1.485.044.09L22.21 23h-1.035Zm4.627-2.178c-.078.306-.145.555-.198.747-.049.186-.084.33-.108.432a1.285 1.285 0 0 0-.027.207c0 .048.011.084.035.108.03.024.075.036.136.036h.27a3.92 3.92 0 0 1 .26-.009c.09 0 .177-.003.261-.009l-.117.648-.36.018h-.369c-.12.006-.24.009-.36.009-.168 0-.315-.024-.44-.072a.622.622 0 0 1-.28-.207.548.548 0 0 1-.098-.333c0-.084.009-.18.026-.288.024-.108.06-.261.108-.459.055-.198.127-.465.216-.801l.333-1.26c.043-.15.073-.27.09-.36.018-.096.027-.183.027-.261a.36.36 0 0 0-.108-.279c-.066-.072-.183-.108-.35-.108-.198 0-.4.06-.604.18a3.122 3.122 0 0 0-.63.504 12.33 12.33 0 0 0-.71.783l-.037-.396a8.54 8.54 0 0 1 .765-.936c.258-.27.531-.48.82-.63.293-.156.611-.234.953-.234.33 0 .576.075.738.225a.733.733 0 0 1 .244.576c0 .138-.015.285-.046.441a5.01 5.01 0 0 1-.117.477l-.323 1.251Zm5.368.297c.053-.162.095-.321.125-.477a4.56 4.56 0 0 0 .108-.981c0-.246-.042-.456-.126-.63a.808.808 0 0 0-.378-.396c-.168-.096-.399-.144-.693-.144-.204 0-.387.036-.549.108a1.346 1.346 0 0 0-.414.297c-.12.12-.225.264-.315.432a4.07 4.07 0 0 0-.243.531 5.01 5.01 0 0 0-.234 1.449c0 .252.04.465.117.639a.853.853 0 0 0 .387.396c.174.09.405.135.693.135.204 0 .384-.033.54-.099a1.39 1.39 0 0 0 .423-.288c.12-.126.225-.273.315-.441.09-.168.171-.345.243-.531Zm-3.78.009a3.955 3.955 0 0 1 .458-1.854 2.91 2.91 0 0 1 .576-.738c.234-.21.504-.375.81-.495.312-.126.66-.189 1.044-.189.45 0 .84.081 1.17.243.33.162.582.393.756.693.174.294.261.648.261 1.062 0 .324-.039.645-.117.963a3.491 3.491 0 0 1-.35.891c-.15.276-.343.522-.577.738-.228.21-.495.375-.8.495-.307.12-.655.18-1.045.18-.45 0-.84-.081-1.17-.243a1.818 1.818 0 0 1-.756-.684c-.174-.3-.26-.654-.26-1.062Zm7.41 1.881a2.11 2.11 0 0 1-.676-.09.733.733 0 0 1-.387-.279.96.96 0 0 1-.117-.495c0-.156.021-.333.063-.531l.144-.612.702-2.925.72-.126h1.89l-.153.639h-3.59l.152-.594h.126a2.6 2.6 0 0 0 .522-.045.697.697 0 0 0 .36-.189c.102-.102.177-.252.225-.45l.207-.837h.954l-1.179 4.932a3.259 3.259 0 0 1-.045.207 1.722 1.722 0 0 0-.045.378c0 .12.033.201.1.243a.52.52 0 0 0 .278.063h.756c.15-.006.28-.009.387-.009l-.162.702c-.162.006-.348.009-.558.009-.21.006-.435.009-.675.009Zm-24.865 10a2.11 2.11 0 0 1-.675-.09.733.733 0 0 1-.387-.279.96.96 0 0 1-.117-.495c0-.156.021-.333.063-.531l.144-.612.702-2.925.72-.126h1.89l-.153.639H8.531l.153-.594h.126a2.6 2.6 0 0 0 .522-.045.697.697 0 0 0 .36-.189c.102-.102.177-.252.225-.45l.207-.837h.954l-1.179 4.932a3.259 3.259 0 0 1-.045.207 1.722 1.722 0 0 0-.045.378c0 .12.033.201.099.243a.52.52 0 0 0 .279.063h.756c.15-.006.279-.009.387-.009l-.162.702c-.162.006-.348.009-.558.009-.21.006-.435.009-.675.009Zm6.301-1.89c.055-.162.096-.321.127-.477a4.56 4.56 0 0 0 .108-.981c0-.246-.043-.456-.127-.63a.808.808 0 0 0-.378-.396c-.167-.096-.398-.144-.692-.144-.204 0-.387.036-.55.108a1.346 1.346 0 0 0-.414.297c-.12.12-.225.264-.315.432-.09.162-.17.339-.242.531a5.01 5.01 0 0 0-.235 1.449c0 .252.04.465.117.639a.853.853 0 0 0 .388.396c.174.09.405.135.693.135.204 0 .384-.033.54-.099a1.39 1.39 0 0 0 .422-.288c.12-.126.225-.273.315-.441.09-.168.171-.345.243-.531Zm-3.78.009a3.955 3.955 0 0 1 .46-1.854 2.91 2.91 0 0 1 .575-.738c.235-.21.505-.375.81-.495.313-.126.66-.189 1.044-.189.45 0 .84.081 1.17.243.33.162.582.393.756.693.174.294.261.648.261 1.062 0 .324-.038.645-.116.963a3.491 3.491 0 0 1-.352.891 2.83 2.83 0 0 1-.576.738 2.53 2.53 0 0 1-.8.495c-.306.12-.655.18-1.045.18-.45 0-.84-.081-1.17-.243a1.818 1.818 0 0 1-.756-.684c-.174-.3-.26-.654-.26-1.062Zm10.62 1.296c.234 0 .444-.06.63-.18.192-.126.357-.288.495-.486a2.88 2.88 0 0 0 .351-.675c.096-.252.168-.51.216-.774a4.14 4.14 0 0 0 .072-.738c0-.216-.024-.399-.072-.549a.593.593 0 0 0-.234-.351c-.114-.084-.279-.126-.495-.126-.246 0-.468.054-.666.162a2.28 2.28 0 0 0-.594.495c-.192.222-.408.501-.648.837l-.072-.288c.216-.378.444-.708.684-.99.24-.282.495-.504.765-.666.276-.162.57-.243.882-.243.366 0 .66.075.882.225.222.15.384.357.486.621.108.264.162.567.162.909 0 .306-.039.624-.117.954a4.221 4.221 0 0 1-.333.945c-.15.3-.339.573-.567.819-.228.24-.498.432-.81.576a2.402 2.402 0 0 1-1.035.216c-.366 0-.699-.048-.999-.144a3.112 3.112 0 0 1-.774-.387 3.086 3.086 0 0 1-.54-.486l1.233-5.13c.012-.054-.012-.102-.072-.144a.833.833 0 0 0-.243-.117 1.917 1.917 0 0 0-.378-.099l-.08-.018.143-.576h1.9l-1.504 6.273a1.802 1.802 0 0 1-.063-.162 1.862 1.862 0 0 1-.027-.18.902.902 0 0 1 0-.18l.018-.189c.06.126.147.255.261.387.114.132.264.243.45.333.186.084.417.126.693.126Zm5.778.693c-.444 0-.828-.081-1.152-.243a1.752 1.752 0 0 1-.738-.693c-.168-.306-.252-.666-.252-1.08 0-.444.066-.861.198-1.251.138-.39.333-.735.585-1.035.252-.3.552-.534.9-.702a2.636 2.636 0 0 1 1.18-.261c.39 0 .707.06.953.18a1.21 1.21 0 0 1 .747 1.116c0 .306-.08.573-.243.801-.162.228-.402.42-.72.576-.312.15-.699.267-1.16.351a11.15 11.15 0 0 1-1.62.135l.035-.522a9.155 9.155 0 0 0 1.287-.108 3.35 3.35 0 0 0 .855-.243c.216-.108.372-.24.468-.396.096-.162.144-.348.144-.558a.7.7 0 0 0-.099-.387.528.528 0 0 0-.279-.225 1.19 1.19 0 0 0-.468-.081c-.276 0-.525.072-.747.216-.216.138-.399.33-.549.576-.144.24-.255.516-.333.828a4.392 4.392 0 0 0-.108.99c0 .324.048.585.144.783a.897.897 0 0 0 .423.432c.186.09.414.135.684.135.246 0 .462-.042.648-.126.186-.084.351-.195.495-.333.15-.144.28-.294.387-.45l.495.351a2.75 2.75 0 0 1-.567.657c-.21.18-.447.321-.71.423a2.566 2.566 0 0 1-.883.144Z"/>
  <path fill="#D7DBE0" fill-rule="evenodd" d="M3.25 35.5v-31h1.5v31h-1.5Z" clip-rule="evenodd"/>
</svg>
