<svg xmlns="http://www.w3.org/2000/svg" fill="none" viewBox="0 0 24 25"><path fill="#F0AB00" d="M8.902 5.174c-2.126 0-3.56 1.587-3.56 3.943 0 2.56 2.33 5.019 5.02 7.887l1.612 1.715 1.614-1.715c2.688-2.842 5.018-5.3 5.018-7.887 0-2.356-1.434-3.943-3.559-3.943a3.22 3.22 0 0 0-2.407 1.1l-.691.744-.692-.743a3 3 0 0 0-2.355-1.101M12 21.536l-2.945-3.124c-2.996-3.15-5.582-5.89-5.582-9.295 0-3.431 2.305-5.94 5.454-5.94 1.127 0 2.177.384 3.073 1.075.896-.691 1.972-1.075 3.073-1.075 3.15 0 5.454 2.509 5.454 5.94 0 3.406-2.586 6.146-5.582 9.295z"/></svg>