<svg xmlns="http://www.w3.org/2000/svg" fill="none" viewBox="0 0 24 24"><path fill="#62D84E" fill-rule="evenodd" d="M12.098 3C6.642 3 2.082 7.48 2 13.017c0 2.932 1.222 5.538 3.176 7.411a2.086 2.086 0 0 0 2.606.163c1.14-.896 2.606-1.385 4.316-1.385s3.177.57 4.317 1.385c.814.57 1.873.57 2.606-.163 1.954-1.873 3.095-4.398 3.095-7.33C22.034 7.48 17.636 3 12.098 3m-.081 15.066c-3.013 0-5.05-2.28-5.05-5.049s2.037-5.05 5.05-5.05 5.05 2.281 5.05 5.05c0 2.85-2.037 5.05-5.05 5.05Z" clip-rule="evenodd"/></svg>