<svg xmlns="http://www.w3.org/2000/svg" viewBox="0 0 24 24">
  <path fill-rule="evenodd" d="M9.315 4.889c0-.86.697-1.556 1.556-1.556h2.258c.86 0 1.556.697 1.556 1.556v.582c0 .853.922 1.388 1.663.964l.537-.308a1.556 1.556 0 0 1 2.117.567l1.123 1.928a1.555 1.555 0 0 1-.572 2.134l-.489.28a1.111 1.111 0 0 0 0 1.928l.49.28a1.555 1.555 0 0 1 .571 2.134l-1.123 1.928a1.556 1.556 0 0 1-2.117.567l-.537-.308a1.111 1.111 0 0 0-1.663.964v.582c0 .86-.697 1.556-1.556 1.556h-2.258c-.86 0-1.556-.697-1.556-1.556v-.582c0-.853-.922-1.388-1.663-.964l-.537.308a1.556 1.556 0 0 1-2.117-.567l-1.123-1.928a1.556 1.556 0 0 1 .571-2.134l.49-.28a1.111 1.111 0 0 0 0-1.928l-.49-.28a1.556 1.556 0 0 1-.571-2.134l1.123-1.928a1.556 1.556 0 0 1 2.117-.567l.537.308a1.111 1.111 0 0 0 1.663-.965v-.58Zm1.556-.222c-.123 0-.223.1-.223.222v.581c0 1.878-2.028 3.055-3.658 2.122l-.537-.307a.222.222 0 0 0-.303.08l-1.123 1.93a.222.222 0 0 0 .082.304l.489.28c1.64.939 1.64 3.305 0 4.244l-.49.28a.222.222 0 0 0-.081.304l1.123 1.928a.222.222 0 0 0 .303.081l.537-.307c1.63-.933 3.659.244 3.659 2.121v.582c0 .123.099.222.222.222h2.258c.123 0 .222-.1.222-.222v-.582c0-1.877 2.03-3.054 3.659-2.121l.537.307a.223.223 0 0 0 .303-.08l1.123-1.929a.222.222 0 0 0-.082-.304l-.49-.28c-1.64-.939-1.64-3.305 0-4.244l.49-.28a.222.222 0 0 0 .082-.304L17.85 7.366a.222.222 0 0 0-.303-.081l-.537.307c-1.63.933-3.659-.244-3.659-2.121v-.582c0-.123-.1-.222-.222-.222h-2.258ZM12 10a2 2 0 1 0 0 4 2 2 0 0 0 0-4Zm-3.333 2a3.333 3.333 0 1 1 6.666 0 3.333 3.333 0 0 1-6.666 0Z" clip-rule="evenodd"/>
</svg>
