<svg xmlns="http://www.w3.org/2000/svg" viewBox="0 0 24 24"><path fill-rule="evenodd" d="M11.73 2.3a.75.75 0 0 1 .54 0l7 2.7c.29.112.48.39.48.7V12c0 3.026-1.951 5.465-3.748 7.082a19.8 19.8 0 0 1-3.567 2.536l-.065.035-.019.01-.005.003h-.002s-.001.001-.344-.666l-.344.667-.002-.002-.005-.002-.019-.01a9 9 0 0 1-.302-.166 19.8 19.8 0 0 1-3.33-2.404C6.201 17.465 4.25 15.025 4.25 12V5.7c0-.31.19-.588.48-.7zM12 21l-.344.667c.216.11.472.11.687 0zm0-.857a18.3 18.3 0 0 0 2.998-2.175c1.703-1.533 3.252-3.594 3.252-5.968V6.215L12 3.804l-6.25 2.41V12c0 2.374 1.549 4.435 3.252 5.968A18.3 18.3 0 0 0 12 20.143" clip-rule="evenodd"/></svg>