<svg xmlns="http://www.w3.org/2000/svg" viewBox="0 0 24 24"><path d="M17.834 5.106a.75.75 0 0 1 1.06 0 9.75 9.75 0 0 1 0 13.788.75.75 0 0 1-1.06-1.06 8.25 8.25 0 0 0 0-11.668.75.75 0 0 1 0-1.06M8.995 8.995a.75.75 0 0 0-1.06-1.06 5.75 5.75 0 0 0 0 8.13.75.75 0 1 0 1.06-1.06 4.25 4.25 0 0 1 0-6.01"/><path d="M15.005 7.934a.75.75 0 0 1 1.06 0 5.75 5.75 0 0 1 0 8.132.75.75 0 0 1-1.06-1.06 4.25 4.25 0 0 0 0-6.011.75.75 0 0 1 0-1.06ZM13.5 12a1.5 1.5 0 1 1-3 0 1.5 1.5 0 0 1 3 0M6.166 6.166a.75.75 0 0 0-1.06-1.06 9.75 9.75 0 0 0 0 13.788.75.75 0 1 0 1.06-1.06 8.25 8.25 0 0 1 0-11.668"/></svg>