<svg xmlns="http://www.w3.org/2000/svg" viewBox="0 0 24 24">
  <path fill-rule="evenodd" d="M20.75 4a.75.75 0 0 0-1.5 0v.25H19A2.75 2.75 0 0 0 16.25 7v10A2.75 2.75 0 0 0 19 19.75h.25V20a.75.75 0 0 0 1.5 0V4Zm-1.5 1.75H19c-.69 0-1.25.56-1.25 1.25v10c0 .69.56 1.25 1.25 1.25h.25V5.75ZM2.25 7A2.75 2.75 0 0 1 5 4.25h7A2.75 2.75 0 0 1 14.75 7v10A2.75 2.75 0 0 1 12 19.75H5A2.75 2.75 0 0 1 2.25 17V7ZM5 5.75c-.69 0-1.25.56-1.25 1.25v10c0 .69.56 1.25 1.25 1.25h7c.69 0 1.25-.56 1.25-1.25V7c0-.69-.56-1.25-1.25-1.25H5Z" clip-rule="evenodd"/>
</svg>
