<svg xmlns="http://www.w3.org/2000/svg" fill="none" viewBox="0 0 24 24">
  <g clip-path="url(#a)">
    <rect width="20" height="14" x="2" y="5" fill="#1A47B8" rx="3"/>
    <path fill="#F93939" fill-rule="evenodd" d="M2 14.333h20V19H2v-4.667Z" clip-rule="evenodd"/>
    <path fill="#fff" fill-rule="evenodd" d="M2 5h20v4.667H2V5Z" clip-rule="evenodd"/>
    <path fill="#F93939" d="M8.19 7.8H6.287a.943.943 0 0 0-.953.933v2.334c0 .515.427.933.953.933H8.19a.943.943 0 0 0 .952-.933V8.733A.943.943 0 0 0 8.19 7.8Z"/>
    <path fill="#1A47B8" d="M7.714 7.8h-.952a.943.943 0 0 0-.952.933V10.6c0 .516.426.933.952.933h.952a.943.943 0 0 0 .953-.933V8.733a.943.943 0 0 0-.953-.933Z"/>
    <path fill="#fff" fill-rule="evenodd" d="m5.81 10.6 1.428-.467 1.429.467-.953.933h-.952L5.81 10.6Z" clip-rule="evenodd"/>
    <path fill="#FFDA2C" fill-rule="evenodd" d="M6.762 8.733h.952v.934h-.952v-.934Z" clip-rule="evenodd"/>
  </g>
  <defs>
    <clipPath id="a">
      <rect width="20" height="14" x="2" y="5" fill="#fff" rx="3"/>
    </clipPath>
  </defs>
</svg>
