<svg xmlns="http://www.w3.org/2000/svg" fill="none" viewBox="0 0 24 24"><g clip-path="url(#slovenia-circle__a)"><rect width="20" height="20" x="2" y="2" fill="#1A47B8" rx="10"/><path fill="#F93939" fill-rule="evenodd" d="M2 15.333h28V22H2v-6.667Z" clip-rule="evenodd"/><path fill="#fff" fill-rule="evenodd" d="M2 2h28v6.667H2V2Z" clip-rule="evenodd"/><path fill="#F93939" d="M10.667 6H8c-.736 0-1.333.597-1.333 1.333v3.334C6.667 11.403 7.264 12 8 12h2.667c.736 0 1.333-.597 1.333-1.333V7.333C12 6.597 11.403 6 10.667 6Z"/><path fill="#1A47B8" d="M10 6H8.667c-.737 0-1.334.597-1.334 1.333V10c0 .736.597 1.333 1.334 1.333H10c.736 0 1.333-.597 1.333-1.333V7.333C11.333 6.597 10.736 6 10 6Z"/><path fill="#FFDA2C" fill-rule="evenodd" d="M8.667 7.333H10v1.334H8.667V7.333Z" clip-rule="evenodd"/><path fill="#fff" fill-rule="evenodd" d="m7.333 10 2-.667 2 .667L10 11.333H8.667L7.333 10Z" clip-rule="evenodd"/></g><defs><clipPath id="slovenia-circle__a"><rect width="20" height="20" x="2" y="2" fill="#fff" rx="10"/></clipPath></defs></svg>