<svg xmlns="http://www.w3.org/2000/svg" viewBox="0 0 24 24"><path d="M9.66 13.39a.75.75 0 0 0-1.073 1.048c.806.825 2.06 1.312 3.413 1.312s2.607-.487 3.413-1.312a.75.75 0 1 0-1.073-1.048c-.48.49-1.323.86-2.34.86s-1.86-.37-2.34-.86M10 10a1 1 0 1 1-2 0 1 1 0 0 1 2 0m5 1a1 1 0 1 0 0-2 1 1 0 0 0 0 2"/><path fill-rule="evenodd" d="M12 2.25c-5.385 0-9.75 4.365-9.75 9.75s4.365 9.75 9.75 9.75 9.75-4.365 9.75-9.75S17.385 2.25 12 2.25M3.75 12a8.25 8.25 0 1 1 16.5 0 8.25 8.25 0 0 1-16.5 0" clip-rule="evenodd"/></svg>