<svg xmlns="http://www.w3.org/2000/svg" viewBox="0 0 100 40"><path fill-rule="evenodd" d="M4.69 4c-.381 0-.69.336-.69.75v32c0 .414.309.75.69.75h15.62c.381 0 .69-.336.69-.75v-32c0-.414-.309-.75-.69-.75zm.688 32V5.5h14.244V36zM29.69 4c-.381 0-.69.336-.69.75v32c0 .414.309.75.69.75h15.62c.381 0 .69-.336.69-.75v-32c0-.414-.309-.75-.69-.75zm.688 32V5.5h14.244V36zM54 4.75c0-.414.309-.75.69-.75h15.62c.381 0 .69.336.69.75v32c0 .414-.309.75-.69.75H54.69c-.381 0-.69-.336-.69-.75zm1.378.75V36h14.244V5.5zM79.69 4c-.381 0-.69.336-.69.75v32c0 .414.309.75.69.75h15.62c.381 0 .69-.336.69-.75v-32c0-.414-.309-.75-.69-.75zm.688 32V5.5h14.244V36z" clip-rule="evenodd"/></svg>