<svg xmlns="http://www.w3.org/2000/svg" fill="none" viewBox="0 0 24 24">
  <g clip-path="url(#a)">
    <rect width="20" height="14" x="2" y="5" fill="#F93939" rx="3"/>
    <path fill="#F93939" d="M20.095 5H3.905C2.853 5 2 5.836 2 6.867v10.266C2 18.164 2.853 19 3.905 19h16.19C21.147 19 22 18.164 22 17.133V6.867C22 5.836 21.147 5 20.095 5Z"/>
    <path fill="#FFDA2C" fill-rule="evenodd" d="M2 8.733h20v6.534H2V8.733Z" clip-rule="evenodd"/>
    <path fill="#D4AF2C" fill-rule="evenodd" d="M10.572 10.807v2.352c0 .653-.64 1.176-1.43 1.176H7.239c-.787-.002-1.428-.527-1.428-1.178v-2.352c0-.534.426-.98 1.013-1.124.177-.486.722-.05 1.368-.05.649 0 1.19-.433 1.367.05.585.149 1.014.596 1.014 1.126Z" clip-rule="evenodd"/>
    <path fill="#CBCBCB" fill-rule="evenodd" d="M10.572 11.533h.952v2.8h-.952v-2.8Zm-5.715 0h.953v2.8h-.953v-2.8Z" clip-rule="evenodd"/>
    <path fill="#1A47B8" fill-rule="evenodd" d="M10.572 13.4h.952v.933h-.952V13.4Zm-5.715 0h.953v.933h-.953V13.4Z" clip-rule="evenodd"/>
    <path fill="#D4AF2C" fill-rule="evenodd" d="M10.572 10.6h.952v.933h-.952V10.6Zm-5.715 0h.953v.933h-.953V10.6Z" clip-rule="evenodd"/>
    <path fill="#AF010D" fill-rule="evenodd" d="M6.762 10.6h.952V12h-.952v-1.4Zm1.905 1.867h.952v1.4h-.952v-1.4Z" clip-rule="evenodd"/>
    <path fill="#FFDA2C" fill-rule="evenodd" d="M6.762 12.467h.952v1.4h-.952v-1.4Z" clip-rule="evenodd"/>
    <path fill="#AE6A3E" fill-rule="evenodd" d="M8.667 10.6h.952V12h-.952v-1.4Z" clip-rule="evenodd"/>
    <path fill="#AF010D" fill-rule="evenodd" d="m7.714 10.6-.952-.933h2.857l-.952.933h-.953Z" clip-rule="evenodd"/>
    <path fill="#D4AF2C" fill-rule="evenodd" d="M7.714 8.733h.953v.934h-.953v-.934Z" clip-rule="evenodd"/>
  </g>
  <defs>
    <clipPath id="a">
      <rect width="20" height="14" x="2" y="5" fill="#fff" rx="3"/>
    </clipPath>
  </defs>
</svg>
