<svg xmlns="http://www.w3.org/2000/svg" viewBox="0 0 24 24"><path fill-rule="evenodd" d="M10.846 3.822c.427-1.027 1.881-1.027 2.308 0l1.743 4.19 4.524.363c1.108.09 1.558 1.472.713 2.195l-3.446 2.953 1.053 4.415c.258 1.081-.919 1.936-1.868 1.357L12 16.929l-3.873 2.366c-.95.58-2.126-.276-1.868-1.357l1.053-4.415-3.446-2.953c-.845-.723-.395-2.106.713-2.195l4.524-.362 1.743-4.191ZM12 4.953 10.43 8.73a1.25 1.25 0 0 1-1.055.766l-4.077.326 3.106 2.661c.356.305.512.784.403 1.24l-.95 3.978 3.491-2.132a1.25 1.25 0 0 1 1.304 0l3.49 2.132-.949-3.978a1.25 1.25 0 0 1 .403-1.24l3.106-2.66-4.077-.327a1.25 1.25 0 0 1-1.054-.766L12 4.953Z" clip-rule="evenodd"/></svg>