<svg xmlns="http://www.w3.org/2000/svg" viewBox="0 0 24 24"><path fill="#697687" fill-rule="evenodd" d="M10.684 5.378a6.78 6.78 0 0 1 2.633 0l-.292 1.472a5.278 5.278 0 0 0-2.05 0l-.291-1.472Zm5.067 1.01a6.783 6.783 0 0 1 1.862 1.861l-1.247.835a5.283 5.283 0 0 0-1.45-1.45l.835-1.247Zm-9.364 1.86A6.783 6.783 0 0 1 8.25 6.387l.835 1.247a5.283 5.283 0 0 0-1.45 1.45l-1.247-.835ZM5.25 12c0-.45.044-.89.128-1.316l1.472.29a5.278 5.278 0 0 0 0 2.051l-1.472.291A6.78 6.78 0 0 1 5.25 12Zm13.372-1.316a6.776 6.776 0 0 1 0 2.633l-1.472-.292a5.286 5.286 0 0 0 0-2.05l1.472-.291ZM8.249 17.613a6.783 6.783 0 0 1-1.862-1.862l1.247-.835a5.283 5.283 0 0 0 1.45 1.45l-.835 1.247Zm9.364-1.862a6.783 6.783 0 0 1-1.862 1.862l-.835-1.247a5.284 5.284 0 0 0 1.45-1.45l1.247.835ZM12 18.75c-.45 0-.89-.044-1.316-.128l.29-1.472a5.286 5.286 0 0 0 2.051 0l.291 1.472A6.776 6.776 0 0 1 12 18.75Z" clip-rule="evenodd"/></svg>