<svg xmlns="http://www.w3.org/2000/svg" viewBox="0 0 24 24"><path fill-rule="evenodd" d="M17.381 3.592a10 10 0 0 0-.576-.549 1.8 1.8 0 0 0-.684-.383 1.75 1.75 0 0 0-1.187.099 1.8 1.8 0 0 0-.611.49 10 10 0 0 0-.479.636L11.91 6.593c-.207.29-.265.366-.327.43a1.3 1.3 0 0 1-.212.17c-.075.047-.161.087-.49.228l-1.984.85c-.338.145-.638.273-.87.4-.242.13-.504.304-.689.585a1.75 1.75 0 0 0-.251 1.308c.066.33.245.588.421.8.17.202.4.433.66.693l1.357 1.357-4.42 4.42a.75.75 0 0 0 1.061 1.06l4.42-4.42 1.357 1.358c.26.26.49.49.694.66.21.176.47.355.8.421a1.75 1.75 0 0 0 1.307-.252c.28-.184.455-.446.586-.688.126-.232.254-.532.399-.87l.85-1.985c.14-.328.18-.414.228-.489q.075-.116.17-.212c.064-.062.14-.12.43-.327l2.708-1.934c.244-.175.465-.332.636-.479a1.8 1.8 0 0 0 .49-.611 1.75 1.75 0 0 0 .099-1.187 1.8 1.8 0 0 0-.383-.684 10 10 0 0 0-.55-.576zm-1.817.528a.25.25 0 0 1 .16-.013.7.7 0 0 1 .115.085c.117.097.263.242.502.481l2.985 2.986c.24.24.385.385.482.502.06.07.08.106.085.116a.25.25 0 0 1-.013.16.7.7 0 0 1-.103.1 9 9 0 0 1-.558.415l-2.724 1.946c-.232.166-.416.297-.576.457a2.8 2.8 0 0 0-.376.466c-.122.192-.21.399-.323.662l-.857 2c-.162.376-.263.612-.353.777a1 1 0 0 1-.097.152.25.25 0 0 1-.17.033 1 1 0 0 1-.146-.105c-.144-.12-.326-.302-.616-.592L9.25 11.02c-.29-.29-.47-.472-.59-.616a1 1 0 0 1-.106-.146.25.25 0 0 1 .033-.17c.01-.01.05-.042.152-.097.165-.09.4-.191.778-.353l2-.857a4.4 4.4 0 0 0 .66-.323 2.8 2.8 0 0 0 .467-.376c.16-.16.291-.344.457-.577l1.946-2.724a10 10 0 0 1 .415-.557.7.7 0 0 1 .1-.103Z" clip-rule="evenodd"/></svg>