<svg xmlns="http://www.w3.org/2000/svg" viewBox="0 0 24 24"><path fill-rule="evenodd" d="M12 2.25A9.75 9.75 0 0 0 2.25 12a9.75 9.75 0 0 0 6.662 9.25c2.15.718 4.262-.363 5.669-1.77l4.9-4.9c1.405-1.406 2.487-3.518 1.77-5.668C19.959 5.042 16.307 2.25 12 2.25M3.75 12a8.25 8.25 0 0 1 16.078-2.613q.14.424.147.863H15A4.75 4.75 0 0 0 10.25 15v4.975a2.9 2.9 0 0 1-.863-.147A8.25 8.25 0 0 1 3.75 12m8 7.658c.625-.27 1.23-.698 1.77-1.239l4.9-4.9c.54-.54.969-1.144 1.238-1.769H15A3.25 3.25 0 0 0 11.75 15z" clip-rule="evenodd"/></svg>