<svg xmlns="http://www.w3.org/2000/svg" viewBox="0 0 24 24"><path fill-rule="evenodd" d="M12.524 11q.245.06.477.125H20a.875.875 0 1 1 0 1.75h-3.586q.26.277.43.585.46.8.46 1.82 0 1.24-.64 2.16-.64.9-1.76 1.4-1.12.48-2.58.48-1.64 0-2.86-.62a5 5 0 0 1-1.94-1.7q-.7-1.1-.82-2.54l1.8-.12q.14 1.06.62 1.8t1.28 1.12q.82.38 1.96.38 1 0 1.7-.26t1.06-.76q.38-.5.38-1.22 0-.66-.32-1.16-.3-.52-1.18-.94a8 8 0 0 0-1.04-.425H5a.875.875 0 0 1 0-1.75h3.191a3 3 0 0 1-.767-.825q-.42-.72-.42-1.78 0-1.2.56-2.1.58-.92 1.64-1.42 1.059-.52 2.52-.52 1.56 0 2.68.6 1.12.58 1.78 1.6t.82 2.32l-1.8.12a3.6 3.6 0 0 0-.56-1.52 2.9 2.9 0 0 0-1.16-1.06q-.741-.38-1.8-.38-1.32 0-2.1.64-.78.62-.78 1.64 0 .66.3 1.1.32.42 1.12.76.8.32 2.3.7" clip-rule="evenodd"/></svg>