<svg viewBox="0 0 24 24" xmlns="http://www.w3.org/2000/svg"><path d="M15.456 5.21c-1.394-.996-3.236-1.198-4.742-.693-1.537.517-2.797 1.81-2.797 3.787l.001.044c.034.585.35 1.158.728 1.615.392.473.92.909 1.519 1.208a.75.75 0 1 0 .67-1.342 3.287 3.287 0 0 1-1.033-.822c-.267-.324-.37-.59-.385-.73.01-1.201.737-1.99 1.775-2.338 1.078-.362 2.412-.208 3.391.492a.75.75 0 1 0 .873-1.22Zm.574 8.54H19a.75.75 0 0 0 0-1.5H5a.75.75 0 0 0 0 1.5h8.683l.014.011c.102.086.216.167.317.24l.084.058c.186.13.36.253.529.4.366.32.623.684.623 1.238 0 .728-.257 1.276-.656 1.676-.41.411-1.006.7-1.717.818-1.434.239-3.171-.244-4.32-1.518a.75.75 0 1 0-1.114 1.005c1.518 1.682 3.78 2.309 5.68 1.993.956-.159 1.86-.563 2.533-1.238.684-.686 1.094-1.617 1.094-2.736a2.92 2.92 0 0 0-.72-1.947Z"/></svg>