<svg xmlns="http://www.w3.org/2000/svg" viewBox="0 0 24 24">
  <path fill-rule="evenodd" d="M12.524 11c.163.04.323.082.477.125H20a.875.875 0 1 1 0 1.75h-3.586c.174.185.317.38.43.585.306.533.46 1.14.46 1.82 0 .827-.214 1.547-.64 2.16-.427.6-1.014 1.067-1.76 1.4-.747.32-1.607.48-2.58.48-1.094 0-2.047-.207-2.86-.62a5.008 5.008 0 0 1-1.94-1.7c-.467-.733-.74-1.58-.82-2.54l1.8-.12c.093.707.3 1.307.62 1.8.32.493.746.867 1.28 1.12.546.253 1.2.38 1.96.38.666 0 1.233-.087 1.7-.26.466-.173.82-.427 1.06-.76.253-.333.38-.74.38-1.22 0-.44-.107-.827-.32-1.16-.2-.347-.594-.66-1.18-.94a7.833 7.833 0 0 0-1.04-.425H5a.875.875 0 0 1 0-1.75h3.191a2.997 2.997 0 0 1-.767-.825c-.28-.48-.42-1.073-.42-1.78 0-.8.186-1.5.56-2.1.386-.613.933-1.087 1.64-1.42.706-.347 1.546-.52 2.52-.52 1.04 0 1.933.2 2.68.6.746.387 1.34.92 1.78 1.6.44.68.713 1.453.82 2.32l-1.8.12a3.596 3.596 0 0 0-.56-1.52 2.878 2.878 0 0 0-1.16-1.06c-.494-.253-1.094-.38-1.8-.38-.88 0-1.58.213-2.1.64-.52.413-.78.96-.78 1.64 0 .44.1.807.3 1.1.213.28.586.533 1.12.76.533.213 1.3.447 2.3.7Z" clip-rule="evenodd"/>
</svg>
