<svg xmlns="http://www.w3.org/2000/svg" viewBox="0 0 24 24"><path fill-rule="evenodd" d="M15 6.25a2.75 2.75 0 1 0 0 5.5 2.75 2.75 0 0 0 0-5.5M13.75 9a1.25 1.25 0 1 1 2.5 0 1.25 1.25 0 0 1-2.5 0" clip-rule="evenodd"/><path fill-rule="evenodd" d="M12.828 3.25c-.729 0-1.428.29-1.944.805l-7.707 7.708a1.75 1.75 0 0 0 0 2.474l6.586 6.586a1.75 1.75 0 0 0 2.474 0l7.708-7.707a2.75 2.75 0 0 0 .805-1.944V6A2.75 2.75 0 0 0 18 3.25zm-.883 1.866a1.25 1.25 0 0 1 .883-.366H18c.69 0 1.25.56 1.25 1.25v5.172c0 .331-.132.649-.366.883l-7.707 7.708a.25.25 0 0 1-.354 0l-6.586-6.586a.25.25 0 0 1 0-.354l7.707-7.707Z" clip-rule="evenodd"/></svg>