<svg xmlns="http://www.w3.org/2000/svg" viewBox="0 0 24 24"><path  d="M4.45 5.4a.75.75 0 0 1 .15 1.05c-.387.516-.59.879-.705 1.226a3 3 0 0 0-.09.355A1.5 1.5 0 1 1 2 9.5c0-1 .258-1.653.47-2.295.188-.566.498-1.078.93-1.655a.75.75 0 0 1 1.05-.15M12 5.25a.75.75 0 0 0 0 1.5h9a.75.75 0 0 0 0-1.5zm0 4a.75.75 0 0 0 0 1.5h9a.75.75 0 0 0 0-1.5zM2.25 14a.75.75 0 0 1 .75-.75h18a.75.75 0 0 1 0 1.5H3a.75.75 0 0 1-.75-.75M3 17.25a.75.75 0 0 0 0 1.5h18a.75.75 0 0 0 0-1.5zM7.5 11a1.5 1.5 0 0 0 .305-2.969 3 3 0 0 1 .09-.355c.115-.347.318-.71.705-1.226a.75.75 0 0 0-1.2-.9c-.432.577-.742 1.089-.93 1.655C6.259 7.847 6 8.5 6 9.5A1.5 1.5 0 0 0 7.5 11"/></svg>
