<svg xmlns="http://www.w3.org/2000/svg" fill="none" viewBox="0 0 24 24"><path fill="#000" d="M2.25 6A.75.75 0 0 1 3 5.25h18a.75.75 0 0 1 0 1.5H3A.75.75 0 0 1 2.25 6Zm0 4A.75.75 0 0 1 3 9.25h18a.75.75 0 0 1 0 1.5H3a.75.75 0 0 1-.75-.75ZM3 13.25a.75.75 0 0 0 0 1.5h9a.75.75 0 0 0 0-1.5H3ZM2.25 18a.75.75 0 0 1 .75-.75h6a.75.75 0 0 1 0 1.5H3a.75.75 0 0 1-.75-.75Zm16.28 2.53a.75.75 0 0 1-1.06 0l-3-3a.75.75 0 1 1 1.06-1.06l1.72 1.72V13a.75.75 0 0 1 1.5 0v5.19l1.72-1.72a.75.75 0 1 1 1.06 1.06l-3 3Z"/></svg>