<svg xmlns="http://www.w3.org/2000/svg" viewBox="0 0 24 24"><path d="M9.75 4a.75.75 0 0 0-1.5 0v1.25H4a.75.75 0 0 0 0 1.5h7.091a8.67 8.67 0 0 1-2.673 4.415 6.9 6.9 0 0 1-1.683-3.312l-1.47.294a8.4 8.4 0 0 0 1.943 3.915 8.7 8.7 0 0 1-3.314 1.196l.212 1.485a10.16 10.16 0 0 0 4.228-1.621 8.4 8.4 0 0 0 3.519 1.613l.294-1.47a6.9 6.9 0 0 1-2.592-1.106A10.17 10.17 0 0 0 12.63 6.75H14a.75.75 0 0 0 0-1.5H9.75z"/><path fill-rule="evenodd" d="M15.289 10.763A.75.75 0 0 1 16 10.25h1a.75.75 0 0 1 .712.513l1.994 5.983q.006.016.01.033l.995 2.984a.75.75 0 0 1-1.422.474l-.83-2.487h-3.918l-.83 2.487a.75.75 0 0 1-1.422-.474zm-.248 5.487h2.918L16.5 11.872l-1.46 4.378Z" clip-rule="evenodd"/></svg>