<svg viewBox="0 0 24 24" xmlns="http://www.w3.org/2000/svg"><path d="M9.672 12.203a10.043 10.043 0 0 0 1.825-3.853H6a.75.75 0 0 1 0-1.5h3.25V6a.75.75 0 0 1 1.5 0v.85H14a.75.75 0 0 1 0 1.5h-.968a11.543 11.543 0 0 1-2.277 4.903c.28.197.585.367.909.502l.818.343-.58 1.384-.818-.343a6.314 6.314 0 0 1-1.343-.768 11.537 11.537 0 0 1-2.865 2.03l-.54.27a.75.75 0 1 1-.671-1.342l.54-.27a10.041 10.041 0 0 0 2.45-1.724 6.319 6.319 0 0 1-1.4-3.242l1.49-.186c.105.848.431 1.635.927 2.296Z"/><path fill-rule="evenodd" clip-rule="evenodd" d="m14.207 16.75-.496 1.487a.75.75 0 0 1-1.422-.474l2-6A.75.75 0 0 1 15 11.25h1a.75.75 0 0 1 .712.513l2 6a.75.75 0 0 1-1.424.474l-.495-1.487h-2.586Zm2.086-1.5h-1.586l.793-2.378.793 2.378Z"/><path fill-rule="evenodd" clip-rule="evenodd" d="M2.25 5A2.75 2.75 0 0 1 5 2.25h14A2.75 2.75 0 0 1 21.75 5v14A2.75 2.75 0 0 1 19 21.75H5A2.75 2.75 0 0 1 2.25 19V5ZM5 3.75c-.69 0-1.25.56-1.25 1.25v14c0 .69.56 1.25 1.25 1.25h14c.69 0 1.25-.56 1.25-1.25V5c0-.69-.56-1.25-1.25-1.25H5Z"/></svg>