<svg xmlns="http://www.w3.org/2000/svg" viewBox="0 0 24 24"><path d="m15.5 12.872-.793 2.378h1.586z"/><path fill-rule="evenodd" d="M6 3a3 3 0 0 0-3 3v12a3 3 0 0 0 3 3h12a3 3 0 0 0 3-3V6a3 3 0 0 0-3-3zm4 2.25a.75.75 0 0 1 .75.75v.85H14a.75.75 0 0 1 0 1.5h-.968a11.54 11.54 0 0 1-2.277 4.903c.28.197.585.367.909.502l.818.343-.58 1.384-.818-.343a6.3 6.3 0 0 1-1.343-.768 11.5 11.5 0 0 1-2.865 2.03l-.54.27a.75.75 0 1 1-.671-1.342l.54-.27a10 10 0 0 0 2.45-1.724 6.3 6.3 0 0 1-1.4-3.242l1.49-.186c.105.848.431 1.635.927 2.296a10.04 10.04 0 0 0 1.825-3.853H6a.75.75 0 0 1 0-1.5h3.25V6a.75.75 0 0 1 .75-.75m3.711 12.987.496-1.487h2.586l.495 1.487a.75.75 0 0 0 1.424-.474l-2-6A.75.75 0 0 0 16 11.25h-1a.75.75 0 0 0-.711.513l-2 6a.75.75 0 0 0 1.422.474" clip-rule="evenodd"/></svg>