<svg xmlns="http://www.w3.org/2000/svg" fill="none" viewBox="0 0 24 24">
  <rect width="20" height="14" x="2" y="5" fill="#F93939" rx="3"/>
  <path fill="#fff" fill-rule="evenodd" d="m15.335 13.075-1.106.57.211-1.207-.895-.856 1.238-.178.552-1.097.553 1.098 1.238.178-.896.854.212 1.207" clip-rule="evenodd"/>
  <path fill="#fff" fill-rule="evenodd" d="M11.048 15.267c1.84 0 3.333-1.463 3.333-3.267 0-1.804-1.492-3.267-3.333-3.267-1.841 0-3.334 1.463-3.334 3.267 0 1.804 1.493 3.267 3.334 3.267Zm.952-.934c1.314 0 2.38-1.045 2.38-2.333 0-1.288-1.066-2.333-2.38-2.333-1.314 0-2.381 1.045-2.381 2.333 0 1.288 1.067 2.333 2.38 2.333Z" clip-rule="evenodd"/>
</svg>
