<svg xmlns="http://www.w3.org/2000/svg" fill="none" viewBox="0 0 24 24">
  <rect width="22" height="22" x="1" y="1" fill="#1DA1F2" rx="6"/>
  <path fill="#fff" d="M17.56 9.841c.168 3.704-2.594 7.832-7.483 7.832a7.45 7.45 0 0 1-4.035-1.183 5.297 5.297 0 0 0 3.897-1.09 2.639 2.639 0 0 1-2.46-1.829c.413.079.82.056 1.19-.045-1.266-.255-2.14-1.395-2.112-2.615.355.197.76.315 1.192.33a2.637 2.637 0 0 1-.815-3.516 7.474 7.474 0 0 0 5.427 2.75 2.636 2.636 0 0 1 4.487-2.401 5.251 5.251 0 0 0 1.672-.639 2.643 2.643 0 0 1-1.157 1.457 5.253 5.253 0 0 0 1.511-.416c-.352.53-.797.994-1.313 1.365Z"/>
</svg>
