<svg xmlns="http://www.w3.org/2000/svg" fill="none" viewBox="0 0 24 24">
  <path fill="#2CD5C4" d="M7.685 5.18A2.113 2.113 0 0 1 5.58 7.303 2.113 2.113 0 0 1 3.478 5.18c0-1.163.935-2.122 2.103-2.122 1.153 0 2.104.959 2.104 2.122Zm12.837 0a2.114 2.114 0 0 1-2.103 2.122c-1.153 0-2.088-.959-2.088-2.121 0-1.163.935-2.122 2.103-2.122 1.153 0 2.088.959 2.088 2.122Z"/>
  <path fill="#005857" d="M12 20.94c-4.642 0-8.413-3.802-8.413-8.484v-1.352c0-1.1.889-1.995 1.979-1.995a1.99 1.99 0 0 1 1.979 1.995v1.399c0 2.467 1.449 4.478 4.44 4.478 2.789 0 4.44-2.011 4.44-4.478v-1.399c0-1.1.888-1.995 1.979-1.995a1.99 1.99 0 0 1 1.978 1.995v1.352c.031 4.682-3.739 8.485-8.382 8.485Z"/>
</svg>
