<svg xmlns="http://www.w3.org/2000/svg" viewBox="0 0 24 24"><path fill-rule="evenodd" d="M7.453 2.5a.75.75 0 0 0-1.09 1.03L19.547 17.5a.75.75 0 1 0 1.09-1.03zm12.662 7.656-2.221 1.586-1.04-1.101 2.366-1.689a9 9 0 0 0 .557-.415.7.7 0 0 0 .103-.1.25.25 0 0 0 .013-.16.7.7 0 0 0-.085-.116 9 9 0 0 0-.482-.502l-2.985-2.986a9 9 0 0 0-.502-.481.7.7 0 0 0-.116-.085.25.25 0 0 0-.16.013.7.7 0 0 0-.1.103 9 9 0 0 0-.415.557l-1.604 2.246-1.05-1.111 1.45-2.03c.175-.244.333-.465.479-.636a1.8 1.8 0 0 1 .611-.49 1.75 1.75 0 0 1 1.187-.099c.28.076.5.23.684.383.172.145.364.337.576.55l3.027 3.026c.212.212.404.404.549.576.153.183.307.404.383.684a1.75 1.75 0 0 1-.099 1.187 1.8 1.8 0 0 1-.49.611c-.17.147-.392.304-.636.479M9.518 9.637l.633-.271-1.096-1.162-.158.067c-.338.145-.638.273-.87.4-.242.13-.504.304-.689.585a1.75 1.75 0 0 0-.251 1.308c.066.33.245.588.421.8.17.202.4.433.66.693l1.357 1.357-4.42 4.42a.75.75 0 0 0 1.061 1.06l4.42-4.42 1.357 1.358c.26.26.49.49.694.66.21.176.47.355.8.421a1.75 1.75 0 0 0 1.307-.252c.28-.184.455-.446.586-.688.11-.205.223-.462.348-.751l-1.122-1.19-.193.45c-.162.377-.263.613-.353.778a1 1 0 0 1-.097.152.25.25 0 0 1-.17.033 1 1 0 0 1-.146-.105c-.144-.12-.326-.302-.616-.592L9.25 11.02c-.29-.29-.47-.472-.59-.616a1 1 0 0 1-.106-.146.25.25 0 0 1 .033-.17c.01-.01.05-.042.152-.097.165-.09.4-.191.778-.353Z" clip-rule="evenodd"/></svg>