<svg xmlns="http://www.w3.org/2000/svg" viewBox="0 0 24 24"><path fill-rule="evenodd" d="M10 5.75a3.25 3.25 0 1 0 0 6.5 3.25 3.25 0 0 0 0-6.5M14.75 9c0 1.548-.74 2.923-1.886 3.79.576.23 1.109.527 1.584.882a.75.75 0 0 1-.896 1.202c-.927-.69-2.17-1.124-3.552-1.124-3.033 0-5.25 2.025-5.25 4.25a.75.75 0 0 1-1.5 0c0-2.373 1.634-4.309 3.89-5.207A4.75 4.75 0 1 1 14.75 9m5.859 5.438a.75.75 0 0 0-1.218-.876l-3.13 4.347-1.78-1.485a.75.75 0 0 0-.961 1.152l2.4 2a.75.75 0 0 0 1.089-.138z" clip-rule="evenodd"/></svg>