<svg xmlns="http://www.w3.org/2000/svg" width="24" height="24" fill="none"><circle cx="10" cy="9" r="4" stroke="#000" stroke-width="1.5"/><path stroke="#000" stroke-linecap="round" stroke-width="1.5" d="M4 18c0-2.761 2.686-5 6-5 1.537 0 2.938.481 4 1.273"/><mask id="user-cross_svg__a" width="10" height="10" x="11" y="11" fill="#000" maskUnits="userSpaceOnUse"><path fill="#fff" d="M11 11h10v10H11z"/><path d="M16 12a4 4 0 1 1 0 8 4 4 0 0 1 0-8m1.483 2.518a.4.4 0 0 0-.503-.051l-.062.05-.918.918-.916-.917-.063-.051a.4.4 0 0 0-.554.553l.05.064.918.916-.917.918a.4.4 0 0 0 .502.617l.064-.052.916-.917.918.917.063.052a.401.401 0 0 0 .554-.555l-.052-.062-.917-.918.917-.916a.4.4 0 0 0 0-.566"/></mask><path fill="#000" d="M16 12a4 4 0 1 1 0 8 4 4 0 0 1 0-8m1.483 2.518a.4.4 0 0 0-.503-.051l-.062.05-.918.918-.916-.917-.063-.051a.4.4 0 0 0-.554.553l.05.064.918.916-.917.918a.4.4 0 0 0 .502.617l.064-.052.916-.917.918.917.063.052a.401.401 0 0 0 .554-.555l-.052-.062-.917-.918.917-.916a.4.4 0 0 0 0-.566"/><path fill="#fff" d="m17.483 14.518.71-.706-.003-.002zm-.503-.051-.55-.835-.042.027-.038.032zm-.062.05-.63-.775-.04.032-.037.036zm-.918.918-.707.706.706.708.708-.707zm-.916-.917.707-.707-.039-.04-.043-.034zm-.063-.051.624-.781-.036-.029-.038-.025zm-.503.05-.708-.707zm-.051.504-.835.55.025.038.029.036zm.05.063-.78.625.034.043.04.04zm.918.916.707.707.707-.708-.708-.707zm-.917.918-.708-.707zm0 .565-.708.707.002.002zm.502.052.55.835.043-.028.04-.032zm.064-.052.632.775.04-.032.035-.036zm.916-.917.707-.707-.708-.707-.707.708zm.918.917-.707.708.033.033.036.03zm.063.052-.638.77.042.036.047.03zm.502-.052.707.707zm.052-.503.836-.548-.03-.047-.036-.042zm-.052-.062.77-.638-.03-.036-.032-.033zM16.566 16l-.706-.707-.708.706.707.708zm.917-.916.707.707zM16 12v1a3 3 0 0 1 3 3h2a5 5 0 0 0-5-5zm4 4h-1a3 3 0 0 1-3 3v2a5 5 0 0 0 5-5zm-4 4v-1a3 3 0 0 1-3-3h-2a5 5 0 0 0 5 5zm-4-4h1a3 3 0 0 1 3-3v-2a5 5 0 0 0-5 5zm5.483-1.482.707-.708a1.4 1.4 0 0 0-1.76-.178l.55.835.552.834a.6.6 0 0 1-.755-.076zm-.503-.051-.63-.776-.063.05.631.777.63.776.063-.051zm-.062.05-.707-.707-.918.917.707.708.707.707.918-.917zm-.918.918.707-.707-.916-.917-.707.707-.707.706.915.917zm-.916-.917.625-.781-.064-.051-.624.78-.625.782.063.05zm-.063-.051.55-.835a1.4 1.4 0 0 0-1.76.178l.707.708.707.707a.6.6 0 0 1-.755.077zm-.503.05-.708-.707a1.4 1.4 0 0 0-.178 1.761l.835-.55.835-.551a.6.6 0 0 1-.077.755zm-.051.504-.781.624.05.064.782-.625.78-.625-.05-.063zm.05.063-.706.707.917.916.707-.707.706-.707-.917-.916zm.918.916-.708-.707-.917.918.708.707.707.707.917-.918zm-.917.918-.708-.707a1.4 1.4 0 0 0 0 1.979l.708-.707.707-.706a.6.6 0 0 1 0 .848zm0 .565-.706.71a1.4 1.4 0 0 0 1.758.177l-.55-.835-.55-.835a.6.6 0 0 1 .753.074zm.502.052.632.775.064-.052-.632-.775-.632-.775-.063.052zm.064-.052.707.707.916-.917-.707-.707-.707-.706-.916.917zm.916-.917-.707.708.918.917.707-.708.707-.707-.918-.917zm.918.917-.638.77.063.052.637-.77.638-.77-.062-.052zm.063.052-.55.836c.543.356 1.28.298 1.76-.18l-.708-.708-.707-.707a.6.6 0 0 1 .753-.077zm.502-.052.707.707a1.4 1.4 0 0 0 .181-1.758l-.836.549-.836.548a.6.6 0 0 1 .077-.753zm.052-.503.77-.637-.051-.063-.77.638-.77.638.051.062zm-.052-.062.708-.707-.917-.918-.708.707-.707.707.917.918zM16.566 16l.707.707.917-.916-.707-.707-.706-.707-.917.915zm.917-.916.707.707a1.4 1.4 0 0 0 .002-1.979l-.709.706-.709.705a.6.6 0 0 1 .002-.846z" mask="url(#user-cross_svg__a)"/></svg>