<svg xmlns="http://www.w3.org/2000/svg" width="24" height="24" fill="none"><circle cx="10" cy="9" r="4" stroke="#515C6C" stroke-width="1.5"/><path stroke="#515C6C" stroke-linecap="round" stroke-width="1.5" d="M4 18c0-2.761 2.686-5 6-5 1.537 0 2.938.481 4 1.273"/><mask id="user-cross_svg__a" width="10" height="10" x="11" y="11" fill="#000" maskUnits="userSpaceOnUse"><path fill="#fff" d="M11 11h10v10H11z"/><path d="M16 12a4 4 0 1 1 0 8 4 4 0 0 1 0-8m1.482 2.517a.4.4 0 0 0-.502-.051l-.063.05-.918.918-.916-.917-.063-.051a.4.4 0 0 0-.503.05.4.4 0 0 0-.051.504l.05.063.918.916-.917.918a.4.4 0 0 0 .503.617l.063-.052.916-.917.918.917.063.052a.4.4 0 0 0 .554-.554l-.052-.063-.917-.918.917-.916a.4.4 0 0 0 0-.566"/></mask><path fill="#515C6C" d="M16 12a4 4 0 1 1 0 8 4 4 0 0 1 0-8m1.482 2.517a.4.4 0 0 0-.502-.051l-.063.05-.918.918-.916-.917-.063-.051a.4.4 0 0 0-.503.05.4.4 0 0 0-.051.504l.05.063.918.916-.917.918a.4.4 0 0 0 .503.617l.063-.052.916-.917.918.917.063.052a.4.4 0 0 0 .554-.554l-.052-.063-.917-.918.917-.916a.4.4 0 0 0 0-.566"/><path fill="#fff" d="m17.482 14.517.708-.707-.002-.002zm-.502-.051-.552-.834-.041.027-.038.03zm-.063.05-.63-.775-.04.032-.037.036zm-.918.918-.708.706.707.708.708-.707zm-.916-.917.707-.707-.039-.04-.043-.034zm-.063-.051.624-.781-.036-.03-.039-.025zm-.503.05-.707-.707zm-.051.504-.836.549.026.039.029.036zm.05.063-.78.625.034.043.04.04zm.918.916.707.707.707-.708-.708-.707zm-.917.918-.708-.707zm0 .565-.71.706.003.002zm.503.052.55.835.042-.028.04-.032zm.063-.052.632.775.04-.032.035-.036zm.916-.917.707-.707-.708-.707-.707.708zm.918.917-.707.708.033.033.036.03zm.063.052-.638.77.042.035.045.03zm.502-.052.707.708zm.052-.502.835-.551-.03-.045-.035-.042zm-.052-.063.77-.638-.03-.036-.032-.033zm-.917-.918-.706-.708-.708.707.707.708zm.917-.916.707.707zM16 12v1a3 3 0 0 1 3 3h2a5 5 0 0 0-5-5zm4 4h-1a3 3 0 0 1-3 3v2a5 5 0 0 0 5-5zm-4 4v-1a3 3 0 0 1-3-3h-2a5 5 0 0 0 5 5zm-4-4h1a3 3 0 0 1 3-3v-2a5 5 0 0 0-5 5zm5.482-1.483.706-.71a1.4 1.4 0 0 0-1.76-.175l.552.834.551.834a.6.6 0 0 1-.754-.075zm-.502-.051-.631-.776-.063.05.631.777.63.776.063-.051zm-.063.05-.707-.707-.918.917.707.708.707.707.918-.917zm-.918.918.707-.707-.915-.917-.708.707-.707.706.915.917zm-.916-.917.625-.781-.064-.051-.624.78-.625.782.063.05zm-.063-.051.549-.836a1.4 1.4 0 0 0-1.76.18l.708.707.707.707a.6.6 0 0 1-.754.077zm-.503.05-.708-.706a1.4 1.4 0 0 0-.179 1.759l.836-.55.835-.549c.151.23.131.545-.077.753zm-.051.504-.781.624.05.064.782-.625.78-.625-.05-.063zm.05.063-.706.707.917.916.707-.707.706-.708-.917-.915zm.918.916-.708-.707-.917.918.708.707.707.707.917-.918zm-.917.918-.708-.707a1.4 1.4 0 0 0-.001 1.978l.709-.706.708-.705a.6.6 0 0 1 0 .846zm0 .565-.707.708a1.4 1.4 0 0 0 1.76.18l-.55-.836-.55-.835a.6.6 0 0 1 .753.076zm.503.052.632.775.063-.052-.632-.775-.632-.775-.063.052zm.063-.052.707.707.916-.917-.707-.707-.708-.706-.915.917zm.916-.917-.707.708.918.917.707-.708.707-.707-.918-.917zm.918.917-.638.77.063.052.638-.77.637-.77-.062-.052zm.063.052-.551.835a1.4 1.4 0 0 0 1.76-.18l-.707-.707-.706-.707a.6.6 0 0 1 .754-.076zm.502-.052.708.707a1.4 1.4 0 0 0 .18-1.76l-.836.55-.835.55a.6.6 0 0 1 .076-.753zm.052-.502.77-.638-.051-.063-.77.638-.77.638.051.062zm-.052-.063.708-.707-.917-.918-.708.707-.707.707.917.918zm-.917-.918.707.707.917-.915-.707-.708-.706-.707-.917.915zm.917-.916.708.707a1.4 1.4 0 0 0 0-1.98l-.708.707-.707.706a.6.6 0 0 1 0-.847z" mask="url(#user-cross_svg__a)"/></svg>