<svg xmlns="http://www.w3.org/2000/svg" viewBox="0 0 24 24"><path d="M5.898 6.485c.274-1.37 1.965-1.882 2.953-.894l9.358 9.357c.988.989.477 2.68-.894 2.953l-11.697 2.34a1.75 1.75 0 0 1-2.06-2.06zm-.868 11.99a.25.25 0 0 0 .294.296l3.925-.787-3.435-3.435-.784 3.927Zm1.136-5.68q.016.01.032.024l.058.05 4.675 4.676.051.057q.013.015.024.032l2.332-.467-6.706-6.706zM7.79 6.65a.25.25 0 0 0-.422.128l-.384 1.914 8.12 8.12 1.915-.382a.25.25 0 0 0 .128-.422L7.791 6.65Zm10.397 3.806a.75.75 0 0 1 1.004-.052l.057.052 1.312 1.313.052.056a.75.75 0 0 1-1.112 1.004l-1.313-1.312a.75.75 0 0 1 0-1.06Zm2.262-3.463a.75.75 0 0 1 .475 1.424l-1.97.656a.75.75 0 0 1-.474-1.423zM18.718 3.02a.75.75 0 0 1 .75.75h-.75.75v.047l-.005.09a3.2 3.2 0 0 1-.32 1.182 2.5 2.5 0 0 1-.838.966c-.414.275-.932.433-1.555.433-.36 0-.581.089-.722.182a1 1 0 0 0-.33.388 1.7 1.7 0 0 0-.167.652v.004l-.004.07a.75.75 0 0 1-1.496-.077h.75-.75V7.69l.001-.03a3 3 0 0 1 .04-.384 3.2 3.2 0 0 1 .284-.888 2.5 2.5 0 0 1 .84-.966c.413-.275.93-.434 1.554-.434.36 0 .582-.088.722-.181a1 1 0 0 0 .33-.388 1.7 1.7 0 0 0 .166-.652v-.004a.75.75 0 0 1 .75-.743m-6.655 2.06V3.112a.75.75 0 0 1 1.5 0v1.97a.75.75 0 0 1-1.5 0Z"/></svg>