<svg xmlns="http://www.w3.org/2000/svg" viewBox="0 0 24 24">
  <path d="M15.75 4.25H2.25v1.5h13.5v-1.5Zm-5 4h-8.5v1.5h8.5v-1.5Zm-4 4h-4.5v1.5h4.5v-1.5Z"/>
  <path fill-rule="evenodd" d="M11 14.25A1.75 1.75 0 0 0 9.25 16v3c0 .966.784 1.75 1.75 1.75h7.267a1.75 1.75 0 0 0 1.669-1.224l1.37-4.345a1.75 1.75 0 0 0-1.67-2.276h-1.968c-.123-.947-.27-1.633-.451-2.132-.227-.625-.542-1.057-1.022-1.284-.504-.237-1.016-.122-1.378.1-.356.218-.645.58-.765 1.005-.121.431-.195.801-.263 1.14-.177.881-.31 1.547-1.128 2.516H11Zm1.25 1.5H11a.25.25 0 0 0-.25.25v3c0 .138.112.25.25.25h1.25v-3.5ZM15.496 11a.268.268 0 0 1 .096-.127.35.35 0 0 1 .027.032c.043.055.11.166.187.378.158.435.315 1.178.448 2.45a.75.75 0 0 0 .746.672h2.636c.17 0 .29.164.239.325l-1.37 4.345a.25.25 0 0 1-.238.175H13.75v-3.966c1.14-1.335 1.356-2.428 1.551-3.416.059-.297.115-.585.195-.867Z" clip-rule="evenodd"/>
</svg>
