<svg xmlns="http://www.w3.org/2000/svg" viewBox="0 0 24 24"><path d="M6 3.25A2.75 2.75 0 0 0 3.25 6v12A2.75 2.75 0 0 0 6 20.75h2a.75.75 0 0 0 0-1.5H6c-.69 0-1.25-.56-1.25-1.25V6c0-.69.56-1.25 1.25-1.25h12c.69 0 1.25.56 1.25 1.25v2a.75.75 0 0 0 1.5 0V6A2.75 2.75 0 0 0 18 3.25H6Z"/><path fill-rule="evenodd" d="M16.676 11.674a.75.75 0 0 0-1.352 0l-1.187 2.463-2.463 1.187a.75.75 0 0 0 0 1.352l2.463 1.187 1.187 2.463a.75.75 0 0 0 1.352 0l1.187-2.463 2.463-1.187a.75.75 0 0 0 0-1.352l-2.463-1.187-1.187-2.463Zm-1.301 3.35L16 13.728l.625 1.298a.75.75 0 0 0 .35.35l1.298.625-1.298.625a.75.75 0 0 0-.35.35L16 18.273l-.626-1.298a.75.75 0 0 0-.35-.35L13.728 16l1.298-.626a.75.75 0 0 0 .35-.35Z" clip-rule="evenodd"/><path d="M12.75 9.75H15a.75.75 0 0 0 0-1.5H9a.75.75 0 0 0 0 1.5h2.25V13a.75.75 0 0 0 1.5 0V9.75Z"/></svg>