<svg xmlns="http://www.w3.org/2000/svg" viewBox="0 0 24 24">
  <path d="M15.75 4.25H2.25v1.5h13.5v-1.5Zm-5 4h-8.5v1.5h8.5v-1.5Zm-4 4h-4.5v1.5h4.5v-1.5Z"/>
  <path fill-rule="evenodd" d="M16 11.25a.75.75 0 0 1 .676.424l1.187 2.463 2.463 1.187a.75.75 0 0 1 0 1.352l-2.463 1.187-1.187 2.463a.75.75 0 0 1-1.352 0l-1.187-2.463-2.463-1.187a.75.75 0 0 1 0-1.352l2.463-1.187 1.187-2.463A.75.75 0 0 1 16 11.25Zm0 2.477-.626 1.298a.75.75 0 0 1-.35.35L13.728 16l1.298.625a.75.75 0 0 1 .35.35L16 18.273l.625-1.298a.75.75 0 0 1 .35-.35L18.273 16l-1.298-.626a.75.75 0 0 1-.35-.35L16 13.728Z" clip-rule="evenodd"/>
</svg>
