<svg xmlns="http://www.w3.org/2000/svg" viewBox="0 0 24 24"><path d="M15.75 4.25H2.25v1.5h13.5v-1.5Zm-5 4h-8.5v1.5h8.5v-1.5Zm-8.5 4h4.5v1.5h-4.5v-1.5Z"/><path fill-rule="evenodd" d="M19.914 6.51a1.74 1.74 0 0 0-2.46 0l-8.242 8.242a.746.746 0 0 0-.196.346l-.994 3.976a.746.746 0 0 0 .904.904l3.976-.994a.75.75 0 0 0 .346-.196l8.243-8.243a1.74 1.74 0 0 0 0-2.46L19.914 6.51ZM18.86 7.563a.248.248 0 0 0-.351 0l-1.752 1.751 1.927 1.928 1.752-1.752a.249.249 0 0 0 0-.351L18.86 7.564Zm-6.52 10.023 5.29-5.29-1.927-1.927-5.29 5.29-.643 2.57 2.57-.643Z" clip-rule="evenodd"/></svg>
