<svg xmlns="http://www.w3.org/2000/svg" viewBox="0 0 24 24"><path fill-rule="evenodd" d="M11.86 12.793a4.75 4.75 0 1 0-5.72 0c-2.256.899-3.89 2.834-3.89 5.207a.75.75 0 0 0 1.5 0c0-2.225 2.217-4.25 5.25-4.25s5.25 2.025 5.25 4.25a.75.75 0 0 0 1.5 0c0-2.373-1.634-4.309-3.89-5.207ZM5.75 9a3.25 3.25 0 1 1 6.5 0 3.25 3.25 0 0 1-6.5 0Z" clip-rule="evenodd"/><path fill-rule="evenodd" d="M14.25 10.5a3.25 3.25 0 1 1 5.517 2.33c1.168.646 1.983 1.787 1.983 3.17a.75.75 0 0 1-1.5 0c0-1.138-1.119-2.25-2.75-2.25-.636 0-1.212.177-1.67.465a.75.75 0 1 1-.799-1.27c.066-.04.132-.08.2-.118a3.24 3.24 0 0 1-.981-2.327Zm3.25-1.75a1.75 1.75 0 1 0 0 3.5 1.75 1.75 0 0 0 0-3.5Z" clip-rule="evenodd"/></svg>