<svg viewBox="0 0 24 24" xmlns="http://www.w3.org/2000/svg"><path d="M19 17h-3a1 1 0 0 0-1 1v3a1 1 0 0 0 1 1h3a1 1 0 0 0 1-1v-3a1 1 0 0 0-1-1Z" fill="#FFB900"/><path d="M13 17h-3a1 1 0 0 0-1 1v3a1 1 0 0 0 1 1h3a1 1 0 0 0 1-1v-3a1 1 0 0 0-1-1Z" fill="#01A4EF"/><path d="M19 11h-3a1 1 0 0 0-1 1v3a1 1 0 0 0 1 1h3a1 1 0 0 0 1-1v-3a1 1 0 0 0-1-1Z" fill="#7FBA00"/><path d="M13 11h-3a1 1 0 0 0-1 1v3a1 1 0 0 0 1 1h3a1 1 0 0 0 1-1v-3a1 1 0 0 0-1-1Z" fill="#F25022"/><path fill-rule="evenodd" clip-rule="evenodd" d="M4.75 6c0-.69.56-1.25 1.25-1.25h7.25V9c0 .414.336.75.75.75h5a.75.75 0 0 0 .75-.75c0-.675-.248-1.366-.594-1.99a8.278 8.278 0 0 0-1.376-1.79 8.28 8.28 0 0 0-1.79-1.376c-.624-.346-1.315-.594-1.99-.594H6A2.75 2.75 0 0 0 3.25 6v12A2.75 2.75 0 0 0 6 20.75h1a.75.75 0 0 0 0-1.5H6c-.69 0-1.25-.56-1.25-1.25V6Zm13.336 2.25a4.116 4.116 0 0 0-.242-.51 6.79 6.79 0 0 0-1.124-1.46 6.789 6.789 0 0 0-1.46-1.124c-.179-.1-.35-.18-.51-.242V8.25h3.336Z"/></svg>