<svg viewBox="0 0 24 24" xmlns="http://www.w3.org/2000/svg"><path fill-rule="evenodd" clip-rule="evenodd" d="M19.75 9c0-.675-.248-1.366-.594-1.99a8.278 8.278 0 0 0-1.376-1.79 8.28 8.28 0 0 0-1.79-1.376c-.624-.346-1.315-.594-1.99-.594H6A2.75 2.75 0 0 0 3.25 6v12A2.75 2.75 0 0 0 6 20.75h11A2.75 2.75 0 0 0 19.75 18V9Zm-15-3c0-.69.56-1.25 1.25-1.25h7.25V9c0 .414.336.75.75.75h4.25V18c0 .69-.56 1.25-1.25 1.25H6c-.69 0-1.25-.56-1.25-1.25V6Zm13.336 2.25H14.75V4.914c.16.062.331.142.51.242.493.273 1 .666 1.46 1.124a6.79 6.79 0 0 1 1.124 1.46c.1.179.18.35.242.51Z"/></svg>