<svg viewBox="0 0 24 24" xmlns="http://www.w3.org/2000/svg"><path fill-rule="evenodd" clip-rule="evenodd" d="M6 4.75c-.69 0-1.25.56-1.25 1.25v12c0 .69.56 1.25 1.25 1.25h2a.75.75 0 0 1 0 1.5H6A2.75 2.75 0 0 1 3.25 18V6A2.75 2.75 0 0 1 6 3.25h8c.675 0 1.366.248 1.99.594a8.28 8.28 0 0 1 1.79 1.376 8.278 8.278 0 0 1 1.376 1.79c.346.624.594 1.315.594 1.99a.75.75 0 0 1-.75.75h-5a.75.75 0 0 1-.75-.75V4.75H6Zm8.75.164V8.25h3.336a4.116 4.116 0 0 0-.242-.51 6.79 6.79 0 0 0-1.124-1.46 6.789 6.789 0 0 0-1.46-1.124c-.179-.1-.35-.18-.51-.242Z"/><path fill-rule="evenodd" clip-rule="evenodd" d="M15 11.25a.75.75 0 0 1 .676.424l1.187 2.463 2.463 1.187a.75.75 0 0 1 0 1.352l-2.463 1.187-1.187 2.463a.75.75 0 0 1-1.352 0l-1.187-2.463-2.463-1.187a.75.75 0 0 1 0-1.352l2.463-1.187 1.187-2.463A.75.75 0 0 1 15 11.25Zm0 2.477-.626 1.298a.75.75 0 0 1-.35.35L12.728 16l1.298.625a.75.75 0 0 1 .35.35L15 18.273l.626-1.298a.75.75 0 0 1 .35-.35L17.272 16l-1.298-.626a.75.75 0 0 1-.35-.35L15 13.728Z"/></svg>