<svg xmlns="http://www.w3.org/2000/svg" viewBox="0 0 24 24"><path fill-rule="evenodd" d="M7 3.75A3.25 3.25 0 0 0 3.75 7v10c0 .642.186 1.241.508 1.745.112-1.826 1.423-3.278 3.188-4a3.75 3.75 0 1 1 5.108 0C14.4 15.5 15.75 17.056 15.75 19v1.25H17A3.25 3.25 0 0 0 20.25 17v-1a.75.75 0 0 1 1.5 0v1A4.75 4.75 0 0 1 17 21.75H7A4.75 4.75 0 0 1 2.25 17V7A4.75 4.75 0 0 1 7 2.25h5a.75.75 0 0 1 0 1.5zM5.75 19c0-1.647 1.738-3.25 4.25-3.25s4.25 1.603 4.25 3.25v1.25H7A3.2 3.2 0 0 1 5.75 20zm6.5-7a2.25 2.25 0 1 1-4.5 0 2.25 2.25 0 0 1 4.5 0" clip-rule="evenodd"/><path d="M19 13a1 1 0 1 0 0-2 1 1 0 0 0 0 2m-1.81-7.231c.302-.714.691-1.112 1.055-1.316a1.55 1.55 0 0 1 1.118-.163 1.795 1.795 0 0 1 1.387 1.745c0 .403-.183.75-.544 1.071-.371.332-.894.597-1.45.787l-.506.174V10h1.5v-.882c.509-.217 1.024-.508 1.455-.892.586-.522 1.045-1.25 1.045-2.19a3.295 3.295 0 0 0-2.554-3.208 3.05 3.05 0 0 0-2.186.317c-.706.397-1.296 1.08-1.701 2.04l1.382.584Z"/></svg>