<svg xmlns="http://www.w3.org/2000/svg" viewBox="0 0 24 24">
  <path d="M13.308 17.7H11.77v-5.813h-.043l-1.665 1.043v-1.363l1.8-1.14h1.446V17.7Z"/>
  <path fill-rule="evenodd" d="M16.8 3.45c.547 0 1.004-.001 1.375.03.38.03.736.098 1.073.27.517.263.938.684 1.202 1.202.172.337.24.693.27 1.073.031.371.03.827.03 1.375V17c0 .547.001 1.004-.03 1.375-.03.38-.098.736-.27 1.073a2.753 2.753 0 0 1-1.202 1.202c-.337.172-.694.24-1.073.27-.371.031-.828.03-1.375.03H7.2c-.547 0-1.004.001-1.375-.03-.38-.03-.736-.098-1.073-.27a2.752 2.752 0 0 1-1.202-1.202c-.172-.337-.24-.694-.27-1.073-.031-.371-.03-.828-.03-1.375V7.4c0-.548-.001-1.004.03-1.375.03-.38.098-.736.27-1.073A2.752 2.752 0 0 1 4.752 3.75c.337-.172.693-.24 1.073-.27.371-.031.828-.03 1.375-.03h9.6ZM4.75 8.95V17c0 .572 0 .957.024 1.253.024.287.067.424.113.514.12.236.31.426.546.546.09.046.227.09.514.113.296.024.68.024 1.253.024h9.6c.572 0 .957 0 1.253-.024.287-.024.424-.067.514-.113.235-.12.427-.31.546-.546.046-.09.09-.227.113-.514.024-.296.024-.68.024-1.253V8.95H4.75Zm2.45-4c-.572 0-.957 0-1.253.024-.287.024-.424.067-.514.113a1.25 1.25 0 0 0-.546.546c-.046.09-.09.227-.113.514-.024.296-.024.68-.024 1.253v.05h14.5V7.4c0-.572 0-.957-.024-1.253-.024-.287-.067-.424-.113-.514a1.25 1.25 0 0 0-.546-.546c-.09-.046-.227-.09-.514-.113-.296-.024-.68-.024-1.253-.024H7.2Z" clip-rule="evenodd"/>
</svg>
