<svg xmlns="http://www.w3.org/2000/svg" viewBox="0 0 24 24"><path d="M7.692 13.424a.75.75 0 1 0-1.136.98C7.8 15.847 9.793 16.75 12 16.75s4.2-.903 5.444-2.346a.75.75 0 1 0-1.136-.98C15.374 14.508 13.81 15.25 12 15.25s-3.374-.742-4.308-1.826M18 10a1 1 0 1 1-2 0 1 1 0 0 1 2 0M7 11a1 1 0 1 0 0-2 1 1 0 0 0 0 2"/><path fill-rule="evenodd" d="M12 2.25c-5.385 0-9.75 4.365-9.75 9.75s4.365 9.75 9.75 9.75 9.75-4.365 9.75-9.75S17.385 2.25 12 2.25M3.75 12a8.25 8.25 0 1 1 16.5 0 8.25 8.25 0 0 1-16.5 0" clip-rule="evenodd"/></svg>