<svg xmlns="http://www.w3.org/2000/svg" viewBox="0 0 24 24"><path d="M10.757 6.454a.5.5 0 0 0-.757.43v4.233a.5.5 0 0 0 .757.429l3.528-2.117a.5.5 0 0 0 0-.858l-3.528-2.117Z"/><path fill-rule="evenodd" d="M2.25 5c0-.966.784-1.75 1.75-1.75h16c.966 0 1.75.784 1.75 1.75v14A1.75 1.75 0 0 1 20 20.75H4A1.75 1.75 0 0 1 2.25 19V5Zm18 0v8.25H3.75V5A.25.25 0 0 1 4 4.75h16a.25.25 0 0 1 .25.25Zm0 9.75h-4.5v4.5H20a.25.25 0 0 0 .25-.25v-4.25Zm-10.5 0h4.5v4.5h-4.5v-4.5Zm-6 0h4.5v4.5H4a.25.25 0 0 1-.25-.25v-4.25Z" clip-rule="evenodd"/></svg>