<svg xmlns="http://www.w3.org/2000/svg" viewBox="0 0 24 24">
  <path d="M11.571 8.712a.5.5 0 0 1 .858 0l.778 1.294c.07.116.184.199.316.23l1.472.34a.5.5 0 0 1 .265.816l-.99 1.14a.501.501 0 0 0-.122.371l.131 1.505a.5.5 0 0 1-.693.504l-1.39-.59a.501.501 0 0 0-.391 0l-1.39.59a.5.5 0 0 1-.694-.504l.13-1.505a.5.5 0 0 0-.12-.37l-.99-1.141a.5.5 0 0 1 .264-.816l1.472-.34a.502.502 0 0 0 .316-.23l.778-1.294Z"/>
  <path fill-rule="evenodd" d="M19 3.25A2.75 2.75 0 0 1 21.75 6v12A2.75 2.75 0 0 1 19 20.75H5A2.75 2.75 0 0 1 2.25 18V6A2.75 2.75 0 0 1 5 3.25h14ZM5 4.75c-.69 0-1.25.56-1.25 1.25v12c0 .69.56 1.25 1.25 1.25h14c.69 0 1.25-.56 1.25-1.25V6c0-.69-.56-1.25-1.25-1.25H5Z" clip-rule="evenodd"/>
</svg>
