<svg xmlns="http://www.w3.org/2000/svg" viewBox="0 0 24 24"><path fill-rule="evenodd" d="M12.643 7.613a.75.75 0 0 0-1.286 0L10.205 9.53l-2.178.504a.75.75 0 0 0-.398 1.223l1.466 1.688-.193 2.227a.75.75 0 0 0 1.04.756L12 15.055l2.059.872a.75.75 0 0 0 1.04-.756l-.194-2.227 1.466-1.688a.75.75 0 0 0-.398-1.223l-2.178-.504zm-1.317 2.962L12 9.454l.674 1.12a.75.75 0 0 0 .473.344l1.274.294-.857.988a.75.75 0 0 0-.18.556l.112 1.302-1.204-.51a.75.75 0 0 0-.585 0l-1.203.51.113-1.302a.75.75 0 0 0-.181-.556l-.857-.988 1.274-.294a.75.75 0 0 0 .473-.345Z" clip-rule="evenodd"/><path fill-rule="evenodd" d="M4.25 5A2.75 2.75 0 0 1 7 2.25h10A2.75 2.75 0 0 1 19.75 5v14A2.75 2.75 0 0 1 17 21.75H7A2.75 2.75 0 0 1 4.25 19zM7 3.75c-.69 0-1.25.56-1.25 1.25v14c0 .69.56 1.25 1.25 1.25h10c.69 0 1.25-.56 1.25-1.25V5c0-.69-.56-1.25-1.25-1.25z" clip-rule="evenodd"/><path d="M2.75 8a.75.75 0 0 0-1.5 0v8a.75.75 0 0 0 1.5 0zm20 0a.75.75 0 0 0-1.5 0v8a.75.75 0 0 0 1.5 0z"/></svg>