<svg xmlns="http://www.w3.org/2000/svg" viewBox="0 0 24 24"><path d="M3.25 18v-1a.75.75 0 0 1 1.5 0v1c0 .69.56 1.25 1.25 1.25h1a.75.75 0 0 1 0 1.5H6A2.75 2.75 0 0 1 3.25 18m16 0v-1a.75.75 0 0 1 1.5 0v1A2.75 2.75 0 0 1 18 20.75h-1a.75.75 0 0 1 0-1.5h1c.69 0 1.25-.56 1.25-1.25m-3-9c0-.69-.56-1.25-1.25-1.25H9c-.69 0-1.25.56-1.25 1.25v6c0 .69.56 1.25 1.25 1.25h6c.69 0 1.25-.56 1.25-1.25zm-13-2V6A2.75 2.75 0 0 1 6 3.25h1a.75.75 0 0 1 0 1.5H6c-.69 0-1.25.56-1.25 1.25v1a.75.75 0 0 1-1.5 0m16 0V6c0-.69-.56-1.25-1.25-1.25h-1a.75.75 0 0 1 0-1.5h1A2.75 2.75 0 0 1 20.75 6v1a.75.75 0 0 1-1.5 0m-1.5 8A2.75 2.75 0 0 1 15 17.75H9A2.75 2.75 0 0 1 6.25 15V9A2.75 2.75 0 0 1 9 6.25h6A2.75 2.75 0 0 1 17.75 9z"/></svg>