<svg xmlns="http://www.w3.org/2000/svg" viewBox="0 0 24 24"><path d="M15.5 10a1.5 1.5 0 1 0 0-3 1.5 1.5 0 0 0 0 3"/><path fill-rule="evenodd" d="M3.25 7A3.75 3.75 0 0 1 7 3.25h10A3.75 3.75 0 0 1 20.75 7v10A3.75 3.75 0 0 1 17 20.75H7A3.75 3.75 0 0 1 3.25 17zM7 4.75A2.25 2.25 0 0 0 4.75 7v3.957c1.947-.587 3.42-.617 4.632-.263 1.402.41 2.334 1.305 3.138 2.078.759.73 1.536 1.474 2.552 1.823.924.318 2.201.398 4.178-.154V7A2.25 2.25 0 0 0 17 4.75zM4.75 17v-4.469c2.006-.672 3.292-.666 4.212-.397 1.045.305 1.833 1.06 2.598 1.795.777.75 1.686 1.624 3.024 2.085 1.212.417 2.694.473 4.666-.021V17A2.25 2.25 0 0 1 17 19.25H7A2.25 2.25 0 0 1 4.75 17" clip-rule="evenodd"/></svg>