<svg viewBox="0 0 24 24" xmlns="http://www.w3.org/2000/svg"><path fill-rule="evenodd" clip-rule="evenodd" d="M2.25 6A3.75 3.75 0 0 1 6 2.25h12A3.75 3.75 0 0 1 21.75 6v12A3.75 3.75 0 0 1 18 21.75H6A3.75 3.75 0 0 1 2.25 18V6Z" fill="#1DA1F2"/><path d="M9.773 17c4.573 0 7.155-3.958 6.999-7.509.482-.355.899-.8 1.228-1.308a4.84 4.84 0 0 1-1.413.398 2.524 2.524 0 0 0 1.082-1.396c-.475.289-1.003.5-1.563.612A2.433 2.433 0 0 0 14.309 7c-1.59 0-2.759 1.521-2.4 3.1-2.046-.106-3.86-1.11-5.074-2.638-.645 1.135-.334 2.62.762 3.37a2.41 2.41 0 0 1-1.115-.315c-.027 1.17.79 2.263 1.975 2.507a2.411 2.411 0 0 1-1.113.043c.315 1.003 1.224 1.733 2.3 1.753A4.867 4.867 0 0 1 6 15.866 6.843 6.843 0 0 0 9.773 17Z" fill="#fff"/></svg>