<svg xmlns="http://www.w3.org/2000/svg" viewBox="0 0 24 24"><path fill="#fff" d="M5 5h14v14H5z"/><path fill="#2583FE" fill-rule="evenodd" d="M18.76 3H5.251A2.25 2.25 0 0 0 3 5.25v13.5A2.25 2.25 0 0 0 5.251 21H18.76A2.25 2.25 0 0 0 21 18.75V5.25A2.25 2.25 0 0 0 18.76 3M6.75 5.25h3a1.5 1.5 0 0 1 1.5 1.5v10.5a1.5 1.5 0 0 1-1.5 1.5h-3a1.5 1.5 0 0 1-1.5-1.5V6.75a1.5 1.5 0 0 1 1.5-1.5m10.5 0h-3a1.5 1.5 0 0 0-1.5 1.5V12a1.5 1.5 0 0 0 1.5 1.5h3a1.5 1.5 0 0 0 1.5-1.5V6.75a1.5 1.5 0 0 0-1.5-1.5" clip-rule="evenodd"/></svg>