<svg xmlns="http://www.w3.org/2000/svg" viewBox="0 0 24 24"><path fill-rule="evenodd" d="M20.75 9A1.75 1.75 0 0 1 19 10.75h-3.268c.012.082.018.165.018.25v3A1.75 1.75 0 0 1 14 15.75h-2.268c.012.082.018.165.018.25v3A1.75 1.75 0 0 1 10 20.75H6A2.75 2.75 0 0 1 3.25 18V7A2.75 2.75 0 0 1 6 4.25h13c.966 0 1.75.784 1.75 1.75v3Zm-16 .25H19a.25.25 0 0 0 .25-.25V6a.25.25 0 0 0-.25-.25H6c-.69 0-1.25.56-1.25 1.25v2.25Zm0 1.5v3.5H14a.25.25 0 0 0 .25-.25v-3a.25.25 0 0 0-.25-.25H4.75Zm5.25 5a.25.25 0 0 1 .25.25v3a.25.25 0 0 1-.25.25H6c-.69 0-1.25-.56-1.25-1.25v-2.25H10Z" clip-rule="evenodd"/></svg>