<svg xmlns="http://www.w3.org/2000/svg" viewBox="0 0 24 24"><path d="m10.558 13.487-1.81-4.734a11 11 0 0 1-.392-1.224q-.093.365-.195.68-.094.315-.187.56l-1.802 4.718zm3.579 4.548h-1.395a.62.62 0 0 1-.39-.12.67.67 0 0 1-.222-.305l-1.079-2.83h-5.38l-1.08 2.83a.7.7 0 0 1-.221.297.6.6 0 0 1-.391.128H2.585L7.447 5.829h1.827zm5.654-3.834q-1.01.034-1.717.162-.706.119-1.147.323t-.638.484q-.195.271-.195.612 0 .322.102.561.11.229.289.383.187.144.433.212.247.068.536.068a2.95 2.95 0 0 0 1.3-.289q.28-.144.536-.348.255-.204.501-.468zm-4.862-3.595a5 5 0 0 1 1.564-1.029 5 5 0 0 1 1.862-.34q.74 0 1.309.247.57.237.96.671.392.434.587 1.037.204.603.204 1.335v5.508h-.74q-.246 0-.374-.077-.127-.085-.204-.306l-.178-.756q-.332.306-.655.544a4.6 4.6 0 0 1-.68.4 3.6 3.6 0 0 1-.748.246 4.3 4.3 0 0 1-.884.085q-.51 0-.96-.136a2.2 2.2 0 0 1-.774-.434 2.1 2.1 0 0 1-.527-.722 2.5 2.5 0 0 1-.187-1.012q0-.51.272-.977.281-.477.901-.85.63-.375 1.632-.612 1.012-.24 2.482-.272v-.63q0-.976-.416-1.461-.417-.485-1.224-.485-.544 0-.918.136a3.5 3.5 0 0 0-.638.306q-.263.162-.467.298a.7.7 0 0 1-.408.136.5.5 0 0 1-.298-.094.8.8 0 0 1-.195-.22z"/></svg>