<svg xmlns="http://www.w3.org/2000/svg" viewBox="0 0 24 24">
  <path d="m10.558 13.487-1.81-4.734a10.73 10.73 0 0 1-.392-1.224c-.062.243-.127.47-.195.68-.062.21-.125.396-.187.56l-1.802 4.718h4.386Zm3.579 4.548h-1.395a.618.618 0 0 1-.39-.12.668.668 0 0 1-.222-.305l-1.079-2.83h-5.38l-1.08 2.83a.717.717 0 0 1-.221.297.612.612 0 0 1-.391.128H2.585L7.447 5.829h1.827l4.863 12.206Zm5.654-3.834c-.674.023-1.246.077-1.717.162-.47.079-.853.187-1.147.323-.295.136-.507.297-.638.484-.13.181-.195.385-.195.612 0 .215.034.402.102.561.073.153.17.28.289.383.125.096.269.167.433.212.165.045.343.068.536.068a2.95 2.95 0 0 0 1.3-.289c.187-.096.366-.212.536-.348.17-.136.337-.292.501-.468v-1.7Zm-4.862-3.595a4.954 4.954 0 0 1 1.564-1.029 4.967 4.967 0 0 1 1.862-.34c.493 0 .93.082 1.309.247.38.158.7.382.96.671.261.29.457.635.587 1.037.136.402.204.847.204 1.335v5.508h-.74c-.164 0-.289-.026-.374-.077-.085-.057-.153-.159-.204-.306l-.178-.756c-.221.204-.44.385-.655.544a4.548 4.548 0 0 1-.68.4 3.547 3.547 0 0 1-.748.246 4.254 4.254 0 0 1-.884.085c-.34 0-.66-.046-.96-.136a2.204 2.204 0 0 1-.774-.434 2.074 2.074 0 0 1-.527-.722 2.536 2.536 0 0 1-.187-1.012c0-.34.091-.666.272-.977.187-.318.488-.601.901-.85.42-.25.964-.454 1.632-.612.675-.16 1.502-.25 2.482-.272v-.63c0-.651-.139-1.138-.416-1.461-.278-.323-.686-.485-1.224-.485-.363 0-.669.045-.918.136a3.51 3.51 0 0 0-.638.306c-.175.108-.331.207-.467.298a.704.704 0 0 1-.408.136.49.49 0 0 1-.298-.094.806.806 0 0 1-.195-.22l-.298-.536Z"/>
</svg>
