<svg xmlns="http://www.w3.org/2000/svg" viewBox="0 0 24 24"><path fill-rule="evenodd" d="M12.426 3.383a.75.75 0 0 0-.852 0l-7 4.833a.75.75 0 0 0 0 1.235l7 4.833a.75.75 0 0 0 .852 0l7-4.833a.75.75 0 0 0 0-1.235zM12 12.755 6.32 8.833 12 4.911l5.68 3.922z" clip-rule="evenodd"/><path d="M17 13.25a.75.75 0 0 1 .75.75v2.25H20a.75.75 0 0 1 0 1.5h-2.25V20a.75.75 0 0 1-1.5 0v-2.25H14a.75.75 0 0 1 0-1.5h2.25V14a.75.75 0 0 1 .75-.75M4.393 14.559a.75.75 0 0 1 1.048-.166l5.5 4a.75.75 0 0 1-.882 1.214l-5.5-4a.75.75 0 0 1-.166-1.048"/></svg>