<svg viewBox="0 0 24 24" xmlns="http://www.w3.org/2000/svg"><path d="M15.75 3.656a3.816 3.816 0 0 1 1.925.516 3.84 3.84 0 0 1 1.408 1.419.75.75 0 1 0 1.303-.743 5.34 5.34 0 0 0-1.958-1.974 5.316 5.316 0 0 0-2.683-.718.75.75 0 0 0 .005 1.5Z"/><path fill-rule="evenodd" clip-rule="evenodd" d="m13.702 6.07-1.52-2.64a2.516 2.516 0 0 0-4.25-.012 2.519 2.519 0 0 0-4.076 1.207c-.178.619-.122 1.339.202 1.903l.266.462a2.53 2.53 0 0 0-2.238 2.846c.043.329.15.647.316.935l3.72 6.477a7.843 7.843 0 0 0 4.76 3.667 7.81 7.81 0 0 0 5.95-.786 7.865 7.865 0 0 0 3.652-4.777 7.896 7.896 0 0 0-.782-5.97l-1.771-3.086a2.518 2.518 0 0 0-4.229-.226Zm-3.407-2.284a1.015 1.015 0 0 0-.753.108 1.036 1.036 0 0 0-.413 1.333l2.307 4.014a.75.75 0 1 1-1.3.747C9.135 8.246 8.132 6.506 7.133 4.764a1.015 1.015 0 0 0-1.364-.327 1.036 1.036 0 0 0-.4 1.358l3.356 5.839a.75.75 0 1 1-1.3.747l-1.949-3.39a1.018 1.018 0 0 0-1.397-.379 1.03 1.03 0 0 0-.505 1.03c.017.134.06.264.128.382L7.423 16.5a6.344 6.344 0 0 0 3.849 2.967 6.313 6.313 0 0 0 4.808-.635 6.364 6.364 0 0 0 2.955-3.867 6.395 6.395 0 0 0-.633-4.835L16.63 7.043a1.018 1.018 0 0 0-1.397-.378 1.038 1.038 0 0 0-.376 1.41l.886 1.55a.75.75 0 0 1-.276 1.021 2.789 2.789 0 0 0-1.301 1.703 2.814 2.814 0 0 0 .282 2.13.75.75 0 1 1-1.299.75 4.31 4.31 0 0 1 .954-5.45L10.907 4.22a1.022 1.022 0 0 0-.612-.435Z"/><path d="M4.036 17.646a.75.75 0 0 1 1.023.28 9.048 9.048 0 0 0 2.708 2.957.75.75 0 0 1-.854 1.233 10.548 10.548 0 0 1-3.157-3.447.75.75 0 0 1 .28-1.023Z"/></svg>