<svg xmlns="http://www.w3.org/2000/svg" viewBox="0 0 24 24"><path d="M18.386 3.804a1.75 1.75 0 0 1 2.364 1.639v11.864a1.75 1.75 0 0 1-1.136 1.639l-7.35 2.756-.527-1.404 7.35-2.757a.25.25 0 0 0 .163-.234V5.443a.25.25 0 0 0-.338-.234L12.615 7.57a1.75 1.75 0 0 1-1.23 0L5.089 5.209a.25.25 0 0 0-.338.234V9h-1.5V5.443a1.75 1.75 0 0 1 2.364-1.639l6.298 2.362a.25.25 0 0 0 .176 0l6.298-2.362Z"/><path d="m18 8-6 2.25v1.602l6-2.25zm-4 4.5 4-1.5v1.602l-4 1.5zm4 1.5-2 .75v1.602l2-.75z"/><path fill-rule="evenodd" d="M8.676 11.674a.75.75 0 0 0-1.352 0l-1.187 2.463-2.463 1.187a.75.75 0 0 0 0 1.352l2.463 1.187 1.187 2.463a.75.75 0 0 0 1.352 0l1.187-2.463 2.463-1.187a.75.75 0 0 0 0-1.352l-2.463-1.187zm-1.301 3.35L8 13.728l.625 1.298a.75.75 0 0 0 .35.35l1.298.625-1.298.625a.75.75 0 0 0-.35.35L8 18.273l-.625-1.298a.75.75 0 0 0-.35-.35L5.727 16l1.298-.626a.75.75 0 0 0 .35-.35" clip-rule="evenodd"/></svg>