<svg xmlns="http://www.w3.org/2000/svg" viewBox="0 0 24 24"><path d="M12 10.25 18 8v1.602l-6 2.25V10.25Zm6 .75-6 2.25v1.602l6-2.25V11Zm-6 5.25L18 14v1.602l-6 2.25V16.25Z"/><path fill-rule="evenodd" d="M20.75 5.443a1.75 1.75 0 0 0-2.364-1.639l-6.298 2.362a.25.25 0 0 1-.176 0L5.614 3.804A1.75 1.75 0 0 0 3.25 5.443v11.864c0 .73.453 1.382 1.136 1.639l7 2.625a1.75 1.75 0 0 0 1.229 0l7-2.625a1.75 1.75 0 0 0 1.135-1.639V5.443Zm-1.838-.234a.25.25 0 0 1 .338.234v11.864a.25.25 0 0 1-.162.234l-7 2.625a.25.25 0 0 1-.176 0l-7-2.625a.25.25 0 0 1-.162-.234V5.443a.25.25 0 0 1 .338-.234l6.298 2.362a1.75 1.75 0 0 0 1.229 0l6.297-2.362Z" clip-rule="evenodd"/></svg>