<svg xmlns="http://www.w3.org/2000/svg" fill="none" viewBox="0 0 24 24"><rect width="22" height="22" x="1" y="1" fill="#7BB32E" rx="6"/><path fill="#fff" fill-rule="evenodd" d="M17.543 16.653C18.432 15.97 19 14.96 19 13.837c0-2.056-1.888-3.725-4.217-3.725s-4.217 1.669-4.217 3.725c0 2.058 1.888 3.725 4.217 3.725.481 0 .946-.072 1.377-.203l.124-.02a.43.43 0 0 1 .224.068l.923.565.081.028c.078 0 .14-.067.14-.148l-.022-.11-.19-.751-.015-.096c0-.1.047-.188.118-.242M10.06 6C7.266 6 5 8.001 5 10.47c0 1.347.682 2.56 1.748 3.379a.36.36 0 0 1 .142.291l-.018.114-.228.902-.027.13c0 .099.076.18.169.18l.097-.035 1.108-.677a.5.5 0 0 1 .269-.083l.149.024a5.7 5.7 0 0 0 1.651.245l.278-.007a3.6 3.6 0 0 1-.17-1.096c0-2.25 2.066-4.076 4.615-4.076l.275.008C14.677 7.633 12.585 6 10.06 6m3.317 7.241c-.31 0-.562-.267-.562-.595 0-.33.252-.596.562-.596s.563.266.563.596c0 .328-.252.595-.563.595m2.812 0c-.311 0-.562-.267-.562-.595 0-.33.251-.596.562-.596.31 0 .562.266.562.596 0 .328-.252.595-.562.595M8.374 9.755c-.373 0-.675-.32-.675-.716 0-.394.302-.714.675-.714.372 0 .674.32.674.714 0 .396-.302.716-.674.716m3.373 0c-.373 0-.675-.32-.675-.716 0-.394.302-.714.675-.714s.675.32.675.714c0 .396-.302.716-.675.716" clip-rule="evenodd"/></svg>