<svg xmlns="http://www.w3.org/2000/svg" fill="none" viewBox="0 0 24 24">
  <path fill="#005CB9" fill-rule="evenodd" d="M4.913 11.796h1.362c.193 0 .36.13.405.315l1.83 7.439c.025 0 2.018-7.433 2.018-7.433a.438.438 0 0 1 .425-.32h2.11c.19 0 .355.124.403.304l2.007 7.48c.074-.046 1.846-7.47 1.846-7.47a.415.415 0 0 1 .405-.315h1.361a.41.41 0 0 1 .404.512l-2.497 9.377a.414.414 0 0 1-.399.305l-2.06-.003a.414.414 0 0 1-.402-.303c-.352-1.3-2.088-7.872-2.088-7.872s-1.823 6.572-2.175 7.872a.415.415 0 0 1-.403.303l-2.06.003a.415.415 0 0 1-.398-.305L4.51 12.307a.41.41 0 0 1 .403-.51Z" clip-rule="evenodd"/>
  <path fill="#F38B00" fill-rule="evenodd" d="M18.513 9.044a.977.977 0 0 0 .266-.038c.527-.149.835-.704.688-1.24a7.766 7.766 0 0 0-.067-.231C18.382 4.23 15.407 2.01 11.998 2.01c-3.405 0-6.378 2.216-7.4 5.516a7.474 7.474 0 0 0-.064.22c-.15.535.156 1.091.682 1.243a.988.988 0 0 0 1.223-.694l.048-.165c.76-2.457 2.975-4.107 5.51-4.107 2.54 0 4.755 1.653 5.513 4.113l.05.171c.122.445.52.737.953.737Z" clip-rule="evenodd"/>
</svg>
