<svg xmlns="http://www.w3.org/2000/svg" fill="none" viewBox="0 0 24 24"><path fill="#00544C" d="M14.618 12.485c.655-1.143.99-2.16.976-2.944-.015-.965-.403-1.683-.976-2.159-1.723-1.43-5.116-.667-5.07 2.203.017 1.084.55 2.486 1.934 4.176 0 0 .771-.682.941-1.294-3.676-4.935 4.05-5.203.206.268 0 0-.444.713-1.01 1.192-1.198 1.117-2.283 1.47-3.23 1.316-3.286-.532-3.81-5.376-4.054-8.255H1.922l-.002.095v.539c.126 5.714 4.22 13.664 10.763 7.41.648-.64 1.017-1.151 1.017-1.151.355-.48.66-.948.918-1.396m5.608-2.716a2 2 0 0 0-.048.232c-.441 3.356-2.409 6.191-5.377 4.63q-.088.12-.184.234a6 6 0 0 1-.95.89.1.1 0 0 0-.026-.011q.49.302.976.487c3.664 1.4 7.008-2.06 7.33-6.385z"/></svg>