<svg xmlns="http://www.w3.org/2000/svg" fill="none" viewBox="0 0 24 24">
  <g filter="url(#zive__a)">
    <path fill="url(#zive__b)" d="M3.075 14.03a3.158 3.158 0 0 1 0-4.467l6.699-6.698a3.158 3.158 0 0 1 4.466 0l6.699 6.698a3.158 3.158 0 0 1 0 4.466l-6.7 6.7a3.158 3.158 0 0 1-4.465 0l-6.699-6.7Z"/>
  </g>
  <g filter="url(#zive__c)">
    <path fill="#100A4F" d="M4.39 13.298a2.105 2.105 0 0 1 0-2.978l6.141-6.14a2.105 2.105 0 0 1 2.977 0l6.14 6.14a2.105 2.105 0 0 1 0 2.978l-6.14 6.14a2.105 2.105 0 0 1-2.977 0l-6.14-6.14Z"/>
  </g>
  <path fill="#fff" d="M7.04 13.165v-.596l1.465-1.662H7.057v-.614H9.35v.597l-1.488 1.66H9.38v.614H7.04Zm3.066-3.318a.479.479 0 0 1-.336-.121.406.406 0 0 1-.127-.307c0-.123.042-.224.127-.301a.479.479 0 0 1 .336-.122c.135 0 .245.04.33.122a.38.38 0 0 1 .133.301.398.398 0 0 1-.133.307.458.458 0 0 1-.33.121Zm-.37 3.318v-2.872h.74v2.872h-.74Zm2 0-1.054-2.872h.776l.73 2.171.73-2.17h.775l-1.06 2.87h-.897Zm3.389.069c-.29 0-.546-.061-.77-.185a1.341 1.341 0 0 1-.527-.521 1.54 1.54 0 0 1-.191-.776c0-.297.062-.561.185-.793a1.37 1.37 0 0 1 .521-.538 1.52 1.52 0 0 1 .787-.197c.282 0 .531.062.747.185.216.124.384.293.504.51a1.39 1.39 0 0 1 .18.845c0 .046-.002.094-.006.145h-2.183a.75.75 0 0 0 .232.526.747.747 0 0 0 .515.191.67.67 0 0 0 .376-.098.64.64 0 0 0 .232-.266h.753a1.372 1.372 0 0 1-.273.498 1.308 1.308 0 0 1-.463.347 1.445 1.445 0 0 1-.62.127Zm.005-2.408a.78.78 0 0 0-.48.156c-.139.1-.228.255-.266.463h1.43a.625.625 0 0 0-.209-.451.694.694 0 0 0-.475-.168Zm2.088 2.379a.467.467 0 0 1-.335-.127.418.418 0 0 1-.128-.307c0-.123.043-.228.128-.313a.467.467 0 0 1 .335-.127c.136 0 .246.043.33.128a.41.41 0 0 1 .134.312.41.41 0 0 1-.133.307.447.447 0 0 1-.33.127Z"/>
  <defs>
    <filter id="zive__a" width="23.924" height="23.924" x=".045" y=".045" color-interpolation-filters="sRGB" filterUnits="userSpaceOnUse">
      <feFlood flood-opacity="0" result="BackgroundImageFix"/>
      <feColorMatrix in="SourceAlpha" result="hardAlpha" values="0 0 0 0 0 0 0 0 0 0 0 0 0 0 0 0 0 0 127 0"/>
      <feOffset dy=".211"/>
      <feGaussianBlur stdDeviation="1.053"/>
      <feComposite in2="hardAlpha" operator="out"/>
      <feColorMatrix values="0 0 0 0 0 0 0 0 0 0 0 0 0 0 0 0 0 0 0.25 0"/>
      <feBlend in2="BackgroundImageFix" result="effect1_dropShadow_3123_4410"/>
      <feBlend in="SourceGraphic" in2="effect1_dropShadow_3123_4410" result="shape"/>
    </filter>
    <filter id="zive__c" width="18.597" height="18.597" x="2.721" y="2.721" color-interpolation-filters="sRGB" filterUnits="userSpaceOnUse">
      <feFlood flood-opacity="0" result="BackgroundImageFix"/>
      <feColorMatrix in="SourceAlpha" result="hardAlpha" values="0 0 0 0 0 0 0 0 0 0 0 0 0 0 0 0 0 0 127 0"/>
      <feOffset dy=".211"/>
      <feGaussianBlur stdDeviation=".526"/>
      <feComposite in2="hardAlpha" operator="out"/>
      <feColorMatrix values="0 0 0 0 0 0 0 0 0 0 0 0 0 0 0 0 0 0 0.5 0"/>
      <feBlend in2="BackgroundImageFix" result="effect1_dropShadow_3123_4410"/>
      <feBlend in="SourceGraphic" in2="effect1_dropShadow_3123_4410" result="shape"/>
    </filter>
    <linearGradient id="zive__b" x1="1.849" x2="22.165" y1="11.796" y2="11.796" gradientUnits="userSpaceOnUse">
      <stop stop-color="#968DF0"/>
      <stop offset="1" stop-color="#73EEDC"/>
    </linearGradient>
  </defs>
</svg>
